  <svg xmlns="http://www.w3.org/2000/svg" width="104" height="104" viewBox="0 0 104 104" fill="none">
                        <path
                            d="M7.12988 0.325191C3.67676 1.25957 0.954883 4.06269 0.223633 7.47519C-0.0810547 8.958 -0.0810547 34.0846 0.223633 35.5877C0.873633 38.6955 3.27051 41.4174 6.35801 42.5955C6.96738 42.8393 8.24707 42.9611 10.9689 43.0424L14.7268 43.1643L18.383 48.0393L22.0393 52.9143L22.8924 52.9752L23.7455 53.0361L27.4627 48.0596L31.1799 43.083L63.4768 43.0627C84.4799 43.0627 96.0783 42.9814 96.6674 42.8393C100.141 42.0471 103.147 38.8986 103.797 35.3643C104.081 33.8814 104.061 9.14082 103.797 7.69863C103.31 5.09863 101.4 2.43769 99.1658 1.25957C96.6471 -0.0810585 99.1252 0.000190735 60.7346 0.000190735C25.9393 0.000190735 25.8783 0.000190735 25.4314 0.406441C24.9033 0.893944 24.8424 1.95019 25.2689 2.55957C25.5533 2.9455 26.2236 2.9455 60.8768 3.04707L96.1799 3.14863L97.3377 3.71738C98.6377 4.34707 99.7752 5.52519 100.425 6.90644C100.852 7.82051 100.852 7.96269 100.852 21.5314V35.2424L100.283 36.4002C99.5924 37.8221 98.2315 39.0611 96.769 39.6096C95.6721 40.0158 95.3471 40.0158 62.8674 40.0158H30.1033L29.5143 40.5033C29.2096 40.7674 27.6252 42.7783 26.0002 44.9721C24.3752 47.1455 23.0143 48.933 22.9533 48.9533C22.8924 48.9533 21.4502 47.1049 19.7643 44.8299C18.058 42.5549 16.5346 40.5643 16.3314 40.4018C16.0674 40.1783 15.0111 40.0971 11.8018 40.0158C7.75957 39.9143 7.57676 39.8939 6.60176 39.3658C5.28145 38.6752 4.02207 37.3143 3.53457 36.0346C3.16895 35.1002 3.14863 34.3283 3.14863 21.4299V7.82051L3.71738 6.66269C4.36738 5.34238 5.5252 4.20488 6.88613 3.57519C7.75957 3.18925 8.24707 3.14863 13.6705 3.04707C19.1752 2.9455 19.5611 2.92519 19.8252 2.55957C20.2924 1.88926 20.1908 0.893944 19.5814 0.426754C19.0533 0.020504 18.8096 0.000190735 13.6299 0.020504C9.5877 0.020504 7.94238 0.101753 7.12988 0.325191Z"
                            fill="#B0B0B0" />
                        <path
                            d="M21.5923 10.4406C21.247 10.7453 20.5158 11.9844 19.7439 13.65L18.4642 16.3922L15.3767 16.8391C12.0252 17.3469 11.3752 17.5703 11.0095 18.3828C10.4205 19.6625 10.6642 20.1094 13.4267 22.75L15.6611 24.8828L15.133 27.7062C14.8486 29.2703 14.6252 30.8344 14.6252 31.1594C14.6455 32.1953 15.6408 33.1094 16.7377 33.1094C17.022 33.1094 18.5048 32.4594 20.0486 31.6469L22.8314 30.1844L25.6955 31.6469C27.2595 32.4594 28.7423 33.1094 29.0064 33.1094C29.7783 33.1094 30.5908 32.5609 30.8955 31.8703C31.1189 31.2812 31.0986 30.8344 30.6111 28.0516L30.0627 24.8828L32.2767 22.75C35.0392 20.1094 35.283 19.6625 34.6939 18.3828C34.3283 17.5703 33.6377 17.3266 30.3064 16.8391L27.2392 16.3719L25.9189 13.5891C25.1064 11.9031 24.3752 10.6437 24.0502 10.3797C23.3189 9.81094 22.3236 9.83125 21.5923 10.4406ZM24.0502 16.6156C24.7408 17.9969 25.3298 18.8906 25.6142 19.0531C26.0205 19.2562 29.7173 19.9062 30.5095 19.9062C30.6314 19.9062 29.9002 20.7594 28.8845 21.8156C26.772 23.9687 26.7923 23.8469 27.3205 26.8125C27.7877 29.4531 27.9095 29.3719 25.5533 28.1125C24.3955 27.5234 23.197 27.0156 22.872 27.0156C22.5267 27.0156 21.3486 27.5031 20.1705 28.1328C17.7939 29.3922 17.9158 29.4734 18.383 26.8125C18.9111 23.8469 18.9314 23.9687 16.8189 21.8156C15.8033 20.7594 15.072 19.9062 15.1939 19.9062C15.9861 19.9062 19.683 19.2562 20.0892 19.0531C20.3736 18.8906 20.9627 17.9969 21.6533 16.6156C22.2627 15.3969 22.7908 14.4219 22.8517 14.4219C22.9127 14.4219 23.4408 15.3969 24.0502 16.6156Z"
                            fill="#B0B0B0" />
                        <path
                            d="M50.9034 10.2782C50.4565 10.5219 50.0096 11.2735 48.9128 13.5282C48.1409 15.1329 47.43 16.4532 47.3284 16.4532C46.3737 16.4532 41.2346 17.3672 40.869 17.611C40.2596 17.9766 39.7924 19.0735 39.9549 19.7235C40.0159 19.9875 41.1128 21.2672 42.3925 22.5672L44.7284 24.9438L44.2003 28.0922C43.6315 31.5454 43.6518 31.9313 44.6065 32.6829C45.48 33.3735 46.1503 33.2313 49.1768 31.6266L51.98 30.1641L54.8034 31.6266C57.7487 33.1704 58.4596 33.3532 59.2925 32.7844C60.2675 32.0938 60.3284 31.4844 59.7596 28.0719L59.2518 24.9641L61.6081 22.5672C63.8831 20.2719 63.9846 20.1297 63.9846 19.3172C63.9846 17.936 63.2737 17.3875 61.1409 17.0829C60.1862 16.9407 58.744 16.7375 57.9315 16.6157L56.4487 16.3922L54.9456 13.4266C53.8284 11.1719 53.3409 10.3797 52.9143 10.1969C52.2237 9.87192 51.6143 9.89223 50.9034 10.2782ZM53.1581 16.5547C53.7471 17.7125 54.4378 18.8094 54.7018 18.9719C54.9456 19.1547 56.1643 19.4391 57.3831 19.6219C58.6221 19.8047 59.6581 19.9875 59.719 20.0485C59.78 20.1094 59.0284 20.9016 58.0534 21.8157C57.0784 22.7297 56.2456 23.7047 56.1643 23.9891C56.1034 24.2532 56.2253 25.5329 56.4487 26.8125C56.6925 28.0719 56.8753 29.1485 56.8753 29.1891C56.8753 29.2297 55.9003 28.7625 54.7018 28.1329C53.5034 27.5235 52.2643 27.0157 51.9596 27.0157C51.655 27.0157 50.4565 27.5235 49.2784 28.1532C48.08 28.7829 47.1253 29.2094 47.1253 29.1079C47.1253 29.0063 47.3081 27.9297 47.5315 26.711C47.755 25.4922 47.8768 24.3141 47.8159 24.0704C47.755 23.8469 46.8815 22.8313 45.8659 21.8157L44.0581 19.9672L46.4346 19.6422C47.755 19.4594 49.0346 19.1547 49.2987 18.9922C49.5628 18.8094 50.2534 17.7125 50.8425 16.5547C51.4112 15.3766 51.9393 14.4219 52.0003 14.4219C52.0612 14.4219 52.5893 15.3766 53.1581 16.5547Z"
                            fill="#B0B0B0" />
                        <path
                            d="M79.9703 10.3598C79.625 10.6239 78.8328 11.9239 78 13.6098L76.5984 16.3926L74.4047 16.7176C73.2063 16.9208 71.7844 17.1239 71.236 17.1848C69.6922 17.4083 68.8391 18.5051 69.1438 19.8458C69.225 20.2114 70.1391 21.2473 71.5813 22.6489L73.8969 24.8833L73.4094 27.6254C72.7594 31.302 72.7797 31.7692 73.511 32.5208C74.425 33.4348 75.0344 33.3129 78.3047 31.6473L81.1688 30.1848L83.9516 31.6473C86.8359 33.1708 87.3844 33.3129 88.3391 32.8051C89.4359 32.2567 89.5172 31.627 88.8875 28.052L88.3391 24.8833L90.5531 22.7504C92.7672 20.6176 93.2344 20.0286 93.2344 19.3989C93.2344 18.7692 92.6047 17.7333 92.1172 17.5098C91.8328 17.3676 90.2484 17.0833 88.5828 16.8395L85.5766 16.3926L84.175 13.5692C83.4031 12.0051 82.6109 10.6036 82.4281 10.4208C81.8391 9.89263 80.6203 9.85201 79.9703 10.3598ZM82.3063 16.5754C82.875 17.7536 83.525 18.8301 83.7688 18.9926C83.9922 19.1348 85.2719 19.4192 86.5922 19.6223L88.9688 19.9676L87.1406 21.8364C85.0484 23.9692 85.0688 23.9083 85.6172 27.0161C85.7797 27.9708 85.9219 28.8645 85.9219 29.0067C85.9219 29.1489 85.0688 28.8036 83.8297 28.1333C82.6313 27.5036 81.4734 27.0161 81.1281 27.0161C80.8031 27.0161 79.5844 27.5239 78.4266 28.1333C77.2688 28.7426 76.2938 29.2504 76.2734 29.2504C76.2531 29.2504 76.3953 28.2754 76.6188 27.0567C77.1672 23.9489 77.1266 23.8067 75.0141 21.6942C74.0391 20.7192 73.3485 19.9067 73.4906 19.9067C74.2016 19.9067 77.8375 19.277 78.2844 19.0739C78.65 18.8911 79.1375 18.1801 79.9297 16.6161C80.5594 15.4176 81.1078 14.4223 81.1688 14.4223C81.2297 14.4223 81.7375 15.3973 82.3063 16.5754Z"
                            fill="#B0B0B0" />
                        <path
                            d="M19.6016 58.5002C7.19067 60.4502 -1.48277 71.9471 0.223479 84.2158C1.4016 92.7471 7.45473 100.06 15.5797 102.781C19.0735 103.939 22.6282 104.244 26.2641 103.696C31.261 102.944 35.2016 100.933 38.9188 97.2158C41.0719 95.0627 42.0469 93.7018 43.3266 91.2033C47.0844 83.7487 46.2516 74.4049 41.2141 67.6002C39.7719 65.6705 36.8469 62.969 34.8969 61.7705C31.3219 59.5565 27.7875 58.5205 23.5625 58.3987C22.0594 58.358 20.2719 58.3987 19.6016 58.5002ZM27.8485 62.0143C29.7985 62.5221 32.4797 63.7408 34.1047 64.858C34.5922 65.183 35.6079 66.0565 36.3797 66.7674C42.8594 72.9018 44.4844 82.4487 40.3407 90.3096C39.8532 91.2033 39.1219 92.4221 38.675 92.9908C37.9235 94.0065 37.8829 94.0471 37.7 93.6002C36.1157 89.4971 33.8407 86.694 30.6516 84.8049C29.9813 84.419 29.3719 84.094 29.2907 84.094C29.2094 84.094 29.0266 84.0127 28.8641 83.9112C28.6407 83.769 28.7829 83.5252 29.5141 82.7533C34.3282 77.7362 31.8704 69.3065 25.086 67.5393C19.3579 66.0565 13.6094 70.5252 13.6094 76.4768C13.6094 78.7518 14.5032 81.0268 16.0875 82.7737L16.9813 83.7487L15.7219 84.3987C12.2891 86.1862 9.72973 89.0502 8.32817 92.6455L7.77973 94.0471L6.90629 92.8893C5.72817 91.3049 4.18442 88.0346 3.63598 85.9221C3.25004 84.5002 3.16879 83.6471 3.16879 81.1487C3.14848 78.4268 3.20942 77.8783 3.71723 76.0909C4.75317 72.333 6.52035 69.408 9.40473 66.7065C12.411 63.883 15.661 62.319 20.3125 61.4659C20.5969 61.4252 21.9579 61.4049 23.3594 61.4455C25.2485 61.4862 26.386 61.6283 27.8485 62.0143ZM24.7813 70.6268C26.2032 71.0737 27.8282 72.5768 28.4579 73.9783C29.1079 75.4612 29.1079 77.4924 28.4782 78.9143C27.8891 80.194 26.7922 81.3315 25.4922 82.0221C24.05 82.7737 21.6735 82.794 20.211 82.0627C18.0782 81.0268 16.6563 78.7924 16.6563 76.4971C16.6563 72.2721 20.7391 69.3268 24.7813 70.6268ZM25.4922 86.0237C27.8485 86.5112 29.7172 87.5674 31.586 89.4565C33.3938 91.2846 34.2875 92.808 34.8766 95.1237L35.2422 96.5049L34.5313 97.1143C33.3938 98.069 29.5141 99.8768 27.5235 100.385C24.9438 101.035 20.8 101.035 18.1797 100.385C16.2297 99.8971 12.8375 98.3533 11.4157 97.2971C10.4204 96.5455 10.3594 96.1393 10.9485 94.433C13.1016 88.1565 19.1141 84.683 25.4922 86.0237Z"
                            fill="#B0B0B0" />
                        <path
                            d="M55.9203 60.5314C53.4625 60.897 51.7969 62.9689 51.7969 65.6907C51.7969 68.0267 53.1984 70.1392 55.0469 70.647C55.7578 70.8501 61.1203 70.8907 78.2234 70.8501L100.486 70.7892L101.461 70.1798C102.131 69.7532 102.619 69.2251 103.066 68.4532C103.634 67.4579 103.695 67.1532 103.695 65.711C103.695 64.2689 103.634 63.9642 103.066 62.9689C102.294 61.5876 101.116 60.7954 99.4297 60.5314C97.9875 60.2876 57.525 60.3079 55.9203 60.5314ZM100.161 64.147C100.953 65.0407 100.994 66.3204 100.222 67.2142L99.6937 67.8439H77.7969H55.9203L55.3922 67.3157C54.0719 65.9954 54.7219 63.9235 56.5703 63.5173C56.7937 63.4564 66.5641 63.436 78.2641 63.4564L99.5719 63.4767L100.161 64.147Z"
                            fill="#B0B0B0" />
                        <path
                            d="M56.0424 75.9688C54.783 76.1922 54.0314 76.5985 53.1783 77.5531C52.2846 78.5485 51.9189 79.5844 51.9189 81.1485C51.9189 82.7328 52.2846 83.7484 53.1986 84.7641C54.7018 86.45 52.7518 86.3281 77.858 86.3281C102.05 86.3281 100.73 86.3891 102.152 85.1906C104.366 83.3219 104.346 79.0156 102.111 77.0453C101.096 76.1516 100.121 75.8875 97.7846 75.8875C95.3471 75.8672 94.8596 76.111 94.8596 77.3906C94.8596 78.5281 95.3064 78.8125 97.1143 78.8125C99.1861 78.8125 100.08 79.0969 100.547 79.8891C100.771 80.2547 100.953 80.8031 100.953 81.1078C100.953 81.8188 100.466 82.7938 99.958 83.0781C99.694 83.2203 92.3408 83.2813 77.7971 83.2813H56.0221L55.433 82.6922C54.2549 81.5141 54.8033 79.4828 56.4283 79.0156C56.9158 78.8938 62.8674 78.8125 73.2674 78.8125H89.3549L89.6596 78.3656C90.0861 77.7563 90.0658 76.9235 89.5986 76.3547L89.2127 75.8672L73.0846 75.8469C64.2283 75.8266 56.5502 75.8875 56.0424 75.9688Z"
                            fill="#B0B0B0" />
                        <path
                            d="M56.0219 91.4063C53.6047 91.8125 52 93.9047 52 96.5859C52 98.7391 53.0156 100.486 54.7219 101.278C55.6969 101.725 56.0016 101.766 59.3531 101.766C62.8266 101.766 62.9484 101.745 63.2531 101.319C63.6797 100.709 63.6594 99.8766 63.1922 99.3078C62.8062 98.8406 62.6844 98.8203 59.475 98.7594C56.225 98.6984 56.1641 98.6781 55.6156 98.1703C54.4172 97.0125 54.8234 95.0219 56.3672 94.4938C56.9766 94.2906 61.6281 94.25 78.4469 94.2906L99.775 94.3516L100.364 95.0219C101.136 95.8953 101.197 97.1953 100.466 98.0484L99.9781 98.6172L84.5406 98.7188C69.7328 98.8203 69.0828 98.8406 68.6766 99.2063C68.1281 99.7141 68.0875 100.953 68.6156 101.441C68.9609 101.745 70.2812 101.766 84.8453 101.725L100.689 101.664L101.664 101.055C104.894 99.0438 104.691 93.6406 101.319 91.8734L100.242 91.3047L78.6094 91.2844C66.7062 91.2641 56.55 91.325 56.0219 91.4063Z"
                            fill="#B0B0B0" />
                    </svg>