<svg width="63" height="63" viewBox="0 0 63 63" fill="none" xmlns="http://www.w3.org/2000/svg">
<path d="M3.01465 0.11068C1.90723 0.381383 0.898242 1.2181 0.369141 2.27631L0.0615234 2.89154V14.3964V25.9013L0.356836 26.5535C0.713672 27.341 1.73496 28.313 2.54707 28.6206C3.10078 28.8421 3.76523 28.8544 14.1381 28.8913C23.5881 28.916 25.2369 28.8913 25.8521 28.7437C27.1441 28.4115 27.9316 27.7347 28.5346 26.455L28.8545 25.7783V14.5195C28.8545 3.91283 28.8422 3.22377 28.633 2.60853C28.3254 1.7472 27.3902 0.738219 26.5535 0.356774L25.9014 0.0614614L14.6426 0.036852C8.45332 0.036852 3.22383 0.0614614 3.01465 0.11068ZM25.3969 2.75619C26.2705 3.11302 26.209 2.28861 26.209 14.4949V25.4953L25.8521 25.8521L25.4953 26.2089H14.4949C4.52813 26.2089 3.46992 26.1843 3.21152 26.012C2.57168 25.5568 2.58398 25.7906 2.58398 14.3841C2.58398 5.00795 2.60859 3.74056 2.78086 3.38373C3.17461 2.54701 2.60859 2.58392 14.3719 2.58392C23.1697 2.58392 25.0523 2.60853 25.3969 2.75619Z" fill="#898989"/>
<path d="M11.8003 8.04729C10.4221 8.44104 9.08093 9.53616 8.45339 10.7789C7.00144 13.6828 8.49031 17.1528 11.628 18.1371C12.5878 18.4448 14.1997 18.3709 15.1102 17.9649L15.7624 17.6819L17.3866 19.2815C19.0846 20.9549 19.4415 21.1764 20.0813 20.9303C20.7827 20.6596 21.1641 19.8844 20.9057 19.2323C20.8319 19.0477 20.0813 18.1864 19.2323 17.325L17.6819 15.7623L17.9649 15.1102C18.371 14.1996 18.4448 12.5877 18.1372 11.628C17.6573 10.1022 16.4391 8.77327 14.9872 8.21956C14.1628 7.91194 12.5755 7.8135 11.8003 8.04729ZM14.4827 10.902C15.91 11.7264 16.1438 13.769 14.9626 14.9502C14.1135 15.7992 13.0307 15.9715 11.9479 15.4301C10.3237 14.618 10.0161 12.6123 11.3204 11.3203C12.2186 10.4098 13.3753 10.2621 14.4827 10.902Z" fill="#898989"/>
<path d="M34.6624 5.53706C34.1948 5.9062 34.0226 6.52144 34.2564 7.05054C34.6255 7.93648 33.6657 7.88726 48.7144 7.85035L62.2372 7.81343L62.5571 7.51812C63.1847 6.92749 63.0493 5.77085 62.311 5.42632C62.0896 5.32788 58.189 5.29097 48.4929 5.29097C35.13 5.29097 34.97 5.29097 34.6624 5.53706Z" fill="#898989"/>
<path d="M34.6624 13.4121C34.1948 13.7812 34.0226 14.3964 34.2564 14.9255C34.6255 15.8115 33.6657 15.7623 48.7144 15.7253L62.2372 15.6884L62.5571 15.3931C63.1847 14.8025 63.0493 13.6459 62.311 13.3013C62.0896 13.2029 58.189 13.166 48.4929 13.166C35.13 13.166 34.97 13.166 34.6624 13.4121Z" fill="#898989"/>
<path d="M34.6624 21.2871C34.1948 21.6562 34.0226 22.2714 34.2564 22.8005C34.6255 23.6865 33.6657 23.6373 48.7144 23.6003L62.2372 23.5634L62.5571 23.2681C63.1847 22.6775 63.0493 21.5209 62.311 21.1763C62.0896 21.0779 58.189 21.041 48.4929 21.041C35.13 21.041 34.97 21.041 34.6624 21.2871Z" fill="#898989"/>
<path d="M3.00234 34.2563C1.82109 34.5393 0.725977 35.499 0.295313 36.6188C0.0738281 37.1971 0.0615234 37.7016 0.0615234 48.665V60.1084L0.39375 60.7359C0.885938 61.6711 1.25508 62.0525 2.11641 62.5201L2.8916 62.9385H14.3965H25.9014L26.5535 62.6432C27.3902 62.2617 28.3254 61.2527 28.633 60.3914C28.8422 59.7762 28.8545 59.0871 28.8545 48.4805V37.2217L28.5346 36.5449C27.9316 35.2775 27.1441 34.6008 25.8768 34.2686C25.2738 34.1086 23.5635 34.084 14.3965 34.0963C6.3 34.0963 3.46992 34.1455 3.00234 34.2563ZM25.8521 37.1479L26.209 37.5047V48.5051C26.209 58.4719 26.1844 59.5301 26.0121 59.7885C25.5568 60.4283 25.7906 60.416 14.3842 60.416C4.9957 60.416 3.74063 60.3914 3.38379 60.2191C2.54707 59.8254 2.58398 60.3668 2.58398 48.6158C2.58398 37.2094 2.57168 37.4432 3.21152 36.9879C3.46992 36.8156 4.52813 36.791 14.4949 36.791H25.4953L25.8521 37.1479Z" fill="#898989"/>
<path d="M12.0585 42.1312C11.0249 42.3527 10.2251 42.7957 9.4376 43.5709C7.37041 45.6258 7.37041 48.8619 9.4376 50.9291C11.0003 52.4795 13.2521 52.9101 15.2577 52.0365L15.7991 51.7904L17.3495 53.3285C18.1985 54.1652 19.0106 54.9158 19.1583 54.9896C20.1058 55.4695 21.287 54.4482 20.9179 53.4515C20.844 53.2547 20.0935 52.3933 19.2444 51.5443L17.7063 50.0062L18.014 49.0711C18.7276 46.9547 18.2601 44.9367 16.6974 43.4601C15.8976 42.7095 15.2331 42.365 14.1626 42.1312C13.2028 41.9343 12.9567 41.9343 12.0585 42.1312ZM14.2487 44.8998C15.9468 45.7734 16.2544 47.9513 14.8517 49.1818C13.1659 50.6584 10.5204 49.4771 10.5327 47.25C10.5327 46.1795 11.111 45.2689 12.0585 44.8629C12.6737 44.5922 13.695 44.6168 14.2487 44.8998Z" fill="#898989"/>
<path d="M34.7484 39.6089C34.207 39.9411 34.0102 40.5563 34.244 41.1346C34.6254 42.0206 33.4934 41.959 48.5051 41.959C58.1889 41.959 62.0895 41.9221 62.3109 41.8237C63.0492 41.4792 63.1846 40.3225 62.557 39.7319L62.2371 39.4366L48.6897 39.3997C35.4867 39.3751 35.1176 39.3751 34.7484 39.6089Z" fill="#898989"/>
<path d="M34.7484 47.4839C34.207 47.8161 34.0102 48.4313 34.244 49.0096C34.6254 49.8956 33.4934 49.834 48.5051 49.834C58.1889 49.834 62.0895 49.7971 62.3109 49.6987C63.0492 49.3542 63.1846 48.1975 62.557 47.6069L62.2371 47.3116L48.6897 47.2747C35.4867 47.2501 35.1176 47.2501 34.7484 47.4839Z" fill="#898989"/>
<path d="M34.7484 55.3589C34.207 55.6911 34.0102 56.3063 34.244 56.8846C34.6254 57.7706 33.4934 57.709 48.5051 57.709C58.1889 57.709 62.0895 57.6721 62.3109 57.5737C63.0492 57.2292 63.1846 56.0725 62.557 55.4819L62.2371 55.1866L48.6897 55.1497C35.4867 55.1251 35.1176 55.1251 34.7484 55.3589Z" fill="#898989"/>
</svg>
