<svg width="14" height="14" viewBox="0 0 14 14" fill="none" xmlns="http://www.w3.org/2000/svg">
<path d="M2.0488 0.0126572C2.01118 0.0194979 1.8949 0.043438 1.79229 0.0639582C1.68969 0.0844793 1.46055 0.169981 1.2827 0.255483C1.01252 0.385445 0.909917 0.457267 0.677352 0.689831C0.444787 0.925816 0.372966 1.025 0.243003 1.29518C0.0412193 1.71585 -0.00324155 1.91422 0.000178515 2.36908C0.00701865 2.93682 0.171182 3.38484 0.547389 3.84313C0.776534 4.12016 1.22114 4.4177 1.59393 4.53741L1.72047 4.57845L1.73415 7.44104C1.74783 10.6217 1.73415 10.4439 1.98382 10.9535C2.27794 11.5588 2.84225 12.0171 3.50575 12.1881C3.68359 12.236 3.95036 12.2497 4.93534 12.2599L6.14604 12.277L5.69459 12.7285L5.24656 13.1765L5.65697 13.5869L6.06738 13.9973L7.06262 13.0055C7.60983 12.4583 8.07838 11.9658 8.10574 11.9042C8.1673 11.764 8.1673 11.5793 8.10574 11.4391C8.07838 11.3775 7.60983 10.8851 7.06262 10.3378L6.06738 9.34602L5.65697 9.75643L5.24656 10.1668L5.69801 10.6217L6.15288 11.0766L4.93876 11.0663L3.72463 11.0561L3.55363 10.9637C3.34842 10.8543 3.12954 10.632 3.0201 10.4233L2.93802 10.2694L2.92776 7.42394L2.92092 4.58187L3.04746 4.53741C4.08032 4.20566 4.76433 3.14886 4.63779 2.09548C4.51809 1.12418 3.89906 0.382025 2.97222 0.0981588C2.74307 0.0263376 2.19928 -0.0249634 2.0488 0.0126572ZM2.59601 1.20626C3.13296 1.34648 3.47497 1.78425 3.47497 2.33488C3.47497 2.60849 3.41341 2.80685 3.2595 3.01548C3.04404 3.31986 2.71229 3.48403 2.3224 3.48745C1.76835 3.48745 1.33058 3.14544 1.19036 2.59481C1.03988 1.99288 1.41267 1.37726 2.0317 1.20968C2.27452 1.1447 2.35319 1.1447 2.59601 1.20626Z" fill="#898989"/>
<path d="M6.89807 1.02512C6.34744 1.57575 5.88231 2.07166 5.86179 2.12296C5.81391 2.25634 5.81733 2.4376 5.87547 2.56757C5.90283 2.62913 6.37138 3.12162 6.91859 3.66883L7.91383 4.66065L8.32424 4.25024L8.73465 3.83983L8.2832 3.38496L7.82833 2.93009L9.04245 2.94036L10.2566 2.95062L10.4276 3.04296C10.6328 3.1524 10.8517 3.3747 10.9611 3.58333L11.0432 3.73723L11.0535 6.58273L11.0603 9.4248L10.9338 9.46926C10.5199 9.60265 10.0651 9.92071 9.80855 10.2627C9.48364 10.6902 9.33658 11.1314 9.33658 11.6718C9.33658 12.3216 9.55888 12.8551 10.0172 13.3134C10.3216 13.6178 10.5986 13.7854 11.0261 13.9154C11.3886 14.0282 11.929 14.0282 12.2915 13.9154C13.0884 13.6691 13.6561 13.1082 13.8955 12.325C14.2478 11.1759 13.6117 9.91729 12.4659 9.50005L12.2607 9.4248L12.2471 6.57931C12.2368 4.01084 12.23 3.71671 12.1787 3.51493C11.9974 2.84801 11.522 2.27002 10.9132 1.97932C10.4755 1.77411 10.4002 1.76385 9.06297 1.74675L7.83517 1.72965L8.28662 1.2782L8.73465 0.830173L8.33108 0.426605C8.1122 0.207721 7.92067 0.0264578 7.91383 0.0264578C7.90357 0.0264578 7.44528 0.477906 6.89807 1.02512ZM12.059 10.5808C12.4112 10.7039 12.6882 11.022 12.7908 11.4119C12.9995 12.2327 12.2197 13.0125 11.3989 12.8038C10.6499 12.6123 10.2874 11.836 10.6225 11.1451C10.8722 10.6321 11.5049 10.3824 12.059 10.5808Z" fill="#898989"/>
</svg>
