<svg width="94" height="23" viewBox="0 0 94 23" fill="none" xmlns="http://www.w3.org/2000/svg">
<path d="M35.7742 9.85606C35.5309 11.6813 34.0707 11.6813 32.7322 11.6813H32.0021L32.6105 8.15251C32.6105 7.90914 32.8538 7.78746 33.0972 7.78746H33.4623C34.4357 7.78746 35.2875 7.78746 35.7742 8.27419C35.7742 8.76092 35.7742 9.24765 35.7742 9.85606ZM35.1658 4.98877H29.9335C29.5684 4.98877 29.3251 5.23213 29.2034 5.59718L27.1348 18.9822C27.1348 19.2256 27.2565 19.469 27.6215 19.469H30.0552C30.4202 19.469 30.6636 19.2256 30.7852 18.8606L31.3936 15.2101C31.3936 14.845 31.7587 14.6017 32.1237 14.6017H33.8273C37.2344 14.6017 39.1813 12.8981 39.7897 9.6127C40.0331 8.15251 39.7897 7.05737 39.1813 6.20559C38.2079 5.4755 36.8694 4.98877 35.1658 4.98877Z" fill="#263577"/>
<path d="M47.2097 14.7239C46.9664 16.1841 45.8712 17.1576 44.411 17.1576C43.681 17.1576 43.0726 16.9142 42.7075 16.4275C42.3425 15.9408 42.2208 15.3324 42.3424 14.7239C42.5858 13.2638 43.681 12.2903 45.1412 12.2903C45.8712 12.2903 46.4796 12.5337 46.8447 13.0204C47.0881 13.3854 47.3314 13.9938 47.2097 14.7239ZM50.6169 9.85665H48.1832C47.9398 9.85665 47.8181 9.97833 47.6965 10.2217L47.5748 10.9518L47.4531 10.7084C46.9664 9.97833 45.7496 9.61328 44.5327 9.61328C41.734 9.61328 39.4221 11.6819 38.9353 14.6023C38.692 16.0624 39.057 17.401 39.9088 18.3744C40.6389 19.2262 41.734 19.5912 43.0725 19.5912C45.2628 19.5912 46.4796 18.1311 46.4796 18.1311L46.358 18.8611C46.358 19.1045 46.4796 19.3479 46.8447 19.3479H49.035C49.4 19.3479 49.6434 19.1045 49.7651 18.7395L51.1036 10.2217C51.1036 10.1 50.9819 9.85665 50.6169 9.85665Z" fill="#263577"/>
<path d="M63.8813 9.85742H61.3259C61.0826 9.85742 60.8392 9.9791 60.7175 10.2225L57.3104 15.3331L55.8502 10.4658C55.7285 10.1008 55.4852 9.9791 55.1201 9.9791H52.6865C52.4431 9.9791 52.1997 10.2225 52.3214 10.5875L55.1201 18.6185L52.5648 22.269C52.3214 22.5124 52.5648 22.9991 52.9298 22.9991H55.4852C55.7285 22.9991 55.9719 22.8774 56.0936 22.6341L64.368 10.5875C64.4897 10.2225 64.2463 9.85742 63.8813 9.85742Z" fill="#263577"/>
<path d="M72.7664 9.85606C72.523 11.6813 71.0629 11.6813 69.7243 11.6813H68.9942L69.6027 8.15251C69.6027 7.90914 69.8461 7.78746 70.0894 7.78746H70.4545C71.4279 7.78746 72.2797 7.78746 72.7664 8.27419C72.8881 8.76092 72.8881 9.24765 72.7664 9.85606ZM72.158 4.98877H66.9257C66.5606 4.98877 66.3173 5.23213 66.1956 5.59718L64.127 18.9822C64.127 19.2256 64.2487 19.469 64.6137 19.469H67.2907C67.5341 19.469 67.7774 19.3473 67.7774 18.9822L68.3858 15.2101C68.3858 14.845 68.7509 14.6017 69.1159 14.6017H70.8195C74.2266 14.6017 76.1735 12.8981 76.7819 9.6127C77.0253 8.15251 76.7819 7.05737 76.1735 6.20559C75.3218 5.4755 73.9832 4.98877 72.158 4.98877Z" fill="#2199D6"/>
<path d="M84.323 14.7239C84.0796 16.1841 82.9845 17.1576 81.5243 17.1576C80.7942 17.1576 80.1858 16.9142 79.8208 16.4275C79.4557 15.9408 79.334 15.3324 79.4557 14.7239C79.6991 13.2638 80.7942 12.2903 82.2544 12.2903C82.9845 12.2903 83.5929 12.5337 83.958 13.0204C84.2013 13.3854 84.4447 13.9938 84.323 14.7239ZM87.7301 9.85665H85.2965C85.0531 9.85665 84.9314 9.97833 84.8097 10.2217L84.6881 10.9518L84.5664 10.7084C84.0797 9.97833 82.8628 9.61328 81.646 9.61328C78.8473 9.61328 76.5354 11.6819 76.0486 14.6023C75.8053 16.0624 76.1703 17.401 77.0221 18.3744C77.7522 19.2262 78.8473 19.5912 80.1858 19.5912C82.3761 19.5912 83.5929 18.1311 83.5929 18.1311L83.4713 18.8611C83.4713 19.1045 83.5929 19.3479 83.958 19.3479H86.1482C86.5133 19.3479 86.7567 19.1045 86.8783 18.7395L88.2169 10.2217C88.2169 10.1 87.9735 9.85665 87.7301 9.85665Z" fill="#2199D6"/>
<path d="M90.6512 5.35382L88.4609 18.9822C88.4609 19.2256 88.5826 19.469 88.9477 19.469H91.138C91.503 19.469 91.7464 19.2256 91.8681 18.8606L93.9366 5.4755C93.9366 5.23214 93.815 4.98877 93.4499 4.98877H91.0163C90.8946 4.98877 90.7729 5.23213 90.6512 5.35382Z" fill="#2199D6"/>
<path d="M5.47414 22.0239L5.83917 19.4686H4.9874H0.728516L3.6489 0.851173C3.6489 0.851173 3.64889 0.729492 3.77057 0.729492H3.89226H11.0715C13.3835 0.729492 15.087 1.21622 15.9388 2.18968C16.3039 2.67641 16.5472 3.16314 16.6689 3.64987C16.7906 4.25828 16.7906 4.86669 16.6689 5.71847V6.2052L17.034 6.44856C17.399 6.57025 17.6424 6.81361 17.8857 7.05697C18.2508 7.42202 18.4941 7.90875 18.4941 8.51716C18.6158 9.12558 18.6158 9.85567 18.3725 10.7074C18.1291 11.6809 17.8857 12.411 17.5207 13.1411C17.1556 13.7495 16.6689 14.2362 16.1822 14.723C15.6954 15.088 14.9653 15.3314 14.3569 15.5747C13.6268 15.6964 12.8968 15.8181 12.045 15.8181H11.4366C11.0715 15.8181 10.7065 15.9398 10.3414 16.1831C10.0981 16.4265 9.8547 16.7916 9.73302 17.1566V17.4L9.00292 21.9022V22.0239V22.1456C9.00292 22.1456 9.00291 22.1456 8.88123 22.1456H5.47414V22.0239Z" fill="#263577"/>
<path d="M17.5208 5.72021C17.5208 5.8419 17.5208 5.96358 17.3991 6.08527C16.4256 10.9526 13.2619 12.5344 9.12471 12.5344H7.0561C6.56937 12.5344 6.08265 12.8995 6.08265 13.3862L4.9875 20.2004L4.74414 22.1473C4.74414 22.5124 4.9875 22.7557 5.23086 22.7557H9.00302C9.48975 22.7557 9.85479 22.3907 9.85479 22.0256V21.7823L10.5849 17.4017V17.1584C10.7066 16.6716 11.0716 16.4283 11.4367 16.4283H12.0451C15.6956 16.4283 18.4942 14.9681 19.2243 10.7092C19.5894 8.88396 19.346 7.42377 18.4942 6.45031C18.2509 6.20695 17.8858 5.96358 17.5208 5.72021Z" fill="#2199D6"/>
<path d="M16.5467 5.35382C16.425 5.35382 16.3033 5.23214 16.06 5.23214C15.9383 5.23214 15.6949 5.11045 15.5732 5.11045C14.9648 4.98877 14.3564 4.98877 13.748 4.98877H8.15063C8.02894 4.98877 7.90726 4.98877 7.78558 5.11045C7.54221 5.23213 7.29885 5.4755 7.29885 5.71886L6.08203 13.2632V13.5065C6.20371 13.0198 6.56875 12.6548 7.05548 12.6548H9.12409C13.2613 12.6548 16.425 10.9512 17.3985 6.20559C17.3985 6.08391 17.3985 5.96223 17.5202 5.84055C17.2768 5.71886 17.0334 5.59718 16.7901 5.4755C16.6684 5.35382 16.5467 5.35382 16.5467 5.35382Z" fill="#252C5E"/>
<path d="M7.30094 5.71907C7.30094 5.4757 7.5443 5.23234 7.78766 5.11065C7.90935 5.11065 8.03103 4.98897 8.15271 4.98897H13.7501C14.3585 4.98897 15.0886 4.98897 15.5753 5.11065C15.697 5.11065 15.9404 5.11066 16.0621 5.23234C16.1837 5.23234 16.3054 5.35402 16.5488 5.35402C16.6705 5.35402 16.6705 5.35402 16.7921 5.47571C17.0355 5.59739 17.2789 5.71907 17.5223 5.84075C17.7656 4.01552 17.5222 2.79869 16.5488 1.70355C15.4536 0.486727 13.5067 0 11.0731 0H3.89383C3.4071 0 2.92037 0.365043 2.92037 0.851773L0 19.5909C0 19.9559 0.243365 20.3209 0.608412 20.3209H4.98897L6.08412 13.2634L7.30094 5.71907Z" fill="#263577"/>
</svg>
