<svg width="89" height="89" viewBox="0 0 89 89" fill="none" xmlns="http://www.w3.org/2000/svg">
<path fill-rule="evenodd" clip-rule="evenodd" d="M42.639 23H47.361C51.3726 22.9999 54.606 22.9999 57.1491 23.3418C59.7895 23.6968 62.0126 24.4562 63.7782 26.2218C65.5438 27.9875 66.3032 30.2105 66.6582 32.8509C67.0001 35.394 67.0001 38.6275 67 42.6391V47.3609C67.0001 51.3725 67.0001 54.606 66.6582 57.1491C66.3032 59.7895 65.5438 62.0126 63.7782 63.7782C62.0126 65.5438 59.7895 66.3032 57.1491 66.6582C54.606 67.0001 51.3725 67.0001 47.3609 67H42.6391C38.6275 67.0001 35.394 67.0001 32.8509 66.6582C30.2105 66.3032 27.9875 65.5438 26.2218 63.7782C24.4562 62.0126 23.6968 59.7895 23.3418 57.1491C22.9999 54.606 22.9999 51.3726 23 47.361V42.639C22.9999 38.6274 22.9999 35.394 23.3418 32.8509C23.6968 30.2105 24.4562 27.9875 26.2218 26.2218C27.9875 24.4562 30.2105 23.6968 32.8509 23.3418C35.394 22.9999 38.6274 22.9999 42.639 23ZM33.4372 27.7026C31.2847 27.992 30.1449 28.5213 29.3331 29.3331C28.5213 30.1449 27.992 31.2847 27.7026 33.4372C27.4047 35.6528 27.4 38.5894 27.4 42.8V47.2C27.4 51.4106 27.4047 54.3472 27.7026 56.5628C27.992 58.7153 28.5213 59.8551 29.3331 60.6669C30.1449 61.4787 31.2847 62.0081 33.4372 62.2974C35.6528 62.5953 38.5894 62.6 42.8 62.6H47.2C51.4106 62.6 54.3472 62.5953 56.5628 62.2974C58.7153 62.0081 59.8551 61.4787 60.6669 60.6669C61.4787 59.8551 62.0081 58.7153 62.2974 56.5628C62.5953 54.3472 62.6 51.4106 62.6 47.2V42.8C62.6 38.5894 62.5953 35.6529 62.2974 33.4372C62.0081 31.2847 61.4787 30.1449 60.6669 29.3331C59.8551 28.5213 58.7153 27.992 56.5628 27.7026C54.3472 27.4047 51.4106 27.4 47.2 27.4H42.8C38.5894 27.4 35.6529 27.4047 33.4372 27.7026Z" fill="#B4B4B4"/>
<path fill-rule="evenodd" clip-rule="evenodd" d="M60.401 48.4883L60.3562 48.4435C59.4991 47.5863 58.7596 46.8468 58.0995 46.2905C57.4023 45.7029 56.6434 45.1862 55.7079 44.904C54.4647 44.5289 53.1384 44.5289 51.8952 44.904C50.9598 45.1862 50.2008 45.7029 49.5036 46.2905C48.8435 46.8468 48.1041 47.5863 47.2469 48.4435L47.1841 48.5063C46.5091 49.1813 46.1117 49.5754 45.8035 49.8303L45.7591 49.8664L45.7313 49.8164C45.5398 49.4652 45.3172 48.9518 44.9412 48.0743L44.8237 47.8002L44.7751 47.6868L44.775 47.6867C43.992 45.8593 43.3344 44.325 42.6836 43.1685C42.0131 41.977 41.1776 40.8596 39.8752 40.2067C38.7889 39.6621 37.5733 39.428 36.3624 39.5302C34.9107 39.6527 33.7199 40.3799 32.6548 41.2372C31.763 41.9549 30.7621 42.932 29.6016 44.0893V47.2001C29.6016 48.337 29.6022 49.3669 29.6083 50.3046L32.059 47.854C33.5751 46.3379 34.5876 45.3297 35.4136 44.6648C36.2296 44.008 36.5807 43.9274 36.7324 43.9146C37.136 43.8806 37.5412 43.9586 37.9033 44.1401C38.0394 44.2084 38.3354 44.4136 38.8491 45.3264C39.3692 46.2505 39.9348 47.5626 40.7794 49.5334L40.8969 49.8076L40.9329 49.8914C41.2605 50.656 41.5648 51.3663 41.8686 51.9232C42.1869 52.5069 42.6492 53.2061 43.4279 53.6881C44.3459 54.2563 45.4409 54.4672 46.5043 54.2805C47.4063 54.1222 48.0952 53.6447 48.6075 53.2211C49.0964 52.8168 49.6427 52.2703 50.2308 51.6821L50.2309 51.6821L50.2954 51.6175C51.2331 50.6799 51.8398 50.0758 52.3391 49.655C52.8173 49.2519 53.043 49.1536 53.1661 49.1164C53.5805 48.9914 54.0226 48.9914 54.437 49.1164C54.5601 49.1536 54.7858 49.2519 55.264 49.655C55.7633 50.0758 56.3701 50.6799 57.3077 51.6175L60.2787 54.5885C60.3799 53.0092 60.3979 51.0459 60.401 48.4883Z" fill="#B4B4B4"/>
<path d="M58.2016 35.1003C58.2016 36.9228 56.7241 38.4003 54.9016 38.4003C53.079 38.4003 51.6016 36.9228 51.6016 35.1003C51.6016 33.2778 53.079 31.8003 54.9016 31.8003C56.7241 31.8003 58.2016 33.2778 58.2016 35.1003Z" fill="#B4B4B4"/>
</svg>
