<svg width="14" height="14" viewBox="0 0 18 18"
fill="none" xmlns="http://www.w3.org/2000/svg">
<path fill-rule="evenodd" clip-rule="evenodd" d="M10 2C13.3137 2 16 4.68629 16 8C16 11.3137 13.3137 14 10 14C6.68629 14 4 11.3137 4 8C4 4.68629 6.68629 2 10 2ZM18 8C18 3.58172 14.4183 0 10 0C5.58172 0 2 3.58172 2 8C2 12.4183 5.58172 16 10 16C14.4183 16 18 12.4183 18 8Z" fill="#2C2C2C"/>
<path fill-rule="evenodd" clip-rule="evenodd" d="M4.70711 13.2929C4.31658 12.9024 3.68342 12.9024 3.29289 13.2929L0.292893 16.2929C-0.0976315 16.6834 -0.0976315 17.3166 0.292893 17.7071C0.683417 18.0976 1.31658 18.0976 1.70711 17.7071L4.70711 14.7071C5.09763 14.3166 5.09763 13.6834 4.70711 13.2929Z" fill="#2C2C2C"/>
</svg>
