<svg width="14" height="14" viewBox="0 0 14 14" fill="none" xmlns="http://www.w3.org/2000/svg">
    <path d="M11.4524 0.300781H2.02725C0.963111 0.300781 0.152344 1.11155 0.152344 2.17569V11.6009C0.152344 12.665 0.963111 13.4758 2.02725 13.4758H11.4524C12.5166 13.4758 13.3273 12.665 13.3273 11.6009V2.17569C13.3273 1.11155 12.5166 0.300781 11.4524 0.300781ZM6.73984 10.8408C8.91879 10.8408 10.6923 9.1179 10.6923 7.0403C10.6923 6.68559 10.6417 6.2802 10.5403 5.97617H11.6551V11.3475C11.6551 11.6009 11.4524 11.8542 11.1484 11.8542H2.33129C2.07792 11.8542 1.82456 11.6515 1.82456 11.3475V5.92549H2.99004C2.88869 6.2802 2.83802 6.63492 2.83802 6.98963C2.78735 9.1179 4.5609 10.8408 6.73984 10.8408ZM6.73984 9.32059C5.321 9.32059 4.20619 8.20578 4.20619 6.83761C4.20619 5.46944 5.321 4.35463 6.73984 4.35463C8.15869 4.35463 9.2735 5.46944 9.2735 6.83761C9.2735 8.25645 8.15869 9.32059 6.73984 9.32059ZM11.6045 3.89857C11.6045 4.20261 11.3511 4.45597 11.0471 4.45597H9.62821C9.32417 4.45597 9.07081 4.20261 9.07081 3.89857V2.5304C9.07081 2.22636 9.32417 1.97299 9.62821 1.97299H11.0471C11.3511 1.97299 11.6045 2.22636 11.6045 2.5304V3.89857Z" fill="white"/>
</svg>
