<svg width="12" height="11" viewBox="0 0 12 11" fill="none" xmlns="http://www.w3.org/2000/svg">
    <path d="M12 6.74528V11H9.41704V7.00472C9.41704 6.01887 9.04036 5.34434 8.12556 5.34434C7.42601 5.34434 6.99552 5.81132 6.83408 6.22642C6.78027 6.38208 6.72646 6.58962 6.72646 6.84906V11H4.1435C4.1435 11 4.19731 4.25472 4.1435 3.58019H6.72646V4.61793C7.04933 4.09906 7.69507 3.37264 9.04036 3.37264C10.7085 3.37264 12 4.46226 12 6.74528ZM1.45291 0C0.591927 0 0 0.570755 0 1.29717C0 2.02359 0.538116 2.59434 1.3991 2.59434C2.3139 2.59434 2.85202 2.02359 2.85202 1.29717C2.90583 0.518868 2.36771 0 1.45291 0ZM0.161435 11H2.74439V3.58019H0.161435V11Z" fill="white"/>
</svg>
