<svg xmlns="http://www.w3.org/2000/svg" width="31" height="31" viewBox="0 0 31 31" fill="none">
    <path d="M21.504 14.0244C21.6347 14.1551 21.7888 14.2589 21.959 14.3313C22.314 14.48 22.714 14.48 23.0698 14.3313C23.4128 14.1852 23.6862 13.9125 23.8315 13.5695C23.9803 13.2144 23.9803 12.8144 23.8315 12.4587C23.6855 12.1157 23.4128 11.8423 23.0698 11.6969C22.7147 11.5482 22.3147 11.5482 21.959 11.6969C21.6159 11.843 21.3426 12.1157 21.1972 12.4587C21.0485 12.8138 21.0485 13.2138 21.1972 13.5695C21.2696 13.739 21.3741 13.8938 21.504 14.0244ZM21.086 15.3496V19.6516H21.8029C22.0494 19.6502 22.2946 19.6274 22.5365 19.5819C22.7797 19.539 23.0142 19.4573 23.2312 19.3393C23.4363 19.2281 23.6131 19.0714 23.7491 18.8824C23.8918 18.6727 23.9635 18.4228 23.9535 18.1689V15.3496H21.086ZM18.7625 13.5461C18.9528 13.5474 19.1417 13.5092 19.3172 13.4342C19.6603 13.2881 19.9329 13.0154 20.0783 12.6724C20.2271 12.3173 20.2271 11.9174 20.0777 11.5616C19.9316 11.2186 19.6589 10.9452 19.3159 10.7998C19.1404 10.7248 18.9514 10.6866 18.7605 10.6879C18.5709 10.6866 18.3833 10.7248 18.2091 10.7998C18.0791 10.8554 18.0383 10.9278 17.8594 11.0149V13.2191C18.0389 13.3069 18.0791 13.3786 18.2091 13.4342C18.384 13.5099 18.5722 13.5474 18.7625 13.5461ZM17.8594 20.7892C18.0389 20.828 18.1032 20.8582 18.2305 20.8756C18.3699 20.8957 18.5106 20.9058 18.6513 20.9064C18.8684 20.9051 19.0854 20.8823 19.2978 20.8367C19.5142 20.7932 19.7219 20.7121 19.9108 20.5976C20.0964 20.4837 20.2525 20.3282 20.3678 20.144C20.4951 19.9289 20.5574 19.681 20.548 19.4311V14.4532H17.8594V20.7892ZM8 22.1613L17.3214 23.7746V8L8 9.6133V22.1613Z" fill="white"/>
    <path d="M14.7823 12.8328L10.4951 13.0962V14.0942L12.1029 14.0289V18.6562L13.1745 18.7196V13.9864L14.7823 13.9143V12.8328Z" fill="#3F3F3F"/>
</svg>
