<svg xmlns="http://www.w3.org/2000/svg" width="31" height="31" viewBox="0 0 31 31" fill="none">
    <path fill-rule="evenodd" clip-rule="evenodd" d="M14.623 21.1429C15.2024 21.1429 15.7873 21.0614 16.3385 20.9142L16.3367 20.9151C16.9929 22.0401 17.8694 23 19.524 23C22.2585 23 22.5613 20.4811 22.505 19.8746H21.5263C21.4757 20.3302 21.172 20.9095 20.422 20.9095C19.734 20.9095 19.239 20.4314 18.7609 19.7124C20.2467 18.5612 21.2685 16.781 21.2685 14.5902C21.2685 10.6511 18.025 8 14.6221 8C11.2754 8 8 10.6717 8 14.5902C8 18.4731 11.2764 21.1429 14.623 21.1429ZM13.3967 17.6397C14.5863 17.6397 15.1956 18.6737 15.715 19.6955C15.3831 19.793 15.0213 19.8361 14.6219 19.8361C12.1096 19.8361 11.0222 18.0625 11.0222 14.5902C11.0222 11.0992 12.1096 9.3068 14.6219 9.3068C17.1718 9.3068 18.263 11.0992 18.263 14.5902C18.263 15.9879 18.0811 17.1166 17.6967 17.9509C17.048 16.9741 16.2315 16.2054 14.6407 16.2054C13.6179 16.2054 12.822 16.541 12.3308 16.9648L12.7339 17.771C12.942 17.6772 13.1698 17.6397 13.3967 17.6397Z" fill="white"/>
</svg>
