<svg xmlns="http://www.w3.org/2000/svg" width="31" height="31" viewBox="0 0 31 31" fill="none">
    <path fill-rule="evenodd" clip-rule="evenodd" d="M24.647 15.2134C24.647 14.0874 23.7269 13.1712 22.5957 13.1712C22.0783 13.1712 21.6063 13.3646 21.2451 13.6805C19.9599 12.8585 18.2608 12.3237 16.3792 12.23L17.3686 9.11645L20.0682 9.74935C20.0985 10.6564 20.8471 11.3857 21.7657 11.3857C22.7032 11.3857 23.466 10.6264 23.466 9.69285C23.466 8.75928 22.703 8 21.7657 8C21.0847 8 20.4977 8.4015 20.2262 8.97809L17.1927 8.26753C16.9918 8.22062 16.7877 8.33581 16.7261 8.53187L15.5548 12.2178C13.5514 12.257 11.734 12.7956 10.372 13.6535C10.0148 13.3533 9.5538 13.1712 9.05126 13.1712C7.92005 13.1714 7 14.0874 7 15.2134C7 15.9304 7.3738 16.5607 7.93649 16.9248C7.90782 17.1077 7.89238 17.293 7.89238 17.4805C7.89238 20.3844 11.4338 22.7471 15.7874 22.7471C20.1406 22.7471 23.6824 20.3844 23.6824 17.4805C23.6824 17.3066 23.6692 17.1347 23.6445 16.9646C24.2431 16.6084 24.647 15.9579 24.647 15.2134ZM21.7657 8.78706C22.2677 8.78706 22.676 9.19375 22.676 9.69348C22.676 10.1932 22.2677 10.5997 21.7657 10.5997C21.2636 10.5997 20.8553 10.1932 20.8553 9.69348C20.8553 9.19375 21.2636 8.78706 21.7657 8.78706ZM9.05124 13.9578C8.35599 13.9578 7.79028 14.5212 7.79028 15.2134C7.79028 15.5628 7.93447 15.8788 8.16689 16.1066C8.46388 15.3745 8.99048 14.7047 9.69415 14.1354C9.50545 14.0234 9.28607 13.9578 9.05124 13.9578ZM22.8919 17.4808C22.8919 19.9507 19.7042 21.9606 15.787 21.9606C11.8691 21.9606 8.68204 19.9509 8.68204 17.4808C8.68204 17.3938 8.68685 17.3079 8.69447 17.2223C8.71833 16.9597 8.7793 16.703 8.87214 16.4542C9.11299 15.8093 9.57502 15.2176 10.2061 14.7131C10.408 14.5515 10.6268 14.399 10.861 14.2567C12.1394 13.4798 13.8757 13.0006 15.787 13.0006C17.7259 13.0006 19.4856 13.4934 20.7682 14.2902C21.003 14.4357 21.2212 14.5919 21.4222 14.757C22.0282 15.2539 22.4712 15.8333 22.7048 16.4632C22.7968 16.7128 22.8578 16.9697 22.8806 17.2329C22.8877 17.3153 22.8919 17.3976 22.8919 17.4808ZM21.9113 14.1608C22.6146 14.7372 23.14 15.4138 23.4286 16.1535C23.6907 15.9235 23.8571 15.5877 23.8575 15.2134C23.8575 14.521 23.2918 13.9578 22.5963 13.9578C22.3437 13.9578 22.1086 14.0328 21.9113 14.1608Z" fill="white"/>
    <path d="M14.3963 16.5339C14.3963 15.8706 13.8561 15.3142 13.1897 15.3142C12.5235 15.3142 11.9648 15.8706 11.9648 16.5339C11.9648 17.1969 12.5237 17.7354 13.1897 17.7354C13.8561 17.7346 14.3963 17.1969 14.3963 16.5339Z" fill="white"/>
    <path d="M18.4767 15.3138C17.8105 15.3138 17.25 15.8701 17.25 16.5333C17.25 17.1968 17.8105 17.7348 18.4767 17.7348C19.143 17.7348 19.6837 17.1972 19.6837 16.5333C19.6833 15.8697 19.143 15.3138 18.4767 15.3138Z" fill="white"/>
    <path d="M18.1339 19.4459C17.687 19.8903 16.9344 20.1061 15.8316 20.1061C15.8282 20.1061 15.8252 20.1071 15.822 20.1071C15.8186 20.1071 15.8158 20.1061 15.8126 20.1061C14.7096 20.1061 13.9568 19.8903 13.5104 19.4459C13.3562 19.2921 13.106 19.2921 12.9517 19.4459C12.7973 19.5998 12.7973 19.8488 12.9517 20.0019C13.5535 20.6012 14.4894 20.8929 15.8126 20.8929C15.816 20.8929 15.8188 20.8917 15.822 20.8917C15.8252 20.8917 15.8282 20.8929 15.8316 20.8929C17.1545 20.8929 18.0906 20.6012 18.693 20.0023C18.8476 19.8484 18.8476 19.5996 18.6934 19.4463C18.5388 19.2925 18.2886 19.2925 18.1339 19.4459Z" fill="white"/>
</svg>
