<svg xmlns="http://www.w3.org/2000/svg" width="31" height="31" viewBox="0 0 31 31" fill="none">
    <path d="M22.513 16.6201C22.5617 16.2305 22.6104 15.8896 22.6104 15.5C22.6104 11.6039 19.4448 8.38961 15.5 8.38961C15.1104 8.38961 14.7695 8.43831 14.3799 8.48701C13.7468 8.1461 13.0649 8 12.3831 8C9.94805 8 8 9.94805 8 12.3831C8 13.0649 8.1461 13.7468 8.48701 14.3799C8.43831 14.7695 8.38961 15.1104 8.38961 15.5C8.38961 19.3961 11.5552 22.6104 15.5 22.6104C15.8896 22.6104 16.2305 22.5617 16.6201 22.513C17.2532 22.8052 17.9351 23 18.6169 23C21.0519 23 23 21.0519 23 18.6169C23 17.9351 22.8052 17.2532 22.513 16.6201ZM18.4708 18.0812C18.3247 18.3734 18.1299 18.6169 17.8377 18.8117C17.5455 19.0065 17.2532 19.1526 16.8636 19.25C16.474 19.3474 16.0357 19.3961 15.5487 19.3961C14.526 19.3961 13.6981 19.1526 13.1136 18.7143C12.7727 18.4221 12.4805 18.0812 12.3344 17.6429C12.1396 17.2532 12.4805 16.7662 12.9675 16.7662H13.1136C13.4058 16.7662 13.6981 16.961 13.7955 17.2045C13.8929 17.4481 14.039 17.6429 14.2338 17.789C14.526 18.0325 14.9643 18.1299 15.5 18.1299C15.987 18.1299 16.3766 18.0325 16.6688 17.8864C16.961 17.7403 17.1071 17.4481 17.1071 17.1558C17.1071 17.0097 17.0584 16.9123 17.0097 16.8149C16.961 16.7175 16.8149 16.6201 16.7175 16.5714C16.5714 16.474 16.4253 16.4253 16.1818 16.3766C15.987 16.3279 15.7435 16.2305 15.4513 16.1818L15.1591 16.0844C14.8182 15.987 14.4286 15.8896 14.1364 15.7922C13.7955 15.6948 13.5032 15.5487 13.2597 15.4026C13.0162 15.2565 12.8214 15.0617 12.6753 14.7695C12.5292 14.526 12.4805 14.1851 12.4805 13.7955C12.4805 13.4058 12.5779 13.0649 12.724 12.7727C12.8701 12.4805 13.1136 12.237 13.3571 12.0909C13.6494 11.8961 13.9416 11.75 14.3312 11.7013C14.6721 11.6039 15.0617 11.5552 15.5 11.5552C15.987 11.5552 16.3766 11.6039 16.7662 11.7013C17.1558 11.7987 17.4481 11.9448 17.7403 12.1883C18.0325 12.3831 18.2273 12.6266 18.3734 12.9675C18.6169 13.4058 18.276 13.9903 17.7403 13.9903H17.5942C17.3019 13.9903 17.0584 13.8442 16.9123 13.6006C16.8149 13.4545 16.7175 13.3084 16.5714 13.1623C16.3279 12.9675 15.9383 12.8701 15.5 12.8701C15.0617 12.8701 14.7208 12.9675 14.4773 13.1136C14.2338 13.2597 14.1364 13.5032 14.1364 13.7468C14.1364 13.8929 14.1851 13.9903 14.2338 14.0877C14.2825 14.1851 14.3799 14.2825 14.526 14.3312C14.6721 14.3799 14.8182 14.4773 15.013 14.526C15.2078 14.5747 15.4513 14.6234 15.7435 14.7208C16.0357 14.7695 16.2792 14.8669 16.5714 14.9156C16.8149 14.9643 17.0584 15.0617 17.3019 15.1104C17.5455 15.2078 17.7403 15.3052 17.9351 15.4026C18.1299 15.5 18.276 15.6461 18.4221 15.7922C18.5682 15.9383 18.6656 16.1331 18.7143 16.3279C18.8117 16.5227 18.8117 16.8149 18.8117 17.1071C18.7143 17.4481 18.6169 17.789 18.4708 18.0812Z" fill="white"/>
</svg>
