<svg xmlns="http://www.w3.org/2000/svg" width="31" height="31" viewBox="0 0 31 31" fill="none">
    <path d="M22.7995 18.8018C20.3448 17.5991 19.9535 15.7422 19.9361 15.6044C19.9151 15.4376 19.8912 15.3064 20.073 15.1367C20.2484 14.9727 21.0264 14.4853 21.2422 14.3329C21.599 14.0803 21.7562 13.8282 21.6404 13.5183C21.5594 13.304 21.3621 13.2232 21.1544 13.2232C21.0888 13.2234 21.0235 13.2308 20.9595 13.2453C20.5675 13.3314 20.1868 13.5302 19.9665 13.5839C19.94 13.5908 19.9128 13.5946 19.8855 13.595C19.768 13.595 19.7235 13.5421 19.7348 13.3991C19.7624 12.9654 19.8207 12.1189 19.7531 11.3281C19.6603 10.2402 19.3136 9.70117 18.9026 9.22443C18.7037 8.99324 17.7803 8 15.9983 8C14.2163 8 13.2941 8.99324 13.0965 9.22156C12.6842 9.6983 12.3379 10.2373 12.246 11.3253C12.1783 12.116 12.2391 12.9621 12.2642 13.3962C12.2723 13.5323 12.231 13.5921 12.1135 13.5921C12.0862 13.5917 12.059 13.5879 12.0325 13.5811C11.8126 13.5274 11.4319 13.3286 11.0399 13.2425C10.9759 13.228 10.9106 13.2205 10.8451 13.2203C10.6365 13.2203 10.4401 13.3023 10.3591 13.5155C10.2433 13.8254 10.3996 14.0775 10.7576 14.33C10.9735 14.4825 11.7515 14.9695 11.9268 15.1338C12.1083 15.3035 12.0848 15.4347 12.0637 15.6016C12.0463 15.7413 11.6547 17.5983 9.20038 18.7989C9.05661 18.8694 8.81199 19.0187 9.24331 19.2597C9.92047 19.6384 10.3712 19.5979 10.7216 19.8262C11.0188 20.0201 10.8431 20.4382 11.0593 20.5891C11.325 20.7747 12.1103 20.5759 13.1248 20.9149C13.9753 21.1986 14.4921 22 16.0003 22C17.5085 22 18.0403 21.1949 18.8758 20.9149C19.8883 20.5759 20.6752 20.7747 20.9413 20.5891C21.1572 20.4382 20.9818 20.0201 21.2791 19.8262C21.6294 19.5979 22.0798 19.6384 22.7573 19.2597C23.1879 19.0215 22.9432 18.8723 22.7995 18.8018Z" fill="white"/>
</svg>
