<svg xmlns="http://www.w3.org/2000/svg" width="31" height="31" viewBox="0 0 31 31" fill="none">
    <path d="M8.21145 15.1167C9.64369 14.3683 11.2425 13.7436 12.7363 13.1157C15.3062 12.0873 17.8863 11.0768 20.4925 10.136C20.9996 9.97567 21.9107 9.81893 22 10.5318C21.9511 11.5409 21.7498 12.5441 21.6118 13.5473C21.2615 15.7534 20.8565 17.952 20.4617 20.1508C20.3256 20.8833 19.3585 21.2624 18.7397 20.7937C17.2525 19.8407 15.7539 18.897 14.2857 17.9218C13.8048 17.4582 14.2507 16.7924 14.6803 16.4614C15.9051 15.3162 17.2042 14.3432 18.365 13.1388C18.6782 12.4215 17.7529 13.026 17.4477 13.2113C15.7709 14.3076 14.135 15.4708 12.3671 16.4343C11.464 16.9059 10.4115 16.5028 9.50884 16.2397C8.69951 15.9218 7.51352 15.6015 8.21137 15.1168L8.21145 15.1167Z" fill="white"/>
</svg>
