<svg width="12" height="14" viewBox="0 0 12 14" fill="none" xmlns="http://www.w3.org/2000/svg">
    <path d="M6.3024 0.0116665C7.05633 0 7.8045 0.00583326 8.55267 0C8.59871 0.892489 8.91524 1.80248 9.55982 2.43247C10.2044 3.07996 11.1137 3.37746 12 3.47662V5.82743C11.1713 5.79826 10.3368 5.62326 9.58284 5.2616C9.2548 5.10994 8.94977 4.91744 8.6505 4.71911C8.64475 6.42242 8.65626 8.12573 8.63899 9.82321C8.59295 10.6399 8.32822 11.4507 7.86205 12.1215C7.10813 13.2415 5.80171 13.9707 4.46076 13.994C3.63777 14.0407 2.81479 13.8132 2.11266 13.3932C0.950118 12.699 0.132887 11.4274 0.0120292 10.0624C0.000518938 9.77071 -0.0052362 9.47905 0.00627409 9.19322C0.109867 8.0849 0.650851 7.02324 1.4911 6.29992C2.44646 5.45993 3.78165 5.05744 5.03052 5.2966C5.04203 6.15992 5.0075 7.02325 5.0075 7.88657C4.43774 7.6999 3.77014 7.7524 3.26944 8.1024C2.90687 8.34156 2.63062 8.70906 2.48674 9.12322C2.36588 9.42071 2.40042 9.74738 2.40617 10.0624C2.54429 11.019 3.45361 11.824 4.42047 11.7365C5.06505 11.7307 5.68085 11.3515 6.01465 10.7974C6.124 10.6049 6.24485 10.4065 6.25061 10.179C6.30816 9.13489 6.28514 8.09656 6.29089 7.05241C6.29665 4.70161 6.28514 2.35664 6.3024 0.0116665V0.0116665Z" fill="white"/>
</svg>
