<svg xmlns="http://www.w3.org/2000/svg" width="31" height="31" viewBox="0 0 31 31" fill="none">
    <path d="M23 11.3397C22.4643 11.5513 21.852 11.6923 21.2398 11.7628C21.852 11.4103 22.3878 10.8462 22.6173 10.2115C22.0051 10.5641 21.3929 10.7756 20.6276 10.9167C20.0918 10.3526 19.25 10 18.4082 10C16.7245 10 15.3469 11.2692 15.3469 12.8205C15.3469 13.0321 15.3469 13.2436 15.4235 13.4551C12.898 13.3141 10.602 12.1859 9.07142 10.4936C8.84183 10.9167 8.68877 11.4103 8.68877 11.9038C8.68877 12.891 9.22449 13.7372 10.0663 14.2308C9.53061 14.2308 9.07142 14.0897 8.68877 13.8782C8.68877 15.2179 9.7602 16.4167 11.1377 16.6282C10.9082 16.6987 10.602 16.6987 10.2959 16.6987C10.0663 16.6987 9.91326 16.6987 9.68367 16.6282C10.0663 17.7564 11.2143 18.6026 12.5918 18.6026C11.5204 19.3782 10.2194 19.8013 8.76531 19.8013C8.53571 19.8013 8.30612 19.8013 8 19.7308C9.37755 20.5064 10.9847 21 12.7449 21C18.4082 21 21.4694 16.6987 21.4694 12.9615V12.609C22.0816 12.3974 22.6173 11.9038 23 11.3397Z" fill="white"/>
</svg>
