<svg width="16" height="14" viewBox="0 0 16 14" fill="none" xmlns="http://www.w3.org/2000/svg">
    <path fill-rule="evenodd" clip-rule="evenodd" d="M11.3684 4.05042C11.2887 4.04601 11.2087 4.04521 11.1278 4.04521C8.25252 4.04521 5.91993 5.99918 5.91993 8.41062C5.91993 8.80525 5.98437 9.18748 6.10164 9.5513C5.97437 9.5577 5.84629 9.56291 5.71741 9.56291C5.08543 9.56291 4.47627 9.47725 3.90833 9.31916C3.87591 9.30956 3.81107 9.29114 3.81107 9.29114L1.74424 10.3438L2.29657 8.61354L2.24414 8.58032C0.879725 7.7066 0 6.33018 0 4.78165C0 2.14088 2.55953 0 5.71741 0C8.57752 0 10.9473 1.75585 11.3684 4.05042ZM3.7282 3.91235C3.28474 3.91235 2.92532 3.56374 2.92532 3.13469C2.92532 2.70523 3.28474 2.35782 3.7282 2.35782C4.17167 2.35782 4.53188 2.70523 4.53188 3.13469C4.53188 3.56374 4.17167 3.91235 3.7282 3.91235ZM7.70613 2.35782C8.1496 2.35782 8.50861 2.70523 8.50861 3.13469C8.50861 3.56374 8.1496 3.91235 7.70613 3.91235C7.26227 3.91235 6.90365 3.56374 6.90365 3.13469C6.90365 2.70523 7.26227 2.35782 7.70613 2.35782Z" fill="white"/>
    <path fill-rule="evenodd" clip-rule="evenodd" d="M11.1711 12.4788C8.50313 12.4788 6.33984 10.6701 6.33984 8.43875C6.33984 6.20822 8.50313 4.39954 11.1711 4.39954C13.8379 4.39954 16.0004 6.20822 16.0004 8.43875C16.0004 9.74753 15.2568 10.9102 14.1045 11.6483L14.0601 11.6759L14.5267 13.1384L12.7813 12.2482C12.7813 12.2482 12.7265 12.2646 12.6988 12.2718C12.2194 12.4059 11.7046 12.4788 11.1711 12.4788ZM8.81152 7.0471C8.81152 6.68528 9.1157 6.39111 9.48993 6.39111C9.86495 6.39111 10.1687 6.68528 10.1687 7.0471C10.1687 7.41051 9.86495 7.70509 9.48993 7.70509C9.1157 7.70509 8.81152 7.41051 8.81152 7.0471ZM12.1731 7.0471C12.1731 6.68528 12.4765 6.39111 12.8511 6.39111C13.2261 6.39111 13.5295 6.68528 13.5295 7.0471C13.5295 7.41051 13.2261 7.70509 12.8511 7.70509C12.4765 7.70509 12.1731 7.41051 12.1731 7.0471Z" fill="white"/>
</svg>
