<svg width="14" height="14" viewBox="0 0 14 14" fill="none" xmlns="http://www.w3.org/2000/svg">
    <path d="M11.9512 2.04167C10.6341 0.729166 8.87805 0 7.02439 0C3.17073 0 0.0487797 3.11111 0.0487797 6.95139C0.0487797 8.16667 0.390244 9.38194 0.97561 10.4028L0 14L3.70732 13.0278C4.73171 13.5625 5.85366 13.8542 7.02439 13.8542C10.878 13.8542 14 10.7431 14 6.90278C13.9512 5.10417 13.2683 3.35417 11.9512 2.04167ZM10.3902 9.43056C10.2439 9.81944 9.56097 10.2083 9.21951 10.2569C8.92683 10.3056 8.53659 10.3056 8.14634 10.2083C7.90244 10.1111 7.56098 10.0139 7.17073 9.81945C5.41463 9.09028 4.29268 7.34028 4.19512 7.19444C4.09756 7.09722 3.46342 6.27083 3.46342 5.39583C3.46342 4.52083 3.90244 4.13194 4.04878 3.9375C4.19512 3.74306 4.39024 3.74306 4.53658 3.74306C4.63415 3.74306 4.78049 3.74306 4.87805 3.74306C4.97561 3.74306 5.12195 3.69444 5.26829 4.03472C5.41463 4.375 5.7561 5.25 5.80488 5.29861C5.85366 5.39583 5.85366 5.49306 5.80488 5.59028C5.7561 5.6875 5.70731 5.78472 5.60975 5.88194C5.51219 5.97917 5.41463 6.125 5.36585 6.17361C5.26829 6.27083 5.17073 6.36805 5.26829 6.51389C5.36585 6.70833 5.70732 7.24305 6.2439 7.72917C6.92683 8.3125 7.46341 8.50695 7.65854 8.60417C7.85366 8.70139 7.95122 8.65278 8.04878 8.55556C8.14634 8.45833 8.48781 8.06945 8.58537 7.875C8.68293 7.68056 8.82927 7.72917 8.97561 7.77778C9.12195 7.82639 10 8.26389 10.1463 8.36111C10.3415 8.45833 10.439 8.50694 10.4878 8.55556C10.5366 8.70139 10.5366 9.04167 10.3902 9.43056Z" fill="white"/>
</svg>
