<svg width="16" height="11" viewBox="0 0 16 11" fill="none" xmlns="http://www.w3.org/2000/svg">
    <path d="M14.9845 1.71769C14.8085 1.04154 14.2899 0.509105 13.6314 0.328403C12.438 0 7.65217 0 7.65217 0C7.65217 0 2.86635 0 1.67287 0.328403C1.01435 0.509105 0.495739 1.04154 0.319739 1.71769C0 2.94312 0 5.5 0 5.5C0 5.5 0 8.05679 0.319739 9.28232C0.495739 9.95846 1.01435 10.4909 1.67287 10.6717C2.86635 11 7.65217 11 7.65217 11C7.65217 11 12.438 11 13.6314 10.6717C14.2899 10.4909 14.8085 9.95846 14.9845 9.28232C15.3043 8.05679 15.3043 5.5 15.3043 5.5C15.3043 5.5 15.3043 2.94312 14.9845 1.71769" fill="white"/>
    <path d="M6.21777 8.13051V3.3479L10.0439 5.7393L6.21777 8.13051Z" fill="#3F3F3F"/>
</svg>
