<svg width="74" height="70" viewBox="0 0 74 70" fill="none" xmlns="http://www.w3.org/2000/svg">
<path fill-rule="evenodd" clip-rule="evenodd" d="M44.4637 7.14934C45.1997 7.98645 45.7622 8.96129 46.1187 10.0174L46.776 11.7738L52.7632 8.75158L52.0312 6.80496C51.9828 6.70605 51.9368 6.61209 51.8957 6.52802C51.5737 5.90323 51.0351 5.41717 50.3806 5.16078C49.7858 4.91425 49.1216 4.89284 48.5121 5.10056C48.4406 5.12955 48.3712 5.16353 48.3044 5.20222L44.4637 7.14934ZM48.586 27.0956L32.2481 37.188L23.492 26.1483C23.6969 26.2345 23.9183 26.2739 24.1403 26.2639C24.3623 26.2539 24.5792 26.1946 24.7755 26.0903L31.3304 22.6248C31.6843 22.4377 31.9495 22.1178 32.0675 21.7352C32.1855 21.3527 32.1467 20.939 31.9597 20.5851C31.7726 20.2312 31.4527 19.966 31.0701 19.848C30.6876 19.73 30.2739 19.7688 29.92 19.9558L23.365 23.4213C23.0835 23.5729 22.8571 23.8097 22.7184 24.0978C22.5797 24.3859 22.5358 24.7106 22.593 25.0252L18.7486 20.1636L40.0565 9.40436L40.3334 9.26882C41.4673 8.84262 42.5052 8.98442 43.2999 11.0966L44.0751 13.1691L36.9972 16.7435C36.8204 16.8328 36.6629 16.9561 36.5337 17.1064C36.4045 17.2566 36.3062 17.4308 36.2444 17.619C36.1194 17.9992 36.1507 18.4134 36.3311 18.7705C36.5116 19.1277 36.8266 19.3985 37.2067 19.5234C37.5869 19.6483 38.0011 19.6171 38.3582 19.4366L45.1418 16.0125L46.6468 20.0144L30.9683 27.847C30.6354 28.0394 30.3885 28.3516 30.278 28.72C30.1676 29.0883 30.202 29.4849 30.3742 29.8287C30.5464 30.1725 30.8434 30.4376 31.2045 30.5698C31.5655 30.702 31.9635 30.6914 32.317 30.54L47.6939 22.8305L47.7835 23.0135C48.2985 24.3136 48.5705 25.6973 48.586 27.0956ZM57.1175 21.6942C56.5803 22.1178 56.0187 22.5093 55.4355 22.8668L51.4773 25.3128C51.3069 24.1709 51.0117 23.0511 50.5971 21.9736L50.4141 21.487L56.3812 18.5114C56.7333 19.5448 56.9799 20.6112 57.1175 21.6942ZM55.2026 10.8802L55.5735 11.8634C55.3871 11.9326 55.2162 12.038 55.0707 12.1736C54.9252 12.3091 54.8079 12.472 54.7256 12.653C54.6432 12.834 54.5975 13.0295 54.591 13.2282C54.5845 13.427 54.6174 13.625 54.6877 13.811L55.369 15.6415L49.3696 18.6389L47.8647 14.6247L54.9228 11.06C55.0209 11.0079 55.1145 10.9477 55.2026 10.8802Z" fill="#FCCA19"/>
<path d="M57.476 41.6621L56.9172 41.9356C56.1828 42.3811 55.6485 43.0925 55.4254 43.922C55.2023 44.7514 55.3077 45.635 55.7196 46.3887C56.1316 47.1424 56.8183 47.7082 57.6368 47.9684C58.4554 48.2286 59.3428 48.163 60.1143 47.7855C60.8857 47.4079 61.4819 46.7474 61.7787 45.9413C62.0754 45.1353 62.0499 44.2459 61.7074 43.4582C61.365 42.6705 60.732 42.0452 59.9401 41.7125C59.1482 41.3797 58.2586 41.3652 57.4563 41.6718L57.476 41.6621ZM36.5723 52.9715C35.8409 52.7212 35.0454 52.7321 34.3212 53.0025C33.597 53.2728 32.9889 53.7859 32.6005 54.4542C32.2121 55.1225 32.0673 55.9048 32.1909 56.6679C32.3145 57.431 32.6988 58.1276 33.2783 58.6392C33.8579 59.1507 34.5968 59.4456 35.3693 59.4735C36.1418 59.5014 36.9001 59.2607 37.5151 58.7923C38.13 58.3239 38.5636 57.6569 38.742 56.9047C38.9203 56.1526 38.8325 55.3619 38.4933 54.6672C38.3007 54.2719 38.0318 53.9186 37.7021 53.6276C37.3724 53.3366 36.9884 53.1136 36.5723 52.9715ZM24.7721 26.0799C24.5969 26.1725 24.4051 26.2297 24.2078 26.2482C24.0104 26.2667 23.8113 26.2461 23.6219 26.1877C23.4325 26.1292 23.2565 26.0341 23.1039 25.9076C22.9513 25.7811 22.825 25.6259 22.7324 25.4506C22.6398 25.2754 22.5826 25.0836 22.5641 24.8862C22.5456 24.6889 22.5662 24.4898 22.6246 24.3004C22.6831 24.111 22.7782 23.935 22.9047 23.7824C23.0312 23.6297 23.1864 23.5035 23.3617 23.4109L29.9166 19.9454C30.2706 19.7584 30.6843 19.7196 31.0668 19.8376C31.4493 19.9556 31.7693 20.2208 31.9563 20.5747C32.1433 20.9286 32.1821 21.3423 32.0641 21.7248C31.9461 22.1074 31.681 22.4273 31.327 22.6144L24.7721 26.0799ZM44.4676 7.15377C45.2036 7.99088 45.7661 8.96572 46.1226 10.0218L46.7799 11.7782L52.7671 8.75602L52.0351 6.8094C51.9867 6.71049 51.9407 6.61652 51.8996 6.53245C51.5776 5.90766 51.039 5.4216 50.3845 5.16522C49.7897 4.91868 49.1255 4.89727 48.5161 5.10499C48.4445 5.13399 48.3751 5.16796 48.3083 5.20665L44.4676 7.15377ZM51.3426 29.4554L52.7263 28.6004C55.3008 27.0094 56.6306 25.5556 57.0267 23.8599C57.3589 22.4345 57.0904 20.7085 56.3851 18.5159L50.4204 21.4964L50.6034 21.983C51.5848 24.3438 51.8412 26.9434 51.3401 29.4504L51.3426 29.4554ZM54.6718 13.8251C54.5918 13.6378 54.5505 13.4363 54.5505 13.2326C54.5504 13.0289 54.5917 12.8274 54.6716 12.64C54.7516 12.4527 54.8687 12.2835 55.0158 12.1427C55.1629 12.0018 55.337 11.8922 55.5276 11.8205C55.7183 11.7487 55.9214 11.7163 56.1249 11.7252C56.3284 11.7341 56.528 11.7841 56.7116 11.8721C56.8952 11.9602 57.0591 12.0846 57.1934 12.2377C57.3277 12.3909 57.4296 12.5696 57.4929 12.7632L58.5933 15.7004C59.9562 19.3244 60.5482 22.0996 59.9635 24.5374C59.3789 26.9752 57.6221 29.1222 54.3125 31.165L31.7464 45.1024C31.6637 45.1679 31.574 45.2241 31.479 45.27L31.2268 45.3935C30.8779 45.6609 30.6306 46.0392 30.5257 46.466C30.3719 47.14 30.4538 47.8464 30.7577 48.4674C31.0616 49.0883 31.5691 49.5863 32.1958 49.8784C32.4373 49.9906 32.7002 50.0495 32.9665 50.0514C33.2329 50.0532 33.4965 49.9979 33.7396 49.8891L54.827 39.5687C58.5065 37.7679 62.3936 37.8946 64.3904 41.9746C64.8247 42.8597 65.0479 43.8334 65.0424 44.8194C65.0369 45.8053 64.8028 46.7765 64.3585 47.6566C63.9142 48.5368 63.2719 49.3019 62.482 49.8919C61.692 50.4819 60.7761 50.8807 59.806 51.0569C58.836 51.2331 57.8383 51.1819 56.8913 50.9074C55.9444 50.6329 55.074 50.1425 54.3486 49.4748C53.6232 48.8071 53.0625 47.9802 52.7106 47.0592C52.3587 46.1382 52.2252 45.1482 52.3206 44.1669L38.8937 50.7381C39.9754 51.4233 40.8257 52.4182 41.334 53.5934C41.8423 54.7686 41.985 56.0696 41.7435 57.3271C41.502 58.5845 40.8875 59.7401 39.98 60.6434C39.0725 61.5467 37.9141 62.1558 36.6555 62.3915C35.397 62.6271 34.0966 62.4784 32.9238 61.9647C31.751 61.4509 30.76 60.596 30.0799 59.5111C29.3998 58.4262 29.0621 57.1617 29.1107 55.8823C29.1594 54.6028 29.5921 53.3676 30.3526 52.3375C29.3452 51.737 28.5359 50.8543 28.0251 49.7986C27.4011 48.5285 27.2561 47.0759 27.6167 45.7075C27.7684 45.1445 28.0126 44.6107 28.3393 44.1278L21.9246 36.0309C21.6935 35.7149 21.5938 35.3216 21.6464 34.9336C21.699 34.5456 21.8999 34.1931 22.2069 33.95C22.5139 33.707 22.9031 33.5923 23.2929 33.6301C23.6826 33.6678 24.0425 33.8551 24.2971 34.1526L30.6828 42.1901L44.3942 33.7203C46.7484 32.2678 47.9523 30.5568 48.3836 28.7703C48.7553 26.8352 48.5417 24.8333 47.7702 23.0202L47.6806 22.8372L32.3285 30.5224C31.975 30.6737 31.577 30.6844 31.2159 30.5522C30.8549 30.42 30.5579 30.1549 30.3857 29.811C30.2135 29.4672 30.1791 29.0706 30.2895 28.7023C30.4 28.334 30.6469 28.0217 30.9798 27.8293L46.6582 19.9967L45.1533 15.9948L38.3697 19.419C38.0126 19.5994 37.5984 19.6306 37.2182 19.5057C36.8381 19.3808 36.5231 19.11 36.3426 18.7529C36.1622 18.3957 36.1309 17.9815 36.2559 17.6014C36.3808 17.2212 36.6516 16.9063 37.0087 16.7258L44.0866 13.1515L43.3114 11.0789C42.5167 8.96676 41.4788 8.82495 40.3449 9.25115L40.068 9.38669L14.8007 22.1512L19.2396 27.7516C19.4659 28.0682 19.5616 28.4598 19.5069 28.8451C19.4522 29.2304 19.2511 29.5799 18.9456 29.8209C18.64 30.062 18.2533 30.1761 17.8659 30.1396C17.4784 30.1031 17.1198 29.9188 16.8646 29.625L11.9311 23.4146L2.91666 27.9796C2.55953 28.1601 2.14532 28.1913 1.76518 28.0664C1.38503 27.9414 1.07007 27.6706 0.88959 27.3135C0.709114 26.9564 0.677905 26.5422 0.802823 26.162C0.92774 25.7819 1.19855 25.4669 1.55569 25.2864C16.6588 17.6435 31.8567 10.1442 46.9745 2.50633C47.1427 2.42404 47.3059 2.34417 47.4691 2.26429C48.7789 1.78912 50.2183 1.81628 51.5093 2.34053C52.8504 2.86834 53.9524 3.86821 54.6077 5.1519C54.7104 5.33647 54.8033 5.52631 54.886 5.72063L55.998 8.74411C56.1069 9.03064 56.1259 9.34356 56.0526 9.64119C55.9792 9.93882 55.8169 10.207 55.5873 10.4101C55.443 10.6885 55.2144 10.9141 54.9342 11.0547L47.8464 14.6338L49.3513 18.6481L55.3507 15.6506L54.6718 13.8251Z" fill="#2C2C2C"/>
</svg>
