<svg width="18" height="16" viewBox="0 0 18 16" fill="none" xmlns="http://www.w3.org/2000/svg">
<path fill-rule="evenodd" clip-rule="evenodd" d="M6.9456 7.09713e-06C6.96372 1.06734e-05 6.98186 1.42497e-05 7.00001 1.42497e-05H8.76394C8.77642 1.42497e-05 8.78891 1.17463e-05 8.8014 9.2429e-06C9.06948 -4.32091e-05 9.34066 -9.62577e-05 9.57358 0.0239855C9.84039 0.0515729 10.1391 0.116812 10.4334 0.298712C10.7278 0.480612 10.9197 0.718619 11.0637 0.944932C11.1894 1.14248 11.3106 1.38506 11.4305 1.62485C11.4361 1.63603 11.4416 1.64721 11.4472 1.65837L12.118 3.00001H15C15.0182 3.00001 15.0363 3.00001 15.0544 3C15.4785 2.99992 15.8906 2.99984 16.2305 3.04554C16.6137 3.09706 17.051 3.22258 17.4142 3.5858C17.7774 3.94901 17.9029 4.38629 17.9545 4.76949C18.0002 5.1094 18.0001 5.52153 18 5.9456C18 5.96371 18 5.98185 18 6.00001V9C18 9.01816 18 9.0363 18 9.05442C18.0001 9.47848 18.0002 9.89061 17.9545 10.2305C17.9029 10.6137 17.7774 11.051 17.4142 11.4142C17.051 11.7774 16.6137 11.903 16.2305 11.9545C15.8906 12.0002 15.4785 12.0001 15.0544 12C15.0363 12 15.0182 12 15 12H7.00001C6.98186 12 6.96372 12 6.9456 12C6.52153 12.0001 6.10941 12.0002 5.76949 11.9545C5.38629 11.903 4.94902 11.7774 4.5858 11.4142C4.22258 11.051 4.09706 10.6137 4.04554 10.2305C3.99984 9.89061 3.99992 9.47848 4.00001 9.05441C4.00001 9.0363 4.00001 9.01816 4.00001 9V3.00001C4.00001 2.98186 4.00001 2.96372 4.00001 2.9456C3.99992 2.52153 3.99984 2.10941 4.04554 1.76949C4.09706 1.38629 4.22258 0.949015 4.5858 0.5858C4.94902 0.222585 5.38629 0.0970633 5.76949 0.0455431C6.10941 -0.000157174 6.52153 -7.62301e-05 6.9456 7.09713e-06ZM6.02871 2.0287C6.02837 2.03108 6.02804 2.03351 6.02771 2.03599C6.00214 2.22618 6.00001 2.50034 6.00001 3.00001V9C6.00001 9.49968 6.00214 9.77384 6.02771 9.96403C6.02804 9.96651 6.02837 9.96893 6.0287 9.97131C6.03108 9.97164 6.03351 9.97198 6.03599 9.97231C6.22618 9.99788 6.50034 10 7.00001 10H15C15.4997 10 15.7738 9.99788 15.964 9.97231C15.9665 9.97198 15.9689 9.97164 15.9713 9.97131C15.9716 9.96893 15.972 9.96651 15.9723 9.96403C15.9979 9.77384 16 9.49968 16 9V6.00001C16 5.50033 15.9979 5.22618 15.9723 5.03598C15.972 5.03351 15.9716 5.03108 15.9713 5.0287C15.9689 5.02837 15.9665 5.02804 15.964 5.0277C15.7738 5.00213 15.4997 5.00001 15 5.00001H11.5C11.1212 5.00001 10.775 4.78601 10.6056 4.44722L9.65837 2.5528C9.51471 2.26548 9.43965 2.11812 9.37632 2.01859C9.37531 2.017 9.37432 2.01546 9.37335 2.01396C9.37158 2.01376 9.36976 2.01357 9.36789 2.01338C9.25054 2.00125 9.08517 2.00001 8.76394 2.00001H7.00001C6.50034 2.00001 6.22618 2.00214 6.03599 2.02771C6.03351 2.02804 6.03108 2.02837 6.02871 2.0287Z" fill="#2C2C2C"/>
<path fill-rule="evenodd" clip-rule="evenodd" d="M2.5681 3C2.57873 3 2.58936 3.00001 2.6 3.00001H5V5H2.6C2.30348 5 2.14122 5.00078 2.02464 5.01031C2.01999 5.01069 2.0156 5.01107 2.01145 5.01145C2.01107 5.0156 2.01069 5.01999 2.01031 5.02464C2.00078 5.14122 2 5.30348 2 5.6V13.4C2 13.6965 2.00078 13.8588 2.01031 13.9754C2.01069 13.98 2.01107 13.9844 2.01145 13.9885C2.0156 13.9889 2.01999 13.9893 2.02464 13.9897C2.14122 13.9992 2.30348 14 2.6 14H12.4C12.6965 14 12.8588 13.9992 12.9754 13.9897C12.98 13.9893 12.9844 13.9889 12.9885 13.9885C12.9889 13.9844 12.9893 13.98 12.9897 13.9754C12.9992 13.8588 13 13.6965 13 13.4V11H15L15 13.4319C15 13.6843 15 13.9301 14.983 14.1382C14.9644 14.3668 14.9203 14.6365 14.782 14.908C14.5903 15.2843 14.2843 15.5903 13.908 15.782C13.6365 15.9203 13.3668 15.9644 13.1382 15.983C12.9301 16.0001 12.6843 16 12.4319 16H2.56812C2.31573 16 2.06994 16.0001 1.86177 15.983C1.63318 15.9644 1.36345 15.9203 1.09202 15.782C0.715699 15.5903 0.409738 15.2843 0.217992 14.908C0.0796951 14.6365 0.0356271 14.3668 0.0169504 14.1382C-5.68609e-05 13.9301 -2.74161e-05 13.6843 2.50544e-06 13.4319L5.12804e-06 5.6C5.12804e-06 5.58936 3.81674e-06 5.57873 2.50544e-06 5.5681C-2.74161e-05 5.31572 -5.68609e-05 5.06993 0.0169504 4.86177C0.0356271 4.63318 0.0796947 4.36345 0.217992 4.09202C0.409738 3.7157 0.715699 3.40974 1.09202 3.21799C1.36345 3.07969 1.63318 3.03563 1.86177 3.01695C2.06993 2.99994 2.31572 2.99997 2.5681 3Z" fill="#2C2C2C"/>
</svg>
