<svg width="53" height="59" viewBox="0 0 53 59" fill="none" xmlns="http://www.w3.org/2000/svg">
<path fill-rule="evenodd" clip-rule="evenodd" d="M38.1367 50.792C45.7277 45.6894 46.0912 40.9572 45.511 33.5829L49.0059 43.3338C49.3068 44.1727 49.2623 45.0967 48.8822 45.9027C48.5021 46.7088 47.8175 47.331 46.9789 47.6325L38.1367 50.792Z" fill="#FCCA19"/>
<path fill-rule="evenodd" clip-rule="evenodd" d="M42.2829 24.559L22.243 31.7376L22.201 31.6327C22.681 31.4619 23.0736 31.1076 23.2924 30.6476C23.5113 30.1875 23.5386 29.6594 23.3683 29.1793L18.0001 14.2C17.8706 13.8369 17.8516 13.4435 17.9455 13.0696C18.0394 12.6957 18.2419 12.358 18.5277 12.0992C18.8134 11.8404 19.1695 11.6721 19.5508 11.6155C19.9322 11.559 20.3217 11.6167 20.6702 11.7815C20.9022 11.8877 21.1102 12.0396 21.282 12.2282C21.4537 12.4168 21.5857 12.6381 21.6698 12.8789L27.038 27.8582C27.2088 28.3381 27.5631 28.7307 28.0232 28.9496C28.4832 29.1684 29.0113 29.1958 29.4915 29.0255H29.5264C29.9967 28.8477 30.3786 28.4928 30.5903 28.0368C30.8019 27.5807 30.8265 27.0599 30.6587 26.586L26.7235 15.6049C26.5544 15.1262 26.578 14.6004 26.7892 14.1387C27.0005 13.677 27.383 13.3155 27.8558 13.1305L27.9467 13.0956C28.4219 12.9397 28.9386 12.9717 29.391 13.1849C29.8433 13.398 30.1969 13.7763 30.3792 14.2419L30.4211 14.3538L34.3284 25.2649C34.4965 25.7391 34.8445 26.128 35.297 26.3478C35.7495 26.5675 36.2704 26.6003 36.7469 26.4392H36.7889C37.2688 26.2685 37.6614 25.9141 37.8803 25.4541C38.0991 24.9941 38.1264 24.4659 37.9562 23.9858L35.4398 16.9959C35.2664 16.5173 35.287 15.9897 35.4973 15.5261C35.7076 15.0624 36.0908 14.6994 36.5652 14.5145H36.6631C37.1363 14.3568 37.6521 14.3871 38.1036 14.5992C38.5551 14.8113 38.9078 15.1889 39.0886 15.6539L39.1305 15.7727L39.6198 17.1707C39.6401 17.2918 39.6705 17.411 39.7106 17.5272L42.2829 24.559Z" fill="#FCCA19"/>
<path d="M29.0732 54.0353C29.3104 53.9508 29.562 53.9139 29.8136 53.9267C30.0651 53.9395 30.3117 54.0017 30.5392 54.1098C30.7667 54.2178 30.9707 54.3697 31.1395 54.5566C31.3083 54.7435 31.4387 54.9618 31.5231 55.1991C31.6076 55.4364 31.6444 55.688 31.6316 55.9395C31.6189 56.191 31.5567 56.4376 31.4486 56.6651C31.3405 56.8926 31.1887 57.0966 31.0018 57.2654C30.8149 57.4342 30.5966 57.5646 30.3593 57.649C29.214 58.0504 27.9901 58.1749 26.7875 58.0125C25.5938 57.8566 24.4512 57.4312 23.4463 56.7683L2.92406 43.4177C1.66336 42.6128 0.72186 41.3946 0.260923 39.9717C0.0373786 39.2701 -0.0437495 38.5309 0.0222679 37.7975C0.0882852 37.0641 0.300152 36.3513 0.6454 35.7009L0.806153 35.4073C1.54612 34.1835 2.70263 33.2677 4.06341 32.828L4.17527 32.7931C5.53861 32.3737 7.01215 32.5067 8.27832 33.1635L8.55093 33.3103L10.4731 34.4706C10.6992 34.5943 10.898 34.7623 11.0577 34.9646C11.2173 35.1669 11.3345 35.3993 11.4022 35.648C11.4699 35.8967 11.4867 36.1564 11.4516 36.4117C11.4165 36.667 11.3303 36.9126 11.198 37.1338C11.0658 37.355 10.8903 37.5472 10.682 37.699C10.4737 37.8507 10.2369 37.9589 9.98585 38.0169C9.73478 38.075 9.47455 38.0818 9.22078 38.037C8.96701 37.9921 8.72494 37.8965 8.509 37.7559L6.57979 36.6025L6.50287 36.5536C6.12803 36.3643 5.69403 36.3292 5.29363 36.4558H5.2377C4.76538 36.6138 4.36746 36.9396 4.11934 37.3714L4.05641 37.4693C3.94766 37.6762 3.88173 37.9029 3.86251 38.1359C3.8433 38.3689 3.87121 38.6034 3.9446 38.8253C4.13254 39.4049 4.51859 39.8999 5.03501 40.2233L25.5363 53.5879C26.0617 53.9347 26.6594 54.157 27.2838 54.238C27.8857 54.3204 28.4986 54.2605 29.0732 54.0632V54.0353ZM39.7187 17.4224C39.6786 17.3062 39.6482 17.187 39.6278 17.0659L39.1385 15.6679L39.0966 15.5491C38.9158 15.0841 38.5632 14.7065 38.1117 14.4944C37.6602 14.2823 37.1444 14.252 36.6711 14.4097H36.5733C36.0989 14.5946 35.7157 14.9576 35.5054 15.4213C35.2951 15.885 35.2745 16.4125 35.4479 16.8911L37.9642 23.881C38.1345 24.3611 38.1072 24.8893 37.8884 25.3493C37.6695 25.8093 37.2769 26.1637 36.797 26.3344H36.755C36.2785 26.4955 35.7576 26.4627 35.3051 26.243C34.8525 26.0232 34.5046 25.6343 34.3365 25.1601L30.4292 14.249L30.3873 14.1371C30.1946 13.6817 29.8366 13.3161 29.3854 13.1138C28.9341 12.9115 28.423 12.8875 27.9548 13.0467L27.8639 13.0817C27.391 13.2667 27.0086 13.6282 26.7973 14.0899C26.586 14.5516 26.5624 15.0773 26.7315 15.5561L30.6808 26.5651C30.8486 27.039 30.824 27.5598 30.6123 28.0158C30.4006 28.4719 30.0187 28.8268 29.5485 29.0046H29.5135C29.0334 29.1748 28.5052 29.1475 28.0452 28.9287C27.5852 28.7098 27.2309 28.3172 27.0601 27.8373L21.6919 12.858C21.6077 12.6172 21.4758 12.3959 21.3041 12.2073C21.1323 12.0187 20.9242 11.8668 20.6923 11.7606C20.4618 11.6493 20.2113 11.5851 19.9557 11.5719C19.7 11.5587 19.4443 11.5967 19.2035 11.6837C18.7167 11.859 18.3192 12.22 18.0979 12.6876C17.8765 13.1552 17.8493 13.6914 18.0222 14.1791L23.3904 29.1583C23.5607 29.6385 23.5334 30.1666 23.3145 30.6266C23.0956 31.0867 22.7031 31.441 22.2231 31.6118H22.1812C21.7045 31.771 21.1845 31.7373 20.7325 31.5178C20.2804 31.2983 19.9323 30.9105 19.7627 30.4375L10.6758 5.14815L10.6339 5.03631C10.4545 4.5701 10.1023 4.1909 9.65069 3.97744C9.19904 3.76397 8.68253 3.73265 8.2084 3.88998L8.11752 3.92493C7.64468 4.10992 7.26224 4.47145 7.05095 4.93315C6.83967 5.39484 6.81608 5.92058 6.98517 6.39935L14.2616 26.7189L19.2384 40.3072C19.4136 40.7845 19.392 41.3119 19.1783 41.7733C19.0725 42.0018 18.9227 42.2072 18.7376 42.3778C18.5524 42.5484 18.3354 42.6809 18.0991 42.7676C17.6217 42.9428 17.0943 42.9212 16.6329 42.7075C16.1715 42.4938 15.8138 42.1056 15.6386 41.6283L12.647 33.4851C12.5678 33.3596 12.5022 33.226 12.4512 33.0866L3.36442 7.7344C2.85378 6.289 2.93451 4.70045 3.589 3.31424C4.24349 1.92803 5.4188 0.856295 6.85936 0.332139C8.30476 -0.178501 9.8933 -0.0977952 11.2795 0.556694C12.6657 1.21118 13.7375 2.38652 14.2616 3.82707L16.1349 9.07646C16.7778 8.55124 17.5258 8.16976 18.3284 7.95767C19.1311 7.74557 19.9698 7.70779 20.7883 7.84685C21.6067 7.98591 22.3859 8.29858 23.0735 8.76386C23.7611 9.22915 24.341 9.83624 24.7744 10.5443C25.3098 10.0763 25.9288 9.71347 26.5987 9.47488C27.3121 9.21826 28.0693 9.10589 28.8265 9.14429C29.5836 9.18268 30.3256 9.37109 31.0093 9.69856C32.0235 10.1749 32.8781 10.9348 33.4698 11.8864C34.0075 11.4162 34.6287 11.0511 35.3011 10.8099C36.7455 10.2976 38.3339 10.3776 39.7194 11.0324C41.105 11.6872 42.1753 12.8637 42.6964 14.3049L45.2127 21.3297C45.2561 21.4448 45.2865 21.5644 45.3036 21.6862L52.5871 42.0197C53.2229 43.8201 53.1212 45.7988 52.3042 47.5246C51.4871 49.2503 50.021 50.5831 48.2254 51.2323L37.2583 55.1606C37.0205 55.2455 36.7684 55.2828 36.5163 55.2703C36.2641 55.2577 36.0169 55.1956 35.7888 55.0876C35.5606 54.9795 35.356 54.8276 35.1866 54.6404C35.0171 54.4533 34.8863 54.2346 34.8014 53.9968C34.7165 53.7591 34.6792 53.5069 34.6917 53.2548C34.7043 53.0027 34.7663 52.7555 34.8744 52.5273C34.9825 52.2992 35.1344 52.0945 35.3216 51.9251C35.5087 51.7557 35.7274 51.6248 35.9652 51.5399L46.9393 47.6116C47.7779 47.31 48.4624 46.6878 48.8425 45.8818C49.2226 45.0757 49.2671 44.1517 48.9663 43.3128L39.7187 17.4224Z" fill="#2C2C2C"/>
</svg>
