<svg width="63" height="69" viewBox="0 0 63 69" fill="none" xmlns="http://www.w3.org/2000/svg">
<path fill-rule="evenodd" clip-rule="evenodd" d="M20.5193 63.8828C20 63.5112 19.5607 63.039 19.2275 62.4944C18.8942 61.9497 18.6737 61.3437 18.5791 60.7122L13.8141 29.2471C14.0333 29.5208 14.3384 29.7126 14.68 29.7916C15.0217 29.8705 15.38 29.832 15.697 29.6821C16.0141 29.5323 16.2714 29.2799 16.4273 28.9658C16.5832 28.6517 16.6286 28.2943 16.5563 27.9511L15.4655 22.6718L26.8125 20.3272L27.9033 25.6065C27.987 26.0114 28.2281 26.3665 28.5735 26.5936C28.919 26.8208 29.3405 26.9014 29.7454 26.8177C30.1503 26.7341 30.5054 26.493 30.7325 26.1475C30.9596 25.8021 31.0402 25.3806 30.9566 24.9757L29.8657 19.6963L34.0792 18.8257L42.4528 59.3507L20.5193 63.8828ZM43.3667 16.9067L50.4888 51.3752C50.1903 51.456 49.9227 51.6242 49.7203 51.8581L45.1837 57.1599L37.1325 18.1948L43.3667 16.9067Z" fill="#FCCA19"/>
<path d="M16.5616 27.9734C16.6452 28.3783 16.5646 28.7998 16.3375 29.1453C16.1103 29.4907 15.7553 29.7318 15.3504 29.8155C14.9455 29.8991 14.524 29.8185 14.1785 29.5914C13.833 29.3642 13.592 29.0092 13.5083 28.6043L12.4129 23.3027L8.105 24.1928L13.7974 61.7989L13.8329 61.9709C13.996 62.7986 14.4752 63.5302 15.1689 64.0103C15.8271 64.4624 16.6332 64.6458 17.4223 64.5229L42.4534 59.3508L34.0799 18.8257L29.8664 19.6964L30.9572 24.9757C31.0409 25.3806 30.9603 25.8021 30.7332 26.1476C30.506 26.4931 30.1509 26.7341 29.7461 26.8178C29.3412 26.9014 28.9196 26.8208 28.5742 26.5937C28.2287 26.3666 27.9877 26.0115 27.904 25.6066L26.8131 20.3272L15.4661 22.6718L16.5616 27.9734ZM25.6278 14.7027C25.5991 14.5639 25.5705 14.4252 25.5418 14.2864C25.1504 12.81 24.2588 11.5151 23.0193 10.6226C22.4028 10.1692 21.6987 9.84901 20.9518 9.68247C20.2048 9.51592 19.4314 9.50663 18.6807 9.65519C17.9327 9.81665 17.2265 10.1318 16.6067 10.5808C15.987 11.0297 15.4674 11.6025 15.0808 12.2629C14.2219 13.7037 13.9408 15.4164 14.2942 17.0561L14.8322 19.6597L26.1903 17.3128L25.65 14.6981L25.6278 14.7027ZM40.5661 14.3309L40.0281 11.7273C39.7048 10.082 38.7699 8.62042 37.4117 7.63716C36.7976 7.1781 36.0932 6.85457 35.3448 6.68794C34.5964 6.52131 33.8212 6.51537 33.0704 6.67051C32.3196 6.82565 31.6102 7.13834 30.9892 7.58793C30.3681 8.03752 29.8495 8.61376 29.4677 9.2786C28.6965 10.5919 28.4012 12.1309 28.6316 13.6364C28.6603 13.7751 28.689 13.9139 28.7176 14.0527L29.2556 16.6563L40.5804 14.3163L40.5661 14.3309ZM6.0476 21.4633L11.7877 20.2772L11.2497 17.6736C10.7449 15.2657 11.1668 12.756 12.4313 10.6455C13.038 9.61708 13.8513 8.72561 14.8198 8.02734C15.7884 7.32907 16.8912 6.83916 18.0586 6.58853C19.2298 6.35595 20.4364 6.36866 21.6024 6.62588C22.7684 6.8831 23.8684 7.37923 24.833 8.08296C25.2791 8.40303 25.6975 8.75998 26.0839 9.15005C26.284 8.6388 26.5267 8.14525 26.8093 7.6746C27.4103 6.64186 28.2221 5.74737 29.192 5.04945C30.1618 4.35153 31.2679 3.86584 32.438 3.62406C33.6082 3.38228 34.8161 3.38983 35.9832 3.64622C37.1502 3.90261 38.2501 4.40208 39.2111 5.11207C41.2105 6.5466 42.5932 8.68448 43.0814 11.0964L43.6193 13.7L49.5704 12.4703C49.9657 12.3885 50.3773 12.4644 50.7174 12.6817C51.0575 12.8991 51.2993 13.2408 51.391 13.6338L61.6987 56.9081C61.7826 57.1966 61.781 57.5032 61.6941 57.7907C61.6073 58.0783 61.4389 58.3345 61.2094 58.5283C60.98 58.7222 60.6992 58.8453 60.4011 58.8828C60.1031 58.9203 59.8006 58.8706 59.5302 58.7396L51.2994 54.7909L45.5599 61.4989L45.5322 61.5046L45.5044 61.5104L45.4711 61.5173L45.4212 61.5276L45.3878 61.5345L45.3545 61.5413L45.3212 61.5482L45.238 61.5654L45.188 61.5758L45.1547 61.5826L18.1417 67.1642L17.8308 67.2285C16.2508 67.4538 14.6443 67.0697 13.337 66.1542C11.9924 65.2276 11.0565 63.8185 10.7239 62.2197C10.7112 62.1587 10.6883 62.0477 10.6562 61.8922L4.7456 22.8379C4.68485 22.4435 4.77768 22.0408 5.00497 21.7127C5.23225 21.3847 5.57668 21.1563 5.9673 21.0747L6.0476 21.4633ZM48.7189 15.8009L37.1331 18.1949L45.1844 57.16L49.7099 51.8604C49.9338 51.6034 50.2359 51.4268 50.5698 51.3578C50.9037 51.2888 51.251 51.3312 51.5585 51.4785L57.9271 54.5386L48.7189 15.8009Z" fill="#2C2C2C"/>
</svg>
