<svg width="570" height="519" viewBox="0 0 570 519" fill="none" xmlns="http://www.w3.org/2000/svg">
<path d="M471.43 462.475C394.547 534.474 320.859 497.882 254.183 461.289C210.309 437.211 169.471 413.133 132.758 419.998C37.732 437.758 -6.39459 340.444 58.7498 215.157C122.173 93.1803 223.831 31.5616 292.097 20.1884C404.954 1.38541 527.382 111.912 489.642 200.452C455.58 280.362 555.625 383.633 471.43 462.475Z" fill="#F3F3F3"/>
<path d="M64.6582 392.294L46.3361 398.996L37.5033 389.835L48.7242 382.461L64.6582 392.294Z" fill="#FEB3A2"/>
<path d="M314.219 18.4595C370.998 18.4595 431.424 47.4036 468.163 94.1155C496.629 130.308 504.692 170.454 490.281 204.259C475.432 239.093 485.237 278.909 494.719 317.415C507.963 371.208 521.661 426.834 471.849 473.48C390.55 549.619 311.823 506.244 242.356 467.973C200.069 444.678 160.119 422.652 123.958 429.429C86.6911 436.391 55.7241 426.169 36.7792 400.619C7.32553 360.901 12.0861 291.889 49.1981 220.513C112.167 99.4198 214.708 32.8252 288.398 20.5508C296.847 19.1426 305.494 18.4595 314.219 18.4595ZM375.228 518.198C407.256 518.2 440.194 506.725 473.646 475.4C524.58 427.701 510.695 371.315 497.27 316.785C487.46 276.946 478.194 239.316 492.698 205.291C507.495 170.573 499.306 129.462 470.228 92.4892C427.278 37.8825 352.316 7.23608 287.967 17.9577C213.63 30.3424 110.252 97.4021 46.8679 219.302C9.28552 291.577 4.61166 361.653 34.6696 402.185C54.245 428.58 86.1263 439.177 124.439 432.012C159.67 425.429 199.223 447.213 241.09 470.275C282.918 493.321 328.082 518.193 375.228 518.198Z" fill="#DFDFDF"/>
<path d="M50.4551 398.571C50.4551 398.571 46.249 402.101 42.1006 405.036C37.9548 407.97 36.1525 408.8 32.0856 406.417C28.0187 404.038 27.3461 398.281 25.5832 395.859C23.823 393.439 16.1989 383.771 16.1989 383.771C16.1989 383.771 14.6856 377.147 16.3223 376.194C19.0467 374.605 23.4736 380.091 26.9257 383.025C30.3831 385.962 41.2493 387.323 41.2493 387.323L50.4551 398.571Z" fill="#2C2C2C"/>
<path d="M344 347.5C361.19 341.3 301.342 327 409.001 327C421.139 313.417 395.936 290.398 395 270.5L340.5 294L344 347.5ZM231.597 282.046V130.839C160.226 143.642 99.0255 203.781 144.3 253.83C163.474 275.026 197.013 271.698 231.597 282.046Z" fill="#FCCA19"/>
<path d="M480.865 107.052C480.865 107.052 469.844 40.084 492.506 45.4593C515.168 50.8372 480.865 107.052 480.865 107.052Z" fill="#FCCA19"/>
<path d="M457.568 164.322C457.568 164.322 423.743 117.182 440.615 108.52C457.487 99.8583 457.568 164.322 457.568 164.322Z" fill="#FCCA19"/>
<path d="M430.703 200.36C430.703 200.36 396.878 153.22 413.75 144.558C430.622 135.896 430.703 200.36 430.703 200.36Z" fill="#2356F1"/>
<path d="M455.566 163.687C455.566 163.687 501.201 126.483 506.897 146.439C512.593 166.398 455.566 163.687 455.566 163.687Z" fill="#FCCA19"/>
<path d="M472.376 128.569C472.376 128.569 516.418 94.5146 520.832 113.791C525.246 133.064 472.376 128.569 472.376 128.569Z" fill="#FCCA19"/>
<path d="M473.01 130.965C473.01 130.965 440.395 82.9735 457.483 74.7477C474.57 66.5192 473.01 130.965 473.01 130.965Z" fill="#FCCA19"/>
<path d="M498.594 118.84C498.387 118.299 497.777 118.026 497.236 118.233L475.028 126.767C475.953 124.21 476.849 121.625 477.713 119.008C487.4 89.5836 489.712 66.2145 489.733 65.9859C489.788 65.4053 489.365 64.893 488.784 64.8378C488.206 64.7827 487.694 65.2056 487.636 65.7836C487.615 66.0148 485.321 89.1895 475.698 118.399C474.82 121.066 473.859 123.842 472.813 126.698L464.241 89.3104C464.109 88.7429 463.545 88.3882 462.98 88.5196C462.412 88.6483 462.06 89.2105 462.191 89.778L471.226 129.194C471.284 129.452 471.439 129.67 471.652 129.817C468.058 139.269 463.539 149.529 457.901 159.883L444.82 120.393C444.636 119.844 444.04 119.542 443.488 119.728C442.937 119.91 442.64 120.506 442.821 121.055L456.559 162.334L455.884 163.506C449.292 175.081 441.279 186.664 431.582 197.25L431.264 197.242L420.469 160.626C420.306 160.067 419.72 159.749 419.163 159.912C418.606 160.077 418.288 160.663 418.454 161.22L429.27 197.917L429.202 198.253C429.194 198.666 429.425 199.023 429.764 199.204C426.301 202.859 422.628 206.387 418.74 209.739C418.299 210.12 418.249 210.785 418.627 211.226L419.173 211.56C419.491 211.639 419.843 211.568 420.111 211.334C424.396 207.64 428.526 203.649 432.499 199.372L459.044 199.916C459.625 199.929 460.105 199.467 460.116 198.886C460.129 198.306 459.667 197.825 459.086 197.812L434.382 197.307C442.535 188.228 449.988 177.918 456.648 166.49C457.097 165.723 457.541 164.945 457.98 164.162C458.054 164.154 458.361 163.658 458.574 163.238L483.674 153.118C484.213 152.902 484.473 152.287 484.257 151.749C484.039 151.21 483.43 150.947 482.889 151.166L460.103 160.324C465.299 150.698 469.971 140.344 474.064 129.391L497.99 120.199C498.531 119.991 498.802 119.381 498.594 118.84Z" fill="#2C2C2C"/>
<path d="M351.676 232.078L352.291 231.855C352.698 231.516 352.754 230.914 352.415 230.504C352.399 230.483 351.81 229.721 351.81 228.368C351.81 227.107 352.407 226.306 352.407 226.306C352.733 225.888 352.656 225.284 352.241 224.958C351.823 224.63 351.214 224.706 350.893 225.126C350.791 225.258 349.89 226.469 349.89 228.368C349.89 230.412 350.83 231.603 350.938 231.729C351.127 231.957 351.401 232.078 351.676 232.078Z" fill="white"/>
<path d="M348.44 233.348L348.945 233.201C349.397 232.922 349.533 232.331 349.255 231.879C349.255 231.879 348.275 230.266 348.267 228.414C348.262 227.084 349.011 225.298 349.297 224.72C349.536 224.247 349.347 223.669 348.871 223.433C348.404 223.196 347.82 223.385 347.584 223.858C347.529 223.961 346.336 226.367 346.344 228.424C346.36 230.836 347.576 232.812 347.626 232.893C347.807 233.185 348.123 233.348 348.44 233.348Z" fill="white"/>
<path d="M345.264 234.973L345.739 234.847C346.199 234.582 346.359 233.998 346.096 233.539C346.086 233.512 344.644 230.94 344.644 228.418C344.644 226.156 346.117 223.043 346.131 223.011C346.359 222.533 346.157 221.961 345.676 221.732C345.206 221.498 344.625 221.703 344.399 222.187C344.331 222.326 342.72 225.728 342.72 228.418C342.72 231.458 344.36 234.366 344.431 234.487C344.61 234.797 344.93 234.973 345.264 234.973Z" fill="white"/>
<path d="M342.01 236.565L342.496 236.434C342.953 236.169 343.105 235.58 342.843 235.123C342.819 235.089 340.951 231.831 341.085 228.453C341.208 225.253 343.061 221.12 343.079 221.081C343.297 220.597 343.082 220.027 342.598 219.806C342.125 219.588 341.547 219.801 341.329 220.29C341.245 220.471 339.304 224.809 339.162 228.382C339.012 232.33 341.093 235.94 341.182 236.09C341.358 236.395 341.679 236.565 342.01 236.565Z" fill="white"/>
<path d="M372.539 297.114C372.539 288.788 365.79 282.039 357.464 282.039C349.138 282.039 342.389 288.788 342.389 297.114C342.389 305.44 349.138 312.187 357.464 312.187C365.79 312.187 372.539 305.44 372.539 297.114Z" fill="#FFE6B4"/>
<path d="M393.447 297.114C393.447 288.788 386.701 282.039 378.375 282.039C370.049 282.039 363.3 288.788 363.3 297.114C363.3 305.44 370.049 312.187 378.375 312.187C386.701 312.187 393.447 305.44 393.447 297.114Z" fill="#FF3700"/>
<path d="M422.303 49.1187V24.1312C422.303 15.5297 415.33 8.55706 406.729 8.55706L247.17 8.5518C238.571 8.5518 231.596 15.5297 231.596 24.1312V35.7698C251.392 26.8083 270.484 20.8708 287.965 17.9572C296.546 16.528 305.31 15.8344 314.169 15.8344C351.134 15.8344 389.633 27.9328 422.303 49.1187ZM231.596 40.2544C253.236 29.8533 273.857 23.2248 292.095 20.1878C294.78 19.7411 297.484 19.3654 300.179 19.0607C296.217 19.4075 292.284 19.9014 288.396 20.5503C270.796 23.4823 251.555 29.5091 231.596 38.6413V40.2544Z" fill="#689BF9"/>
<path d="M406.731 425.917C415.33 425.917 422.303 418.933 422.303 410.334V397.479C411.442 401.397 399.656 403.701 387.521 403.704C365.169 403.704 341.634 395.885 320.48 375.892C279.577 337.24 276.406 303.43 256.339 292.299C248.152 287.756 239.845 284.512 231.596 282.045V410.334C231.596 418.933 238.571 425.912 247.17 425.912L406.731 425.917ZM415.764 179.455H417.821C410.509 165.67 404.488 149.313 413.751 144.558C414.813 144.011 415.808 143.756 416.741 143.756C418.916 143.756 420.753 145.144 422.303 147.484V52.2426C389.77 30.752 351.218 18.4592 314.216 18.4592C309.508 18.4592 304.822 18.6563 300.179 19.0609C297.484 19.3656 294.78 19.7413 292.095 20.188C273.857 23.225 253.236 29.8535 231.596 40.2546V130.838C240.562 129.23 249.687 128.371 258.782 128.371C267.917 128.371 277.01 129.238 285.887 131.088C323.766 138.98 359.384 158.611 387.986 179.447H415.761L415.764 179.455Z" fill="#6097F8"/>
<path d="M422.303 52.2427V49.1189C389.633 27.933 351.134 15.8347 314.169 15.8347C305.31 15.8347 296.546 16.5283 287.965 17.9575C270.484 20.8711 251.392 26.8086 231.596 35.77V38.6416C251.555 29.5094 270.796 23.4825 288.396 20.5506C292.284 19.9016 296.217 19.4077 300.179 19.0609C304.822 18.6563 309.508 18.4593 314.216 18.4593C351.218 18.4593 389.77 30.7521 422.303 52.2427Z" fill="#5993F5"/>
<path d="M387.521 403.704C399.656 403.701 411.442 401.397 422.303 397.479V319.031H416.155L416.15 319.02H343.405C337.48 319.02 332.678 314.218 332.678 308.294V190.185C332.678 184.258 337.48 179.455 343.405 179.455H345.985L345.982 179.447H387.986C359.384 158.611 323.766 138.98 285.887 131.088C277.01 129.238 267.917 128.371 258.782 128.371C249.687 128.371 240.562 129.23 231.596 130.838V282.045C239.845 284.512 248.152 287.756 256.339 292.299C276.406 303.43 279.577 337.24 320.48 375.892C341.634 395.885 365.169 403.704 387.521 403.704Z" fill="url(#paint0_linear_3020_2832)"/>
<path d="M417.821 179.455H422.303V174.293L418.451 161.22C418.286 160.663 418.604 160.077 419.161 159.911C419.26 159.882 419.36 159.869 419.46 159.869C419.915 159.869 420.332 160.166 420.466 160.626L422.303 166.852V147.484C420.753 145.144 418.916 143.756 416.741 143.756C415.808 143.756 414.813 144.011 413.751 144.558C404.488 149.313 410.509 165.67 417.821 179.455Z" fill="#175CF4"/>
<path d="M422.303 174.292V166.852L420.466 160.625C420.332 160.165 419.915 159.869 419.46 159.869C419.36 159.869 419.26 159.882 419.161 159.911C418.604 160.076 418.286 160.662 418.451 161.219L422.303 174.292Z" fill="#3171E4"/>
<path d="M343.405 319.021H416.15L345.985 179.456H343.405C337.48 179.456 332.678 184.258 332.678 190.185V308.295C332.678 314.219 337.48 319.021 343.405 319.021ZM367.919 307.974C365.208 310.585 361.525 312.188 357.463 312.188C349.137 312.188 342.388 305.442 342.388 297.116C342.388 288.79 349.137 282.041 357.463 282.041C361.525 282.041 365.208 283.646 367.919 286.258C370.628 283.646 374.314 282.041 378.376 282.041C386.701 282.041 393.448 288.79 393.448 297.116C393.448 305.442 386.701 312.188 378.376 312.188C374.314 312.188 370.628 310.585 367.919 307.974ZM342.209 219.723C342.341 219.723 342.475 219.75 342.601 219.807C343.084 220.028 343.3 220.598 343.082 221.082C343.063 221.121 341.211 225.254 341.088 228.454C340.954 231.832 342.822 235.09 342.845 235.124C343.108 235.581 342.956 236.17 342.498 236.435L342.012 236.566C341.681 236.566 341.361 236.396 341.185 236.091C341.096 235.941 339.015 232.331 339.164 228.383C339.306 224.81 341.248 220.472 341.332 220.291C341.492 219.933 341.847 219.723 342.209 219.723ZM345.265 221.636C345.404 221.636 345.546 221.667 345.677 221.733C346.158 221.962 346.36 222.534 346.132 223.013C346.119 223.044 344.645 226.157 344.645 228.419C344.645 230.941 346.087 233.514 346.098 233.54C346.36 234 346.2 234.583 345.74 234.848L345.265 234.974C344.931 234.974 344.611 234.798 344.432 234.488C344.361 234.367 342.722 231.459 342.722 228.419C342.722 225.729 344.332 222.327 344.401 222.188C344.563 221.841 344.91 221.636 345.265 221.636ZM348.444 223.33C348.588 223.33 348.735 223.365 348.872 223.433C349.348 223.669 349.537 224.247 349.298 224.72C349.011 225.298 348.263 227.085 348.268 228.414C348.276 230.266 349.256 231.879 349.256 231.879C349.534 232.331 349.398 232.922 348.946 233.201L348.441 233.348C348.123 233.348 347.808 233.185 347.627 232.894C347.577 232.812 346.36 230.836 346.345 228.425C346.337 226.368 347.53 223.961 347.585 223.859C347.753 223.522 348.094 223.33 348.444 223.33ZM351.649 224.757C351.857 224.757 352.064 224.823 352.24 224.959C352.655 225.285 352.731 225.889 352.406 226.307C352.406 226.307 351.809 227.108 351.809 228.369C351.809 229.722 352.398 230.484 352.414 230.505C352.752 230.915 352.697 231.517 352.29 231.856L351.675 232.079C351.399 232.079 351.126 231.958 350.937 231.73C350.829 231.604 349.889 230.413 349.889 228.369C349.889 226.47 350.79 225.259 350.892 225.127C351.079 224.883 351.363 224.757 351.649 224.757ZM422.303 192.463V179.456H417.821H415.764L422.303 192.463Z" fill="#3078F0"/>
<path d="M416.155 319.032H422.303V303.89H413.528V293.277H422.303V192.463L415.764 179.455L415.761 179.447H387.986H345.982L345.985 179.455L416.15 319.02L416.155 319.032Z" fill="url(#paint1_linear_3020_2832)"/>
<path d="M351.676 232.078L352.291 231.855C352.698 231.516 352.754 230.914 352.415 230.504C352.399 230.483 351.81 229.721 351.81 228.368C351.81 227.107 352.407 226.306 352.407 226.306C352.733 225.888 352.656 225.284 352.241 224.958C352.065 224.822 351.858 224.756 351.65 224.756C351.364 224.756 351.08 224.882 350.893 225.126C350.791 225.258 349.89 226.469 349.89 228.368C349.89 230.412 350.83 231.603 350.938 231.729C351.127 231.957 351.401 232.078 351.676 232.078Z" fill="#689BF9"/>
<path d="M348.44 233.348L348.945 233.201C349.397 232.922 349.533 232.331 349.255 231.879C349.255 231.879 348.275 230.266 348.267 228.414C348.262 227.084 349.011 225.298 349.297 224.72C349.536 224.247 349.347 223.669 348.871 223.433C348.735 223.364 348.588 223.33 348.443 223.33C348.094 223.33 347.752 223.522 347.584 223.858C347.529 223.961 346.336 226.367 346.344 228.424C346.36 230.836 347.576 232.812 347.626 232.893C347.807 233.185 348.123 233.348 348.44 233.348Z" fill="#689BF9"/>
<path d="M345.264 234.973L345.739 234.847C346.199 234.582 346.359 233.998 346.096 233.539C346.086 233.512 344.644 230.94 344.644 228.418C344.644 226.156 346.117 223.043 346.131 223.011C346.359 222.533 346.157 221.961 345.676 221.732C345.545 221.666 345.403 221.635 345.264 221.635C344.909 221.635 344.562 221.84 344.399 222.187C344.331 222.326 342.72 225.728 342.72 228.418C342.72 231.458 344.36 234.366 344.431 234.487C344.61 234.797 344.93 234.973 345.264 234.973Z" fill="#689BF9"/>
<path d="M342.01 236.565L342.496 236.434C342.953 236.169 343.105 235.58 342.843 235.123C342.819 235.089 340.951 231.831 341.085 228.453C341.208 225.253 343.061 221.12 343.079 221.081C343.297 220.597 343.082 220.027 342.598 219.806C342.472 219.749 342.338 219.722 342.207 219.722C341.844 219.722 341.489 219.933 341.329 220.29C341.245 220.471 339.304 224.809 339.162 228.382C339.012 232.33 341.093 235.94 341.182 236.09C341.358 236.395 341.679 236.565 342.01 236.565Z" fill="#689BF9"/>
<path d="M357.464 312.187C361.525 312.187 365.209 310.584 367.92 307.973C365.072 305.233 363.301 301.381 363.301 297.114C363.301 292.85 365.072 288.996 367.92 286.256C365.209 283.644 361.525 282.039 357.464 282.039C349.138 282.039 342.389 288.788 342.389 297.114C342.389 305.44 349.138 312.187 357.464 312.187Z" fill="#6891DD"/>
<path d="M378.375 312.187C386.701 312.187 393.447 305.44 393.447 297.114C393.447 288.788 386.701 282.039 378.375 282.039C374.313 282.039 370.627 283.644 367.919 286.256C365.071 288.996 363.3 292.85 363.3 297.114C363.3 301.381 365.071 305.233 367.919 307.973C370.627 310.584 374.313 312.187 378.375 312.187Z" fill="#68519B"/>
<path d="M422.303 303.89H413.527V293.276H422.303V303.89Z" fill="#689BF9"/>
<path d="M247.17 425.914L406.731 425.917C415.33 425.917 422.303 418.933 422.303 410.334V24.1314C422.303 15.5299 415.33 8.55725 406.729 8.55725L247.17 8.552C238.571 8.552 231.596 15.5299 231.596 24.1314V410.334C231.596 418.933 238.571 425.914 247.17 425.914Z" fill="white"/>
<path d="M247.173 425.914L406.734 425.917C415.333 425.917 422.306 418.933 422.306 410.334L422.309 381.906H231.602L231.599 410.334C231.599 418.933 238.574 425.914 247.173 425.914Z" fill="#F3F3F3"/>
<path d="M244.688 425.914H408.823C416.271 425.914 422.309 419.876 422.309 412.429V409.82H231.602V412.828C231.602 420.053 237.463 425.914 244.688 425.914Z" fill="#DFDFDF"/>
<path d="M231.596 410.334C231.596 418.951 238.58 425.924 247.197 425.924L406.732 425.917C415.349 425.917 422.303 418.951 422.303 410.334V24.1309C422.303 15.5136 415.347 8.55676 406.729 8.55676L247.197 8.56467C238.58 8.56467 231.596 15.5136 231.596 24.1309V410.334ZM228.307 8.56467C232.195 3.36279 238.422 -9.15527e-05 245.41 -9.15527e-05H408.508C415.496 -9.15527e-05 421.697 3.36279 425.611 8.56467C428.291 12.1377 429.867 16.5777 429.867 21.3855V411.999C429.867 423.796 420.304 433.359 408.508 433.359H245.41C233.614 433.359 224.025 423.796 224.025 411.999V21.3855C224.025 16.5777 225.601 12.1377 228.307 8.56467Z" fill="#2C2C2C"/>
<path d="M200.999 293.273L206.059 297.65L210.725 306.045C210.725 306.045 207.659 310.681 203.266 312.817C198.871 314.953 193.934 314.201 193.934 314.201L192.605 305.053L200.999 293.273Z" fill="#FEB3A2"/>
<path d="M195.808 286.758C195.808 286.758 199.205 279.484 202.415 283.18C205.623 286.879 195.309 308.457 188.26 308.068C181.216 307.684 174.543 295.144 172.73 289.398C170.917 283.65 168.716 277.319 174.984 273.278C187.837 264.995 195.808 286.758 195.808 286.758Z" fill="#FEB3A2"/>
<path d="M206.409 297.625L201 293.274C201 293.274 204.486 283.829 200.916 282.925C197.343 282.016 195.808 286.759 195.808 286.759C195.808 286.759 191.182 276.105 181.301 278.225C171.254 280.377 171.851 284.78 171.851 284.78C171.851 284.78 152.677 286.409 163.278 266.132C167.256 258.524 169.823 266.111 172.389 264.456C174.959 262.804 168.969 256.971 177.539 255.048C185.675 253.222 187.317 261.6 191.389 262.05C195.462 262.501 196.147 260.421 198.593 261.007C203.729 262.236 206.291 262.562 210.954 272.519C215.62 282.474 206.409 297.625 206.409 297.625Z" fill="#2C2C2C"/>
<path d="M239.768 399.763C233.055 414.155 215.251 414.003 205.924 411.675C196.6 409.342 140.117 386.191 140.117 386.191C140.117 386.191 117.479 390.478 106.371 391.813C95.263 393.148 102.028 395.896 98.3369 399.469C94.6483 403.042 91.443 398.786 87.4102 400.454C83.3722 402.119 84.8251 405.146 81.5016 406.36C78.1756 407.574 69.5451 404.757 69.5451 404.757L42.7633 379.867C42.7633 379.867 105.349 349.681 113.738 348.729C125.87 347.352 222.063 378.771 222.063 378.771C222.063 378.771 247.169 383.892 239.768 399.763Z" fill="#EAA800"/>
<path d="M248.292 409.273C245.344 422.825 221.324 420.232 211.997 417.904C202.678 415.574 146.193 392.422 146.193 392.422C146.193 392.422 123.557 396.713 112.446 398.047C101.336 399.379 108.104 402.125 104.412 405.698C100.724 409.273 97.5213 405.017 93.4832 406.685C89.4478 408.352 90.906 411.378 87.5773 412.591C84.2486 413.805 75.6207 410.986 75.6207 410.986L54.54 396.235C54.54 396.235 127.902 361.012 141.028 359.932C154.151 358.854 232.268 381.585 232.268 381.585C232.268 381.585 251.242 395.72 248.292 409.273Z" fill="#FCCA19"/>
<path d="M259.613 384.371C261.034 383.435 262.235 395.734 259.122 402.678C256.006 409.621 247.386 412.735 247.386 412.735C247.386 412.735 248.345 406.029 245.234 400.045C242.119 394.058 238.367 386.113 238.367 386.113C238.367 386.113 258.187 385.306 259.613 384.371Z" fill="#2C2C2C"/>
<path d="M73.8555 409.755L59.7736 414.672L50.0162 405.317L59.0222 399.371L73.8555 409.755Z" fill="#FEB3A2"/>
<path d="M60.6367 415.644C60.6367 415.644 56.4543 419.154 52.3296 422.076C48.2101 424.993 46.4157 425.814 42.3697 423.447C38.3265 421.08 37.6591 415.355 35.9068 412.949C34.157 410.543 26.5723 400.927 26.5723 400.927C26.5723 400.927 25.0695 394.343 26.6957 393.394C29.4044 391.813 33.805 397.267 37.2414 400.189C40.6778 403.108 51.4835 404.46 51.4835 404.46L60.6367 415.644Z" fill="#565656"/>
<path d="M181.869 366.678L121.853 349.388L111.11 310.818C110.698 309.326 112.033 307.938 113.538 308.293L133.578 313.03C134.934 313.351 136.016 314.37 136.421 315.7L147.715 352.906L179.481 362.742L181.869 366.678Z" fill="#2C2C2C"/>
<path d="M55.7446 397.277L56.031 397.212C56.7114 396.881 123.968 363.986 131.274 360.646C138.307 357.431 141.994 358.353 142.033 358.358C142.38 358.458 142.74 358.248 142.834 357.896C142.929 357.546 142.726 357.187 142.38 357.089C142.214 357.042 138.25 356.012 130.728 359.451C123.406 362.798 56.1334 395.701 55.4556 396.033C55.1299 396.19 54.9959 396.582 55.1535 396.91C55.2665 397.141 55.5003 397.277 55.7446 397.277Z" fill="#09030F"/>
<path d="M163.647 395.956C163.934 395.956 164.194 395.772 164.278 395.486C164.38 395.139 164.181 394.774 163.834 394.669C163.75 394.646 155.532 392.207 152.224 390.371C150.48 389.405 148.914 386.903 147.653 384.893C146.431 382.946 145.548 381.538 144.542 381.289C144.009 381.152 143.688 381.388 143.544 381.538C142.934 382.166 143.255 383.425 143.925 385.771C144.143 386.535 144.469 387.683 144.568 388.385C144.369 388.143 144.145 387.833 143.972 387.594C143.152 386.464 142.312 385.29 141.282 385.6C139.816 386.036 139.748 389.17 139.798 390.597C139.201 390.765 138.092 391.025 136.033 391.407C129.381 392.641 125.852 392.416 125.821 392.409C125.463 392.333 125.145 392.655 125.119 393.017C125.093 393.379 125.366 393.692 125.729 393.718C125.871 393.734 129.438 393.965 136.274 392.699C141.429 391.745 141.616 391.435 141.571 390.76C141.558 390.573 141.474 390.295 141.103 390.129C141.101 388.569 141.353 387.05 141.671 386.85C141.873 386.937 142.548 387.865 142.911 388.364C143.609 389.329 144.169 390.1 144.881 390.093C145.199 390.087 145.491 389.922 145.685 389.633C146.161 388.931 145.824 387.638 145.189 385.413C144.968 384.63 144.626 383.441 144.548 382.776C145.089 383.275 145.879 384.539 146.539 385.592C147.879 387.729 149.547 390.387 151.586 391.522C155.022 393.426 163.119 395.828 163.461 395.93L163.647 395.956Z" fill="#09030F"/>
<path d="M313.87 85.9497H338.453L336.527 35.804H316.093L313.87 85.9497Z" fill="#898989"/>
<path d="M324.166 107.184H328.157C333.842 107.184 338.453 102.573 338.453 96.8875V85.9504H313.87V96.8875C313.87 102.573 318.478 107.184 324.166 107.184Z" fill="#282728"/>
<path d="M338.452 85.9497H363.037L357.163 35.804H336.526L338.452 85.9497Z" fill="white"/>
<path d="M348.748 107.184H352.738C358.426 107.184 363.037 102.573 363.037 96.8875V85.9504H338.452V96.8875C338.452 102.573 343.062 107.184 348.748 107.184Z" fill="#F3F3F3"/>
<path d="M363.167 85.9497H387.752L377.432 35.804H357.46L363.167 85.9497Z" fill="#898989"/>
<path d="M373.463 107.184H377.453C383.141 107.184 387.752 102.573 387.752 96.8875V85.9504H363.167V96.8875C363.167 102.573 367.777 107.184 373.463 107.184Z" fill="#282728"/>
<path d="M387.788 85.9497H412.371L398.57 35.804H377.434L387.788 85.9497Z" fill="white"/>
<path d="M398.084 107.184H402.075C407.76 107.184 412.371 102.573 412.371 96.8875V85.9504H387.788V96.8875C387.788 102.573 392.396 107.184 398.084 107.184Z" fill="#F3F3F3"/>
<path d="M412.319 85.9497H436.904L419.27 35.804H398.568L412.319 85.9497Z" fill="#898989"/>
<path d="M422.615 107.184H426.606C432.294 107.184 436.904 102.573 436.904 96.8875V85.9504H412.319V96.8875C412.319 102.573 416.93 107.184 422.615 107.184Z" fill="#282728"/>
<path d="M313.751 85.9497H289.168L295.04 35.804H315.674L313.751 85.9497Z" fill="white"/>
<path d="M303.454 107.184H299.461C293.775 107.184 289.167 102.573 289.167 96.8875V85.9504H313.75V96.8875C313.75 102.573 309.139 107.184 303.454 107.184Z" fill="#F3F3F3"/>
<path d="M289.034 85.9497H264.448L274.768 35.804H294.74L289.034 85.9497Z" fill="#898989"/>
<path d="M278.737 107.184H274.744C269.058 107.184 264.448 102.573 264.448 96.8875V85.9504H289.033V96.8875C289.033 102.573 284.422 107.184 278.737 107.184Z" fill="#282728"/>
<path d="M264.412 85.9497H239.827L253.628 35.804H274.764L264.412 85.9497Z" fill="white"/>
<path d="M254.122 107.184H250.129C244.443 107.184 239.832 102.573 239.832 96.8875V85.9504H264.418V96.8875C264.418 102.573 259.807 107.184 254.122 107.184Z" fill="#F3F3F3"/>
<path d="M239.88 85.9497H215.295L232.928 35.804H253.631L239.88 85.9497Z" fill="#898989"/>
<path d="M229.587 107.184H225.593C219.908 107.184 215.297 102.573 215.297 96.8875V85.9504H239.883V96.8875C239.883 102.573 235.272 107.184 229.587 107.184Z" fill="#282728"/>
<path d="M288.255 358.604H356.889V358.231H288.255V358.604Z" fill="#6A8EC8"/>
<path d="M406.342 337.546H249.907V341.849H406.342V337.546Z" fill="#DFDFDF"/>
<path d="M405.984 201.713H249.544V206.016H405.984V201.713Z" fill="#DFDFDF"/>
<path d="M405.98 210.143H249.546V214.444H405.98V210.143Z" fill="#DFDFDF"/>
<path d="M406.203 219.463L359.029 219.384V223.69L406.203 223.766V219.463Z" fill="#DFDFDF"/>
<path d="M406.344 329.115H249.904V333.418H406.344V329.115Z" fill="#DFDFDF"/>
<path d="M406.562 346.864L359.386 346.788V351.091L406.562 351.168V346.864Z" fill="#DFDFDF"/>
<path d="M265.439 142.156L259.667 142.138L262.342 146.229L265.439 142.156Z" fill="white"/>
<path d="M407.555 112.821H337.66V192.247H407.555V112.821Z" fill="#F3F3F3"/>
<path d="M108.994 115.544C108.994 102.67 98.5299 92.2351 85.625 92.2351C72.7175 92.2351 62.256 102.67 62.256 115.544C62.256 128.412 72.7175 138.847 85.625 138.847C98.5299 138.847 108.994 128.412 108.994 115.544Z" fill="white"/>
<path d="M86.0327 92.5999C98.5566 92.5999 108.745 102.762 108.745 115.252C108.745 127.736 98.5566 137.898 86.0327 137.898C73.5087 137.898 63.3205 127.736 63.3205 115.252C63.3205 102.762 73.5087 92.5999 86.0327 92.5999ZM86.0327 139.212C99.2791 139.212 110.059 128.464 110.059 115.252C110.059 102.037 99.2791 91.2863 86.0327 91.2863C72.7836 91.2863 62.0068 102.037 62.0068 115.252C62.0068 128.464 72.7836 139.212 86.0327 139.212Z" fill="#2C2C2C"/>
<path d="M287.704 178.399H314.565C317.917 178.399 320.639 175.677 320.639 172.322V170.562C320.639 167.207 317.917 164.488 314.565 164.488H287.704C284.349 164.488 281.627 167.207 281.627 170.562V172.322C281.627 175.677 284.349 178.399 287.704 178.399Z" fill="#FCCA19"/>
<path d="M265.439 268.988L259.667 268.969L262.342 273.062L265.439 268.988Z" fill="white"/>
<path d="M407.555 239.655H337.66V319.079H407.555V239.655Z" fill="#F3F3F3"/>
<path d="M287.704 305.234H314.565C317.917 305.234 320.639 302.514 320.639 299.156V297.396C320.639 294.041 317.917 291.32 314.565 291.32H287.704C284.349 291.32 281.627 294.041 281.627 297.396V299.156C281.627 302.514 284.349 305.234 287.704 305.234Z" fill="#FCCA19"/>
<path d="M362.275 248.144H383.907L383.918 245.889H362.275V248.144Z" fill="#FCCA19"/>
<path d="M240.162 141.143H160.951C159.173 141.143 157.725 143.836 157.725 147.157V221.478C157.725 224.796 159.173 227.492 160.951 227.492H240.162C241.946 227.492 243.391 224.796 243.391 221.478V147.157C243.391 143.836 241.946 141.143 240.162 141.143Z" fill="white"/>
<path d="M240.521 141.851C241.737 141.851 243.093 144.05 243.093 147.208V221.53C243.093 224.685 241.737 226.887 240.521 226.887H161.31C160.096 226.887 158.741 224.685 158.741 221.53V147.208C158.741 144.05 160.096 141.851 161.31 141.851H240.521ZM161.31 228.2H240.521C242.701 228.2 244.406 225.268 244.406 221.53V147.208C244.406 143.467 242.701 140.538 240.521 140.538H161.31C159.132 140.538 157.427 143.467 157.427 147.208V221.53C157.427 225.268 159.132 228.2 161.31 228.2Z" fill="#2C2C2C"/>
<path d="M96.2557 164.377H40.9869C39.7416 164.377 38.7355 166.258 38.7355 168.575V220.434C38.7355 222.751 39.7416 224.632 40.9869 224.632H96.2557C97.501 224.632 98.5098 222.751 98.5098 220.434V168.575C98.5098 166.258 97.501 164.377 96.2557 164.377Z" fill="white"/>
<path d="M96.3255 164.861C97.0795 164.861 97.9227 166.374 97.9227 168.402V220.261C97.9227 222.289 97.0795 223.802 96.3255 223.802H41.0567C40.3027 223.802 39.462 222.289 39.462 220.261V168.402C39.462 166.374 40.3027 164.861 41.0567 164.861H96.3255ZM41.0567 225.116H96.3255C97.957 225.116 99.2363 222.982 99.2363 220.261V168.402C99.2363 165.68 97.957 163.547 96.3255 163.547H41.0567C39.4252 163.547 38.1484 165.68 38.1484 168.402V220.261C38.1484 222.982 39.4252 225.116 41.0567 225.116Z" fill="#2C2C2C"/>
<path d="M132.91 243.609H88.2418C87.2382 243.609 86.4211 245.13 86.4211 247.003V288.912C86.4211 290.786 87.2382 292.307 88.2418 292.307H132.91C133.916 292.307 134.73 290.786 134.73 288.912V247.003C134.73 245.13 133.916 243.609 132.91 243.609Z" fill="white"/>
<path d="M132.521 244.728C132.996 244.728 133.684 245.794 133.684 247.465V289.374C133.684 291.046 132.996 292.112 132.521 292.112H87.8526C87.3771 292.112 86.6887 291.046 86.6887 289.374V247.465C86.6887 245.794 87.3771 244.728 87.8526 244.728H132.521ZM87.8526 293.426H132.521C133.934 293.426 134.998 291.684 134.998 289.374V247.465C134.998 245.156 133.934 243.414 132.521 243.414H87.8526C86.4392 243.414 85.3751 245.156 85.3751 247.465V289.374C85.3751 291.684 86.4392 293.426 87.8526 293.426Z" fill="#2C2C2C"/>
<path d="M451.948 338.008H410.564C409.634 338.008 408.878 339.415 408.878 341.149V379.979C408.878 381.714 409.634 383.122 410.564 383.122H451.948C452.881 383.122 453.635 381.714 453.635 379.979V341.149C453.635 339.415 452.881 338.008 451.948 338.008Z" fill="white"/>
<path d="M451.948 338.665C452.357 338.665 452.977 339.655 452.977 341.15V379.98C452.977 381.476 452.357 382.466 451.948 382.466H410.564C410.154 382.466 409.534 381.476 409.534 379.98V341.15C409.534 339.655 410.154 338.665 410.564 338.665H451.948ZM410.564 383.779H451.948C453.285 383.779 454.291 382.146 454.291 379.98V341.15C454.291 338.985 453.285 337.352 451.948 337.352H410.564C409.226 337.352 408.22 338.985 408.22 341.15V379.98C408.22 382.146 409.226 383.779 410.564 383.779Z" fill="#2C2C2C"/>
<path d="M537.334 365.057C537.334 353.637 528.076 344.379 516.655 344.379C505.235 344.379 495.974 353.637 495.974 365.057C495.974 376.478 505.235 385.739 516.655 385.739C528.076 385.739 537.334 376.478 537.334 365.057Z" fill="white"/>
<path d="M516.653 345.036C527.692 345.036 536.675 354.018 536.675 365.057C536.675 376.1 527.692 385.082 516.653 385.082C505.61 385.082 496.628 376.1 496.628 365.057C496.628 354.018 505.61 345.036 516.653 345.036ZM516.653 386.396C528.417 386.396 537.988 376.822 537.988 365.057C537.988 353.295 528.417 343.722 516.653 343.722C504.888 343.722 495.314 353.295 495.314 365.057C495.314 376.822 504.888 386.396 516.653 386.396Z" fill="#2C2C2C"/>
<path d="M505.937 363.378H515.161V354.017C515.161 353.192 515.829 352.525 516.654 352.525C517.476 352.525 518.146 353.192 518.146 354.017V363.378H527.273C528.098 363.378 528.768 364.043 528.768 364.868C528.768 365.695 528.098 366.363 527.273 366.363H518.146V375.826C518.146 376.652 517.476 377.315 516.654 377.315C515.829 377.315 515.161 376.652 515.161 375.826V366.363H505.937C505.112 366.363 504.445 365.695 504.445 364.868C504.445 364.043 505.112 363.378 505.937 363.378Z" fill="#2C2C2C"/>
<path d="M431.256 344.182L426.312 354.202L415.256 355.808L423.256 363.607L421.367 374.618L431.256 369.419L441.145 374.618L439.256 363.607L447.256 355.808L436.201 354.202L431.256 344.182Z" fill="#FCCA19"/>
<path d="M126.873 334.632C126.957 334.632 127.041 334.622 127.125 334.6C127.921 334.39 128.308 333.214 127.982 331.978C127.69 330.867 126.928 330.082 126.198 330.082C126.111 330.082 126.027 330.092 125.946 330.115C125.147 330.326 124.761 331.498 125.087 332.737C125.381 333.846 126.14 334.632 126.873 334.632Z" fill="#565656"/>
<path d="M232.335 38.5996H420.527V33.0115H232.335V38.5996Z" fill="#2C2C2C"/>
<path d="M50.6115 124.67L51.4444 124.257C52.4847 123.743 53.0785 123.477 53.0785 123.477L53.9297 123.099L53.1731 121.396L52.3245 121.775C52.3245 121.775 51.7124 122.048 50.6195 122.589L49.784 123.004L50.6115 124.67Z" fill="#2C2C2C"/>
<path d="M41.0573 130.255L41.8402 129.753C42.9436 129.044 43.9972 128.395 44.985 127.809L45.7837 127.331L44.8326 125.733L44.0314 126.206C43.0278 126.805 41.9585 127.465 40.8341 128.187L40.0512 128.692L41.0573 130.255ZM32.0723 136.768L32.8053 136.19C33.7984 135.407 34.7809 134.658 35.7477 133.949L36.4965 133.397L35.393 131.897L34.6443 132.448C33.6644 133.171 32.666 133.93 31.6519 134.729L30.9216 135.302L32.0723 136.768ZM23.8281 144.158L24.49 143.506C25.3807 142.632 26.2767 141.786 27.1725 140.971L27.8635 140.343L26.6076 138.967L25.9194 139.595C25.0051 140.427 24.0933 141.289 23.187 142.18L22.5223 142.834L23.8281 144.158ZM16.4981 152.439L17.0787 151.709C17.8511 150.739 18.6367 149.793 19.4353 148.874L20.0448 148.172L18.6394 146.951L18.0272 147.652C17.2154 148.593 16.4088 149.56 15.6206 150.55L15.0426 151.278L16.4981 152.439ZM10.374 161.618L10.8443 160.815C11.4669 159.748 12.1106 158.705 12.7753 157.683L13.285 156.903L11.7244 155.886L11.2175 156.666C10.537 157.714 9.87752 158.784 9.2391 159.877L8.76882 160.678L10.374 161.618ZM5.766 171.618L6.0944 170.748C6.53314 169.592 7.00075 168.462 7.49729 167.354L7.8756 166.502L6.17842 165.743L5.79742 166.592C5.28775 167.735 4.80441 168.898 4.35515 170.086L4.02406 170.958L5.766 171.618ZM2.93648 182.237L3.10979 181.323C3.33573 180.109 3.59851 178.916 3.89539 177.744L4.11872 176.841L2.31636 176.386L2.08789 177.287C1.78313 178.501 1.51245 179.728 1.276 180.978L1.10782 181.895L2.93648 182.237ZM1.94601 193.216C1.94601 193.216 2.07211 190.276 2.13253 189.252L2.24017 187.665L0.382767 187.536L0.0859222 193.142L1.94601 193.216ZM0.135826 204.387L1.99591 204.319C1.99591 204.319 1.88552 200.943 1.87238 199.689L1.86186 198.759L-0.000793457 198.778L0.00972366 199.71C0.0228615 200.977 0.0543442 202.225 0.0990105 203.459L0.135826 204.387ZM1.16042 215.592L3.00742 215.345L2.88388 214.423C2.721 213.222 2.58172 212.001 2.45824 210.758L2.36626 209.83L0.511562 210.012L0.606106 210.937C0.726959 212.205 0.874119 213.446 1.03701 214.667L1.16042 215.592ZM3.36725 226.634L5.17218 226.18L4.94627 225.276C4.65202 224.107 4.3735 222.911 4.11603 221.687L3.92694 220.775L2.10354 221.159L2.29533 222.073C2.55805 223.316 2.83928 224.538 3.13878 225.733L3.36725 226.634ZM6.97711 237.327L8.70583 236.628L8.3537 235.766C7.89919 234.647 7.46578 233.499 7.05331 232.325L6.74325 231.445L4.98822 232.062L5.29828 232.939C5.72126 234.145 6.16521 235.32 6.63023 236.463L6.97711 237.327ZM12.1895 247.358L13.7763 246.386L13.2929 245.592C12.6624 244.565 12.0555 243.506 11.467 242.411L11.0256 241.588L9.38624 242.468L9.82497 243.288C10.4292 244.415 11.0572 245.505 11.7008 246.562L12.1895 247.358ZM19.0649 256.348L20.4521 255.108L19.8347 254.412C19.0281 253.513 18.2425 252.578 17.478 251.608L16.9027 250.878L15.4394 252.031L16.0173 252.762C16.8081 253.763 17.6173 254.724 18.4449 255.654L19.0649 256.348ZM27.4667 263.941L28.6096 262.472L27.8713 261.899C26.915 261.158 25.9692 260.381 25.0418 259.569L24.343 258.957L23.116 260.357L23.8176 260.969C24.7739 261.807 25.7459 262.603 26.7337 263.371L27.4667 263.941ZM37.0955 269.899L37.9625 268.252L37.1402 267.818C36.063 267.251 34.9937 266.652 33.9349 266.021L33.1362 265.543L32.1799 267.141L32.9813 267.619C34.0663 268.27 35.1644 268.882 36.2731 269.466L37.0955 269.899ZM47.5571 274.205L48.1535 272.445L47.2733 272.143C46.1226 271.754 44.9692 271.331 43.8211 270.876L42.9542 270.532L42.2685 272.264L43.1329 272.605C44.3125 273.075 45.4947 273.509 46.6744 273.908L47.5571 274.205ZM58.5177 276.958L58.8672 275.13L57.9529 274.957C56.7654 274.728 55.5622 274.468 54.351 274.179L53.4447 273.963L53.0138 275.774L53.9201 275.989C55.1549 276.283 56.3845 276.549 57.6035 276.782L58.5177 276.958Z" fill="#2C2C2C"/>
<path d="M67.9888 278.168L68.1543 276.316L64.4709 275.956L64.2713 277.811L67.9888 278.168Z" fill="#2C2C2C"/>
<path d="M115.429 132.641L115.834 130.823L114.925 130.621C112.547 130.09 111.123 130.035 111.065 130.032L110.135 130.003L110.072 131.861L111 131.895C111 131.895 112.329 131.947 114.52 132.436L115.429 132.641ZM125.552 136.692L126.411 135.042L125.588 134.611C124.393 133.989 123.248 133.45 122.16 132.985L121.303 132.62L120.573 134.33L121.427 134.698C122.473 135.145 123.576 135.662 124.727 136.264L125.552 136.692ZM134.553 142.945L135.737 141.508L135.02 140.914C134.014 140.084 133.01 139.314 132.025 138.602L131.268 138.061L130.183 139.571L130.938 140.115C131.891 140.801 132.858 141.545 133.835 142.351L134.553 142.945ZM142.29 150.763L143.695 149.542L143.086 148.84C142.24 147.866 141.394 146.933 140.55 146.053L139.907 145.38L138.562 146.668L139.205 147.34C140.03 148.199 140.853 149.106 141.68 150.062L142.29 150.763ZM148.742 159.693L150.311 158.692L149.811 157.909C149.118 156.824 148.416 155.781 147.71 154.783L147.174 154.021L145.652 155.096L146.191 155.858C146.877 156.835 147.563 157.849 148.24 158.91L148.742 159.693Z" fill="#2C2C2C"/>
<path d="M108.467 212.521H110.33V212.211L110.616 212.127L111.512 211.875L111.013 210.081L110.117 210.33C108.998 210.64 108.467 210.911 108.467 211.589V212.521ZM121.758 213.906L122.468 212.185L121.606 211.83C120.355 211.313 119.128 210.9 117.959 210.598L117.061 210.367L116.596 212.169L117.5 212.401C118.582 212.679 119.722 213.068 120.899 213.551L121.758 213.906ZM131.085 219.591L132.186 218.091L131.434 217.542C130.355 216.749 129.319 216.037 128.321 215.398L127.536 214.896L126.532 216.465L127.315 216.967C128.282 217.587 129.288 218.272 130.331 219.04L131.085 219.591ZM138.814 227.192L140.306 226.078L139.749 225.332C138.993 224.318 138.155 223.335 137.251 222.413L136.602 221.748L135.27 223.049L135.922 223.716C136.765 224.578 137.553 225.495 138.257 226.446L138.814 227.192ZM142.984 237.081L144.794 236.644L144.576 235.738C144.274 234.482 143.893 233.25 143.443 232.071L143.112 231.201L141.373 231.863L141.704 232.733C142.124 233.839 142.482 234.997 142.765 236.174L142.984 237.081ZM145.327 248.049L145.401 247.122C145.474 246.118 145.521 245.07 145.521 243.99L145.506 242.395L143.643 242.409L143.659 243.99C143.659 245.023 143.617 246.021 143.543 246.983L143.472 247.91L145.327 248.049ZM142.729 259.173L143.068 258.306C143.091 258.248 143.619 256.885 144.184 254.623L144.41 253.721L142.603 253.27L142.377 254.171C141.843 256.307 141.334 257.628 141.334 257.628L140.995 258.495L142.729 259.173Z" fill="#2C2C2C"/>
<path d="M187.746 355.862L185.91 367.626C185.91 367.626 182.103 366.525 179.108 362.805C176.943 360.115 149.764 354.149 149.764 354.149L157.604 349.615C157.604 349.615 168.021 348.635 172.429 349.735C176.843 350.839 181.375 353.82 181.375 353.82L187.746 355.862Z" fill="#FEB3A2"/>
<path d="M208.769 302.585C208.769 302.585 224.164 305.699 233 310.386C247.179 317.909 272.482 368.657 268.081 378.94C256.34 406.376 185.384 368.584 185.384 368.584L187.286 355.442L180.889 354.06L172.587 349.735C172.587 349.735 176.741 326.564 180.889 321.722C185.037 316.88 190.523 311.781 193.355 309.95C193.773 309.434 192.57 313.822 196.061 313.683C199.55 313.544 204.374 312.991 207.203 309.904C211.239 305.509 208.769 302.585 208.769 302.585Z" fill="#2C2C2C"/>
<path d="M242.755 373.515L243.154 373.38C243.404 373.192 243.485 372.853 243.346 372.571L241.107 367.961L244.121 368.449C244.402 368.486 244.693 368.35 244.82 368.087C244.943 367.821 244.883 367.509 244.665 367.314L239.607 362.756C239.607 362.756 232.908 353.939 227.538 344.765C222.888 336.813 217.998 328.849 217.948 328.771C217.762 328.458 217.357 328.364 217.045 328.555C216.737 328.744 216.64 329.149 216.829 329.459C216.879 329.538 221.758 337.488 226.405 345.427C231.818 354.675 238.58 363.552 238.648 363.639L242.135 366.797L240.067 366.46C239.823 366.421 239.581 366.521 239.436 366.716L239.371 367.396L240.732 370.199L236.331 366.317L236.055 366.169L188.069 354.341L187.541 354.439L187.26 354.898L185.715 367.368C185.671 367.73 185.925 368.058 186.283 368.102C186.682 368.139 186.974 367.89 187.018 367.533L188.474 355.796L235.585 367.408L242.321 373.352L242.755 373.515Z" fill="#09030F"/>
<path d="M459.126 425.147C459.131 434.02 466.329 441.216 475.204 441.209C484.079 441.207 491.272 434.011 491.27 425.134C491.267 416.257 484.068 409.063 475.194 409.066C466.316 409.071 459.123 416.269 459.126 425.147Z" fill="#DFDFDF"/>
<path d="M520.098 76.1056C520.098 80.4825 523.65 84.0319 528.027 84.0293C532.406 84.0293 535.953 80.4773 535.953 76.1003C535.95 71.7208 532.401 68.174 528.022 68.1767C523.645 68.1793 520.095 71.7287 520.098 76.1056Z" fill="#DFDFDF"/>
<path d="M124.172 56.9062C124.175 61.2858 127.724 64.8351 132.101 64.8325C136.481 64.8299 140.027 61.2805 140.027 56.9036C140.025 52.5267 136.473 48.9773 132.096 48.9799C127.719 48.9799 124.172 52.5293 124.172 56.9062Z" fill="#FCCA19"/>
<path d="M355.24 472.374C355.24 476.754 358.792 480.301 363.169 480.301C367.546 480.298 371.096 476.746 371.096 472.369C371.093 467.992 367.544 464.445 363.164 464.448C358.787 464.448 355.238 467.997 355.24 472.374Z" fill="#FCCA19"/>
<path d="M560.645 145.569C562.41 145.569 564.071 146.255 565.319 147.503C566.569 148.751 567.258 150.411 567.258 152.177C567.258 153.945 566.572 155.608 565.321 156.856C564.073 158.106 562.413 158.795 560.645 158.795C556.998 158.795 554.032 155.831 554.03 152.185C554.03 148.538 556.998 145.569 560.645 145.569ZM560.645 161.422C563.112 161.422 565.437 160.46 567.181 158.713C568.926 156.966 569.887 154.646 569.885 152.177C569.885 149.71 568.921 147.39 567.176 145.645C565.432 143.901 563.109 142.942 560.645 142.942C555.551 142.942 551.402 147.093 551.402 152.185C551.405 157.281 555.556 161.422 560.645 161.422Z" fill="#FCCA19"/>
<path d="M157.099 108.638C163.638 108.636 168.963 113.958 168.968 120.5C168.971 127.044 163.646 132.367 157.104 132.37C150.562 132.372 145.237 127.05 145.234 120.508C145.232 113.964 150.557 108.641 157.099 108.638ZM157.104 134.997C165.096 134.994 171.598 128.492 171.596 120.5C171.59 112.511 165.085 106.008 157.099 106.011C149.107 106.014 142.604 112.516 142.607 120.508C142.61 128.497 149.115 135 157.104 134.997Z" fill="white"/>
<path d="M192.736 306.639L193.111 306.521C197.567 303.429 200.657 295.72 200.786 295.392C200.92 295.056 200.754 294.672 200.415 294.54C200.071 294.407 199.701 294.569 199.564 294.909C199.532 294.988 196.49 302.577 192.363 305.443C192.066 305.648 191.99 306.058 192.197 306.358L192.736 306.639Z" fill="#09030F"/>
<path d="M74.4266 296.128L74.6579 295.225C74.9968 293.891 75.3566 292.704 75.685 291.71L75.9793 290.831L74.2112 290.242L73.9196 291.127C73.5755 292.155 73.205 293.381 72.853 294.766L72.6244 295.668L74.4266 296.128ZM73.1576 306.988L73.1708 306.056C73.184 304.86 73.2522 303.639 73.3757 302.422L73.4677 301.495L71.6155 301.31L71.5236 302.236C71.3948 303.507 71.3239 304.784 71.3082 306.037L71.2977 306.965L73.1576 306.988ZM73.2496 318.225L75.0177 317.644L74.7261 316.758C74.3531 315.628 74.0457 314.454 73.8093 313.27L73.6253 312.356L71.7994 312.721L71.9833 313.632C72.2329 314.893 72.5613 316.141 72.958 317.342L73.2496 318.225ZM79.2949 327.976L80.6847 326.742L80.0673 326.046C79.266 325.145 78.5278 324.191 77.8657 323.206L77.3481 322.433L75.8033 323.468L76.3208 324.241C77.0249 325.297 77.8183 326.319 78.6748 327.283L79.2949 327.976ZM88.7529 334.476L89.5305 332.784L88.6872 332.395C87.5838 331.886 86.5197 331.311 85.524 330.683L84.7384 330.181L83.7401 331.755L84.5283 332.252C85.5923 332.926 86.7299 333.544 87.9069 334.088L88.7529 334.476ZM99.8792 337.112L100.071 335.262L99.1462 335.165C97.9271 335.039 96.7186 334.849 95.5573 334.616L94.6456 334.426L94.2726 336.25L95.1843 336.437C96.4007 336.688 97.6722 336.883 98.9517 337.016L99.8792 337.112ZM105.625 337.201L106.555 337.135C108.875 336.967 110.312 336.676 110.372 336.663L111.281 336.476L110.908 334.652L109.997 334.842C109.997 334.842 108.609 335.12 106.421 335.278L105.491 335.344L105.625 337.201Z" fill="#2C2C2C"/>
<path d="M232.076 20.2666H421.818C420.258 13.1757 413.937 8.26288 405.911 8.57026L247.463 8.55185C239.111 8.55185 233.363 14.4105 232.076 20.2666Z" fill="#DFDFDF"/>
<path d="M258.597 11.8362C258.991 11.8362 259.311 12.1567 259.311 12.5534V16.2657C259.311 16.6598 258.991 16.9803 258.597 16.9803H248.245C247.851 16.9803 247.531 16.6598 247.531 16.2657V12.5534C247.531 12.1567 247.851 11.8362 248.245 11.8362H258.597ZM248.245 17.708H258.597C259.393 17.708 260.039 17.0591 260.039 16.2657V12.5534C260.039 11.7574 259.393 11.1111 258.597 11.1111H248.245C247.452 11.1111 246.806 11.7574 246.806 12.5534V16.2657C246.806 17.0591 247.452 17.708 248.245 17.708Z" fill="white"/>
<path d="M250.695 16.4863H258.08C258.55 16.4863 258.918 16.0896 258.918 15.6194V13.2023C258.918 12.7268 258.55 12.3353 258.08 12.3353H253.322L250.695 16.4863Z" fill="white"/>
<path d="M246.04 13.8906V14.7234L246.292 14.9888H247.164V13.6279H246.292L246.04 13.8906Z" fill="white"/>
<path d="M399.292 13.3569L400.303 14.4235C401.23 13.5408 402.489 13.0022 403.873 13.0022C405.279 13.0022 406.558 13.5618 407.488 14.4761L408.516 13.4226C407.315 12.2456 405.678 11.5283 403.873 11.5283C402.1 11.5283 400.487 12.2219 399.292 13.3569Z" fill="white"/>
<path d="M400.806 14.9473L401.823 16.0271C402.358 15.5174 403.081 15.2074 403.874 15.2074C404.678 15.2074 405.414 15.5279 405.95 16.0586L406.99 14.9893C406.186 14.209 405.088 13.723 403.874 13.723C402.682 13.723 401.602 14.1906 400.806 14.9473Z" fill="white"/>
<path d="M402.345 16.5726L403.874 18.1831L405.424 16.5963C405.022 16.2022 404.473 15.9631 403.874 15.9631C403.28 15.9631 402.741 16.1943 402.345 16.5726Z" fill="white"/>
<path d="M387.199 18.1831H385.174V11.0187H387.199V18.1831Z" fill="white"/>
<path d="M390.211 18.1831H388.185V12.6029H390.211V18.1831Z" fill="white"/>
<path d="M393.002 18.1831H390.979V13.9454H393.002V18.1831Z" fill="white"/>
<path d="M395.752 18.1831H393.729V16.0656H395.752V18.1831Z" fill="white"/>
<path d="M203.911 193.906H196.853C196.874 191.943 197.043 190.298 197.359 188.969C197.676 187.618 198.203 186.394 198.942 185.297C199.701 184.2 200.704 183.04 201.948 181.816C202.919 180.888 203.794 180.012 204.575 179.189C205.356 178.345 205.978 177.459 206.442 176.531C206.907 175.581 207.139 174.495 207.139 173.271C207.139 171.942 206.917 170.813 206.474 169.885C206.031 168.956 205.377 168.25 204.512 167.764C203.668 167.279 202.613 167.036 201.347 167.036C200.292 167.036 199.3 167.247 198.372 167.669C197.444 168.07 196.695 168.703 196.125 169.568C195.555 170.412 195.249 171.53 195.207 172.923H187.58C187.622 170.264 188.255 168.028 189.479 166.213C190.703 164.399 192.348 163.038 194.416 162.131C196.484 161.224 198.794 160.77 201.347 160.77C204.174 160.77 206.59 161.255 208.594 162.226C210.599 163.175 212.128 164.568 213.183 166.403C214.259 168.218 214.797 170.412 214.797 172.986C214.797 174.843 214.428 176.531 213.69 178.05C212.951 179.548 211.991 180.951 210.81 182.259C209.628 183.546 208.352 184.833 206.98 186.12C205.799 187.196 204.997 188.367 204.575 189.633C204.153 190.878 203.932 192.302 203.911 193.906ZM196.22 203.78C196.22 202.64 196.61 201.681 197.391 200.9C198.172 200.098 199.237 199.697 200.587 199.697C201.938 199.697 203.003 200.098 203.784 200.9C204.565 201.681 204.955 202.64 204.955 203.78C204.955 204.919 204.565 205.89 203.784 206.691C203.003 207.472 201.938 207.862 200.587 207.862C199.237 207.862 198.172 207.472 197.391 206.691C196.61 205.89 196.22 204.919 196.22 203.78Z" fill="#2C2C2C"/>
<path d="M111.284 273.136H107.824C107.834 272.183 107.917 271.384 108.072 270.738C108.227 270.082 108.486 269.488 108.848 268.955C109.22 268.422 109.712 267.858 110.322 267.264C110.798 266.813 111.227 266.387 111.61 265.988C111.993 265.578 112.298 265.147 112.525 264.696C112.753 264.235 112.867 263.707 112.867 263.113C112.867 262.467 112.758 261.919 112.541 261.468C112.324 261.017 112.003 260.673 111.579 260.438C111.165 260.202 110.648 260.084 110.027 260.084C109.51 260.084 109.024 260.187 108.569 260.391C108.113 260.586 107.746 260.894 107.467 261.314C107.188 261.724 107.038 262.267 107.017 262.944H103.277C103.298 261.652 103.608 260.566 104.208 259.684C104.808 258.803 105.615 258.142 106.629 257.701C107.643 257.26 108.775 257.04 110.027 257.04C111.413 257.04 112.598 257.276 113.58 257.747C114.563 258.208 115.313 258.885 115.83 259.777C116.358 260.658 116.622 261.724 116.622 262.974C116.622 263.876 116.441 264.696 116.079 265.434C115.717 266.162 115.246 266.843 114.667 267.479C114.087 268.104 113.461 268.729 112.789 269.354C112.21 269.877 111.817 270.446 111.61 271.061C111.403 271.666 111.294 272.357 111.284 273.136ZM107.513 277.933C107.513 277.379 107.705 276.913 108.088 276.534C108.47 276.144 108.993 275.95 109.655 275.95C110.317 275.95 110.839 276.144 111.222 276.534C111.605 276.913 111.796 277.379 111.796 277.933C111.796 278.486 111.605 278.958 111.222 279.347C110.839 279.726 110.317 279.916 109.655 279.916C108.993 279.916 108.47 279.726 108.088 279.347C107.705 278.958 107.513 278.486 107.513 277.933Z" fill="#2C2C2C"/>
<path d="M86.6913 119.182H83.9726C83.9807 118.428 84.0457 117.795 84.1676 117.284C84.2895 116.764 84.4927 116.294 84.7772 115.872C85.0698 115.45 85.4559 115.004 85.9354 114.533C86.3093 114.176 86.6466 113.839 86.9473 113.523C87.248 113.198 87.4878 112.858 87.6666 112.501C87.8454 112.135 87.9348 111.718 87.9348 111.247C87.9348 110.736 87.8495 110.302 87.6788 109.945C87.5081 109.588 87.2562 109.316 86.9229 109.129C86.5978 108.943 86.1914 108.849 85.7038 108.849C85.2974 108.849 84.9154 108.93 84.5578 109.093C84.2001 109.247 83.9116 109.49 83.6921 109.823C83.4727 110.147 83.3548 110.578 83.3386 111.113H80.4004C80.4166 110.091 80.6605 109.231 81.1319 108.533C81.6033 107.835 82.2373 107.312 83.0338 106.963C83.8303 106.614 84.7203 106.439 85.7038 106.439C86.7929 106.439 87.7235 106.626 88.4957 106.999C89.2678 107.364 89.8571 107.9 90.2635 108.606C90.678 109.304 90.8852 110.147 90.8852 111.137C90.8852 111.851 90.743 112.501 90.4585 113.085C90.174 113.661 89.8042 114.2 89.3491 114.703C88.8939 115.198 88.4022 115.693 87.8739 116.188C87.4187 116.602 87.1099 117.052 86.9473 117.539C86.7848 118.018 86.6994 118.566 86.6913 119.182ZM83.7287 122.98C83.7287 122.541 83.8791 122.172 84.1798 121.872C84.4805 121.564 84.891 121.41 85.4112 121.41C85.9313 121.41 86.3418 121.564 86.6425 121.872C86.9433 122.172 87.0936 122.541 87.0936 122.98C87.0936 123.418 86.9433 123.791 86.6425 124.099C86.3418 124.4 85.9313 124.55 85.4112 124.55C84.891 124.55 84.4805 124.4 84.1798 124.099C83.8791 123.791 83.7287 123.418 83.7287 122.98Z" fill="#B3B3B3"/>
<path d="M70.2977 200.342H65.6017C65.6158 199.071 65.7281 198.005 65.9387 197.144C66.1493 196.269 66.5002 195.477 66.9916 194.766C67.497 194.055 68.1638 193.304 68.9921 192.511C69.6379 191.91 70.2205 191.343 70.74 190.81C71.2594 190.263 71.6736 189.689 71.9824 189.088C72.2913 188.473 72.4457 187.769 72.4457 186.977C72.4457 186.116 72.2983 185.385 72.0035 184.783C71.7087 184.182 71.2735 183.724 70.6979 183.41C70.1363 183.096 69.4344 182.939 68.592 182.939C67.8901 182.939 67.2302 183.075 66.6125 183.348C65.9948 183.608 65.4964 184.018 65.1174 184.578C64.7383 185.125 64.5348 185.849 64.5067 186.751H59.4316C59.4597 185.029 59.8809 183.581 60.6951 182.406C61.5094 181.23 62.6044 180.349 63.9802 179.761C65.3561 179.174 66.8933 178.88 68.592 178.88C70.4732 178.88 72.0807 179.194 73.4144 179.823C74.7481 180.438 75.7659 181.34 76.4678 182.529C77.1838 183.704 77.5418 185.125 77.5418 186.792C77.5418 187.995 77.2961 189.088 76.8048 190.072C76.3134 191.042 75.6746 191.951 74.8885 192.798C74.1023 193.632 73.2529 194.465 72.3404 195.299C71.5542 195.996 71.0208 196.754 70.74 197.574C70.4592 198.381 70.3118 199.303 70.2977 200.342ZM65.1806 206.737C65.1806 205.999 65.4403 205.377 65.9597 204.872C66.4792 204.352 67.1881 204.093 68.0866 204.093C68.9851 204.093 69.6941 204.352 70.2135 204.872C70.733 205.377 70.9927 205.999 70.9927 206.737C70.9927 207.475 70.733 208.104 70.2135 208.623C69.6941 209.128 68.9851 209.381 68.0866 209.381C67.1881 209.381 66.4792 209.128 65.9597 208.623C65.4403 208.104 65.1806 207.475 65.1806 206.737Z" fill="#FCCA19"/>
<defs>
<linearGradient id="paint0_linear_3020_2832" x1="319.508" y1="275.871" x2="493.911" y2="508.515" gradientUnits="userSpaceOnUse">
<stop stop-color="#5E95F6"/>
<stop offset="1" stop-color="#4A89F4"/>
</linearGradient>
<linearGradient id="paint1_linear_3020_2832" x1="226.331" y1="108.373" x2="430.205" y2="259.823" gradientUnits="userSpaceOnUse">
<stop stop-color="#5E95F6"/>
<stop offset="1" stop-color="#4486F0"/>
</linearGradient>
</defs>
</svg>
