<svg width="187" height="51" viewBox="0 0 187 51" fill="none" xmlns="http://www.w3.org/2000/svg">
<path d="M79.5988 8.68652V26.8042H76.046V15.0513L70.9441 23.4702H70.5231L65.4212 15.0849V26.8042H61.8516V8.68652H65.5222L70.7252 17.257L75.8944 8.68652H79.5988Z" fill="#2C2C2C"/>
<path d="M95.8992 26.8047L94.8047 23.5381H87.5812L86.4867 26.8047H82.6309L88.9788 8.68701H93.4072L99.7719 26.8047H95.8992ZM88.743 20.2042H93.7102L91.2182 12.7955L88.743 20.2042Z" fill="#2C2C2C"/>
<path d="M112.331 26.8047L108.677 20.5073H105.966V26.8047H102.396V8.68701H109.637C111.321 8.68701 112.735 9.27634 113.914 10.455C115.075 11.6168 115.682 13.048 115.682 14.6982C115.682 16.9545 114.284 19.0255 112.179 19.9853L116.187 26.8215H112.331V26.8047ZM105.966 12.0209V17.3754H109.637C110.984 17.3754 112.095 16.1631 112.095 14.6813C112.095 13.1996 110.984 12.0209 109.637 12.0209H105.966Z" fill="#2C2C2C"/>
<path d="M131.34 8.68701V12.1051H126.44V26.8047H122.87V12.1051H118.004V8.68701H131.34Z" fill="#2C2C2C"/>
<path d="M139.914 26.8047L133.818 8.68701H137.708L142.136 22.612L146.531 8.68701H150.437L144.325 26.8047H139.914Z" fill="#2C2C2C"/>
<path d="M153.469 8.68701H157.038V26.8047H153.469V8.68701Z" fill="#2C2C2C"/>
<path d="M165.272 23.3865H172.176V26.8047H161.686V8.68701H165.255V23.3865H165.272Z" fill="#2C2C2C"/>
<path d="M179.061 23.3865H185.965V26.8047H175.475V8.68701H179.044V23.3865H179.061Z" fill="#2C2C2C"/>
<path d="M67.5076 40.7179L66.1866 34.0172H65.1815L61.4961 40.7179H62.4629L63.2861 39.215H66.3015L66.5695 40.7179H67.5076ZM65.5453 35.0606L66.1483 38.3822H63.7361L65.5453 35.0606Z" fill="#2C2C2C"/>
<path d="M71.4092 35.8072C70.7295 35.8072 70.1839 36.0561 69.7723 36.5634L69.8871 35.9317H69.0543L68.2119 40.7179H69.0448L69.4947 38.1716V38.1812C69.6765 37.1091 70.3466 36.6017 71.1603 36.6017C71.9261 36.6017 72.2707 37.0325 72.1271 37.827L71.6198 40.7179H72.4526L72.9695 37.7791C73.0748 37.1761 72.979 36.6975 72.6823 36.3433C72.3951 35.9891 71.9739 35.8072 71.4092 35.8072Z" fill="#2C2C2C"/>
<path d="M79.0236 35.8072C78.3248 35.8072 77.7026 36.037 77.1666 36.4964C76.6305 36.9559 76.305 37.5303 76.1806 38.2291C76.0562 38.9661 76.1902 39.5788 76.5922 40.0861C76.9943 40.5935 77.5686 40.8423 78.3248 40.8423C79.2342 40.8423 80.0766 40.4594 80.5648 39.7989L79.9426 39.349C79.5693 39.8181 79.0619 40.0574 78.4206 40.0574C77.5399 40.0574 76.9655 39.5596 76.9655 38.7077H80.9668C81.0147 38.5641 81.053 38.4396 81.0626 38.3343C81.1966 37.6356 81.0721 37.0421 80.6797 36.5539C80.2968 36.0561 79.7416 35.8072 79.0236 35.8072ZM77.09 37.9706C77.3676 37.1186 78.0855 36.5922 78.9758 36.5922C79.7799 36.5922 80.3159 37.0612 80.2776 37.9706H77.09Z" fill="#2C2C2C"/>
<path d="M85.6285 38.1812L85.7625 37.3771H82.2685L82.1345 38.1812H85.6285Z" fill="#2C2C2C"/>
<path d="M88.8032 40.8423C89.7892 40.8423 90.6507 40.3829 91.1389 39.6075L90.4688 39.1672C90.1242 39.6936 89.5594 40.0191 88.9085 40.0191C88.4203 40.0191 88.047 39.8564 87.7885 39.5213C87.5301 39.1863 87.4439 38.7747 87.5301 38.2865C87.6162 37.8079 87.8459 37.4154 88.2193 37.0995C88.5926 36.7836 89.0234 36.6209 89.5116 36.6209C90.1721 36.6209 90.6124 36.8889 90.823 37.4345L91.5601 37.0516C91.2825 36.2954 90.5358 35.8072 89.5786 35.8072C88.8606 35.8072 88.2384 36.037 87.6928 36.4869C87.1472 36.9368 86.8217 37.5207 86.6972 38.2195C86.5728 38.9374 86.7068 39.5596 87.1184 40.0765C87.5301 40.5839 88.0853 40.8423 88.8032 40.8423Z" fill="#2C2C2C"/>
<path d="M94.0108 40.8423C94.6904 40.8423 95.3126 40.6222 95.8678 40.1818C96.423 39.7415 96.7677 39.148 96.8921 38.3918C97.0165 37.6547 96.873 37.0325 96.4613 36.5443C96.0497 36.0561 95.4945 35.8072 94.8149 35.8072C94.1161 35.8072 93.4843 36.0274 92.9195 36.4677C92.3547 36.908 92.0006 37.5015 91.8665 38.2386C91.7325 38.9949 91.8761 39.6171 92.3069 40.1053C92.7376 40.5935 93.3024 40.8423 94.0108 40.8423ZM94.0778 40.0287C93.6279 40.0383 93.2546 39.8851 92.9769 39.5883C92.6993 39.282 92.6132 38.8608 92.6993 38.3248C92.8046 37.7983 93.044 37.3771 93.4269 37.0804C93.8098 36.7836 94.2309 36.6304 94.6809 36.6209C95.1403 36.6209 95.5041 36.774 95.7817 37.0804C96.0593 37.3771 96.155 37.7887 96.0689 38.3056C95.9827 38.8417 95.7434 39.2629 95.3509 39.5692C94.968 39.8755 94.5468 40.0287 94.0778 40.0287Z" fill="#2C2C2C"/>
<path d="M103.483 35.8072C102.823 35.8072 102.267 36.0848 101.837 36.64C101.626 36.0848 101.195 35.8072 100.554 35.8072C99.9509 35.8072 99.4531 36.037 99.0415 36.506L99.1468 35.9317H98.314L97.4716 40.7179H98.3044L98.783 38.0185V38.028C98.9458 37.0708 99.5584 36.6017 100.257 36.6017C100.879 36.6017 101.186 37.0133 101.061 37.7696L100.544 40.7179H101.377L101.846 38.028C102.028 37.0612 102.574 36.6017 103.273 36.6017C103.923 36.6017 104.249 37.0133 104.124 37.7696L103.608 40.7179H104.44L104.967 37.7409C105.063 37.1569 104.967 36.6879 104.68 36.3337C104.393 35.9795 103.99 35.8072 103.483 35.8072Z" fill="#2C2C2C"/>
<path d="M111.607 35.8072C110.946 35.8072 110.391 36.0848 109.96 36.64C109.75 36.0848 109.319 35.8072 108.677 35.8072C108.074 35.8072 107.577 36.037 107.165 36.506L107.27 35.9317H106.438L105.595 40.7179H106.428L106.907 38.0185V38.028C107.069 37.0708 107.682 36.6017 108.381 36.6017C109.003 36.6017 109.309 37.0133 109.185 37.7696L108.668 40.7179H109.501L109.97 38.028C110.152 37.0612 110.697 36.6017 111.396 36.6017C112.047 36.6017 112.372 37.0133 112.248 37.7696L111.731 40.7179H112.564L113.09 37.7409C113.186 37.1569 113.09 36.6879 112.803 36.3337C112.516 35.9795 112.114 35.8072 111.607 35.8072Z" fill="#2C2C2C"/>
<path d="M116.734 35.8072C116.035 35.8072 115.413 36.037 114.877 36.4964C114.341 36.9559 114.015 37.5303 113.891 38.2291C113.767 38.9661 113.901 39.5788 114.303 40.0861C114.705 40.5935 115.279 40.8423 116.035 40.8423C116.945 40.8423 117.787 40.4594 118.275 39.7989L117.653 39.349C117.28 39.8181 116.772 40.0574 116.131 40.0574C115.25 40.0574 114.676 39.5596 114.676 38.7077H118.677C118.725 38.5641 118.763 38.4396 118.773 38.3343C118.907 37.6356 118.783 37.0421 118.39 36.5539C118.007 36.0561 117.452 35.8072 116.734 35.8072ZM114.8 37.9706C115.078 37.1186 115.796 36.5922 116.686 36.5922C117.49 36.5922 118.026 37.0612 117.988 37.9706H114.8Z" fill="#2C2C2C"/>
<path d="M120.975 35.9317H120.142L119.3 40.7179H120.132L120.582 38.1716V38.1812C120.668 37.6547 120.879 37.2814 121.214 37.0516C121.549 36.8123 121.922 36.707 122.334 36.7166L122.487 35.8455C121.798 35.8264 121.252 36.0848 120.85 36.6304L120.975 35.9317Z" fill="#2C2C2C"/>
<path d="M124.55 40.8423C125.536 40.8423 126.398 40.3829 126.886 39.6075L126.216 39.1672C125.871 39.6936 125.307 40.0191 124.656 40.0191C124.168 40.0191 123.794 39.8564 123.536 39.5213C123.277 39.1863 123.191 38.7747 123.277 38.2865C123.363 37.8079 123.593 37.4154 123.967 37.0995C124.34 36.7836 124.771 36.6209 125.259 36.6209C125.919 36.6209 126.36 36.8889 126.57 37.4345L127.307 37.0516C127.03 36.2954 126.283 35.8072 125.326 35.8072C124.608 35.8072 123.986 36.037 123.44 36.4869C122.894 36.9368 122.569 37.5207 122.445 38.2195C122.32 38.9374 122.454 39.5596 122.866 40.0765C123.277 40.5839 123.833 40.8423 124.55 40.8423Z" fill="#2C2C2C"/>
<path d="M130.466 35.8072C129.768 35.8072 129.145 36.037 128.609 36.4964C128.073 36.9559 127.748 37.5303 127.623 38.2291C127.499 38.9661 127.633 39.5788 128.035 40.0861C128.437 40.5935 129.011 40.8423 129.768 40.8423C130.677 40.8423 131.519 40.4594 132.008 39.7989L131.385 39.349C131.012 39.8181 130.505 40.0574 129.863 40.0574C128.983 40.0574 128.408 39.5596 128.408 38.7077H132.41C132.457 38.5641 132.496 38.4396 132.505 38.3343C132.639 37.6356 132.515 37.0421 132.122 36.5539C131.74 36.0561 131.184 35.8072 130.466 35.8072ZM128.533 37.9706C128.81 37.1186 129.528 36.5922 130.419 36.5922C131.223 36.5922 131.759 37.0612 131.72 37.9706H128.533Z" fill="#2C2C2C"/>
<path d="M141.925 34.0172L139.149 37.5973L137.674 34.0172H136.698L135.521 40.7179H136.411L137.339 35.4243L138.89 39.1289H139.005L141.829 35.5105L140.91 40.7179H141.791L142.968 34.0172H141.925Z" fill="#2C2C2C"/>
<path d="M146.832 38.4779V38.4684C146.65 39.5405 145.98 40.0478 145.167 40.0478C144.401 40.0478 144.056 39.6171 144.2 38.8225L144.707 35.9317H143.874L143.357 38.8704C143.252 39.4735 143.348 39.9521 143.635 40.3063C143.932 40.6605 144.353 40.8423 144.918 40.8423C145.597 40.8423 146.143 40.5935 146.555 40.0861L146.44 40.7179H147.273L148.115 35.9317H147.282L146.832 38.4779Z" fill="#2C2C2C"/>
<path d="M149.383 40.7179L150.608 33.73H149.775L149.057 37.8079L148.55 40.7179H149.383Z" fill="#2C2C2C"/>
<path d="M153.965 36.7357L154.109 35.9317H152.826L153.065 34.5915L152.185 34.8404L151.993 35.9317H151.055L150.902 36.7357H151.85L151.4 39.3299C151.199 40.4882 151.85 40.9093 153.266 40.7179L153.4 39.9712C152.568 40.0095 152.089 40.0574 152.233 39.3299L152.692 36.7357H153.965Z" fill="#2C2C2C"/>
<path d="M155.669 35.0606C156.004 35.0606 156.262 34.8212 156.329 34.5054C156.377 34.199 156.167 33.9406 155.86 33.9406C155.525 33.9406 155.257 34.1895 155.209 34.5054C155.162 34.8117 155.363 35.0606 155.669 35.0606ZM155.085 40.7179L155.927 35.9317H155.095L154.252 40.7179H155.085Z" fill="#2C2C2C"/>
<path d="M158.127 39.7702L157.457 35.9317H156.615L157.524 40.7179H158.462L161.066 35.9317H160.137L158.127 39.7702Z" fill="#2C2C2C"/>
<path d="M163.755 35.8072C163.056 35.8072 162.434 36.037 161.898 36.4964C161.362 36.9559 161.037 37.5303 160.912 38.2291C160.788 38.9661 160.922 39.5788 161.324 40.0861C161.726 40.5935 162.3 40.8423 163.056 40.8423C163.966 40.8423 164.808 40.4594 165.296 39.7989L164.674 39.349C164.301 39.8181 163.793 40.0574 163.152 40.0574C162.271 40.0574 161.697 39.5596 161.697 38.7077H165.698C165.746 38.5641 165.784 38.4396 165.794 38.3343C165.928 37.6356 165.804 37.0421 165.411 36.5539C165.028 36.0561 164.473 35.8072 163.755 35.8072ZM161.821 37.9706C162.099 37.1186 162.817 36.5922 163.707 36.5922C164.511 36.5922 165.047 37.0612 165.009 37.9706H161.821Z" fill="#2C2C2C"/>
<path d="M169.518 35.8072C168.838 35.8072 168.293 36.0561 167.881 36.5634L167.996 35.9317H167.163L166.321 40.7179H167.153L167.603 38.1716V38.1812C167.785 37.1091 168.455 36.6017 169.269 36.6017C170.035 36.6017 170.379 37.0325 170.236 37.827L169.728 40.7179H170.561L171.078 37.7791C171.183 37.1761 171.088 36.6975 170.791 36.3433C170.504 35.9891 170.083 35.8072 169.518 35.8072Z" fill="#2C2C2C"/>
<path d="M176.386 36.8315C176.07 36.1805 175.409 35.8072 174.615 35.8072C173.964 35.8072 173.38 36.0274 172.863 36.4677C172.346 36.8985 172.021 37.4824 171.896 38.2195C171.772 38.9183 171.896 39.5309 172.289 40.0574C172.681 40.5839 173.227 40.8423 173.906 40.8423C174.682 40.8423 175.323 40.5743 175.83 40.0287L175.706 40.7179H176.539L177.716 34.0172H176.883L176.386 36.8315ZM176.118 38.3631C176.031 38.8513 175.802 39.2533 175.428 39.5692C175.055 39.8851 174.624 40.0383 174.136 40.0383C173.648 40.0383 173.275 39.8659 172.997 39.5309C172.729 39.1959 172.643 38.7747 172.729 38.2865C172.815 37.76 173.054 37.358 173.428 37.0612C173.801 36.7645 174.222 36.6113 174.682 36.6113C175.151 36.6113 175.534 36.7645 175.821 37.0804C176.118 37.3962 176.213 37.8174 176.118 38.3631Z" fill="#2C2C2C"/>
<path d="M180.107 40.8423C180.787 40.8423 181.409 40.6222 181.964 40.1818C182.519 39.7415 182.864 39.148 182.988 38.3918C183.113 37.6547 182.969 37.0325 182.558 36.5443C182.146 36.0561 181.591 35.8072 180.911 35.8072C180.212 35.8072 179.581 36.0274 179.016 36.4677C178.451 36.908 178.097 37.5015 177.963 38.2386C177.829 38.9949 177.972 39.6171 178.403 40.1053C178.834 40.5935 179.399 40.8423 180.107 40.8423ZM180.174 40.0287C179.724 40.0383 179.351 39.8851 179.073 39.5883C178.796 39.282 178.71 38.8608 178.796 38.3248C178.901 37.7983 179.14 37.3771 179.523 37.0804C179.906 36.7836 180.327 36.6304 180.777 36.6209C181.237 36.6209 181.6 36.774 181.878 37.0804C182.156 37.3771 182.251 37.7887 182.165 38.3056C182.079 38.8417 181.84 39.2629 181.447 39.5692C181.064 39.8755 180.643 40.0287 180.174 40.0287Z" fill="#2C2C2C"/>
<path d="M185.243 35.9317H184.41L183.568 40.7179H184.401L184.851 38.1716V38.1812C184.937 37.6547 185.147 37.2814 185.482 37.0516C185.817 36.8123 186.191 36.707 186.602 36.7166L186.756 35.8455C186.066 35.8264 185.521 36.0848 185.119 36.6304L185.243 35.9317Z" fill="#2C2C2C"/>
<path d="M50.0715 25.0357C50.0715 44.3527 44.3527 50.0715 25.0357 50.0715C5.71881 50.0715 0 44.3527 0 25.0357C0 5.71881 5.71881 0 25.0357 0C44.3527 0 50.0715 5.71881 50.0715 25.0357Z" fill="#FCCA19"/>
<path fill-rule="evenodd" clip-rule="evenodd" d="M16.8102 34.6982C16.6693 34.4825 16.5732 34.2407 16.5276 33.9871C16.482 33.7336 16.4878 33.4734 16.5446 33.2222L19.357 20.694C19.3994 20.829 19.486 20.9457 19.6029 21.0254C19.7198 21.1051 19.8602 21.143 20.0013 21.1331C20.1424 21.1231 20.2761 21.0659 20.3807 20.9706C20.4853 20.8753 20.5547 20.7476 20.5777 20.608L20.94 18.4633L25.5496 19.242L25.1872 21.3867C25.1595 21.5512 25.1982 21.72 25.2948 21.8559C25.3915 21.9919 25.5382 22.0839 25.7026 22.1116C25.8671 22.1394 26.0359 22.1007 26.1719 22.0041C26.3078 21.9074 26.3998 21.7607 26.4276 21.5962L26.7899 19.4516L28.5016 19.7407L25.7204 36.2035L16.8102 34.6982ZM32.2745 20.3781L29.9089 34.3805C29.7848 34.3672 29.6596 34.3913 29.5493 34.4496L27.0678 35.7793L29.7419 19.9503L32.2745 20.3781Z" fill="white"/>
<path d="M20.5738 20.6167C20.546 20.7812 20.454 20.9279 20.3181 21.0246C20.1821 21.1212 20.0133 21.1599 19.8488 21.1321C19.6844 21.1043 19.5377 21.0123 19.441 20.8764C19.3443 20.7404 19.3057 20.5717 19.3334 20.4072L19.6973 18.2535L17.9473 17.9578L14.585 32.9307L14.5732 33.0006C14.5134 33.3357 14.5866 33.6808 14.7772 33.9629C14.9585 34.2292 15.2348 34.4161 15.5494 34.4853L25.718 36.2032L28.4992 19.7405L26.7875 19.4513L26.4252 21.596C26.3974 21.7605 26.3054 21.9072 26.1695 22.0038C26.0335 22.1005 25.8647 22.1392 25.7003 22.1114C25.5358 22.0836 25.3891 21.9916 25.2924 21.8557C25.1958 21.7197 25.1571 21.5509 25.1849 21.3864L25.5472 19.2418L20.9376 18.463L20.5738 20.6167ZM25.9245 16.9535C25.934 16.8971 25.9435 16.8408 25.9531 16.7844C26.0219 16.172 25.8762 15.5546 25.5407 15.0377C25.3752 14.777 25.1573 14.5536 24.9009 14.3817C24.6444 14.2098 24.3549 14.0931 24.0509 14.0391C23.7461 13.9904 23.4344 14.0055 23.1357 14.0837C22.837 14.1618 22.5578 14.3011 22.3158 14.4929C21.782 14.9089 21.4257 15.5118 21.3187 16.18L21.14 17.2377L25.7541 18.0172L25.9335 16.955L25.9245 16.9535ZM31.5957 18.9995L31.7744 17.9418C31.8936 17.2759 31.7559 16.5895 31.3891 16.0211C31.2254 15.7586 31.0078 15.5339 30.7508 15.3617C30.4938 15.1896 30.2032 15.0739 29.8982 15.0224C29.5932 14.9709 29.2807 14.9846 28.9814 15.0628C28.6821 15.141 28.4028 15.2818 28.162 15.4759C27.6798 15.8569 27.3436 16.3923 27.21 16.9921C27.2004 17.0485 27.1909 17.1048 27.1814 17.1612L27.0027 18.2189L31.6032 18.9961L31.5957 18.9995ZM17.5731 16.6305L19.9049 17.0244L20.0836 15.9667C20.2461 14.9875 20.772 14.1056 21.5562 13.497C21.9348 13.1991 22.3711 12.9829 22.8374 12.8621C23.3038 12.7413 23.7901 12.7184 24.2657 12.795C24.7401 12.8789 25.192 13.0603 25.5928 13.3276C25.9935 13.5949 26.3346 13.9424 26.5943 14.3482C26.7152 14.5338 26.8203 14.7292 26.9084 14.9324C27.0585 14.7695 27.222 14.6194 27.3971 14.4838C27.7742 14.1834 28.2103 13.9659 28.6771 13.8454C29.1439 13.7249 29.6308 13.7041 30.1062 13.7844C30.5815 13.8647 31.0346 14.0443 31.4359 14.3115C31.8372 14.5786 32.1777 14.9274 32.4352 15.3349C32.977 16.1669 33.1841 17.173 33.0147 18.1513L32.8361 19.209L35.2536 19.6174C35.4142 19.6445 35.5578 19.7333 35.6539 19.8648C35.75 19.9963 35.7909 20.1601 35.7679 20.3213L33.3116 38.1008C33.301 38.2215 33.2555 38.3365 33.1808 38.432C33.1061 38.5274 33.0053 38.5991 32.8906 38.6384C32.776 38.6777 32.6524 38.6829 32.5348 38.6534C32.4173 38.6239 32.3108 38.5609 32.2283 38.4721L29.7113 35.783L26.5717 37.4655L26.5604 37.4636L26.5492 37.4616L26.5356 37.4594L26.5153 37.4559L26.5018 37.4536L26.4883 37.4514L26.4747 37.4491L26.4409 37.4434L26.4206 37.4399L26.4071 37.4376L15.4334 35.5837L15.3072 35.5624C14.6801 35.416 14.1322 35.0365 13.7747 34.501C13.4047 33.9558 13.259 33.289 13.3678 32.6392C13.372 32.6144 13.3796 32.5693 13.3903 32.5062L16.8824 16.9568C16.9173 16.7996 17.0111 16.6618 17.1446 16.5717C17.278 16.4816 17.4409 16.4462 17.5998 16.4726L17.5731 16.6305ZM34.4461 20.7452L29.7395 19.95L27.0654 35.7791L29.5424 34.4486C29.6642 34.3847 29.8036 34.3625 29.9393 34.3854C30.0749 34.4084 30.1993 34.4751 30.2934 34.5755L32.2402 36.6579L34.4461 20.7452Z" fill="#2C2C2C"/>
</svg>
