<svg width="11" height="11" viewBox="0 0 11 11" fill="none" xmlns="http://www.w3.org/2000/svg">
<path d="M10.4824 0.00790977C10.6388 0.0332623 10.7486 0.130447 10.7888 0.280449C10.8416 0.476932 10.9177 0.362845 9.10706 2.77767L7.42957 5.01503L9.10706 7.25239C10.9346 9.68834 10.8458 9.55736 10.7909 9.76229C10.7634 9.86159 10.6324 9.99257 10.5416 10.0137C10.5078 10.02 10.4698 10.0306 10.4529 10.0348C10.4381 10.0391 10.3852 10.0327 10.3388 10.02C10.2543 9.9968 0.480867 5.49462 0.235793 5.36785C0.16396 5.32983 0.0900154 5.27067 0.0646629 5.23053C-0.0388594 5.0763 -0.0156202 4.86503 0.117481 4.74249C0.174524 4.68967 1.48018 4.0791 5.24291 2.34245C8.01901 1.06215 10.3155 0.0100222 10.3451 0.00368404C10.3747 -0.00265408 10.436 -0.000540733 10.4824 0.00790977Z" fill="#FCCA19"/>
</svg>
