<svg width="11" height="11" viewBox="0 0 11 11" fill="none" xmlns="http://www.w3.org/2000/svg">
<path d="M0.330067 0.00790977C0.173726 0.0332623 0.0638656 0.130447 0.0237241 0.280449C-0.0290936 0.476932 -0.105151 0.362845 1.70544 2.77767L3.38293 5.01503L1.70544 7.25239C-0.122053 9.68834 -0.033319 9.55736 0.0216114 9.76229C0.0490766 9.86159 0.180065 9.99257 0.270911 10.0137C0.304714 10.02 0.342743 10.0306 0.359645 10.0348C0.374434 10.0391 0.427252 10.0327 0.473731 10.02C0.55824 9.9968 10.3316 5.49462 10.5767 5.36785C10.6485 5.32983 10.7225 5.27067 10.7478 5.23053C10.8514 5.0763 10.8281 4.86503 10.695 4.74249C10.638 4.68967 9.33232 4.0791 5.56959 2.34245C2.79349 1.06215 0.496971 0.0100222 0.467393 0.00368404C0.437815 -0.00265408 0.376547 -0.000540733 0.330067 0.00790977Z" fill="#FCCA19"/>
</svg>
