<svg width="851" height="521" viewBox="0 0 851 521" fill="none" xmlns="http://www.w3.org/2000/svg">
<mask id="mask0_6498_2534" style="mask-type:alpha" maskUnits="userSpaceOnUse" x="0" y="0" width="851" height="521">
<rect width="851" height="521" fill="#D9D9D9"/>
</mask>
<g mask="url(#mask0_6498_2534)">
<path d="M449.297 633.352C363.038 633.352 235.114 579.968 139.089 458.88C81.1491 385.641 60.6421 307.845 85.7061 255.438C101.981 221.26 135.509 202.381 180.429 202.381C221.442 202.055 261.154 169.179 303.47 134.024C374.105 75.1077 454.18 8.37888 564.201 77.7118C631.906 120.353 628.651 186.756 625.396 251.207C623.118 298.08 620.839 342.674 644.601 377.503C668.688 413.309 668.688 461.484 643.95 509.659C607.493 580.619 529.697 631.398 454.831 633.352C452.878 633.352 450.924 633.352 449.297 633.352ZM472.082 51.3458C407.632 51.3458 354.249 95.6146 305.749 136.303C263.107 171.783 223.07 205.31 180.754 205.31C137.462 205.636 104.585 223.864 88.9612 256.74C64.5482 307.845 84.7297 384.339 142.019 456.601C237.392 576.713 364.014 629.771 449.623 629.771C451.25 629.771 453.203 629.771 454.831 629.771C528.395 627.818 605.215 577.69 641.02 508.031C665.108 461.159 665.433 414.286 641.997 379.456C617.584 343.325 620.188 296.452 622.466 250.881C625.722 187.408 628.977 121.981 562.899 80.3158C529.697 59.8089 499.75 51.3458 472.082 51.3458Z" fill="#FCCA19"/>
<path d="M189.217 462.46C189.217 462.46 188.892 462.46 189.217 462.46C187.915 462.786 186.939 462.135 186.613 461.158C157.969 336.489 51.2026 271.063 50.2261 270.412C49.2495 269.761 48.924 268.784 49.575 267.808C50.226 266.831 51.2025 266.506 52.179 267.157C53.1555 267.808 161.549 333.885 190.519 460.182C190.519 461.158 190.194 462.135 189.217 462.46Z" fill="#2C2C2C"/>
<path d="M142.994 363.506C142.994 363.506 116.953 357.647 96.1208 366.761C72.3588 377.177 61.6172 397.033 61.6172 397.033C61.6172 397.033 91.8893 402.241 111.094 393.778C129.974 385.315 142.994 363.506 142.994 363.506Z" fill="#2C2C2C"/>
<path d="M109.142 318.912C109.142 318.912 87.6588 314.355 71.0579 321.191C51.8531 329.328 43.0645 344.627 43.0645 344.627C43.0645 344.627 67.803 348.859 83.4273 342.349C98.7262 335.838 109.142 318.912 109.142 318.912Z" fill="#2C2C2C"/>
<path d="M121.834 249.579C121.834 249.579 107.186 264.227 104.257 281.153C101.002 300.683 109.139 315.331 109.139 315.331C109.139 315.331 125.089 297.754 127.693 282.13C130.297 266.505 121.834 249.579 121.834 249.579Z" fill="#2C2C2C"/>
<path d="M81.1494 292.546C81.1494 292.546 66.8271 284.082 52.8303 285.384C36.8805 287.012 27.1152 296.452 27.1152 296.452C27.1152 296.452 44.0417 305.24 56.7365 303.938C69.7567 302.636 81.1494 292.546 81.1494 292.546Z" fill="#2C2C2C"/>
<path d="M84.7306 234.931C84.7306 234.931 74.9655 248.277 74.64 262.274C74.3145 278.224 82.7777 288.965 82.7777 288.965C82.7777 288.965 93.1938 273.016 93.5194 260.321C93.8449 247.626 84.7306 234.931 84.7306 234.931Z" fill="#2C2C2C"/>
<path d="M55.1078 271.388C55.1078 271.388 49.8997 260.321 40.46 254.462C29.3928 247.952 18 248.603 18 248.603C18 248.603 24.5102 261.298 33.2988 266.506C42.413 271.714 55.1078 271.388 55.1078 271.388Z" fill="#2C2C2C"/>
<path d="M731.836 554.578H160.246C153.411 554.578 147.877 549.045 147.877 542.209V115.47C147.877 108.634 153.411 103.101 160.246 103.101H732.161C738.997 103.101 744.53 108.634 744.53 115.47V542.209C744.205 549.045 738.671 554.578 731.836 554.578Z" fill="white"/>
<path d="M731.836 555.555H160.246C152.759 555.555 146.9 549.696 146.9 542.209V115.47C146.9 107.983 152.759 102.124 160.246 102.124H732.161C739.648 102.124 745.507 107.983 745.507 115.47V542.209C745.507 549.696 739.322 555.555 731.836 555.555ZM160.246 104.403C154.061 104.403 149.179 109.285 149.179 115.47V542.209C149.179 548.394 154.061 553.276 160.246 553.276H732.161C738.346 553.276 743.228 548.394 743.228 542.209V115.47C743.228 109.285 738.346 104.403 732.161 104.403H160.246Z" fill="#696969"/>
<path d="M508.537 310.124H702.214V315.332H508.537V310.124Z" fill="#BBBBBB"/>
<path d="M508.537 320.54H702.214V325.748H508.537V320.54Z" fill="#BBBBBB"/>
<path d="M268.966 149.323H469.804C474.686 149.323 478.593 153.229 478.593 158.112V392.151C478.593 397.034 474.686 400.94 469.804 400.94H268.966C264.084 400.94 260.178 397.034 260.178 392.151V158.112C260.178 153.229 264.084 149.323 268.966 149.323Z" fill="#F3F3F3"/>
<path d="M357.83 229.073L289.148 227.771L292.729 225.818C307.051 217.354 330.488 202.381 331.464 198.475C332.115 196.522 331.464 194.569 330.488 193.267C329.511 191.965 327.884 191.314 326.256 191.314C322.676 191.314 321.048 196.197 321.048 196.197L318.77 195.546C318.77 195.22 320.723 189.361 325.931 189.035C328.209 189.035 330.488 190.012 332.115 191.965C333.743 193.918 334.394 196.848 333.743 199.126C333.417 200.754 330.488 203.358 326.907 206.287L357.83 229.073ZM296.961 225.492L350.669 226.469L324.629 207.264C316.166 213.774 303.796 221.261 296.961 225.492Z" fill="#B1C7F0"/>
<path d="M629.954 220.609H507.238V244.696H629.954V220.609Z" fill="#DFDFDF"/>
<path d="M599.352 220.284C599.027 220.284 598.701 219.958 598.701 219.633V202.706C598.701 202.381 599.027 202.055 599.352 202.055C599.678 202.055 600.003 202.381 600.003 202.706V219.633C600.003 219.958 599.678 220.284 599.352 220.284Z" fill="#004DEF"/>
<path d="M607.492 207.59H617.583L612.7 214.751L607.492 207.59Z" fill="white"/>
<path d="M613.024 215.402C612.699 215.402 612.373 215.402 612.373 215.076L606.84 207.915C606.514 207.59 606.514 207.264 606.84 206.939C606.84 206.613 607.165 206.613 607.491 206.613H617.582C617.907 206.613 618.233 206.939 618.233 206.939C618.233 207.264 618.233 207.59 618.233 207.915L613.35 215.076C613.35 215.402 613.35 215.402 613.024 215.402ZM609.118 208.241L613.024 213.123L616.279 208.241H609.118Z" fill="#004DEF"/>
<path d="M570.712 297.429H517.655C511.795 297.429 507.238 292.872 507.238 287.012V281.804C507.238 275.945 511.795 271.388 517.655 271.388H570.712C576.571 271.388 581.128 275.945 581.128 281.804V287.012C581.128 292.872 576.571 297.429 570.712 297.429Z" fill="#DFDFDF"/>
<path d="M743.226 126.538H148.525V128.816H743.226V126.538Z" fill="#696969"/>
<path d="M167.405 121.655C164.15 121.655 161.221 119.051 161.221 115.471C161.221 112.215 163.825 109.286 167.405 109.286C170.66 109.286 173.59 111.89 173.59 115.471C173.59 119.051 170.66 121.655 167.405 121.655ZM167.405 111.89C165.452 111.89 163.499 113.517 163.499 115.796C163.499 118.075 165.127 119.702 167.405 119.702C169.358 119.702 171.312 118.075 171.312 115.796C171.312 113.517 169.358 111.89 167.405 111.89Z" fill="#DFDFDF"/>
<path d="M180.102 115.796C180.102 112.541 182.706 109.612 186.286 109.612C189.541 109.612 192.471 112.216 192.471 115.796C192.471 119.051 189.867 121.981 186.286 121.981C183.031 121.655 180.102 119.051 180.102 115.796Z" fill="#DFDFDF"/>
<path d="M205.166 121.981C201.586 121.981 198.656 119.051 198.656 115.471C198.656 111.89 201.586 108.96 205.166 108.96C208.747 108.96 211.677 111.89 211.677 115.471C211.677 119.377 208.747 121.981 205.166 121.981ZM205.166 111.564C202.888 111.564 200.935 113.518 200.935 115.796C200.935 118.075 202.888 120.028 205.166 120.028C207.445 120.028 209.398 118.075 209.398 115.796C209.398 113.518 207.445 111.564 205.166 111.564Z" fill="#DFDFDF"/>
<path d="M671.292 121.33H276.127C273.523 121.33 271.57 119.376 271.57 116.772V115.47C271.57 112.866 273.523 110.913 276.127 110.913H671.618C674.222 110.913 676.175 112.866 676.175 115.47V116.772C676.175 119.376 673.896 121.33 671.292 121.33Z" fill="#DFDFDF"/>
<path d="M216.883 225.166L217.534 242.418C217.534 242.418 222.091 249.579 231.531 247.626C240.97 245.673 244.551 240.791 244.551 240.791L233.158 227.119L216.883 225.166Z" fill="#FEB49C"/>
<path d="M220.466 217.68C220.466 217.68 210.375 213.448 209.724 218.982C209.073 225.166 237.392 235.583 240.972 227.119C249.11 206.938 227.627 188.71 223.07 190.337C218.513 191.965 222.093 203.357 222.093 207.263C221.768 211.495 220.466 217.68 220.466 217.68Z" fill="#FEB49C"/>
<path d="M320.723 177.316L335.37 184.152C335.37 184.152 343.834 171.457 345.461 168.202C347.089 164.947 348.065 157.786 348.065 154.531C348.391 151.276 350.995 144.44 346.112 145.742C340.904 147.044 336.347 149.648 334.394 152.252C328.209 160.064 327.558 168.528 327.558 168.528L320.723 177.316Z" fill="#F3A08C"/>
<path d="M268.64 422.423H323.325C324.627 422.423 325.604 423.725 325.604 425.027V498.592C325.604 500.219 324.627 501.196 323.325 501.196H268.64C267.338 501.196 266.361 499.894 266.361 498.592V425.027C266.361 423.725 267.338 422.423 268.64 422.423Z" fill="#F3F3F3"/>
<path d="M342.855 422.423H397.54C398.842 422.423 399.818 423.725 399.818 425.027V498.592C399.818 500.219 398.842 501.196 397.54 501.196H342.855C341.553 501.196 340.576 499.894 340.576 498.592V425.027C340.576 423.725 341.553 422.423 342.855 422.423Z" fill="#F3F3F3"/>
<path d="M419.999 422.423H474.684C475.986 422.423 476.963 423.725 476.963 425.027V498.592C476.963 500.219 475.986 501.196 474.684 501.196H419.999C418.697 501.196 417.721 499.894 417.721 498.592V425.027C417.721 423.725 418.697 422.423 419.999 422.423Z" fill="#EBF3F9"/>
<path d="M287.844 439.349C287.844 439.349 291.099 442.604 295.656 442.93C300.213 443.256 302.818 439.024 302.818 439.024C302.818 439.024 307.375 439.675 310.304 441.953C313.234 444.232 320.395 453.672 320.395 453.672L313.559 460.833L306.398 456.276L309.002 481.34H283.613L284.264 456.276L280.032 461.158L270.918 457.252C270.918 457.252 275.801 446.836 278.079 444.232C281.009 441.953 287.844 439.349 287.844 439.349Z" fill="#FCCA19"/>
<path d="M218.512 237.21L217.21 225.492C217.21 225.492 209.072 222.237 210.7 218.005C212.328 213.774 221.442 218.331 221.442 218.331C221.442 218.331 222.744 213.774 222.418 206.287C221.767 199.126 219.489 194.569 222.418 192.29C225.348 189.686 229.579 192.616 225.022 183.827C220.465 175.364 210.7 169.179 208.747 177.643C206.794 186.106 200.935 185.129 196.703 188.71C192.472 192.29 197.029 207.915 197.029 207.915C197.029 207.915 190.193 207.264 188.891 211.821C187.589 216.703 187.589 229.724 200.284 233.63C212.653 237.536 218.512 237.21 218.512 237.21Z" fill="#2C2C2C"/>
<path d="M232.833 231.026C227.625 231.026 222.743 229.723 222.743 229.723C222.417 229.723 222.092 229.072 222.092 228.747C222.092 228.421 222.743 228.096 223.068 228.096C223.068 228.096 229.253 229.723 235.112 229.398C235.763 229.398 236.089 229.723 236.089 230.049C236.089 230.374 235.763 231.026 235.437 231.026C234.461 231.026 233.81 231.026 232.833 231.026Z" fill="#130514"/>
<path d="M215.258 394.755C215.258 394.755 212.329 394.755 212.329 408.101C212.003 421.447 224.372 475.481 224.698 490.454C225.023 505.427 212.329 570.203 213.631 576.062C214.933 582.247 216.886 586.478 216.886 586.478L214.282 593.639L232.51 598.522L236.091 589.408C236.091 589.408 238.695 589.408 243.252 584.525C247.809 579.643 262.131 506.078 262.131 506.078L229.255 391.825L215.258 394.755Z" fill="#2C2C2C"/>
<path d="M279.709 385.966C279.709 385.966 301.517 470.924 306.075 490.128C310.632 509.659 319.095 567.599 318.769 577.039C318.444 586.478 312.91 593.965 312.91 593.965L316.165 602.428L295.658 606.985L292.403 596.895C292.403 596.895 283.94 597.22 281.336 589.733C278.732 582.247 262.131 506.078 262.131 506.078C262.131 506.078 231.534 421.772 229.255 413.96C226.977 406.473 224.047 393.453 224.047 393.453C224.047 393.453 243.577 383.688 252.692 384.664C261.806 385.641 279.709 385.966 279.709 385.966Z" fill="#696969"/>
<path d="M323.65 218.981L326.905 216.377C346.11 200.753 374.755 175.363 375.406 169.504C375.731 166.575 374.755 163.971 372.476 162.018C370.523 160.39 368.245 159.739 365.966 160.065C360.758 161.041 359.456 168.202 359.456 168.202L357.178 167.877C357.178 167.551 358.805 159.088 365.641 157.786C368.896 157.135 371.825 158.112 374.429 160.39C377.033 162.669 378.336 166.249 378.01 169.83C377.685 172.108 374.429 176.34 369.547 181.548L417.396 206.938L323.65 218.981ZM367.594 183.176C356.201 194.568 338.949 209.542 331.462 215.726L409.584 205.636L367.594 183.176Z" fill="#898989"/>
<path d="M350.991 190.012L366.29 205.636L384.844 186.105L418.046 201.404C423.579 204.008 427.811 208.891 429.764 214.75C435.297 232.327 447.667 270.086 450.922 278.549C455.153 289.617 469.476 328.352 469.476 328.352L469.15 347.231L450.922 352.114L442.133 340.07L415.767 272.69L425.858 348.533L379.31 375.55L322.998 356.996L314.534 264.878L287.517 339.094L281.658 273.667L316.487 213.448L350.991 190.012Z" fill="#696969"/>
<path d="M444.737 339.744C444.411 339.744 444.086 339.419 444.086 339.093C444.086 338.768 444.086 338.117 444.737 338.117L466.546 331.281C466.871 331.281 467.522 331.281 467.522 331.932C467.522 332.258 467.522 332.909 466.871 332.909L444.737 339.744C444.737 339.419 444.737 339.744 444.737 339.744Z" fill="#130514"/>
<path d="M368.895 202.055L380.613 213.773L393.959 187.407L383.217 184.478L368.895 202.055Z" fill="#FCCA19"/>
<path d="M365.313 203.683L355.873 218.005L339.598 194.568L351.641 189.36L365.313 203.683Z" fill="#FCCA19"/>
<path d="M380.286 214.75C379.96 214.75 379.96 214.75 379.635 214.425L368.242 202.381C367.917 202.055 367.917 201.73 368.242 201.404L382.564 183.502C382.89 183.176 383.215 183.176 383.541 183.176L394.283 186.106C394.608 186.106 394.608 186.431 394.934 186.431C394.934 186.757 394.934 186.757 394.934 187.082L381.262 213.774C380.937 214.75 380.611 214.75 380.286 214.75ZM369.87 202.055L379.96 212.797L392.655 188.059L383.215 185.455L369.87 202.055Z" fill="#130514"/>
<path d="M356.205 218.982C355.88 218.982 355.554 218.982 355.554 218.656L344.161 202.381L338.953 195.545C338.953 195.22 338.628 195.22 338.953 194.894C338.953 194.569 339.279 194.569 339.279 194.243L350.02 188.058C350.346 187.733 350.671 188.058 350.997 188.058L365.97 203.357C366.296 203.683 366.296 204.008 365.97 204.334L356.856 218.656C356.856 218.656 356.531 218.982 356.205 218.982ZM340.906 195.22L345.463 201.404L356.205 216.703L364.343 204.008L350.346 189.686L340.906 195.22Z" fill="#130514"/>
<path d="M835.999 594.616C835.999 594.616 793.683 538.304 792.056 523.656C790.428 509.008 796.287 413.309 796.287 413.309L762.76 324.771V294.825C762.76 294.825 736.72 296.452 733.465 320.865C730.21 345.278 745.834 403.869 745.834 403.869C745.834 403.869 727.931 432.188 723.049 457.578C720.444 470.924 603.588 466.692 603.588 466.692C603.588 466.692 611.4 473.528 607.494 480.038C603.262 486.548 564.201 474.83 564.201 474.83C564.201 474.83 639.393 559.136 655.669 570.529C671.944 581.921 711.005 612.845 711.005 612.845L730.535 638.885L835.999 594.616Z" fill="#FEB49C"/>
<path d="M737.044 412.984L605.214 294.499C605.214 294.499 563.224 261.949 553.458 280.177C543.042 299.382 589.264 329.654 589.264 329.654L725.001 450.092L737.044 412.984Z" fill="#FEB49C"/>
<path opacity="0.63" d="M717.192 480.689H592.848C585.687 480.689 579.828 474.83 579.828 467.669V161.042C579.828 153.881 585.687 148.021 592.848 148.021H717.192C724.353 148.021 730.212 153.881 730.212 161.042V467.669C730.212 475.156 724.353 480.689 717.192 480.689Z" fill="#2169F4"/>
<path d="M717.192 480.689H592.848C585.687 480.689 579.828 474.83 579.828 467.669V161.042C579.828 153.881 585.687 148.021 592.848 148.021H717.192C724.353 148.021 730.212 153.881 730.212 161.042V467.669C730.212 475.156 724.353 480.689 717.192 480.689Z" fill="#F3F3F3"/>
<path d="M719.139 141.511H590.889C581.45 141.511 573.963 148.998 573.963 158.438V469.622C573.963 479.062 581.45 486.548 590.889 486.548H719.139C728.579 486.548 736.065 479.062 736.065 469.622V158.438C736.065 148.998 728.579 141.511 719.139 141.511ZM730.206 468.32C730.206 475.155 724.672 480.689 717.837 480.689H592.191C585.356 480.689 579.822 475.155 579.822 468.32V160.716C579.822 153.88 585.356 148.347 592.191 148.347H717.837C724.672 148.347 730.206 153.88 730.206 160.716V468.32Z" fill="#2C2C2C"/>
<path d="M572.012 340.396C572.012 340.396 556.387 338.443 550.854 351.789C545.32 365.134 559.642 379.782 560.944 380.108C572.337 384.014 578.847 382.061 582.753 375.55C586.985 368.715 572.012 340.396 572.012 340.396Z" fill="#FEB49C"/>
<path d="M551.179 392.151C551.179 392.151 544.344 402.893 547.924 410.38C551.505 417.866 579.499 435.769 586.66 424.702C596.099 410.054 579.173 391.826 579.173 391.826L571.035 384.014C571.035 384.014 565.502 382.712 559.317 385.641C553.458 388.571 551.179 392.151 551.179 392.151Z" fill="#FEB49C"/>
<path d="M561.595 448.789C561.595 448.789 550.202 460.833 556.712 470.598C563.548 480.363 599.679 501.196 606.841 482.642C614.002 464.088 580.8 451.068 580.8 451.068L578.521 449.115C578.521 449.115 568.756 443.581 565.176 446.185C561.595 448.789 561.595 448.789 561.595 448.789Z" fill="#FEB49C"/>
<path d="M591.869 490.78C580.476 490.78 560.295 476.458 559.644 476.132C559.318 475.807 559.318 475.481 559.318 475.155C559.644 474.83 559.97 474.83 560.295 474.83C560.621 474.83 580.802 489.152 591.544 489.152C591.544 489.152 591.544 489.152 591.869 489.152C601.96 489.152 603.913 485.246 605.215 482.317C606.842 479.062 607.168 474.179 604.238 469.947C603.913 469.622 603.913 468.971 604.564 468.971C604.889 468.645 605.54 468.645 605.54 469.296C608.795 473.854 608.144 479.713 606.517 482.968C605.215 486.223 602.936 490.78 591.869 490.78Z" fill="#130514"/>
<path d="M718.165 518.448C717.84 518.448 717.839 518.448 717.839 518.448C715.886 518.122 684.963 513.239 665.107 515.193C664.782 515.193 664.131 514.867 664.131 514.542C664.131 514.216 664.456 513.565 664.782 513.565C685.289 511.286 717.514 516.495 717.839 516.82H718.165C718.165 516.82 721.095 516.169 723.048 499.243C724.024 490.454 724.675 486.548 725.001 484.92V484.595C725.326 483.618 725.652 483.618 725.977 483.618C726.954 483.618 726.628 484.595 726.628 485.246C726.628 485.571 726.628 485.571 726.303 485.571C725.977 487.199 725.652 490.78 724.675 498.917C723.373 509.984 721.42 516.169 718.816 517.471C718.816 518.448 718.491 518.448 718.165 518.448Z" fill="#130514"/>
<path d="M714.259 270.737H594.798C590.241 270.737 586.66 267.156 586.66 262.599V192.941C586.66 188.384 590.241 184.803 594.798 184.803H714.259C718.816 184.803 722.396 188.384 722.396 192.941V262.599C722.396 267.156 718.816 270.737 714.259 270.737Z" fill="#BBBBBB"/>
<path d="M722.396 284.734H586.66V307.845H722.396V284.734Z" fill="#FCCA19"/>
<path d="M714.259 184.803L670.967 270.737H628L671.292 184.803H714.259Z" fill="#CFCFCF"/>
<path d="M650.785 184.803L607.818 270.737H593.17C589.59 270.737 586.66 267.807 586.66 264.227V234.28L613.677 185.129H650.785V184.803Z" fill="#CFCFCF"/>
<path d="M617.582 232.327H604.562C602.934 232.327 601.307 231.025 601.307 229.072V217.679C601.307 216.052 602.609 214.424 604.562 214.424H617.582C619.209 214.424 620.837 215.726 620.837 217.679V229.072C620.512 231.025 619.209 232.327 617.582 232.327Z" fill="#FFE7AE"/>
<path d="M710.677 217.354H710.352C710.026 217.029 710.026 216.703 710.352 216.378C710.352 216.378 710.677 216.052 710.677 215.076C710.677 214.425 710.352 213.774 710.352 213.774C710.026 213.448 710.352 213.123 710.352 212.797C710.677 212.472 711.003 212.797 711.328 212.797C711.328 212.797 711.979 213.774 711.979 214.75C711.979 216.052 711.328 216.703 711.328 216.703C711.003 217.029 711.002 217.354 710.677 217.354Z" fill="white"/>
<path d="M712.628 218.005C711.977 217.679 711.977 217.354 711.977 217.028C711.977 217.028 712.628 216.052 712.628 214.75C712.628 213.773 712.302 212.797 711.977 212.471C711.977 212.146 711.976 211.82 712.302 211.82C712.627 211.82 712.953 211.82 712.953 212.146C712.953 212.146 713.604 213.773 713.604 215.075C713.604 216.703 712.953 217.679 712.953 217.679C713.279 218.005 712.953 218.005 712.628 218.005Z" fill="white"/>
<path d="M714.583 218.982C713.932 218.656 713.932 218.331 713.932 218.005C713.932 218.005 714.908 216.378 714.908 214.75C714.908 213.448 713.932 211.495 713.932 211.495C713.932 211.17 713.932 210.844 714.257 210.844C714.583 210.844 714.908 210.844 714.908 211.17C714.908 211.17 715.885 213.448 715.885 215.076C715.885 217.029 714.908 218.656 714.908 218.656C715.234 218.982 714.908 218.982 714.583 218.982Z" fill="white"/>
<path d="M716.861 219.958C716.536 219.958 716.536 219.958 716.861 219.958C716.21 219.632 716.21 219.307 716.21 218.981C716.21 218.981 717.512 217.028 717.187 214.75C717.187 212.797 715.885 210.193 715.885 210.193C715.885 209.867 715.885 209.542 716.21 209.542C716.536 209.542 716.861 209.542 716.861 209.867C716.861 209.867 718.163 212.797 718.163 214.75C718.163 217.028 716.861 219.307 716.861 219.632C717.187 219.958 716.861 219.958 716.861 219.958Z" fill="white"/>
<path d="M697.982 257.391C697.982 252.183 702.214 247.952 707.422 247.952C712.63 247.952 716.862 252.183 716.862 257.391C716.862 262.599 712.63 266.831 707.422 266.831C702.214 266.506 697.982 262.274 697.982 257.391Z" fill="#696969"/>
<path d="M670.314 261.623H603.585C602.283 261.623 601.307 260.646 601.307 259.344V257.391C601.307 256.089 602.283 255.113 603.585 255.113H670.314C671.616 255.113 672.593 256.089 672.593 257.391V259.019C672.593 260.321 671.616 261.623 670.314 261.623Z" fill="white"/>
<path d="M649.482 202.706H603.26C602.283 202.706 601.307 201.73 601.307 200.753V198.149C601.307 197.173 602.283 196.196 603.26 196.196H649.482C650.458 196.196 651.435 197.173 651.435 198.149V200.753C651.435 202.055 650.458 202.706 649.482 202.706Z" fill="white"/>
<path d="M592.524 300.032L591.873 299.381C592.85 298.405 593.175 297.428 593.175 296.126C593.175 294.824 592.85 293.848 591.873 292.871L592.524 292.22C593.501 293.196 594.152 294.499 594.152 296.126C594.152 297.754 593.501 299.056 592.524 300.032Z" fill="#696969"/>
<path d="M595.781 302.962L595.13 302.311C596.758 300.683 597.409 298.405 597.409 296.452C597.409 294.173 596.432 291.895 594.805 290.267L595.456 289.616C597.083 291.569 598.06 293.848 598.06 296.452C598.385 298.73 597.409 301.334 595.781 302.962Z" fill="#696969"/>
<path d="M599.032 305.892L598.381 305.241C600.659 302.962 601.962 299.707 601.962 296.452C601.962 293.197 600.659 289.942 598.381 287.338L599.032 286.687C601.636 289.291 602.938 292.871 602.938 296.452C602.613 300.033 601.31 303.288 599.032 305.892Z" fill="#696969"/>
<path d="M380.939 368.389C380.613 368.389 380.288 368.063 380.288 367.738L365.314 206.938C365.314 206.612 365.64 205.961 365.966 205.961C366.617 205.961 366.942 206.287 366.942 206.612L381.59 367.087C381.59 367.738 381.264 368.389 380.939 368.389Z" fill="#130514"/>
<path d="M217.536 240.139C217.536 240.139 206.469 242.418 203.865 249.579C201.261 256.74 200.284 305.241 199.959 323.144C199.308 341.047 196.378 377.829 203.214 381.409C209.724 384.99 211.677 387.268 211.677 387.268L211.351 396.383C211.351 396.383 237.066 389.221 249.761 388.245C262.456 386.943 283.288 385.966 283.288 385.966L282.963 378.48C282.963 378.48 289.147 376.201 289.147 358.624C290.124 346.255 284.265 282.13 284.265 282.13C284.265 282.13 322.349 270.412 327.557 262.925C332.765 255.113 355.225 187.082 355.225 187.082L337.973 181.548L336.346 184.478L321.373 175.689C321.373 175.689 300.866 214.75 290.449 217.029C280.359 218.982 251.389 227.445 245.53 229.398C239.67 231.351 237.717 233.629 237.717 233.629L242.926 239.163C242.926 239.163 244.553 245.022 235.439 245.673C227.952 245.999 217.536 240.139 217.536 240.139Z" fill="#FCCA19"/>
<path d="M216.885 253.485C216.56 253.485 216.234 253.16 216.234 252.834C216.234 252.509 216.56 251.858 216.885 251.858C217.536 251.858 277.755 248.277 294.03 238.186C310.306 228.096 333.742 185.78 334.068 185.454C334.393 185.129 334.719 184.803 335.044 185.129C335.37 185.454 335.695 185.78 335.37 186.105C334.393 188.058 311.608 229.072 295.007 239.488C278.081 249.905 219.489 253.485 216.885 253.485Z" fill="#130514"/>
<path d="M246.833 295.476C237.719 295.476 226.652 292.546 221.77 285.059C221.444 284.734 221.77 284.083 222.095 284.083C222.421 283.757 223.072 284.083 223.072 284.408C228.931 293.197 244.555 295.15 253.018 293.523C261.807 291.569 281.012 287.338 281.012 287.338L281.337 288.965C281.337 288.965 262.132 293.197 253.344 295.15C251.391 295.476 249.112 295.476 246.833 295.476Z" fill="#130514"/>
<path d="M269.942 245.999H269.617L256.271 238.186C255.945 237.861 255.62 237.535 255.945 237.21C256.271 236.884 256.596 236.559 256.922 236.884L270.268 244.696C270.593 245.022 270.919 245.348 270.593 245.673C270.268 245.673 270.268 245.999 269.942 245.999Z" fill="#130514"/>
<path d="M217.538 388.571C217.212 388.571 216.887 388.245 216.887 387.92C216.561 387.594 216.887 386.943 217.212 386.943C217.863 386.618 234.464 379.782 246.833 380.108C259.202 380.433 279.71 377.504 279.71 377.504C280.035 377.504 280.686 377.829 280.686 378.155C280.686 378.48 280.36 379.131 280.035 379.131C279.709 379.131 259.202 382.061 246.833 381.735C234.464 381.41 217.863 388.245 217.538 388.571Z" fill="#130514"/>
<path d="M233.16 246.65C226.325 246.65 218.512 242.093 218.187 241.767C217.861 241.441 217.536 241.116 217.861 240.791C218.187 240.465 218.512 240.139 218.838 240.465C218.838 240.465 228.929 246.65 236.09 244.697C239.67 243.72 240.647 242.418 241.298 241.442C241.623 240.465 241.298 239.814 241.298 239.814C240.972 239.488 241.298 238.837 241.623 238.837C241.949 238.512 242.6 238.837 242.6 239.163C242.6 239.163 243.251 240.465 242.6 242.093C241.949 244.046 239.67 245.348 236.415 246.324C235.764 246.65 234.462 246.65 233.16 246.65Z" fill="#130514"/>
<path d="M361.409 436.745C361.409 436.745 363.362 445.534 368.57 445.86C373.778 446.185 376.056 436.745 376.056 436.745C376.056 436.745 378.01 435.443 381.265 438.047C376.382 449.44 381.915 456.927 381.915 456.927L383.869 485.571H354.898L355.549 456.927C355.549 456.927 360.758 453.672 356.852 438.373C359.13 436.745 361.409 436.745 361.409 436.745Z" fill="#BBBBBB"/>
<path d="M438.882 440.326H457.11L459.714 451.068L464.272 488.175L455.808 488.826L448.322 457.903L443.765 488.826L434.65 487.199L436.604 451.719L438.882 440.326Z" fill="#4060F0"/>
<path d="M601.629 333.235H708.395C712.301 333.235 715.23 336.815 715.23 341.047V442.93C715.23 447.162 712.301 450.742 708.395 450.742H601.629C597.722 450.742 594.793 447.162 594.793 442.93V341.047C594.793 336.815 597.722 333.235 601.629 333.235Z" fill="white"/>
<path d="M708.397 451.394H601.631C597.4 451.394 594.145 447.488 594.145 442.605V340.722C594.145 335.839 597.725 331.933 601.631 331.933H708.397C712.629 331.933 715.884 335.839 715.884 340.722V442.605C715.884 447.488 712.629 451.394 708.397 451.394ZM601.631 333.886C598.376 333.886 595.772 337.141 595.772 341.047V442.931C595.772 446.837 598.376 450.092 601.631 450.092H708.397C711.653 450.092 714.257 446.837 714.257 442.931V341.047C714.257 337.141 711.653 333.886 708.397 333.886H601.631Z" fill="#2C2C2C"/>
<path d="M607.492 391.826C607.492 365.46 628.65 343.976 655.016 343.976C681.057 343.976 702.54 365.46 702.54 391.826C702.54 418.192 681.382 439.675 655.016 439.675C628.65 439.675 607.492 418.192 607.492 391.826Z" fill="#FCCA19"/>
<path d="M652.088 420.47H651.762C650.46 420.47 649.484 419.493 649.158 418.517L629.302 379.781C628.326 378.154 628.977 375.875 630.93 375.224C632.557 374.248 634.836 374.899 635.487 376.852L653.064 411.03L698.635 357.321C699.937 356.019 701.89 355.694 703.518 356.996C704.82 358.298 705.145 360.576 703.843 361.878L655.017 419.493C654.041 420.144 653.064 420.47 652.088 420.47Z" fill="#2C2C2C"/>
<path d="M336.998 181.548L354.25 186.756L359.132 174.062C359.132 174.062 369.874 165.924 370.2 160.39C370.525 155.182 368.247 153.229 367.921 151.276C367.596 149.323 368.247 143.79 365.968 143.464C363.69 143.139 353.273 152.904 353.273 152.904C353.273 152.904 354.901 138.907 352.948 137.93C350.995 136.628 346.438 150.3 346.438 150.3C346.438 150.3 346.438 161.692 345.461 164.622C345.136 167.877 336.998 181.548 336.998 181.548Z" fill="#FEB49C"/>
<path d="M558.997 161.367L562.252 164.622C559.322 167.551 558.02 171.457 558.02 175.363C558.02 179.27 559.648 183.176 562.252 186.105L558.997 189.36C555.416 185.78 553.463 180.897 553.463 175.689C553.463 170.155 555.416 165.273 558.997 161.367Z" fill="#696969"/>
<path d="M547.604 151.276L550.859 154.206C545.651 159.74 542.721 167.226 542.721 175.038C542.721 182.85 545.651 190.337 551.184 196.196L547.929 199.451C541.745 192.941 538.164 184.153 538.164 175.364C538.164 166.25 541.419 157.786 547.604 151.276Z" fill="#696969"/>
<path d="M536.211 141.186L539.466 144.115C531.654 152.578 527.422 163.645 527.422 175.038C527.422 187.082 531.979 198.149 540.117 206.938L536.862 210.193C527.748 200.753 522.865 188.384 522.865 175.364C522.865 162.669 527.748 150.625 536.211 141.186Z" fill="#696969"/>
<path d="M418.371 413.96H528.392C530.996 413.96 533.275 416.564 533.275 419.494V567.599C533.275 570.529 530.996 573.133 528.392 573.133H418.371C415.767 573.133 413.488 570.529 413.488 567.599V419.494C413.488 416.564 415.767 413.96 418.371 413.96Z" fill="white"/>
<path d="M528.395 574.109H418.373C415.118 574.109 412.84 571.18 412.84 567.599V419.494C412.84 415.913 415.444 412.983 418.373 412.983H528.395C531.65 412.983 533.928 415.913 533.928 419.494V567.599C533.928 571.18 531.65 574.109 528.395 574.109ZM418.373 414.611C416.095 414.611 414.467 416.889 414.467 419.494V567.599C414.467 570.203 416.095 572.482 418.373 572.482H528.395C530.673 572.482 532.301 570.203 532.301 567.599V419.494C532.301 416.889 530.673 414.611 528.395 414.611H418.373Z" fill="#2C2C2C"/>
<path d="M457.762 440.652C457.762 440.652 464.272 446.836 473.386 447.487C482.5 448.138 487.057 440.001 487.057 440.001C487.057 440.001 496.171 441.303 501.379 445.86C506.913 450.091 521.235 468.971 521.235 468.971L508.215 482.968L494.544 474.179L499.752 523.005H450.275L451.251 474.179L443.439 483.944L425.211 476.457C425.211 476.457 434.651 455.951 439.208 450.742C444.09 445.86 457.762 440.652 457.762 440.652Z" fill="#FCCA19"/>
<path d="M114.024 506.729C113.699 506.729 113.373 506.404 113.373 505.753C113.373 504.451 114.35 469.947 130.95 467.994C133.88 467.669 136.81 468.645 139.088 470.598C148.528 478.736 149.179 503.474 149.504 504.451C149.504 504.776 149.179 505.427 148.853 505.427C148.528 505.427 148.202 505.102 147.877 504.776C147.877 504.451 147.226 479.712 138.112 471.9C136.159 470.273 133.88 469.296 131.276 469.622C116.303 471.249 115.326 505.427 115.326 505.753C115.001 506.078 114.35 506.729 114.024 506.729Z" fill="#2C2C2C"/>
<path d="M102.306 492.082L100.027 621.959L188.891 610.566L186.287 492.733L102.306 492.082Z" fill="#FCCA19"/>
<path d="M86.3565 492.082H95.1453L92.2156 607.636L82.125 610.891L86.3565 492.082Z" fill="#FCCA19"/>
<path d="M94.4939 492.407H102.632L100.353 620.982L91.5645 607.311L94.4939 492.407Z" fill="#C88E06"/>
<path d="M128.346 504.125C128.021 504.125 127.695 503.8 127.695 503.149C127.695 501.847 128.672 467.343 145.273 465.39C148.202 465.065 151.132 466.041 153.41 467.994C162.85 476.132 163.501 500.87 163.826 501.847C163.826 502.172 163.501 502.823 163.176 502.823C162.85 502.823 162.524 502.498 162.199 502.172C162.199 501.847 161.548 477.108 152.434 469.296C150.481 467.669 148.202 466.692 145.598 467.018C130.625 468.645 129.648 502.823 129.648 503.149C128.997 503.8 128.672 504.125 128.346 504.125Z" fill="#2C2C2C"/>
<path d="M87.6582 181.548C87.6582 160.39 104.91 143.138 126.068 143.138C147.226 143.138 164.478 160.39 164.478 181.548C164.478 202.706 147.226 219.958 126.068 219.958C104.91 219.632 87.6582 202.706 87.6582 181.548Z" fill="white"/>
<path d="M126.396 220.609C104.587 220.609 87.0098 203.032 87.0098 181.548C87.0098 160.065 104.587 142.488 126.396 142.488C148.205 142.488 165.782 160.065 165.782 181.548C165.457 203.032 147.879 220.609 126.396 220.609ZM126.396 143.79C105.564 143.79 88.6373 160.716 88.6373 181.223C88.6373 202.055 105.564 218.656 126.396 218.656C147.228 218.656 164.155 201.73 164.155 181.223C163.829 160.716 147.228 143.79 126.396 143.79Z" fill="#2C2C2C"/>
<path d="M126.394 203.357C126.068 203.357 125.743 203.357 125.743 203.032C125.092 202.381 111.746 183.827 111.746 176.015C111.746 167.877 118.256 161.041 126.068 161.041C133.881 161.041 140.391 167.877 140.391 176.015C140.391 184.152 127.371 202.381 126.72 203.032C127.045 203.357 126.719 203.357 126.394 203.357ZM126.394 162.669C119.233 162.669 113.699 168.528 113.699 176.015C113.699 182.525 123.79 197.498 126.72 201.404C129.324 197.498 139.414 182.525 139.414 176.015C139.089 168.528 133.23 162.669 126.394 162.669Z" fill="#2C2C2C"/>
<path d="M126.394 183.501C121.511 183.501 117.605 179.595 117.605 175.038C117.605 170.481 121.511 166.575 126.394 166.575C131.277 166.575 135.183 170.481 135.183 175.038C135.183 179.595 131.277 183.501 126.394 183.501ZM126.394 168.202C122.488 168.202 119.233 171.132 119.233 175.038C119.233 178.944 122.488 181.874 126.394 181.874C130.3 181.874 133.555 178.944 133.555 175.038C133.555 171.458 130.3 168.202 126.394 168.202Z" fill="#2C2C2C"/>
<path d="M295.983 87.4772C303.353 87.4772 309.328 81.5021 309.328 74.1314C309.328 66.7607 303.353 60.7856 295.983 60.7856C288.612 60.7856 282.637 66.7607 282.637 74.1314C282.637 81.5021 288.612 87.4772 295.983 87.4772Z" fill="#FCCA19"/>
<path d="M500.4 83.5711C500.4 88.4537 496.494 92.3598 491.611 92.3598C486.728 92.3598 482.822 88.4537 482.822 83.5711C482.822 78.6885 486.728 74.7825 491.611 74.7825C496.494 74.7825 500.4 78.6885 500.4 83.5711Z" fill="#FCCA19"/>
<path d="M600.005 87.4768C600.005 90.0809 597.727 92.3594 595.123 92.3594C592.519 92.3594 590.24 90.0809 590.24 87.4768C590.24 84.8728 592.519 82.5942 595.123 82.5942C598.052 82.5942 600.005 84.8728 600.005 87.4768Z" fill="#BBBBBB"/>
<path d="M88.3078 455.625C78.2171 455.625 69.7539 447.487 69.7539 437.071C69.7539 426.98 77.8916 418.517 88.3078 418.517C98.3985 418.517 106.862 426.655 106.862 437.071C106.862 447.487 98.3985 455.625 88.3078 455.625ZM88.3078 422.098C79.8447 422.098 73.009 428.934 73.009 437.397C73.009 445.86 79.8447 452.696 88.3078 452.696C96.771 452.696 103.606 445.86 103.606 437.397C103.606 428.934 96.771 422.098 88.3078 422.098Z" fill="#2C2C2C"/>
<path d="M784.568 279.851C774.477 279.851 766.014 271.714 766.014 261.298C766.014 251.207 774.151 242.744 784.568 242.744C794.658 242.744 803.122 250.881 803.122 261.298C803.122 271.714 794.658 279.851 784.568 279.851ZM784.568 246.324C776.104 246.324 769.269 253.16 769.269 261.623C769.269 270.086 776.104 276.922 784.568 276.922C793.031 276.922 799.866 270.086 799.866 261.623C799.866 253.16 793.031 246.324 784.568 246.324Z" fill="#2C2C2C"/>
<path d="M357.501 64.0405C350.34 64.0405 344.48 58.1814 344.48 51.0203C344.48 43.8591 350.34 38 357.501 38C364.662 38 370.521 43.8591 370.521 51.0203C370.521 58.1814 364.662 64.0405 357.501 64.0405ZM357.501 41.2551C351.967 41.2551 347.736 45.4867 347.736 51.0203C347.736 56.5539 351.967 60.7855 357.501 60.7855C362.709 60.7855 367.266 56.5539 367.266 51.0203C367.266 45.4867 362.709 41.2551 357.501 41.2551Z" fill="#2C2C2C"/>
<path d="M761.782 244.371L759.829 243.069L760.48 242.093C760.48 242.093 761.457 240.791 763.084 238.512L763.735 237.536L765.688 238.838L765.037 239.814C763.41 242.418 762.108 243.72 762.108 243.72L761.782 244.371ZM769.594 232.653L767.641 231.351L768.292 230.375C768.943 229.073 769.92 227.771 770.571 226.469L771.222 225.492L773.175 226.794L772.524 227.771C771.873 229.073 770.896 230.375 770.245 231.677L769.594 232.653ZM776.43 220.609L774.477 219.633L775.128 218.656C775.779 217.354 776.43 216.052 777.081 214.425L777.406 213.448L779.36 214.425L779.034 215.401C778.383 216.703 777.732 218.331 777.081 219.633L776.43 220.609ZM782.289 207.915L780.011 206.938L780.336 205.962C780.987 204.66 781.313 203.032 781.964 201.73L782.289 200.754L784.568 201.405L784.242 202.381C783.591 204.009 783.266 205.311 782.615 206.613L782.289 207.915ZM786.846 194.569L784.568 193.918L784.893 192.941C785.219 191.639 785.544 190.012 785.87 188.384L786.195 187.408L788.474 188.059L788.148 189.035C787.823 190.663 787.497 191.965 786.846 193.592V194.569ZM789.776 180.898L787.497 180.572L787.823 179.27C788.148 177.643 788.148 176.341 788.474 174.713V173.411L790.752 173.737V175.039C790.427 176.666 790.427 178.294 790.101 179.596L789.776 180.898ZM791.078 166.901H788.799V163.971C788.799 162.995 788.799 162.018 788.799 161.042V159.74H791.078V161.042C791.078 162.018 791.078 162.995 791.078 163.971C791.078 164.622 791.078 166.901 791.078 166.901ZM788.148 153.23V151.928C787.823 150.3 787.823 148.998 787.497 147.37L787.172 146.394L789.45 146.068L789.776 147.045C790.101 148.672 790.427 149.975 790.427 151.602V152.904L788.148 153.23ZM785.544 139.884L785.219 138.907C784.893 137.605 784.242 135.978 783.917 134.676L783.591 133.699L785.87 133.048L786.195 134.025C786.846 135.652 787.172 136.954 787.497 138.582L787.823 139.558L785.544 139.884ZM780.661 127.189L780.011 126.213C779.36 124.911 778.708 123.608 778.057 122.306L777.406 121.33L779.36 120.353L780.011 121.33C780.662 122.632 781.638 124.259 782.289 125.562L782.94 126.538L780.661 127.189ZM774.151 115.145L773.5 114.169C772.524 112.867 771.873 111.565 770.896 110.588L770.245 109.612L772.198 108.31L772.849 109.286C773.826 110.588 774.802 111.89 775.453 113.192L776.104 114.169L774.151 115.145ZM765.688 104.404L765.037 103.427C764.061 102.451 763.084 101.149 761.782 100.172L761.131 99.1955L762.759 97.568L763.41 98.5445C764.386 99.521 765.688 100.823 766.665 101.8L767.316 102.776L765.688 104.404ZM756.248 94.6384L755.272 93.9874C754.295 93.0109 752.994 92.0343 751.691 91.0578L750.715 90.4068L752.343 88.7793L753.319 89.4303C754.621 90.4068 755.598 91.3833 756.9 92.3598L757.551 93.0109L756.248 94.6384ZM634.184 87.8028L633.207 85.8497L634.184 85.1987C635.486 84.5477 636.788 83.8967 638.415 83.2457L639.392 82.9202L640.368 84.8732L639.392 85.1987C637.764 85.8497 636.462 86.5007 635.16 87.1517L634.184 87.8028ZM745.507 86.1752L744.53 85.5242C743.228 84.5477 741.926 83.8967 740.624 83.2457L739.648 82.5947L740.95 80.6416L741.926 81.2926C743.228 81.9436 744.53 82.9202 745.832 83.8967L746.809 84.5477L745.507 86.1752ZM646.878 82.2691L645.902 79.9906L646.878 79.6651C648.18 79.0141 649.808 78.6886 651.11 78.0376L652.086 77.7121L653.388 79.9906C653.388 79.9906 649.482 81.2926 647.855 81.9436L646.878 82.2691ZM733.463 79.3396L732.487 79.0141C731.185 78.3631 729.557 77.7121 728.255 77.3866L727.279 77.061L727.93 74.7825L728.906 75.108C730.208 75.759 731.836 76.0845 733.138 76.7355L734.114 77.061L733.463 79.3396ZM659.899 77.7121L659.248 75.4335L660.224 75.108C661.526 74.7825 663.154 74.1315 664.781 73.806L665.758 73.4805L666.409 75.759L665.432 76.0845C663.805 76.41 662.503 76.7355 660.875 77.3866L659.899 77.7121ZM720.768 75.108L719.792 74.7825C718.164 74.457 716.862 74.1315 715.235 73.806L714.258 73.4805L714.584 71.2019L715.56 71.5274C717.188 71.8529 718.49 72.1784 720.117 72.504L721.094 72.8295L720.768 75.108ZM673.244 74.457L672.919 72.1784L673.895 71.8529C675.523 71.5274 676.825 71.2019 678.453 71.2019L679.754 70.8764L680.08 73.155L679.104 73.4805C677.476 73.806 676.174 74.1315 674.546 74.1315L673.244 74.457ZM707.422 72.504H706.121C704.493 72.504 703.191 72.1784 701.563 72.1784H700.262V69.8999H701.563C703.191 69.8999 704.819 70.2254 706.121 70.2254H707.422V72.504ZM686.916 72.504L686.59 70.2254H687.892C689.52 70.2254 691.147 69.8999 692.449 69.8999H693.751V72.1784H692.449C690.822 72.1784 689.52 72.1784 687.892 72.504H686.916Z" fill="#2C2C2C"/>
<path d="M581.777 539.606V537.327H583.079C584.707 537.327 586.009 537.327 587.636 537.002H588.938L589.264 539.28H587.962C586.334 539.28 584.707 539.606 583.404 539.606H581.777ZM574.616 539.28H573.314C571.686 539.28 570.059 538.955 568.757 538.629L567.78 538.304L568.106 536.025L569.408 536.351C571.035 536.676 572.337 536.676 573.965 537.002H575.267L574.616 539.28ZM595.774 537.978L595.123 535.7L596.099 535.374C597.401 535.049 599.029 534.723 600.331 534.072L601.307 533.747L601.958 536.025L600.982 536.351C599.354 536.676 598.052 537.327 596.425 537.653L595.774 537.978ZM560.944 537.002L559.968 536.676C558.34 536.351 557.039 535.7 555.411 535.374L554.434 535.049L555.085 532.77L556.062 533.096C557.364 533.421 558.991 534.072 560.619 534.398L561.596 534.723L560.944 537.002ZM609.12 533.096L608.143 531.143L609.12 530.492C610.422 529.841 611.723 528.864 613.026 528.213L614.002 527.562L615.304 529.515L614.328 530.166C613.026 531.143 611.724 531.794 610.421 532.445L609.12 533.096ZM547.599 532.77L546.622 532.445C544.018 531.468 542.391 530.492 542.391 530.492L541.414 529.841L542.391 527.888L543.367 528.539C543.367 528.539 544.995 529.19 547.599 530.492L548.575 530.817L547.599 532.77ZM620.512 525.283L618.885 523.656L624.093 519.099L625.72 520.726L620.512 525.283ZM630.928 515.844L629.301 514.216L629.952 513.24C631.254 511.938 632.23 510.961 633.207 509.985L633.858 509.008L635.486 510.636L634.834 511.612C633.858 512.589 632.881 513.891 631.579 514.867L630.928 515.844ZM640.043 505.102L638.09 503.8L638.741 502.824C639.717 501.521 640.368 500.219 640.694 498.917L641.019 497.941L643.298 498.592L642.972 499.568C642.647 500.87 641.996 502.498 641.019 504.126L640.043 505.102Z" fill="#2C2C2C"/>
<path d="M104.261 141.836V140.534C104.261 140.534 103.936 139.232 103.936 136.954C103.936 136.628 103.936 134.675 103.936 134.675H106.214C106.214 134.675 106.214 136.628 106.214 136.954C106.214 138.907 106.214 140.209 106.214 140.209V141.511L104.261 141.836ZM106.865 128.165L104.587 127.84L104.912 126.863C105.238 125.561 105.563 123.933 105.889 122.306L106.214 121.329L108.493 121.98L108.167 122.957C107.842 124.585 107.516 125.887 107.191 127.514L106.865 128.165ZM110.771 115.145L108.818 114.168L109.144 113.192C109.795 111.89 110.446 110.262 111.097 108.96L111.748 107.984L113.701 108.96L113.05 109.937C112.399 111.239 111.748 112.541 111.097 113.843L110.771 115.145ZM117.607 103.427L115.654 102.125L116.305 101.148C117.281 99.846 118.258 98.8695 119.234 97.5675L119.885 96.5909L121.513 98.2185L120.862 99.195C119.885 100.497 118.909 101.474 117.932 102.776L117.607 103.427ZM126.721 93.3359L125.093 91.7083L126.07 91.0573C127.372 90.0808 128.348 89.1043 129.65 88.1278L130.627 87.4768L131.929 89.4298L130.953 90.0808C129.651 91.0573 128.674 92.0339 127.372 93.0104L126.721 93.3359ZM207.772 89.1043L206.796 88.4533C206.796 88.4533 205.494 87.4768 203.215 85.8492L202.239 85.1982L203.54 83.2452L204.517 83.8962C207.121 85.5237 208.423 86.5002 208.423 86.5002L209.4 87.1513L207.772 89.1043ZM137.788 85.1982L136.486 83.2452C136.486 83.2452 138.765 81.9432 139.416 81.6176C140.067 81.2921 141.043 80.6411 141.694 80.3156L142.671 79.6646L143.647 81.6176L142.671 82.2687C142.02 82.5942 141.043 82.9197 140.392 83.5707C139.741 83.8962 137.788 85.1982 137.788 85.1982ZM196.054 82.2687L195.077 81.9431C193.775 81.2921 192.473 80.6411 190.846 80.3156L189.869 79.9901L190.52 77.7116L191.497 78.0371C193.124 78.6881 194.426 79.3391 195.728 79.6646L196.705 79.9901L196.054 82.2687ZM149.832 79.3391L149.181 77.0605L150.158 76.735C151.785 76.084 153.087 75.7585 154.714 75.433L155.691 75.1075L156.342 77.3861L155.366 77.7116C154.064 78.0371 152.436 78.3626 151.134 79.0136L149.832 79.3391ZM183.359 77.7116L182.383 77.3861C181.081 77.0606 179.453 76.7351 177.826 76.4095L176.849 76.084L177.175 73.8055L178.476 74.131C180.104 74.4565 181.732 74.782 183.034 75.1075L184.01 75.433L183.359 77.7116ZM163.178 76.084L162.852 73.8055H164.154C165.782 73.8055 167.409 73.48 168.711 73.48H170.013V75.7585H168.711C167.084 75.7585 165.782 75.7585 164.154 76.084H163.178Z" fill="#2C2C2C"/>
</g>
</svg>
