<svg width="143" height="143" viewBox="0 0 143 143" fill="none" xmlns="http://www.w3.org/2000/svg">
<circle cx="71.5" cy="71.5" r="71.5" fill="#F3F3F3"/>
<path fill-rule="evenodd" clip-rule="evenodd" d="M69.3345 51.3333H73.6629C77.3402 51.3332 80.3042 51.3332 82.6354 51.6466C85.0557 51.972 87.0935 52.6681 88.712 54.2866C90.3305 55.9051 91.0266 57.9429 91.352 60.3632C91.6655 62.6944 91.6654 65.6584 91.6654 69.3358V73.6641C91.6654 77.3414 91.6655 80.3054 91.352 82.6366C91.0266 85.0569 90.3305 87.0948 88.712 88.7132C87.0935 90.3317 85.0557 91.0279 82.6354 91.3533C80.3042 91.6667 77.3402 91.6666 73.6629 91.6666H69.3345C65.6572 91.6666 62.6932 91.6667 60.362 91.3533C57.9417 91.0279 55.9039 90.3317 54.2854 88.7132C52.6669 87.0948 51.9708 85.0569 51.6454 82.6366C51.3319 80.3054 51.332 77.3414 51.332 73.6641V69.3357C51.332 65.6584 51.3319 62.6944 51.6454 60.3632C51.9708 57.9429 52.6669 55.9051 54.2854 54.2866C55.9039 52.6681 57.9417 51.972 60.362 51.6466C62.6932 51.3332 65.6572 51.3332 69.3345 51.3333ZM60.8994 55.6439C58.9264 55.9092 57.8816 56.3944 57.1374 57.1386C56.3932 57.8828 55.908 58.9276 55.6427 60.9006C55.3696 62.9317 55.3654 65.6236 55.3654 69.4833V73.5166C55.3654 77.3763 55.3696 80.0681 55.6427 82.0992C55.908 84.0722 56.3932 85.1171 57.1374 85.8612C57.8816 86.6054 58.9264 87.0906 60.8994 87.3559C62.9305 87.629 65.6224 87.6333 69.482 87.6333H73.5154C77.375 87.6333 80.0669 87.629 82.098 87.3559C84.071 87.0906 85.1158 86.6054 85.86 85.8612C86.6042 85.1171 87.0894 84.0722 87.3547 82.0992C87.6278 80.0681 87.632 77.3763 87.632 73.5166V69.4833C87.632 65.6236 87.6278 62.9317 87.3547 60.9006C87.0894 58.9276 86.6042 57.8828 85.86 57.1386C85.1158 56.3944 84.071 55.9092 82.098 55.6439C80.0669 55.3709 77.375 55.3666 73.5154 55.3666H69.482C65.6224 55.3666 62.9305 55.3709 60.8994 55.6439Z" fill="#B7B7B7"/>
<path fill-rule="evenodd" clip-rule="evenodd" d="M85.6156 74.6973L85.5746 74.6563C84.7888 73.8705 84.111 73.1926 83.506 72.6827C82.8669 72.1441 82.1711 71.6704 81.3136 71.4117C80.174 71.0679 78.9583 71.0679 77.8187 71.4117C76.9612 71.6704 76.2654 72.1441 75.6263 72.6827C75.0213 73.1926 74.3434 73.8705 73.5577 74.6563L73.5002 74.7138C72.8814 75.3326 72.5171 75.6938 72.2346 75.9275L72.1939 75.9606L72.1684 75.9148C71.9929 75.5929 71.7888 75.1222 71.4441 74.3179L71.3364 74.0666L71.2919 73.9627L71.2918 73.9625C70.574 72.2875 69.9713 70.881 69.3747 69.8209C68.7601 68.7287 67.9942 67.7044 66.8003 67.1059C65.8045 66.6067 64.6902 66.3921 63.5802 66.4858C62.2495 66.5981 61.1579 67.2647 60.1816 68.0505C59.3642 68.7084 58.4467 69.6041 57.3828 70.665V73.5165C57.3828 74.5587 57.3834 75.5027 57.389 76.3623L59.6354 74.1159C61.0252 72.7261 61.9534 71.8019 62.7106 71.1925C63.4585 70.5905 63.7803 70.5166 63.9194 70.5048C64.2894 70.4736 64.6608 70.5451 64.9928 70.7115C65.1175 70.7741 65.3889 70.9622 65.8597 71.799C66.3364 72.646 66.855 73.8488 67.6292 75.6554L67.7369 75.9067L67.7698 75.9835C68.0701 76.6844 68.3491 77.3356 68.6276 77.8461C68.9194 78.3811 69.3432 79.022 70.057 79.4638C70.8985 79.9847 71.9022 80.178 72.877 80.0069C73.7038 79.8618 74.3353 79.4241 74.8049 79.0357C75.2531 78.6651 75.7539 78.1642 76.293 77.625L76.293 77.625L76.3522 77.5658C77.2117 76.7063 77.7679 76.1525 78.2256 75.7668C78.6639 75.3974 78.8708 75.3072 78.9836 75.2731C79.3635 75.1585 79.7688 75.1585 80.1486 75.2731C80.2615 75.3072 80.4684 75.3974 80.9067 75.7668C81.3644 76.1525 81.9206 76.7063 82.7801 77.5658L85.5035 80.2892C85.5963 78.8415 85.6128 77.0418 85.6156 74.6973Z" fill="#B7B7B7"/>
<path d="M83.6008 62.4253C83.6008 64.0959 82.2464 65.4503 80.5758 65.4503C78.9051 65.4503 77.5508 64.0959 77.5508 62.4253C77.5508 60.7546 78.9051 59.4003 80.5758 59.4003C82.2464 59.4003 83.6008 60.7546 83.6008 62.4253Z" fill="#B7B7B7"/>
</svg>
