<svg width="72" height="47" viewBox="0 0 72 47" fill="none" xmlns="http://www.w3.org/2000/svg">
<path d="M1.33829 47C0.446095 43.6667 -1.19686e-06 40.6905 -9.67895e-07 38.0714C-6.60875e-07 34.5595 0.862453 31.8512 2.58736 29.9464C4.31227 27.9821 6.81041 27 10.0818 27L10.0818 31.1964C8.53531 31.1964 7.4052 31.6429 6.69145 32.5357C6.03717 33.369 5.71004 34.6786 5.71004 36.4643L5.71004 38.3393L10.5279 38.3393L10.5279 47L1.33829 47ZM14.8104 47C13.9777 43.9048 13.5613 40.9286 13.5613 38.0714C13.5613 34.5595 14.3941 31.8512 16.0595 29.9464C17.7844 27.9821 20.2825 27 23.5539 27L23.5539 31.1964C20.6394 31.1964 19.1822 32.9524 19.1822 36.4643L19.1822 38.3393L24 38.3393L24 47L14.8104 47Z" fill="#D9D9D9"/>
<path d="M66.658 5C68.2193 10.8333 69 16.0417 69 20.625C69 26.7708 67.4907 31.5104 64.4721 34.8438C61.4535 38.2813 57.0818 40 51.3569 40V32.6563C54.0632 32.6563 56.0409 31.875 57.29 30.3125C58.4349 28.8542 59.0074 26.5625 59.0074 23.4375V20.1563H50.5762V5H66.658ZM43.0818 5C44.539 10.4167 45.2677 15.625 45.2677 20.625C45.2677 26.7708 43.8104 31.5104 40.8959 34.8438C37.8773 38.2813 33.5056 40 27.7807 40V32.6563C32.881 32.6563 35.4312 29.5833 35.4312 23.4375V20.1563H27V5H43.0818Z" fill="#FCCA19"/>
<path d="M62.0074 14.1563H54.5762V1H68.8871C70.3016 6.47174 71 11.344 71 15.625C71 21.6145 69.5302 26.0813 66.7309 29.1725L66.7258 29.1782L66.7207 29.1839C64.109 32.1581 60.3667 33.7919 55.3569 33.9814V28.6208C57.7881 28.4431 59.7477 27.5924 61.0711 25.9369L61.0711 25.9369L61.0765 25.93C62.4266 24.2105 63.0074 21.6467 63.0074 18.4375V15.1563V14.1563H62.0074ZM38.4312 14.1563H31V1H45.311C46.6179 6.07535 47.2677 10.9495 47.2677 15.625C47.2677 21.622 45.846 26.0937 43.1438 29.1847C40.5321 32.1584 36.7901 33.7919 31.7807 33.9814V28.6174C34.0812 28.4332 35.9602 27.5903 37.2881 25.9902C38.774 24.1997 39.4312 21.6239 39.4312 18.4375V15.1563V14.1563H38.4312Z" stroke="black" stroke-width="2"/>
</svg>
