<svg width="106" height="83" viewBox="0 0 106 83" fill="none" xmlns="http://www.w3.org/2000/svg">
<path fill-rule="evenodd" clip-rule="evenodd" d="M77.0792 42.838L82.9092 47.778L73.1192 52.118L77.0792 42.838ZM52.3092 15.018L65.1892 8.96797V13.848C65.0944 14.6987 65.0944 15.5573 65.1892 16.408L65.1092 23.818L69.7492 24.438C71.5013 25.7279 73.58 26.5005 75.7492 26.668L73.0192 33.078L38.0192 24.878C37.5716 26.8424 37.917 28.9042 38.9805 30.6155C40.0439 32.3268 41.7396 33.5495 43.6992 34.018L69.9392 40.238L62.5092 57.678H70.5092L72.1392 63.028C71.9231 62.9756 71.7016 62.9487 71.4792 62.948L56.8092 63.008C56.2129 63.0097 55.6335 63.206 55.1588 63.567C54.6842 63.9279 54.3403 64.4338 54.1792 65.008L51.3392 75.098L43.4892 68.148C42.9887 67.7003 42.3407 67.4528 41.6692 67.4528C40.9977 67.4528 40.3497 67.7003 39.8492 68.148L32.0792 75.098L29.2292 65.008C29.0599 64.3978 28.6844 63.865 28.1666 63.5004C27.6489 63.1358 27.0208 62.9618 26.3892 63.008L15.5892 63.088L18.4192 53.818L6.19922 48.398L15.7792 40.278C16.3128 39.823 16.6524 39.1814 16.7286 38.4843C16.8048 37.7873 16.6118 37.0875 16.1892 36.528L10.5192 27.918L20.8792 26.588C21.5585 26.4963 22.1791 26.1543 22.6193 25.629C23.0596 25.1036 23.2878 24.4328 23.2592 23.748L23.1492 13.348L32.6492 17.808C33.2513 18.0953 33.9377 18.1521 34.5788 17.9679C35.22 17.7837 35.7715 17.371 36.1292 16.808L41.6992 7.91797L47.2792 16.808C47.6123 17.3239 48.1085 17.7135 48.6887 17.9147C49.269 18.1158 49.8998 18.117 50.4808 17.918C51.0618 17.719 51.5594 17.3312 51.8944 16.8165C52.2294 16.3018 52.3825 15.6898 52.3292 15.078L52.3092 15.018Z" fill="#FCCA19"/>
<path d="M4.40967 49.8879C3.84899 50.3122 3.14704 50.5057 2.44812 50.4285C1.74919 50.3513 1.10638 50.0093 0.651829 49.4728C0.197273 48.9363 -0.0344945 48.2461 0.00416195 47.5439C0.0428184 46.8418 0.348962 46.1812 0.859669 45.6978L10.3397 37.6978L3.50967 27.3178C3.25797 26.9296 3.1083 26.4842 3.07449 26.0228C3.04068 25.5613 3.12384 25.0988 3.31627 24.6781C3.5087 24.2573 3.80418 23.8919 4.17535 23.6157C4.54652 23.3395 4.98138 23.1614 5.43967 23.0978L17.7597 21.4578L17.6297 9.02785C17.6257 8.6685 17.6927 8.3119 17.8269 7.97852C17.9611 7.64514 18.1598 7.34153 18.4115 7.0851C18.6633 6.82868 18.9632 6.62449 19.2941 6.48424C19.625 6.344 19.9803 6.27045 20.3397 6.26784C20.7656 6.26675 21.1862 6.36251 21.5697 6.54786L32.7797 11.8079L39.3797 1.27785C39.7685 0.664397 40.3842 0.229656 41.0924 0.0685328C41.8006 -0.0925904 42.5437 0.0329889 43.1597 0.417852C43.5254 0.645001 43.8307 0.957209 44.0497 1.32786L51.9197 13.8579C52.3082 14.4732 52.4364 15.2176 52.2761 15.9274C52.1157 16.6372 51.68 17.2543 51.0647 17.6428C50.4494 18.0314 49.7049 18.1596 48.9951 17.9992C48.2853 17.8389 47.6682 17.4032 47.2797 16.7878L41.6997 7.89785L36.1297 16.7878C35.772 17.3509 35.2205 17.7636 34.5793 17.9478C33.9382 18.132 33.2517 18.0751 32.6497 17.7878L23.1497 13.3279L23.2597 23.7278C23.2934 24.4161 23.0675 25.0918 22.6268 25.6215C22.1861 26.1511 21.5625 26.496 20.8797 26.5879L10.4797 27.9679L16.1497 36.5779C16.5723 37.1374 16.7652 37.8372 16.689 38.5342C16.6128 39.2313 16.2732 39.8729 15.7397 40.3279L4.40967 49.8879ZM71.5197 62.9478C72.2464 62.9478 72.9433 63.2365 73.4571 63.7504C73.971 64.2642 74.2597 64.9612 74.2597 65.6879C74.2597 66.4146 73.971 67.1115 73.4571 67.6253C72.9433 68.1392 72.2464 68.4278 71.5197 68.4278H58.9097L55.4397 80.7378C55.2416 81.439 54.7733 82.033 54.1377 82.3892C53.5021 82.7454 52.7512 82.8349 52.0497 82.6379C51.597 82.5094 51.1843 82.2686 50.8497 81.9379L41.6697 73.8079L32.3697 82.0479C32.0999 82.2864 31.7858 82.4695 31.4452 82.5865C31.1046 82.7036 30.7444 82.7524 30.3849 82.7301C30.0255 82.7078 29.674 82.6149 29.3505 82.4566C29.027 82.2984 28.7379 82.0779 28.4997 81.8079C28.2268 81.5004 28.0284 81.1343 27.9197 80.7378L24.4597 68.4479L10.7197 68.5479C9.99298 68.5479 9.29605 68.2592 8.7822 67.7453C8.26835 67.2315 7.97966 66.5345 7.97966 65.8079C7.97966 65.0812 8.26835 64.3842 8.7822 63.8704C9.29605 63.3565 9.99298 63.0678 10.7197 63.0678L26.3497 62.9578C26.9813 62.9117 27.6093 63.0857 28.1271 63.4503C28.6449 63.8149 29.0203 64.3476 29.1897 64.9578L32.0797 75.0978L39.9197 68.1579C40.4202 67.7102 41.0682 67.4627 41.7397 67.4627C42.4112 67.4627 43.0591 67.7102 43.5597 68.1579L51.4097 75.1079L54.2497 65.0178C54.4107 64.4437 54.7547 63.9378 55.2293 63.5768C55.7039 63.2159 56.2834 63.0196 56.8797 63.0178L71.5197 62.9478Z" fill="#2C2C2C"/>
<path d="M91.0797 44.7079C89.8938 45.4341 88.9969 46.5497 88.5424 47.8639C88.0879 49.1782 88.1041 50.6094 88.5881 51.9131C89.0721 53.2168 89.9938 54.3118 91.1958 55.0111C92.3978 55.7103 93.8054 55.9704 95.1779 55.7467C96.5504 55.5231 97.8026 54.8296 98.7204 53.785C99.6382 52.7403 100.165 51.4092 100.21 50.0194C100.255 48.6295 99.8158 47.2671 98.9676 46.1652C98.1194 45.0632 96.9148 44.2901 95.5597 43.9779C94.8019 43.7961 94.0154 43.767 93.2463 43.8924C92.4771 44.0177 91.7406 44.295 91.0797 44.7079ZM83.0797 47.1579C83.3638 45.9294 83.8504 44.7567 84.5197 43.6879L77.5197 42.0179L70.8497 57.6779H62.5797L70.0097 40.2379L43.7697 34.0179C41.8101 33.5494 40.1144 32.3268 39.0509 30.6155C37.9874 28.9042 37.642 26.8424 38.0897 24.8779L73.0897 33.0779L75.8197 26.6679C73.4018 26.5013 71.0995 25.5705 69.2453 24.0098C67.3911 22.4492 66.0809 20.3396 65.504 17.9857C64.9271 15.6318 65.1134 13.1554 66.0359 10.9142C66.9584 8.6731 68.5694 6.78321 70.6363 5.51751C72.7031 4.25182 75.1187 3.67583 77.5343 3.87277C79.9498 4.0697 82.2403 5.02936 84.0748 6.61312C85.9093 8.19689 87.1929 10.3228 87.7402 12.6837C88.2875 15.0447 88.0702 17.5185 87.1197 19.7479C86.8959 20.266 86.6352 20.7672 86.3397 21.2479H86.3897L80.6097 34.8279L96.0397 38.4479C96.3197 38.4479 96.5997 38.5479 96.8897 38.6179C99.0866 39.1444 101.078 40.3095 102.614 41.9663C104.15 43.6232 105.16 45.6976 105.519 47.9281C105.877 50.1585 105.567 52.4452 104.628 54.4997C103.689 56.5543 102.162 58.2847 100.241 59.4729C98.3193 60.661 96.0891 61.2537 93.8314 61.1763C91.5736 61.0988 89.3894 60.3545 87.554 59.0374C85.7186 57.7203 84.3142 55.8893 83.518 53.7752C82.7217 51.6611 82.5692 49.3586 83.0797 47.1579ZM74.1797 20.7179C74.8971 21.0282 75.6687 21.1935 76.4502 21.2045C77.2317 21.2155 78.0076 21.0719 78.7335 20.782C79.4593 20.492 80.1206 20.0614 80.6794 19.515C81.2382 18.9686 81.6835 18.3171 81.9897 17.5979C82.6076 16.1496 82.6262 14.5153 82.0414 13.0532C81.4566 11.5912 80.316 10.4206 78.8697 9.79794C77.7892 9.33299 76.595 9.19929 75.4385 9.41381C74.2819 9.62833 73.2151 10.1814 72.3732 11.0029C71.5314 11.8244 70.9524 12.8774 70.7096 14.0283C70.4669 15.1793 70.5713 16.3764 71.0097 17.4679C71.295 18.1903 71.7201 18.8493 72.2606 19.407C72.8012 19.9647 73.4466 20.4102 74.1597 20.7179H74.1797Z" fill="#2C2C2C"/>
<path d="M56.2102 51.4878C56.9396 51.4878 57.639 51.7775 58.1548 52.2933C58.6705 52.809 58.9602 53.5084 58.9602 54.2378C58.9602 54.9671 58.6705 55.6666 58.1548 56.1823C57.639 56.6981 56.9396 56.9878 56.2102 56.9878H55.3502C54.6209 56.9878 53.9214 56.6981 53.4057 56.1823C52.89 55.6666 52.6002 54.9671 52.6002 54.2378C52.6002 53.5084 52.89 52.809 53.4057 52.2933C53.9214 51.7775 54.6209 51.4878 55.3502 51.4878H56.2102ZM28.1002 51.4878C28.8296 51.4878 29.529 51.7775 30.0448 52.2933C30.5605 52.809 30.8502 53.5084 30.8502 54.2378C30.8502 54.9671 30.5605 55.6666 30.0448 56.1823C29.529 56.6981 28.8296 56.9878 28.1002 56.9878H22.7402C22.0109 56.9878 21.3114 56.6981 20.7957 56.1823C20.28 55.6666 19.9902 54.9671 19.9902 54.2378C19.9902 53.5084 20.28 52.809 20.7957 52.2933C21.3114 51.7775 22.0109 51.4878 22.7402 51.4878H28.1002ZM12.1002 51.4878C12.8296 51.4878 13.529 51.7775 14.0448 52.2933C14.5605 52.809 14.8502 53.5084 14.8502 54.2378C14.8502 54.9671 14.5605 55.6666 14.0448 56.1823C13.529 56.6981 12.8296 56.9878 12.1002 56.9878H11.2402C10.5109 56.9878 9.81141 56.6981 9.29568 56.1823C8.77996 55.6666 8.49023 54.9671 8.49023 54.2378C8.49023 53.5084 8.77996 52.809 9.29568 52.2933C9.81141 51.7775 10.5109 51.4878 11.2402 51.4878H12.1002ZM44.4702 51.4878C45.1996 51.4878 45.8991 51.7775 46.4148 52.2933C46.9305 52.809 47.2202 53.5084 47.2202 54.2378C47.2202 54.9671 46.9305 55.6666 46.4148 56.1823C45.8991 56.6981 45.1996 56.9878 44.4702 56.9878H39.0802C38.3509 56.9878 37.6514 56.6981 37.1357 56.1823C36.62 55.6666 36.3302 54.9671 36.3302 54.2378C36.3302 53.5084 36.62 52.809 37.1357 52.2933C37.6514 51.7775 38.3509 51.4878 39.0802 51.4878H44.4702Z" fill="#2C2C2C"/>
</svg>
