<svg width="834" height="745" viewBox="0 0 834 745" fill="none" xmlns="http://www.w3.org/2000/svg">
<path d="M235.387 573.075C211.032 564.291 189.948 549.788 175.375 533.484C158.177 514.239 150.033 490.118 151.358 461.925H235.387V573.075ZM505.593 409.52V195.281C606.716 213.421 693.429 298.63 629.281 369.542C602.115 399.574 554.595 394.858 505.593 409.52Z" fill="#FCCA19"/>
<path d="M152.414 161.578C152.414 161.578 168.03 66.6941 135.921 74.3101C103.811 81.9299 152.414 161.578 152.414 161.578Z" fill="#FCCA19"/>
<path d="M185.426 242.723C185.426 242.723 233.352 175.932 209.446 163.659C185.541 151.386 185.426 242.723 185.426 242.723Z" fill="#FCCA19"/>
<path d="M223.484 293.782C223.484 293.782 271.41 226.991 247.505 214.718C223.6 202.446 223.484 293.782 223.484 293.782Z" fill="#2356F1"/>
<path d="M188.26 241.821C188.26 241.821 123.602 189.109 115.531 217.384C107.461 245.663 188.26 241.821 188.26 241.821Z" fill="#FCCA19"/>
<path d="M224.264 291.162C224.264 291.162 147.054 259.578 147.571 288.981C148.092 318.384 224.264 291.162 224.264 291.162Z" fill="#2356F1"/>
<path d="M164.443 192.065C164.443 192.065 102.04 143.815 95.7869 171.126C89.5332 198.434 164.443 192.065 164.443 192.065Z" fill="#FCCA19"/>
<path d="M163.547 195.46C163.547 195.46 209.757 127.463 185.546 115.808C161.336 104.15 163.547 195.46 163.547 195.46Z" fill="#FCCA19"/>
<path d="M127.294 178.28C127.588 177.514 128.452 177.126 129.219 177.42L160.684 189.511C159.374 185.889 158.105 182.226 156.88 178.519C143.155 136.828 139.88 103.717 139.85 103.393C139.772 102.57 140.371 101.845 141.194 101.766C142.013 101.688 142.739 102.287 142.82 103.106C142.85 103.434 146.1 136.269 159.735 177.655C160.978 181.433 162.341 185.368 163.822 189.414L175.968 136.441C176.155 135.637 176.955 135.134 177.755 135.32C178.559 135.502 179.058 136.299 178.872 137.103L166.071 192.95C165.989 193.315 165.769 193.624 165.468 193.833C170.56 207.226 176.962 221.762 184.951 236.432L203.484 180.48C203.745 179.702 204.59 179.274 205.372 179.539C206.153 179.795 206.574 180.64 206.317 181.418L186.853 239.905L187.809 241.565C197.149 257.966 208.502 274.378 222.242 289.375L222.692 289.364L237.987 237.485C238.218 236.692 239.048 236.242 239.837 236.473C240.627 236.707 241.077 237.537 240.842 238.326L225.517 290.321L225.614 290.797C225.625 291.382 225.298 291.888 224.817 292.145C229.724 297.323 234.928 302.322 240.437 307.072C241.062 307.611 241.133 308.553 240.597 309.179L239.823 309.651C239.372 309.763 238.873 309.662 238.494 309.331C232.422 304.098 226.571 298.443 220.942 292.383L183.331 293.154C182.509 293.172 181.828 292.517 181.813 291.694C181.794 290.872 182.449 290.191 183.272 290.172L218.274 289.457C206.723 276.593 196.162 261.986 186.726 245.794C186.09 244.707 185.461 243.605 184.839 242.495C184.735 242.484 184.299 241.781 183.998 241.185L148.434 226.847C147.671 226.541 147.302 225.67 147.607 224.907C147.916 224.144 148.78 223.772 149.547 224.081L181.831 237.057C174.468 223.418 167.85 208.748 162.05 193.229L128.15 180.205C127.384 179.911 127 179.047 127.294 178.28Z" fill="#2C2C2C"/>
<path d="M347.174 461.908L65.2799 461.905C56.8822 461.905 50.0664 455.108 50.0664 446.71L50.0739 279.366C50.0739 270.968 56.8822 264.164 65.2762 264.164H347.174C355.568 264.164 362.372 270.968 362.372 279.366V446.71C362.372 455.105 355.568 461.908 347.174 461.908Z" fill="#C5C5C5"/>
<path d="M235.391 461.924H145.234L145.242 461.905L156.018 440.471H235.391V461.924ZM235.391 425.433H163.578L235.391 282.594V425.433Z" fill="#DFDFDF"/>
<path d="M197.567 264.167L98.8859 461.901L65.2913 461.905C56.8786 461.905 50.0815 455.085 50.0815 446.71L50.0703 377.551L112.123 264.167H197.567Z" fill="#DFDFDF"/>
<path d="M120.71 373.595H91.1206C87.0111 373.595 83.6758 370.263 83.6758 366.15V340.402C83.6758 336.293 87.0111 332.957 91.1206 332.957H120.71C124.823 332.957 128.155 336.293 128.155 340.402V366.15C128.155 370.263 124.823 373.595 120.71 373.595Z" fill="#FFECC9"/>
<path d="M97.2592 373.595H96.7344V332.957H97.2592V373.595Z" fill="#010101"/>
<path d="M115.251 373.595H114.727V342.773H128.15V343.306H115.251V373.595Z" fill="#010101"/>
<path d="M96.9945 343.305H83.6758V342.773H96.9945V343.305Z" fill="#010101"/>
<path d="M96.9965 352.903H83.6777V352.371H96.9965V352.903Z" fill="#010101"/>
<path d="M96.9965 362.141H83.6777V361.613H96.9965V362.141Z" fill="#010101"/>
<path d="M128.155 352.903H114.992V352.371H128.155V352.903Z" fill="#010101"/>
<path d="M128.157 362.142H114.994V361.613H128.157V362.142Z" fill="#010101"/>
<path d="M335.454 338.723L334.583 338.407C334.006 337.927 333.928 337.074 334.408 336.494C334.431 336.464 335.265 335.384 335.265 333.467C335.265 331.681 334.42 330.545 334.42 330.545C333.958 329.953 334.066 329.097 334.654 328.636C335.246 328.17 336.11 328.278 336.564 328.874C336.709 329.06 337.986 330.776 337.986 333.467C337.986 336.363 336.653 338.05 336.5 338.228C336.232 338.552 335.845 338.723 335.454 338.723Z" fill="white"/>
<path d="M340.046 340.521L339.331 340.313C338.691 339.918 338.497 339.081 338.892 338.44C338.892 338.44 340.28 336.155 340.291 333.531C340.299 331.647 339.238 329.116 338.832 328.297C338.493 327.627 338.761 326.808 339.435 326.473C340.098 326.138 340.924 326.406 341.259 327.076C341.337 327.221 343.027 330.631 343.016 333.545C342.994 336.963 341.27 339.762 341.199 339.877C340.943 340.29 340.496 340.521 340.046 340.521Z" fill="white"/>
<path d="M344.543 342.825L343.869 342.647C343.218 342.271 342.991 341.444 343.363 340.793C343.378 340.756 345.422 337.112 345.422 333.538C345.422 330.333 343.333 325.922 343.315 325.877C342.991 325.2 343.278 324.388 343.959 324.065C344.625 323.733 345.448 324.024 345.768 324.709C345.865 324.906 348.147 329.726 348.147 333.538C348.147 337.845 345.824 341.966 345.723 342.137C345.47 342.576 345.016 342.825 344.543 342.825Z" fill="white"/>
<path d="M349.149 345.081L348.461 344.895C347.813 344.519 347.597 343.685 347.969 343.038C348.003 342.989 350.649 338.374 350.46 333.587C350.285 329.053 347.66 323.197 347.634 323.141C347.325 322.457 347.631 321.649 348.315 321.336C348.986 321.027 349.804 321.329 350.113 322.021C350.233 322.278 352.983 328.424 353.184 333.486C353.397 339.081 350.448 344.195 350.322 344.408C350.072 344.839 349.618 345.081 349.149 345.081Z" fill="white"/>
<path d="M305.898 430.871C305.898 419.074 315.461 409.512 327.258 409.512C339.054 409.512 348.617 419.074 348.617 430.871C348.617 442.668 339.054 452.227 327.258 452.227C315.461 452.227 305.898 442.668 305.898 430.871Z" fill="#FFE6B4"/>
<path d="M276.27 430.871C276.27 419.074 285.829 409.512 297.625 409.512C309.421 409.512 318.984 419.074 318.984 430.871C318.984 442.668 309.421 452.226 297.625 452.226C285.829 452.226 276.27 442.668 276.27 430.871Z" fill="#FF3700"/>
<path d="M218.019 311.523H83.6777V292.319H218.019V311.523Z" fill="white"/>
<path d="M83.6777 440.47H247.826V425.432H83.6777V440.47Z" fill="white"/>
<path d="M235.391 79.4951V44.0914C235.391 31.9042 245.27 22.0249 257.457 22.0249L483.53 22.0175C495.713 22.0175 505.596 31.9042 505.596 44.0914V60.5816C477.548 47.8845 450.497 39.4719 425.728 35.3437C413.571 33.3187 401.153 32.336 388.601 32.336C336.227 32.336 281.679 49.4777 235.391 79.4951ZM505.596 66.9357C474.935 52.1987 445.717 42.8071 419.877 38.504C416.072 37.8712 412.242 37.3389 408.423 36.9071C414.036 37.3985 419.609 38.0983 425.118 39.0177C450.054 43.1719 477.317 51.7111 505.596 64.6502V66.9357Z" fill="#689BF9"/>
<path d="M257.455 613.365C245.272 613.365 235.393 603.471 235.393 591.287V573.073C250.781 578.624 267.48 581.888 284.673 581.892C316.344 581.892 349.689 570.814 379.662 542.487C437.616 487.723 442.109 439.819 470.54 424.048C482.139 417.611 493.91 413.014 505.598 409.519V591.287C505.598 603.471 495.715 613.358 483.532 613.358L257.455 613.365ZM244.658 264.163H241.743C252.102 244.631 260.634 221.456 247.509 214.718C246.005 213.944 244.594 213.583 243.273 213.583C240.191 213.583 237.589 215.548 235.393 218.865L235.393 83.9205C281.487 53.4713 336.11 36.0541 388.536 36.0541C395.206 36.0541 401.847 36.3333 408.425 36.9066C412.244 37.3384 416.074 37.8707 419.878 38.5035C445.719 42.8066 474.937 52.1982 505.598 66.9352V195.28C492.893 193.002 479.966 191.785 467.079 191.785C454.136 191.785 441.252 193.013 428.674 195.634C375.005 206.816 324.54 234.629 284.015 264.152H244.661L244.658 264.163Z" fill="#6097F8"/>
<path d="M235.393 83.9211V79.4952C281.681 49.4778 336.229 32.3361 388.603 32.3361C401.155 32.3361 413.573 33.3188 425.73 35.3438C450.499 39.472 477.55 47.8845 505.598 60.5817V64.6503C477.319 51.7112 450.056 43.172 425.12 39.0178C419.61 38.0984 414.038 37.3986 408.425 36.9072C401.847 36.3339 395.206 36.0548 388.536 36.0548C336.11 36.0548 281.487 53.4719 235.393 83.9211Z" fill="#5993F5"/>
<path d="M284.668 581.893C267.474 581.889 250.775 578.625 235.387 573.075V461.924H244.097L244.105 461.908H347.174C355.568 461.908 362.373 455.105 362.373 446.711V279.366C362.373 270.969 355.568 264.164 347.174 264.164H343.519L343.522 264.153H284.009C324.534 234.63 374.999 206.817 428.669 195.635C441.247 193.014 454.13 191.786 467.073 191.786C479.96 191.786 492.888 193.003 505.592 195.281V409.52C493.904 413.015 482.134 417.612 470.535 424.049C442.103 439.82 437.61 487.724 379.656 542.488C349.683 570.815 316.338 581.893 284.668 581.893Z" fill="url(#paint0_linear_6028_2870)"/>
<path d="M241.741 264.164H235.391V256.849L240.848 238.327C241.082 237.537 240.632 236.707 239.843 236.473C239.701 236.432 239.56 236.413 239.418 236.413C238.774 236.413 238.182 236.834 237.993 237.485L235.391 246.307V218.866C237.587 215.549 240.189 213.584 243.271 213.584C244.592 213.584 246.003 213.945 247.507 214.719C260.632 221.457 252.101 244.632 241.741 264.164Z" fill="#175CF4"/>
<path d="M235.393 256.848V246.307L237.995 237.484C238.184 236.833 238.776 236.412 239.42 236.412C239.562 236.412 239.703 236.431 239.845 236.472C240.634 236.706 241.084 237.537 240.85 238.326L235.393 256.848Z" fill="#3171E4"/>
<path d="M347.178 461.908H244.108L343.523 264.164H347.178C355.572 264.164 362.377 270.968 362.377 279.366V446.71C362.377 455.105 355.572 461.908 347.178 461.908ZM312.444 446.257C316.286 449.956 321.505 452.227 327.259 452.227C339.056 452.227 348.619 442.668 348.619 430.871C348.619 419.075 339.056 409.512 327.259 409.512C321.505 409.512 316.286 411.787 312.444 415.487C308.607 411.787 303.384 409.512 297.629 409.512C285.833 409.512 276.274 419.075 276.274 430.871C276.274 442.668 285.833 452.227 297.629 452.227C303.384 452.227 308.607 449.956 312.444 446.257ZM348.872 321.217C348.686 321.217 348.496 321.254 348.317 321.336C347.632 321.649 347.327 322.457 347.636 323.142C347.662 323.197 350.286 329.053 350.461 333.587C350.651 338.374 348.004 342.989 347.971 343.038C347.599 343.686 347.815 344.519 348.462 344.895L349.151 345.081C349.62 345.081 350.074 344.839 350.323 344.408C350.45 344.195 353.398 339.081 353.186 333.486C352.985 328.424 350.234 322.278 350.115 322.021C349.888 321.515 349.385 321.217 348.872 321.217ZM344.543 323.927C344.345 323.927 344.144 323.972 343.958 324.065C343.277 324.389 342.99 325.2 343.314 325.878C343.333 325.922 345.421 330.333 345.421 333.538C345.421 337.112 343.378 340.756 343.363 340.793C342.99 341.445 343.217 342.271 343.869 342.647L344.543 342.826C345.015 342.826 345.469 342.576 345.723 342.137C345.823 341.966 348.146 337.845 348.146 333.538C348.146 329.726 345.864 324.906 345.767 324.709C345.537 324.217 345.045 323.927 344.543 323.927ZM340.038 326.328C339.834 326.328 339.625 326.376 339.432 326.473C338.758 326.808 338.49 327.627 338.829 328.297C339.234 329.116 340.295 331.647 340.288 333.531C340.277 336.155 338.888 338.441 338.888 338.441C338.494 339.081 338.687 339.918 339.327 340.313L340.042 340.521C340.493 340.521 340.939 340.291 341.196 339.877C341.267 339.762 342.99 336.963 343.013 333.546C343.024 330.631 341.334 327.221 341.256 327.076C341.017 326.6 340.534 326.328 340.038 326.328ZM335.497 328.349C335.203 328.349 334.909 328.442 334.66 328.636C334.072 329.097 333.963 329.954 334.425 330.545C334.425 330.545 335.27 331.681 335.27 333.467C335.27 335.385 334.436 336.464 334.414 336.494C333.934 337.074 334.012 337.927 334.589 338.407L335.46 338.724C335.851 338.724 336.238 338.552 336.506 338.228C336.659 338.05 337.991 336.364 337.991 333.467C337.991 330.776 336.714 329.06 336.569 328.874C336.305 328.528 335.903 328.349 335.497 328.349ZM235.391 282.593V264.164H241.741H244.656L235.391 282.593Z" fill="#3078F0"/>
<path d="M244.095 461.924H235.385V440.471H247.818V425.433H235.385V282.593L244.65 264.163L244.654 264.152H284.007H343.521L343.517 264.163L244.103 461.908L244.095 461.924Z" fill="url(#paint1_linear_6028_2870)"/>
<path d="M335.454 338.723L334.583 338.407C334.006 337.927 333.928 337.074 334.408 336.494C334.431 336.464 335.265 335.384 335.265 333.467C335.265 331.681 334.42 330.545 334.42 330.545C333.958 329.953 334.066 329.097 334.654 328.636C334.904 328.442 335.198 328.349 335.492 328.349C335.897 328.349 336.299 328.528 336.564 328.874C336.709 329.06 337.986 330.776 337.986 333.467C337.986 336.363 336.653 338.05 336.5 338.228C336.232 338.552 335.845 338.723 335.454 338.723Z" fill="#689BF9"/>
<path d="M340.046 340.521L339.331 340.313C338.691 339.918 338.497 339.081 338.892 338.44C338.892 338.44 340.28 336.155 340.291 333.531C340.299 331.647 339.238 329.116 338.832 328.297C338.493 327.627 338.761 326.808 339.435 326.473C339.629 326.376 339.837 326.328 340.042 326.328C340.537 326.328 341.021 326.599 341.259 327.076C341.337 327.221 343.027 330.631 343.016 333.545C342.994 336.963 341.27 339.762 341.199 339.877C340.943 340.29 340.496 340.521 340.046 340.521Z" fill="#689BF9"/>
<path d="M344.543 342.825L343.869 342.647C343.218 342.271 342.991 341.444 343.363 340.793C343.378 340.756 345.422 337.112 345.422 333.538C345.422 330.333 343.333 325.922 343.315 325.877C342.991 325.2 343.278 324.388 343.959 324.065C344.145 323.972 344.346 323.927 344.543 323.927C345.046 323.927 345.537 324.217 345.768 324.709C345.865 324.906 348.147 329.726 348.147 333.538C348.147 337.845 345.824 341.966 345.723 342.137C345.47 342.576 345.016 342.825 344.543 342.825Z" fill="#689BF9"/>
<path d="M349.149 345.081L348.461 344.895C347.813 344.519 347.597 343.685 347.969 343.038C348.003 342.989 350.649 338.374 350.46 333.587C350.285 329.053 347.66 323.197 347.634 323.141C347.325 322.457 347.631 321.649 348.315 321.336C348.494 321.254 348.684 321.217 348.87 321.217C349.384 321.217 349.886 321.515 350.113 322.021C350.233 322.278 352.983 328.424 353.184 333.486C353.397 339.081 350.448 344.195 350.322 344.408C350.072 344.839 349.618 345.081 349.149 345.081Z" fill="#689BF9"/>
<path d="M327.26 452.226C321.506 452.226 316.287 449.955 312.445 446.256C316.48 442.374 318.989 436.917 318.989 430.871C318.989 424.829 316.48 419.369 312.445 415.486C316.287 411.786 321.506 409.512 327.26 409.512C339.057 409.512 348.62 419.074 348.62 430.871C348.62 442.668 339.057 452.226 327.26 452.226Z" fill="#6891DD"/>
<path d="M297.625 452.226C285.829 452.226 276.27 442.668 276.27 430.871C276.27 419.074 285.829 409.512 297.625 409.512C303.38 409.512 308.602 411.786 312.44 415.486C316.475 419.369 318.984 424.829 318.984 430.871C318.984 436.917 316.475 442.374 312.44 446.256C308.602 449.955 303.38 452.226 297.625 452.226Z" fill="#68519B"/>
<path d="M235.391 440.47H247.824V425.432H235.391V440.47Z" fill="#689BF9"/>
<path d="M483.532 613.361L257.455 613.365C245.272 613.365 235.393 603.471 235.393 591.287L235.393 44.0908C235.393 31.9036 245.272 22.0244 257.459 22.0244L483.532 22.0169C495.715 22.0169 505.598 31.9036 505.598 44.0908V591.287C505.598 603.471 495.715 613.361 483.532 613.361Z" fill="white"/>
<path d="M483.525 613.361L257.449 613.365C245.266 613.365 235.387 603.471 235.387 591.287L235.383 551.008H505.588L505.592 591.287C505.592 603.471 495.709 613.361 483.525 613.361Z" fill="#F3F3F3"/>
<path d="M487.047 613.362H254.49C243.937 613.362 235.383 604.808 235.383 594.256V590.56H505.588V594.822C505.588 605.058 497.284 613.362 487.047 613.362Z" fill="#DFDFDF"/>
<path d="M505.596 591.288C505.596 603.497 495.702 613.376 483.492 613.376L257.453 613.366C245.244 613.366 235.391 603.497 235.391 591.288L235.391 44.0912C235.391 31.8817 245.248 22.0248 257.457 22.0248L483.492 22.0359C495.702 22.0359 505.596 31.8817 505.596 44.0912V591.288ZM510.257 22.0359C504.747 14.6656 495.925 9.90088 486.024 9.90088H254.937C245.035 9.90088 236.25 14.6656 230.704 22.0359C226.907 27.0984 224.674 33.3892 224.674 40.2012L224.674 593.647C224.674 610.362 238.223 623.911 254.937 623.911H486.024C502.737 623.911 516.324 610.362 516.324 593.647V40.2012C516.324 33.3892 514.091 27.0984 510.257 22.0359Z" fill="#2C2C2C"/>
<path d="M389.024 131.679H354.193L356.922 60.6295H385.875L389.024 131.679Z" fill="#898989"/>
<path d="M374.434 161.764H368.779C360.724 161.764 354.191 155.231 354.191 147.176V131.679H389.022V147.176C389.022 155.231 382.493 161.764 374.434 161.764Z" fill="#282728"/>
<path d="M354.199 131.679H319.365L327.689 60.6297H356.928L354.199 131.679Z" fill="white"/>
<path d="M339.609 161.764H333.955C325.896 161.764 319.363 155.232 319.363 147.176V131.68H354.198V147.176C354.198 155.232 347.665 161.764 339.609 161.764Z" fill="#F3F3F3"/>
<path d="M319.18 131.679H284.346L298.967 60.6297H327.265L319.18 131.679Z" fill="#898989"/>
<path d="M304.59 161.764H298.936C290.877 161.764 284.344 155.232 284.344 147.176V131.68H319.178V147.176C319.178 155.232 312.645 161.764 304.59 161.764Z" fill="#282728"/>
<path d="M284.293 131.679H249.463L269.017 60.63H298.963L284.293 131.679Z" fill="white"/>
<path d="M269.703 161.764H264.049C255.994 161.764 249.461 155.231 249.461 147.176V131.68H284.291V147.176C284.291 155.231 277.762 161.764 269.703 161.764Z" fill="#F3F3F3"/>
<path d="M249.532 131.679H214.697L239.682 60.63H269.015L249.532 131.679Z" fill="#898989"/>
<path d="M234.943 161.764H229.289C221.23 161.764 214.697 155.231 214.697 147.176V131.68H249.532V147.176C249.532 155.231 242.999 161.764 234.943 161.764Z" fill="#282728"/>
<path d="M389.195 131.679H424.026L415.706 60.6295H386.471L389.195 131.679Z" fill="white"/>
<path d="M403.779 161.764H409.438C417.493 161.764 424.022 155.231 424.022 147.176V131.679H389.191V147.176C389.191 155.231 395.724 161.764 403.779 161.764Z" fill="#F3F3F3"/>
<path d="M424.216 131.679H459.05L444.429 60.6297H416.131L424.216 131.679Z" fill="#898989"/>
<path d="M438.803 161.764H444.461C452.516 161.764 459.049 155.231 459.049 147.176V131.679H424.215V147.176C424.215 155.231 430.748 161.764 438.803 161.764Z" fill="#282728"/>
<path d="M459.096 131.679H493.93L474.376 60.63H444.43L459.096 131.679Z" fill="white"/>
<path d="M473.678 161.764H479.336C487.391 161.764 493.924 155.231 493.924 147.176V131.68H459.09V147.176C459.09 155.231 465.623 161.764 473.678 161.764Z" fill="#F3F3F3"/>
<path d="M493.858 131.679H528.692L503.707 60.6297H474.375L493.858 131.679Z" fill="#898989"/>
<path d="M508.444 161.764H514.102C522.157 161.764 528.69 155.231 528.69 147.176V131.679H493.855V147.176C493.855 155.231 500.388 161.764 508.444 161.764Z" fill="#282728"/>
<path d="M471.193 223.248H379.432V205.134H471.193V223.248Z" fill="#F3F3F3"/>
<path d="M470.283 262.667H451.328V243.713H470.283V262.667Z" fill="#F3F3F3"/>
<path d="M471.195 402.95H379.434V384.841H471.195V402.95Z" fill="#F3F3F3"/>
<path d="M341.685 542.309H407.731V529.698H341.685V542.309ZM408.26 542.836H341.156V529.164H408.26V542.836Z" fill="#6A8EC8"/>
<path d="M470.283 442.374H451.328V423.419H470.283V442.374Z" fill="#F3F3F3"/>
<path d="M425.318 517.994H328.074V517.465H425.318V517.994Z" fill="#6A8EC8"/>
<path d="M258.004 488.156H479.651V494.253H258.004V488.156Z" fill="#DFDFDF"/>
<path d="M258.514 295.7H480.168V301.797H258.514V295.7Z" fill="#DFDFDF"/>
<path d="M258.518 307.645H480.164V313.739H258.518V307.645Z" fill="#DFDFDF"/>
<path d="M258.205 320.848L325.044 320.736V326.837L258.205 326.945V320.848Z" fill="#DFDFDF"/>
<path d="M258.004 476.211H479.658V482.308H258.004V476.211Z" fill="#DFDFDF"/>
<path d="M257.695 501.358L324.539 501.251V507.348L257.695 507.457V501.358Z" fill="#DFDFDF"/>
<path d="M451.091 221.896C450.577 221.896 450.16 221.475 450.16 220.965V207.415C450.16 206.902 450.577 206.485 451.091 206.485C451.604 206.485 452.021 206.902 452.021 207.415V220.965C452.021 221.475 451.604 221.896 451.091 221.896Z" fill="#2C2C2C"/>
<path d="M457.646 211.316L465.825 211.29L462.035 217.086L457.646 211.316Z" fill="white"/>
<path d="M459.515 212.241L461.975 215.475L464.097 212.226L459.515 212.241ZM462.046 218.018L461.29 217.653L456.902 211.88L456.805 210.904C456.961 210.588 457.285 210.387 457.639 210.387L465.82 210.361C466.163 210.361 466.475 210.547 466.639 210.848L466.598 211.801L462.809 217.597L462.046 218.018Z" fill="#2C2C2C"/>
<path d="M456.987 250.443C456.976 250.361 456.797 248.433 457.951 247.089C458.603 246.333 459.526 245.92 460.695 245.857C461.815 245.812 462.731 246.106 463.412 246.78C464.681 248.034 464.618 250.089 464.614 250.175L463.561 250.134C463.561 250.134 463.606 248.447 462.668 247.524C462.202 247.07 461.581 246.869 460.754 246.91C459.876 246.958 459.206 247.249 458.755 247.777C457.888 248.782 458.033 250.335 458.033 250.335L456.987 250.443Z" fill="#2C2C2C"/>
<path d="M456.332 251.143L455.978 251.497L454.847 258.45L455.208 258.722L466.837 258.591L467.198 258.238L466.144 251.578L465.78 251.143H456.332ZM455.215 259.775C454.43 259.775 453.801 259.142 453.801 258.364L454.929 251.411C454.921 250.722 455.554 250.089 456.332 250.089H465.78C466.558 250.089 467.19 250.722 467.19 251.497L468.244 258.156C468.251 259.012 467.618 259.645 466.844 259.645L455.215 259.775Z" fill="#2C2C2C"/>
<path d="M256.285 169.753H355.316V282.289H256.285V169.753Z" fill="#F3F3F3"/>
<path d="M294.596 191.785L298.501 187.642C298.501 187.642 301.497 189.562 304.896 189.417C306.66 189.343 310.487 188.353 310.487 188.353L313.23 192.22C313.23 192.22 321.587 193.065 325.801 196.438C330.011 199.803 345.116 239.837 345.116 239.837L343.408 244.285L345.805 250.345L341.409 253.744L337.415 247.885L332.352 246.221L320.47 218.608L324.393 256.495H285.945L286.786 218.608L278.385 244.163L273.773 247.021L271.014 252.635L265.196 250.93L266.451 245.316L264.146 240.209C264.146 240.209 273.881 204.292 277.525 200.361C281.173 196.438 294.596 191.785 294.596 191.785Z" fill="#FCCA19"/>
<path d="M334.697 271.124C334.697 265.816 339.012 261.517 344.335 261.517C349.654 261.517 353.968 265.816 353.968 271.124C353.968 276.432 349.654 280.732 344.335 280.732C339.012 280.732 334.697 276.432 334.697 271.124Z" fill="#FCCA19"/>
<path d="M341.455 266.773C341.079 266.773 340.707 266.899 340.32 267.152C339.378 267.77 338.912 268.5 338.894 269.386C338.849 272.185 343.123 275.617 344.317 276.525C346.112 275.133 349.838 271.705 349.782 269.185C349.76 268.37 349.346 267.703 348.516 267.152C347.991 266.799 347.482 266.691 346.953 266.803C345.713 267.078 344.809 268.552 344.809 268.552L344.355 268.805L343.901 268.541C343.901 268.541 343.059 267.104 341.861 266.821L341.455 266.773ZM344.321 277.713L344.02 277.616C343.763 277.434 337.777 273.164 337.84 269.367C337.863 268.124 338.499 267.082 339.739 266.27C340.509 265.76 341.31 265.608 342.11 265.794C343.13 266.039 343.912 266.81 344.366 267.372C344.842 266.803 345.661 266.013 346.718 265.775C347.53 265.593 348.334 265.764 349.104 266.27C350.225 267.022 350.809 267.99 350.835 269.162C350.925 272.933 344.891 277.423 344.634 277.609L344.321 277.713Z" fill="#2C2C2C"/>
<path d="M678.727 173.196C678.727 154.956 693.553 140.171 711.837 140.171C730.126 140.171 744.948 154.956 744.948 173.196C744.948 191.428 730.126 206.214 711.837 206.214C693.553 206.214 678.727 191.428 678.727 173.196Z" fill="white"/>
<path d="M711.836 141.1C694.092 141.1 679.656 155.499 679.656 173.195C679.656 190.884 694.092 205.282 711.836 205.282C729.581 205.282 744.016 190.884 744.016 173.195C744.016 155.499 729.581 141.1 711.836 141.1ZM711.836 207.143C693.068 207.143 677.795 191.915 677.795 173.195C677.795 154.471 693.068 139.239 711.836 139.239C730.608 139.239 745.878 154.471 745.878 173.195C745.878 191.915 730.608 207.143 711.836 207.143Z" fill="#2C2C2C"/>
<path d="M701.933 157.747C700.544 157.747 699.171 158.205 697.76 159.128C694.372 161.35 692.701 163.993 692.649 167.206C692.478 177.308 708.075 189.596 711.771 192.366C715.471 189.484 731.276 176.586 731.034 166.513C730.967 163.539 729.475 161.12 726.478 159.124C724.554 157.84 722.663 157.427 720.72 157.866C716.223 158.879 713.074 164.045 713.04 164.098C712.802 164.496 712.363 164.742 711.901 164.738C711.432 164.734 711 164.481 710.77 164.075C710.736 164.027 707.766 158.953 703.448 157.93C702.938 157.81 702.431 157.747 701.933 157.747ZM711.786 195.332L711.026 195.087C710.159 194.476 689.79 179.944 690.014 167.161C690.081 163.067 692.199 159.623 696.312 156.925C698.836 155.261 701.445 154.736 704.069 155.365C707.743 156.243 710.494 159.206 711.931 161.101C713.439 159.18 716.331 156.15 720.139 155.294C722.789 154.71 725.417 155.246 727.941 156.928C731.656 159.404 733.584 162.609 733.674 166.454C733.971 179.166 713.442 194.431 712.568 195.072L711.786 195.332Z" fill="#2C2C2C"/>
<path d="M426.1 262.667H388.042C383.292 262.667 379.436 258.811 379.436 254.057V251.563C379.436 246.81 383.292 242.957 388.042 242.957H426.1C430.853 242.957 434.71 246.81 434.71 251.563V254.057C434.71 258.811 430.853 262.667 426.1 262.667Z" fill="#FCCA19"/>
<path d="M451.093 401.599C450.579 401.599 450.162 401.182 450.162 400.668V387.122C450.162 386.612 450.579 386.192 451.093 386.192C451.606 386.192 452.023 386.612 452.023 387.122V400.668C452.023 401.182 451.606 401.599 451.093 401.599Z" fill="#2C2C2C"/>
<path d="M457.646 391.02L465.825 390.994L462.035 396.793L457.646 391.02Z" fill="white"/>
<path d="M459.515 391.943L461.975 395.177L464.097 391.928L459.515 391.943ZM462.046 397.724L461.29 397.355L456.902 391.582L456.805 390.61C456.961 390.294 457.285 390.089 457.639 390.089L465.82 390.063C466.163 390.063 466.475 390.249 466.639 390.551L466.598 391.503L462.809 397.303L462.046 397.724Z" fill="#2C2C2C"/>
<path d="M456.987 430.15C456.976 430.064 456.797 428.14 457.951 426.791C458.603 426.037 459.526 425.624 460.695 425.56C461.819 425.504 462.731 425.813 463.412 426.483C464.681 427.738 464.618 429.793 464.614 429.881L463.561 429.841C463.561 429.841 463.606 428.154 462.668 427.231C462.202 426.777 461.581 426.579 460.754 426.617C459.876 426.662 459.206 426.951 458.755 427.481C457.888 428.49 458.033 430.041 458.033 430.041L456.987 430.15Z" fill="#2C2C2C"/>
<path d="M456.332 430.845L455.978 431.198L454.847 438.152L455.208 438.424L466.837 438.297L467.198 437.944L466.144 431.281L465.78 430.845H456.332ZM455.215 439.481C454.43 439.481 453.801 438.848 453.801 438.07L454.929 431.117C454.921 430.425 455.554 429.792 456.332 429.792H465.78C466.558 429.792 467.19 430.425 467.19 431.198L468.244 437.858C468.251 438.722 467.618 439.352 466.844 439.352L455.215 439.481Z" fill="#2C2C2C"/>
<path d="M256.283 349.459H355.314V461.991H256.283V349.459Z" fill="#F3F3F3"/>
<path d="M334.697 450.826C334.697 445.522 339.012 441.219 344.335 441.219C349.654 441.219 353.968 445.522 353.968 450.826C353.968 456.135 349.654 460.438 344.335 460.438C339.012 460.438 334.697 456.135 334.697 450.826Z" fill="#FCCA19"/>
<path d="M341.457 446.479C341.081 446.479 340.705 446.606 340.321 446.856C339.38 447.474 338.914 448.202 338.896 449.092C338.851 451.891 343.125 455.32 344.319 456.231C346.114 454.84 349.84 451.411 349.784 448.889C349.761 448.073 349.348 447.41 348.518 446.856C347.997 446.502 347.483 446.4 346.955 446.509C345.916 446.744 345.056 447.853 344.811 448.259L344.353 448.512L343.902 448.247C343.902 448.247 343.057 446.811 341.863 446.527L341.457 446.479ZM344.323 457.415L344.022 457.322C343.765 457.14 337.779 452.867 337.842 449.075C337.865 447.831 338.501 446.789 339.741 445.977C340.511 445.47 341.304 445.295 342.112 445.505C343.132 445.746 343.914 446.517 344.368 447.082C344.844 446.509 345.663 445.716 346.72 445.481C347.532 445.303 348.336 445.463 349.106 445.977C350.227 446.725 350.811 447.696 350.837 448.865C350.927 452.64 344.893 457.126 344.636 457.315L344.323 457.415Z" fill="#2C2C2C"/>
<path d="M426.098 442.375H388.04C383.29 442.375 379.434 438.521 379.434 433.763V431.27C379.434 426.516 383.29 422.66 388.04 422.66H426.098C430.851 422.66 434.708 426.516 434.708 431.27V433.763C434.708 438.521 430.851 442.375 426.098 442.375Z" fill="#FCCA19"/>
<path d="M289.785 361.486H320.436L325.04 379.596L332.608 442.375L318.66 443.702L305.799 390.994L297.882 443.702L282.791 441.22L286.074 380.668L289.785 361.486Z" fill="#2C2C2C"/>
<path d="M320.441 361.486H289.79L289.775 358.292H320.441V361.486Z" fill="#FCCA19"/>
<path d="M492.954 209.954H605.184C607.704 209.954 609.755 213.77 609.755 218.475V323.778C609.755 328.479 607.704 332.299 605.184 332.299H492.954C490.426 332.299 488.379 328.479 488.379 323.778V218.475C488.379 213.77 490.426 209.954 492.954 209.954Z" fill="white"/>
<path d="M492.949 210.884C491.225 210.884 489.305 214 489.305 218.474V323.777C489.305 328.248 491.225 331.367 492.949 331.367H605.179C606.899 331.367 608.82 328.248 608.82 323.777V218.474C608.82 214 606.899 210.884 605.179 210.884H492.949ZM605.179 333.229H492.949C489.859 333.229 487.443 329.074 487.443 323.777V218.474C487.443 213.174 489.859 209.023 492.949 209.023H605.179C608.265 209.023 610.681 213.174 610.681 218.474V323.777C610.681 329.074 608.265 333.229 605.179 333.229Z" fill="#2C2C2C"/>
<path d="M697.258 242.555H775.566C777.331 242.555 778.756 245.22 778.756 248.503V321.98C778.756 325.263 777.331 327.928 775.566 327.928H697.258C695.494 327.928 694.064 325.263 694.064 321.98V248.503C694.064 245.22 695.494 242.555 697.258 242.555Z" fill="white"/>
<path d="M697.255 243.485C696.187 243.485 694.992 245.629 694.992 248.503V321.98C694.992 324.853 696.187 326.997 697.255 326.997H775.563C776.632 326.997 777.823 324.853 777.823 321.98V248.503C777.823 245.629 776.632 243.485 775.563 243.485H697.255ZM775.563 328.859H697.255C694.944 328.859 693.131 325.836 693.131 321.98V248.503C693.131 244.647 694.944 241.624 697.255 241.624H775.563C777.875 241.624 779.684 244.647 779.684 248.503V321.98C779.684 325.836 777.875 328.859 775.563 328.859Z" fill="#2C2C2C"/>
<path d="M645.964 355.716H709.253C710.675 355.716 711.832 357.871 711.832 360.525V419.904C711.832 422.559 710.675 424.714 709.253 424.714H645.964C644.539 424.714 643.385 422.559 643.385 419.904V360.525C643.385 357.871 644.539 355.716 645.964 355.716Z" fill="white"/>
<path d="M645.967 356.647C645.294 356.647 644.318 358.158 644.318 360.526V419.905C644.318 422.274 645.294 423.784 645.967 423.784H709.256C709.929 423.784 710.905 422.274 710.905 419.905V360.526C710.905 358.158 709.929 356.647 709.256 356.647H645.967ZM709.256 425.646H645.967C643.965 425.646 642.457 423.178 642.457 419.905V360.526C642.457 357.254 643.965 354.786 645.967 354.786H709.256C711.258 354.786 712.766 357.254 712.766 360.526V419.905C712.766 423.178 711.258 425.646 709.256 425.646Z" fill="#2C2C2C"/>
<path d="M193.388 488.811H252.023C253.341 488.811 254.413 490.806 254.413 493.262V548.279C254.413 550.737 253.341 552.731 252.023 552.731H193.388C192.066 552.731 190.998 550.737 190.998 548.279V493.262C190.998 490.806 192.066 488.811 193.388 488.811Z" fill="white"/>
<path d="M193.385 489.742C192.804 489.742 191.926 491.145 191.926 493.263V548.28C191.926 550.398 192.804 551.801 193.385 551.801H252.02C252.601 551.801 253.479 550.398 253.479 548.28V493.263C253.479 491.145 252.601 489.742 252.02 489.742H193.385ZM252.02 553.663H193.385C191.49 553.663 190.064 551.348 190.064 548.28V493.263C190.064 490.196 191.49 487.881 193.385 487.881H252.02C253.915 487.881 255.34 490.196 255.34 493.263V548.28C255.34 551.348 253.915 553.663 252.02 553.663Z" fill="#2C2C2C"/>
<path d="M576.084 257.712L515.111 257.463C514.381 257.459 513.793 256.867 513.797 256.142C513.801 255.412 514.389 254.824 515.114 254.824L576.088 255.073C576.817 255.077 577.409 255.669 577.405 256.395C577.402 257.121 576.81 257.712 576.084 257.712Z" fill="#2C2C2C"/>
<path d="M562.106 301.879L561.812 301.831H533.216C532.486 301.831 531.895 301.239 531.895 300.513C531.895 299.783 532.486 299.192 533.216 299.192H561.797C562.061 298.994 562.623 298.533 563.769 297.502C565.143 292.331 577.937 244.201 578.521 242.332C579.24 240.039 581.715 239.533 582.981 239.596L596.493 238.997C597.223 238.814 597.837 239.529 597.867 240.255C597.896 240.981 597.334 241.599 596.609 241.628L582.977 242.228C582.839 242.22 581.324 242.198 581.038 243.117C580.569 244.621 571.136 280.04 566.219 298.555L565.828 299.192C563.866 300.982 562.876 301.879 562.106 301.879Z" fill="#2C2C2C"/>
<path d="M566.124 290.653L524.946 290.418C524.366 290.415 523.856 290.031 523.688 289.477L513.868 256.772C513.664 256.072 514.058 255.338 514.754 255.126C515.454 254.929 516.188 255.32 516.4 256.016L525.933 287.787L566.131 288.014C566.861 288.017 567.449 288.613 567.445 289.343C567.441 290.068 566.849 290.653 566.124 290.653Z" fill="#2C2C2C"/>
<path d="M532.81 290.37C532.222 290.37 531.682 289.976 531.53 289.373L523.244 256.716C523.065 256.013 523.493 255.294 524.2 255.112C524.922 254.941 525.622 255.365 525.801 256.068L534.091 288.729C534.27 289.432 533.838 290.147 533.134 290.329L532.81 290.37Z" fill="#2C2C2C"/>
<path d="M559.272 290.37L559.041 290.348C558.326 290.221 557.846 289.532 557.976 288.818L563.642 257.211C563.769 256.492 564.442 256.016 565.172 256.146C565.89 256.273 566.371 256.958 566.24 257.676L560.571 289.283C560.459 289.923 559.901 290.37 559.272 290.37Z" fill="#2C2C2C"/>
<path d="M550.844 289.881C550.114 289.874 549.522 289.26 549.537 288.534L550.256 256.752C550.271 256.018 550.866 255.393 551.603 255.46C552.333 255.479 552.906 256.082 552.895 256.808L552.177 288.59C552.158 289.312 551.559 289.892 550.844 289.881Z" fill="#2C2C2C"/>
<path d="M540.609 290.508C539.95 290.508 539.384 290.02 539.298 289.354L535.234 256.946C535.14 256.221 535.654 255.562 536.376 255.472C537.095 255.398 537.757 255.893 537.85 256.619L541.915 289.026C542.008 289.748 541.495 290.407 540.772 290.496L540.609 290.508Z" fill="#2C2C2C"/>
<path d="M573.087 268.232L518.181 267.886C517.452 267.883 516.867 267.287 516.871 266.561C516.875 265.831 517.467 265.247 518.189 265.247L573.094 265.593C573.828 265.597 574.412 266.193 574.408 266.918C574.404 267.648 573.813 268.232 573.087 268.232Z" fill="#2C2C2C"/>
<path d="M569.791 279.853L522.1 279.421C521.37 279.414 520.786 278.818 520.793 278.089C520.8 277.356 521.403 276.935 522.122 276.782L569.802 277.214C570.532 277.222 571.116 277.817 571.109 278.543C571.101 279.273 570.513 279.853 569.791 279.853Z" fill="#2C2C2C"/>
<path d="M539.301 303.252C538.095 303.252 537.112 304.235 537.112 305.441C537.112 306.647 538.095 307.63 539.301 307.63C540.507 307.63 541.489 306.647 541.489 305.441C541.489 304.235 540.507 303.252 539.301 303.252ZM539.301 310.269C536.639 310.269 534.473 308.103 534.473 305.441C534.473 302.78 536.639 300.613 539.301 300.613C541.962 300.613 544.129 302.78 544.129 305.441C544.129 308.103 541.962 310.269 539.301 310.269Z" fill="#2C2C2C"/>
<path d="M556.677 303.252C555.468 303.252 554.485 304.235 554.485 305.441C554.485 306.647 555.468 307.63 556.677 307.63C557.88 307.63 558.862 306.647 558.862 305.441C558.862 304.235 557.88 303.252 556.677 303.252ZM556.677 310.269C554.012 310.269 551.846 308.103 551.846 305.441C551.846 302.78 554.012 300.613 556.677 300.613C559.339 300.613 561.502 302.78 561.502 305.441C561.502 308.103 559.339 310.269 556.677 310.269Z" fill="#2C2C2C"/>
<path d="M599.292 239.023C598.607 239.023 598.045 239.581 598.045 240.273C598.045 240.962 598.607 241.52 599.292 241.52C599.981 241.52 600.539 240.962 600.539 240.273C600.539 239.581 599.981 239.023 599.292 239.023ZM599.292 244.16C597.152 244.16 595.406 242.414 595.406 240.273C595.406 238.129 597.152 236.384 599.292 236.384C601.437 236.384 603.179 238.129 603.179 240.273C603.179 242.414 601.437 244.16 599.292 244.16Z" fill="#2C2C2C"/>
<path d="M759.42 313.05H717.773V271.4H759.42V313.05Z" fill="#FCCA19"/>
<path d="M741.23 313.05H734.529V271.4H741.23V313.05Z" fill="#2C2C2C"/>
<path d="M726.344 259.983L726.12 259.998C725.082 260.136 724.449 261.606 724.103 262.819C723.481 264.978 723.656 266.538 724.639 267.58C726.787 269.851 732.366 269.564 735.776 269.054C732.951 264.818 728.767 259.983 726.344 259.983ZM731.276 271.977C728.16 271.977 724.75 271.411 722.781 269.334C721.151 267.603 720.767 265.172 721.65 262.108C722.461 259.287 723.849 257.723 725.781 257.467C731.019 256.793 737.689 267.201 738.966 269.3L739.889 270.815L738.155 271.21C737.567 271.344 734.585 271.977 731.276 271.977Z" fill="#2C2C2C"/>
<path d="M739.031 269.051C742.445 269.561 748.028 269.847 750.169 267.577C751.151 266.534 751.326 264.978 750.705 262.819C750.355 261.606 749.726 260.136 748.687 259.998C746.301 259.667 741.946 264.684 739.031 269.051ZM743.531 271.977C740.222 271.977 737.241 271.344 736.652 271.21L734.918 270.815L735.841 269.3C737.122 267.201 743.826 256.793 749.026 257.467C750.958 257.723 752.346 259.287 753.158 262.108C754.04 265.172 753.657 267.603 752.026 269.334C750.057 271.411 746.647 271.977 743.531 271.977Z" fill="#2C2C2C"/>
<path d="M72.4062 527.136C72.4062 510.956 85.524 497.839 101.705 497.839C117.887 497.839 131.008 510.956 131.008 527.136C131.008 543.318 117.887 556.44 101.705 556.44C85.524 556.44 72.4062 543.318 72.4062 527.136Z" fill="white"/>
<path d="M101.708 498.769C86.0666 498.769 73.3397 511.495 73.3397 527.136C73.3397 542.782 86.0666 555.509 101.708 555.509C117.353 555.509 130.08 542.782 130.08 527.136C130.08 511.495 117.353 498.769 101.708 498.769ZM101.708 557.37C85.0392 557.37 71.4785 543.806 71.4785 527.136C71.4785 510.471 85.0392 496.908 101.708 496.908C118.377 496.908 131.941 510.471 131.941 527.136C131.941 543.806 118.377 557.37 101.708 557.37Z" fill="#2C2C2C"/>
<path d="M116.891 524.757H103.821V511.494C103.821 510.325 102.876 509.38 101.707 509.38C100.542 509.38 99.5926 510.325 99.5926 511.494V524.757H86.661C85.4922 524.757 84.543 525.699 84.543 526.868C84.543 528.04 85.4922 528.986 86.661 528.986H99.5926V542.395C99.5926 543.564 100.542 544.504 101.707 544.504C102.876 544.504 103.821 543.564 103.821 542.395V528.986H116.891C118.059 528.986 119.005 528.04 119.005 526.868C119.005 525.699 118.059 524.757 116.891 524.757Z" fill="#2C2C2C"/>
<path d="M659.12 403.154H686.141C688.028 403.154 689.736 401.963 690.392 400.188L696.08 384.751C696.21 384.215 696.065 383.515 695.637 382.968C695.212 382.424 694.568 382.112 693.88 382.112H680.669L680.401 371.722C680.36 370.218 679.563 368.867 678.264 368.108L677.609 367.724C677.27 367.523 676.972 367.661 676.861 367.724C676.753 367.791 676.492 367.989 676.5 368.376L676.608 375.344L668.642 385.905L659.12 386.202V403.154ZM686.141 405.793H656.48V383.645L667.298 383.31L673.954 374.481L673.861 368.421C673.842 367.185 674.467 366.072 675.532 365.45C676.604 364.821 677.881 364.828 678.945 365.45L679.6 365.83C681.689 367.058 682.973 369.236 683.04 371.659L683.241 379.472H693.88C695.391 379.472 696.79 380.154 697.717 381.348C698.648 382.543 698.968 384.066 698.596 385.529L692.863 401.1C691.832 403.906 689.13 405.793 686.141 405.793Z" fill="#2C2C2C"/>
<path d="M222.707 497.557L229.712 511.754L245.376 514.03L234.041 525.081L236.718 540.681L222.707 533.315L208.695 540.681L211.372 525.081L200.037 514.03L215.701 511.754L222.707 497.557Z" fill="#FCCA19"/>
<path d="M504.547 64.5908L237.904 64.5908V56.6733L504.547 56.6733V64.5908Z" fill="#2C2C2C"/>
<path d="M762.024 186.541L760.844 185.957C759.37 185.227 758.528 184.851 758.528 184.851L757.322 184.315L758.394 181.903L759.597 182.439C759.597 182.439 760.464 182.826 762.012 183.593L763.196 184.181L762.024 186.541Z" fill="#2C2C2C"/>
<path d="M775.562 194.454L774.453 193.743C772.89 192.738 771.397 191.819 769.997 190.989L768.866 190.311L770.213 188.048L771.348 188.718C772.77 189.567 774.285 190.501 775.879 191.525L776.988 192.239L775.562 194.454ZM788.293 203.682L787.254 202.863C785.847 201.754 784.455 200.693 783.085 199.688L782.024 198.906L783.588 196.781L784.649 197.562C786.037 198.586 787.452 199.662 788.888 200.793L789.923 201.605L788.293 203.682ZM799.974 214.153L799.036 213.23C797.774 211.99 796.504 210.792 795.235 209.638L794.256 208.748L796.036 206.798L797.011 207.687C798.306 208.867 799.598 210.088 800.882 211.35L801.824 212.277L799.974 214.153ZM810.359 225.886L809.537 224.851C808.442 223.478 807.329 222.138 806.198 220.835L805.334 219.841L807.325 218.11L808.193 219.104C809.343 220.436 810.486 221.806 811.603 223.21L812.422 224.241L810.359 225.886ZM819.036 238.892L818.37 237.753C817.488 236.242 816.576 234.764 815.634 233.316L814.912 232.21L817.123 230.77L817.841 231.875C818.805 233.361 819.74 234.876 820.644 236.424L821.311 237.559L819.036 238.892ZM825.565 253.06L825.1 251.827C824.478 250.19 823.816 248.589 823.112 247.018L822.576 245.812L824.981 244.736L825.521 245.939C826.243 247.558 826.928 249.207 827.564 250.889L828.033 252.125L825.565 253.06ZM829.574 268.105L829.329 266.81C829.009 265.09 828.636 263.4 828.216 261.74L827.899 260.46L830.453 259.816L830.777 261.092C831.208 262.812 831.592 264.551 831.927 266.322L832.165 267.622L829.574 268.105ZM830.978 283.661C830.978 283.661 830.799 279.496 830.713 278.044L830.561 275.796L833.192 275.614L833.613 283.557L830.978 283.661ZM833.542 299.489L830.907 299.392C830.907 299.392 831.063 294.609 831.082 292.833L831.097 291.516L833.736 291.542L833.721 292.863C833.702 294.657 833.658 296.426 833.595 298.175L833.542 299.489ZM832.091 315.365L829.474 315.015L829.649 313.709C829.88 312.008 830.077 310.277 830.252 308.516L830.382 307.202L833.01 307.459L832.876 308.769C832.705 310.567 832.496 312.324 832.266 314.055L832.091 315.365ZM828.964 331.01L826.407 330.366L826.727 329.086C827.144 327.429 827.538 325.736 827.903 324.001L828.171 322.709L830.754 323.253L830.483 324.548C830.11 326.309 829.712 328.04 829.288 329.734L828.964 331.01ZM823.849 346.161L821.4 345.17L821.899 343.949C822.543 342.364 823.157 340.737 823.741 339.073L824.181 337.826L826.667 338.701L826.228 339.944C825.629 341.653 825 343.317 824.341 344.936L823.849 346.161ZM816.464 360.373L814.216 358.995L814.901 357.871C815.794 356.416 816.654 354.916 817.488 353.363L818.113 352.198L820.436 353.445L819.814 354.607C818.958 356.204 818.068 357.748 817.156 359.245L816.464 360.373ZM806.723 373.111L804.757 371.354L805.632 370.367C806.775 369.094 807.888 367.769 808.971 366.396L809.786 365.361L811.859 366.995L811.041 368.03C809.92 369.448 808.774 370.81 807.601 372.128L806.723 373.111ZM794.818 383.868L793.199 381.788L794.245 380.976C795.6 379.926 796.94 378.825 798.254 377.674L799.244 376.807L800.983 378.791L799.989 379.658C798.634 380.846 797.256 381.974 795.857 383.061L794.818 383.868ZM781.176 392.311L779.947 389.977L781.112 389.363C782.638 388.559 784.154 387.71 785.654 386.817L786.785 386.139L788.14 388.402L787.005 389.08C785.468 390.003 783.912 390.87 782.341 391.697L781.176 392.311ZM766.353 398.412L765.508 395.918L766.755 395.49C768.385 394.939 770.02 394.34 771.646 393.696L772.875 393.208L773.846 395.661L772.621 396.145C770.95 396.811 769.275 397.425 767.604 397.991L766.353 398.412ZM750.823 402.313L750.328 399.722L751.624 399.477C753.306 399.153 755.011 398.784 756.727 398.375L758.011 398.069L758.622 400.634L757.337 400.939C755.588 401.356 753.846 401.732 752.119 402.064L750.823 402.313Z" fill="#2C2C2C"/>
<path d="M737.404 404.026L737.17 401.402L742.389 400.892L742.672 403.52L737.404 404.026Z" fill="#2C2C2C"/>
<path d="M670.188 197.835L669.615 195.259L670.903 194.972C674.271 194.22 676.289 194.142 676.371 194.138L677.689 194.097L677.778 196.729L676.464 196.778C676.464 196.778 674.58 196.852 671.476 197.544L670.188 197.835ZM655.845 203.575L654.628 201.237L655.793 200.627C657.487 199.744 659.11 198.981 660.651 198.322L661.865 197.805L662.899 200.228L661.69 200.749C660.208 201.382 658.645 202.115 657.014 202.968L655.845 203.575ZM643.093 212.434L641.414 210.398L642.43 209.557C643.856 208.38 645.278 207.29 646.674 206.281L647.746 205.514L649.283 207.654L648.215 208.425C646.863 209.397 645.494 210.45 644.109 211.593L643.093 212.434ZM632.13 223.512L630.139 221.781L631.002 220.787C632.201 219.406 633.399 218.085 634.594 216.838L635.506 215.885L637.412 217.709L636.5 218.662C635.331 219.879 634.166 221.163 632.994 222.518L632.13 223.512ZM622.988 236.164L620.766 234.746L621.473 233.637C622.456 232.099 623.449 230.622 624.451 229.207L625.21 228.128L627.365 229.65L626.602 230.73C625.631 232.114 624.659 233.551 623.699 235.055L622.988 236.164Z" fill="#2C2C2C"/>
<path d="M24.3966 359.505L22.3195 357.882L23.1348 356.84C24.3892 355.243 25.5469 353.866 26.5594 352.719L27.4304 351.729L29.407 353.475L28.536 354.465C27.5533 355.582 26.4253 356.914 25.2081 358.47L24.3966 359.505ZM15.9095 372.627L13.6128 371.331L14.2568 370.181C15.1688 368.565 16.0845 367.036 16.9891 365.591L17.6926 364.474L19.926 365.878L19.2225 366.995C18.3366 368.402 17.4432 369.894 16.5572 371.476L15.9095 372.627ZM9.4326 386.85L6.96832 385.901L7.44108 384.672C8.09622 382.967 8.77741 381.326 9.47722 379.736L10.0096 378.53L12.4254 379.591L11.8931 380.797C11.2081 382.349 10.5419 383.958 9.90535 385.618L9.4326 386.85ZM5.07368 401.851L2.50144 401.27L2.7918 399.982C3.19382 398.214 3.62934 396.491 4.09464 394.808L4.44462 393.539L6.98695 394.239L6.63707 395.512C6.18294 397.153 5.75489 398.84 5.36404 400.567L5.07368 401.851ZM2.90722 417.322L0.27918 417.113L0.383418 415.795C0.528592 413.994 0.714708 412.222 0.938052 410.491L1.10554 409.181L3.7224 409.516L3.55491 410.822C3.33529 412.52 3.15663 414.247 3.01146 416.007L2.90722 417.322ZM0.253189 433.104L0.182394 431.787C0.0856116 429.981 0.0297901 428.205 0.0111781 426.456L0 425.139L2.63922 425.113L2.65039 426.434C2.66901 428.143 2.7211 429.88 2.81788 431.642L2.88859 432.963L0.253189 433.104ZM2.50889 448.958L2.23717 447.662C1.87609 445.932 1.55231 444.178 1.27685 442.41L1.0721 441.105L3.68151 440.702L3.88253 442.002C4.15427 443.727 4.46686 445.436 4.82049 447.123L5.09231 448.414L2.50889 448.958ZM7.14699 464.279L6.68914 463.043C6.07495 461.383 5.49801 459.701 4.95454 457.989L4.55622 456.73L7.07256 455.942L7.47088 457.195C7.99947 458.867 8.56529 460.512 9.1646 462.127L9.61872 463.363L7.14699 464.279ZM13.84 478.797L13.2257 477.632C12.4068 476.076 11.6102 474.487 10.8359 472.863L10.2701 471.676L12.6487 470.536L13.2183 471.731C13.9739 473.313 14.7556 474.873 15.5597 476.403L16.1738 477.568L13.84 478.797ZM22.2413 492.391L21.4969 491.305C20.5067 489.859 19.5278 488.379 18.5674 486.855L17.8638 485.74L20.0898 484.328L20.7971 485.445C21.7426 486.941 22.703 488.396 23.6745 489.816L24.419 490.906L22.2413 492.391ZM32.0425 504.999L31.19 503.997C30.0733 502.675 28.9454 501.298 27.8175 499.869L26.9986 498.838L29.0645 497.196L29.8834 498.235C30.9964 499.642 32.1057 500.99 33.2038 502.289L34.0562 503.293L32.0425 504.999ZM43.031 516.591L42.0892 515.67C40.8869 514.506 39.6324 513.243 38.3296 511.9L37.4139 510.95L39.3086 509.12L40.228 510.069C41.5085 511.389 42.7443 512.63 43.9281 513.784L44.8736 514.703L43.031 516.591ZM55.2517 526.999L54.187 526.221C54.187 526.221 52.6013 525.066 49.977 522.844L48.9682 521.995L50.6694 519.982L51.6781 520.831C54.1982 522.955 55.743 524.091 55.743 524.091L56.8076 524.869L55.2517 526.999Z" fill="#2C2C2C"/>
<path d="M680.048 311.015H677.409V310.575L677.003 310.456L675.733 310.099L676.441 307.556L677.71 307.91C679.296 308.349 680.048 308.733 680.048 309.693V311.015ZM661.216 312.976L660.211 310.538L661.432 310.036C663.204 309.302 664.942 308.718 666.599 308.29L667.872 307.962L668.531 310.516L667.25 310.843C665.716 311.238 664.101 311.789 662.433 312.474L661.216 312.976ZM648.002 321.032L646.442 318.906L647.506 318.128C649.036 317.004 650.503 315.995 651.918 315.091L653.03 314.38L654.452 316.602L653.343 317.313C651.973 318.191 650.548 319.163 649.07 320.25L648.002 321.032ZM637.05 331.8L634.936 330.222L635.725 329.165C636.797 327.728 637.984 326.336 639.265 325.029L640.185 324.088L642.072 325.93L641.149 326.876C639.954 328.097 638.837 329.396 637.839 330.743L637.05 331.8ZM631.143 345.812L628.578 345.194L628.887 343.909C629.315 342.13 629.855 340.384 630.491 338.713L630.96 337.481L633.425 338.419L632.956 339.651C632.36 341.218 631.854 342.86 631.452 344.527L631.143 345.812ZM627.822 361.353L627.718 360.039C627.614 358.617 627.547 357.131 627.547 355.602L627.569 353.342L630.209 353.361L630.186 355.602C630.186 357.064 630.246 358.479 630.35 359.841L630.45 361.155L627.822 361.353ZM631.504 377.113L631.024 375.885C630.99 375.803 630.242 373.871 629.442 370.666L629.121 369.389L631.683 368.749L632.003 370.026C632.758 373.052 633.481 374.925 633.481 374.925L633.961 376.153L631.504 377.113Z" fill="#2C2C2C"/>
<path d="M183.221 612.275C183.214 624.846 173.014 635.042 160.44 635.033C147.866 635.03 137.674 624.834 137.678 612.256C137.681 599.679 147.881 589.486 160.455 589.49C173.033 589.497 183.225 599.696 183.221 612.275Z" fill="#DFDFDF"/>
<path d="M693.145 567.64C693.138 580.211 682.938 590.407 670.364 590.398C657.79 590.395 647.598 580.199 647.602 567.622C647.605 555.044 657.805 544.851 670.379 544.855C682.957 544.863 693.149 555.061 693.145 567.64Z" fill="#DFDFDF"/>
<path d="M96.8261 117.731C96.8261 123.933 91.7933 128.962 85.5918 128.958C79.3865 128.958 74.3613 123.925 74.3613 117.724C74.3651 111.519 79.394 106.493 85.5992 106.497C91.8008 106.501 96.8298 111.53 96.8261 117.731Z" fill="#DFDFDF"/>
<path d="M657.797 90.5283C657.793 96.7336 652.764 101.763 646.562 101.759C640.357 101.755 635.332 96.7261 635.332 90.5246C635.336 84.3231 640.368 79.2941 646.57 79.2978C652.771 79.2978 657.797 84.3268 657.797 90.5283Z" fill="#FCCA19"/>
<path d="M330.412 679.188C330.412 685.394 325.379 690.42 319.178 690.42C312.976 690.415 307.947 685.383 307.947 679.181C307.951 672.98 312.98 667.955 319.185 667.959C325.387 667.959 330.416 672.987 330.412 679.188Z" fill="#FCCA19"/>
<path d="M568.877 512.496C568.877 518.702 563.844 523.727 557.643 523.727C551.441 523.723 546.412 518.69 546.412 512.489C546.416 506.287 551.445 501.262 557.65 501.266C563.852 501.266 568.88 506.294 568.877 512.496Z" fill="#FCCA19"/>
<path d="M39.3749 216.152C36.8734 216.152 34.5208 217.124 32.7527 218.892C30.9808 220.66 30.0056 223.012 30.0056 225.514C30.0056 228.019 30.9771 230.375 32.749 232.144C34.5171 233.915 36.8697 234.891 39.3749 234.891C44.5416 234.891 48.7441 230.692 48.7478 225.525C48.7478 220.358 44.5416 216.152 39.3749 216.152ZM39.3749 238.613C35.8795 238.613 32.5853 237.251 30.1136 234.775C27.6419 232.3 26.2795 229.013 26.2832 225.514C26.2832 222.019 27.6494 218.732 30.121 216.26C32.5927 213.788 35.8833 212.43 39.3749 212.43C46.5926 212.43 52.4703 218.311 52.4703 225.525C52.4665 232.747 46.5852 238.613 39.3749 238.613Z" fill="#FCCA19"/>
<path d="M611.152 163.826C601.887 163.823 594.341 171.364 594.334 180.633C594.33 189.906 601.875 197.447 611.144 197.451C620.413 197.455 627.958 189.913 627.962 180.644C627.966 171.372 620.42 163.83 611.152 163.826ZM611.144 201.173C599.821 201.17 590.608 191.957 590.611 180.633C590.619 169.313 599.836 160.1 611.152 160.104C622.475 160.108 631.688 169.321 631.684 180.644C631.681 191.964 622.464 201.177 611.144 201.173Z" fill="white"/>
<path d="M542.061 96.0125L536.369 90.5182C542.001 84.6889 545.106 77.0245 545.106 68.932C545.106 60.8693 542.035 53.2458 536.459 47.4723L542.15 41.9781C549.159 49.233 553.019 58.8033 553.019 68.932C553.019 79.0867 549.126 88.7054 542.061 96.0125Z" fill="#FCCA19"/>
<path d="M564.53 115.993L558.742 110.592C569.324 99.2612 575.15 84.4684 575.15 68.9311C575.15 53.1035 569.094 38.0798 558.098 26.6259L563.804 21.1429C576.226 34.0782 583.064 51.0487 583.064 68.9311C583.064 86.4785 576.483 103.192 564.53 115.993Z" fill="#FCCA19"/>
<path d="M587.302 136.303L581.477 130.947C597.077 113.991 605.661 91.9657 605.661 68.9315C605.661 45.1453 596.582 22.6137 580.092 5.4906L585.791 6.10352e-05C603.71 18.6084 613.575 43.0868 613.575 68.9315C613.575 93.9535 604.247 117.881 587.302 136.303Z" fill="#FCCA19"/>
<path d="M728.282 429.473L727.955 428.195C727.475 426.304 726.965 424.622 726.499 423.214L726.082 421.968L728.588 421.133L729.001 422.388C729.488 423.844 730.013 425.581 730.512 427.543L730.836 428.821L728.282 429.473ZM730.08 444.861L730.062 443.539C730.043 441.845 729.946 440.115 729.771 438.391L729.641 437.077L732.265 436.816L732.396 438.127C732.578 439.929 732.678 441.738 732.701 443.513L732.716 444.828L730.08 444.861ZM729.95 460.782L727.445 459.959L727.858 458.704C728.387 457.103 728.822 455.439 729.157 453.761L729.418 452.466L732.005 452.984L731.744 454.274C731.391 456.062 730.925 457.83 730.363 459.531L729.95 460.782ZM721.385 474.598L719.416 472.849L720.29 471.863C721.426 470.586 722.472 469.236 723.41 467.84L724.143 466.744L726.332 468.21L725.599 469.305C724.601 470.802 723.477 472.25 722.263 473.616L721.385 474.598ZM707.984 483.808L706.882 481.41L708.077 480.859C709.641 480.138 711.148 479.322 712.559 478.432L713.672 477.721L715.086 479.952L713.97 480.656C712.462 481.611 710.85 482.487 709.183 483.257L707.984 483.808ZM692.22 487.542L691.948 484.921L693.258 484.784C694.985 484.605 696.698 484.336 698.343 484.006L699.635 483.737L700.163 486.321L698.872 486.585C697.148 486.941 695.347 487.218 693.534 487.407L692.22 487.542ZM684.079 487.668L682.761 487.575C679.474 487.337 677.438 486.924 677.352 486.905L676.064 486.641L676.593 484.057L677.885 484.326C677.885 484.326 679.85 484.72 682.951 484.944L684.269 485.037L684.079 487.668Z" fill="#2C2C2C"/>
<path d="M504.913 38.6155L236.074 38.6155C238.285 28.5687 247.241 21.6079 258.613 22.0434L483.111 22.0173C494.945 22.0173 503.089 30.3182 504.913 38.6155Z" fill="#DFDFDF"/>
<path d="M467.341 26.6707C466.782 26.6707 466.328 27.1248 466.328 27.6869V32.9466C466.328 33.505 466.782 33.9591 467.341 33.9591H482.007C482.565 33.9591 483.019 33.505 483.019 32.9466V27.6869C483.019 27.1248 482.565 26.6707 482.007 26.6707H467.341ZM482.007 34.9902H467.341C466.213 34.9902 465.297 34.0708 465.297 32.9466V27.6869C465.297 26.559 466.213 25.6433 467.341 25.6433H482.007C483.131 25.6433 484.047 26.559 484.047 27.6869V32.9466C484.047 34.0708 483.131 34.9902 482.007 34.9902Z" fill="white"/>
<path d="M478.536 33.2593H468.072C467.406 33.2593 466.885 32.6972 466.885 32.0309V28.6063C466.885 27.9325 467.406 27.3779 468.072 27.3779H474.814L478.536 33.2593Z" fill="white"/>
<path d="M485.132 29.5822V30.7622L484.775 31.1382H483.539V29.21H484.775L485.132 29.5822Z" fill="white"/>
<path d="M267.997 28.8266L266.564 30.3379C265.25 29.0872 263.467 28.324 261.505 28.324C259.514 28.324 257.701 29.117 256.383 30.4124L254.928 28.9197C256.629 27.252 258.948 26.2358 261.505 26.2358C264.018 26.2358 266.303 27.2185 267.997 28.8266Z" fill="white"/>
<path d="M265.845 31.0783L264.404 32.6082C263.645 31.886 262.621 31.4468 261.497 31.4468C260.358 31.4468 259.315 31.9009 258.556 32.6528L257.082 31.1378C258.221 30.0323 259.777 29.3437 261.497 29.3437C263.187 29.3437 264.717 30.0062 265.845 31.0783Z" fill="white"/>
<path d="M263.665 33.3817L261.499 35.6636L259.303 33.4152C259.872 32.8569 260.65 32.5181 261.499 32.5181C262.34 32.5181 263.103 32.8457 263.665 33.3817Z" fill="white"/>
<path d="M285.127 35.6643H287.997V25.5133H285.127V35.6643Z" fill="white"/>
<path d="M280.861 35.6641H283.731V27.7577H280.861V35.6641Z" fill="white"/>
<path d="M276.908 35.6643H279.774V29.6601H276.908V35.6643Z" fill="white"/>
<path d="M273.012 35.6641H275.878V32.6638H273.012V35.6641Z" fill="white"/>
<path d="M616.028 506.701H660.198C663.12 506.701 665.487 504.335 665.487 501.41V457.242C665.487 454.32 663.12 451.951 660.198 451.951H616.028C613.108 451.951 610.736 454.32 610.736 457.242V501.41C610.736 504.334 613.108 506.701 616.028 506.701Z" fill="white" stroke="#2C2C2C"/>
<path d="M627.075 470.543C627.049 470.3 626.506 464.52 629.972 460.491C631.914 458.238 634.682 457.003 638.205 456.818C641.566 456.64 644.303 457.564 646.334 459.559C650.146 463.311 649.946 469.475 649.936 469.736L647.314 469.634C647.317 469.582 647.472 464.34 644.481 461.408C643 459.956 640.903 459.293 638.344 459.426C635.571 459.57 633.429 460.496 631.972 462.18C629.235 465.345 629.678 470.235 629.683 470.282L627.075 470.543Z" fill="#2C2C2C"/>
<path d="M624.528 472.385C623.76 472.385 623.136 473.013 623.136 473.781L619.687 495.011C619.705 495.569 620.329 496.197 621.097 496.197L656.642 495.806C657.425 495.806 658.049 495.178 658.049 494.412L654.813 473.984C654.797 473.013 654.173 472.385 653.406 472.385H624.528ZM621.112 498.801C618.893 498.801 617.104 497.007 617.104 494.801L620.553 473.57C620.535 471.575 622.327 469.78 624.528 469.78H653.406C655.609 469.78 657.399 471.575 657.399 473.781L660.635 494.207C660.65 496.616 658.861 498.411 656.657 498.411L621.112 498.801Z" fill="#2C2C2C"/>
<path d="M635.062 494.219L630.09 482.406L632.412 481.398L635.746 489.329L647.229 475.126L649.183 476.754L635.062 494.219Z" fill="#2C2C2C"/>
<defs>
<linearGradient id="paint0_linear_6028_2870" x1="381.033" y1="400.772" x2="133.928" y2="730.397" gradientUnits="userSpaceOnUse">
<stop stop-color="#5E95F6"/>
<stop offset="1" stop-color="#4A89F4"/>
</linearGradient>
<linearGradient id="paint1_linear_6028_2870" x1="513.05" y1="163.45" x2="224.188" y2="378.033" gradientUnits="userSpaceOnUse">
<stop stop-color="#5E95F6"/>
<stop offset="1" stop-color="#4486F0"/>
</linearGradient>
</defs>
</svg>
