<svg width="149" height="24" viewBox="0 0 149 24" fill="none" xmlns="http://www.w3.org/2000/svg">
<path d="M0 11.6998C0 6.18443 0 3.42678 1.71339 1.71339C3.42678 0 6.18443 0 11.6998 0C17.2151 0 19.9727 0 21.6861 1.71339C23.3995 3.42678 23.3995 6.18443 23.3995 11.6998C23.3995 17.2151 23.3995 19.9727 21.6861 21.6861C19.9727 23.3995 17.2151 23.3995 11.6998 23.3995C6.18443 23.3995 3.42678 23.3995 1.71339 21.6861C0 19.9727 0 17.2151 0 11.6998Z" fill="#2C2C2C"/>
<path fill-rule="evenodd" clip-rule="evenodd" d="M11.6445 0C6.16601 1.9088e-05 3.42105 0.00572837 1.71339 1.71339C0 3.42678 0 6.18443 0 11.6998C0 17.2151 0 19.9727 1.71339 21.6861C3.42105 23.3938 6.16601 23.3995 11.6445 23.3995V0Z" fill="#FCCA19"/>
<path d="M14.0404 15.2097C14.3635 15.2097 14.6313 15.4742 14.5671 15.7908C14.4537 16.3501 14.1781 16.8685 13.7686 17.2779C13.2202 17.8265 12.4762 18.1347 11.7004 18.1347C10.9247 18.1347 10.1807 17.8265 9.6322 17.2779C9.22271 16.8685 8.94718 16.3501 8.8338 15.7908C8.76957 15.4742 9.03738 15.2097 9.36047 15.2097H14.0404Z" fill="white"/>
<path d="M15.2689 10.3989C14.9568 10.4825 14.7657 10.809 14.9239 11.0907C15.0905 11.3872 15.3209 11.6459 15.6011 11.8467C16.0412 12.162 16.5769 12.3151 17.1171 12.2796C17.6573 12.2442 18.1685 12.0226 18.5636 11.6526C18.9588 11.2825 19.2133 10.7868 19.284 10.2501C19.3546 9.71338 19.2371 9.16876 18.9512 8.70902C18.6653 8.24933 18.2288 7.90296 17.7162 7.72893C17.2036 7.55489 16.6465 7.56402 16.1398 7.75473C15.8172 7.87617 15.5277 8.06647 15.2901 8.3097C15.0643 8.54083 15.1644 8.90569 15.4442 9.06721L15.741 9.23855C16.1923 9.49916 16.1033 10.1753 15.5999 10.3102L15.2689 10.3989Z" fill="#FCCA19"/>
<path d="M8.12884 10.3989C8.44094 10.4825 8.63205 10.809 8.47381 11.0907C8.30727 11.3872 8.0769 11.6459 7.79669 11.8467C7.35666 12.162 6.82087 12.3151 6.28069 12.2796C5.74047 12.2442 5.22925 12.0226 4.83413 11.6526C4.43901 11.2825 4.18443 10.7868 4.11377 10.2501C4.04311 9.71338 4.16074 9.16876 4.44661 8.70902C4.73249 8.24933 5.16892 7.90296 5.68155 7.72893C6.19417 7.55489 6.75131 7.56402 7.25797 7.75473C7.58059 7.87617 7.8701 8.06647 8.10773 8.3097C8.33347 8.54083 8.23332 8.90569 7.95352 9.06721L7.65676 9.23855C7.20544 9.49916 7.29448 10.1753 7.79786 10.3102L8.12884 10.3989Z" fill="white"/>
<path d="M31.8184 17.0753V5.56523H34.3177L37.9844 12.8659L41.6019 5.56523H44.1012V17.0753H41.9965V9.13335L38.7902 15.431H37.1294L33.9231 9.13335V17.0753H31.8184Z" fill="black"/>
<path d="M50.7739 17.2726C49.9299 17.2726 49.168 17.1082 48.4884 16.7793C47.8087 16.4395 47.2661 15.9297 46.8605 15.2501C46.4659 14.5705 46.2686 13.71 46.2686 12.6686V5.56523H48.3733V12.685C48.3733 13.5839 48.587 14.2526 49.0146 14.691C49.453 15.1295 50.0559 15.3488 50.8233 15.3488C51.5797 15.3488 52.1771 15.1295 52.6156 14.691C53.054 14.2526 53.2733 13.5839 53.2733 12.685V5.56523H55.378V12.6686C55.378 13.71 55.1697 14.5705 54.7531 15.2501C54.3366 15.9297 53.7775 16.4395 53.076 16.7793C52.3854 17.1082 51.618 17.2726 50.7739 17.2726Z" fill="black"/>
<path d="M57.5265 17.0753V5.56523H59.6311V15.431H64.7285V17.0753H57.5265Z" fill="black"/>
<path d="M67.3522 17.0753V7.25885H63.9979V5.56523H72.8277V7.25885H69.4569V17.0753H67.3522Z" fill="black"/>
<path d="M74.3869 17.0753V5.56523H76.4916V17.0753H74.3869Z" fill="black"/>
<path d="M85.9783 17.0753L81.769 5.56523H84.0216L87.2773 14.9213L90.5495 5.56523H92.7693L88.5599 17.0753H85.9783Z" fill="#898989"/>
<path d="M94.1376 17.0753V5.56523H101.652V7.25885H96.2423V10.4159H101.159V12.0602H96.2423V15.3817H101.652V17.0753H94.1376Z" fill="#898989"/>
<path d="M103.644 17.0753V5.56523H105.748L111.158 13.6716V5.56523H113.263V17.0753H111.158L105.748 8.98536V17.0753H103.644Z" fill="#898989"/>
<path d="M115.494 17.0753V5.56523H119.424C120.772 5.56523 121.879 5.8064 122.745 6.28872C123.622 6.76009 124.269 7.42876 124.686 8.29476C125.113 9.14979 125.327 10.1583 125.327 11.3203C125.327 12.4822 125.113 13.4962 124.686 14.3622C124.269 15.2172 123.622 15.8859 122.745 16.3682C121.879 16.8396 120.772 17.0753 119.424 17.0753H115.494ZM117.599 15.2666H119.325C120.29 15.2666 121.052 15.1131 121.611 14.8061C122.17 14.4883 122.57 14.0388 122.811 13.4578C123.052 12.8659 123.173 12.1534 123.173 11.3203C123.173 10.4981 123.052 9.79106 122.811 9.19912C122.57 8.60717 122.17 8.15225 121.611 7.83436C121.052 7.51646 120.29 7.35751 119.325 7.35751H117.599V15.2666Z" fill="#898989"/>
<path d="M132.577 17.2726C131.426 17.2726 130.418 17.0205 129.552 16.5162C128.697 16.012 128.023 15.3159 127.529 14.428C127.047 13.5291 126.806 12.4932 126.806 11.3203C126.806 10.1473 127.047 9.1169 127.529 8.22899C128.023 7.33011 128.697 6.62854 129.552 6.12429C130.418 5.62004 131.426 5.36792 132.577 5.36792C133.717 5.36792 134.72 5.62004 135.586 6.12429C136.452 6.62854 137.126 7.33011 137.609 8.22899C138.091 9.1169 138.332 10.1473 138.332 11.3203C138.332 12.4932 138.091 13.5291 137.609 14.428C137.126 15.3159 136.452 16.012 135.586 16.5162C134.72 17.0205 133.717 17.2726 132.577 17.2726ZM132.577 15.3817C133.673 15.3817 134.545 15.0199 135.192 14.2964C135.849 13.5729 136.178 12.5809 136.178 11.3203C136.178 10.0596 135.849 9.06757 135.192 8.34409C134.545 7.6206 133.673 7.25885 132.577 7.25885C131.481 7.25885 130.604 7.6206 129.946 8.34409C129.289 9.06757 128.96 10.0596 128.96 11.3203C128.96 12.5809 129.289 13.5729 129.946 14.2964C130.604 15.0199 131.481 15.3817 132.577 15.3817Z" fill="#898989"/>
<path d="M140.191 17.0753V5.56523H144.416C145.337 5.56523 146.094 5.72418 146.686 6.04208C147.288 6.34901 147.738 6.77105 148.034 7.30818C148.33 7.83436 148.478 8.42082 148.478 9.06757C148.478 9.76914 148.291 10.4104 147.919 10.9914C147.557 11.5724 146.987 11.9944 146.209 12.2575L148.593 17.0753H146.176L144.038 12.537H142.295V17.0753H140.191ZM142.295 10.9914H144.285C144.986 10.9914 145.502 10.8215 145.831 10.4817C146.159 10.1418 146.324 9.6924 146.324 9.13335C146.324 8.58525 146.159 8.14677 145.831 7.81791C145.513 7.48905 144.992 7.32463 144.268 7.32463H142.295V10.9914Z" fill="#898989"/>
</svg>
