<svg width="422" height="376" viewBox="0 0 422 376" fill="none" xmlns="http://www.w3.org/2000/svg">
<path d="M83.7697 336.105C138.813 387.652 191.569 361.454 239.305 335.257C270.716 318.018 299.953 300.78 326.237 305.695C394.27 318.41 425.862 248.739 379.223 159.041C333.816 71.7137 261.035 27.5986 212.161 19.4561C131.363 5.99435 43.7118 85.1247 70.7312 148.514C95.1173 205.724 23.4919 279.659 83.7697 336.105Z" fill="#F3F3F3"/>
<path d="M374.992 285.861L388.11 290.658L394.433 284.1L386.4 278.82L374.992 285.861Z" fill="#FEB3A2"/>
<path d="M196.323 18.2185C155.672 18.2185 112.411 38.9407 86.1082 72.3835C65.7285 98.295 59.9559 127.037 70.2728 151.239C80.9038 176.178 73.8841 204.684 67.0959 232.252C57.6142 270.764 47.807 310.589 83.4693 343.985C141.674 398.495 198.038 367.442 247.772 340.042C278.047 323.364 306.648 307.595 332.537 312.447C359.218 317.431 381.388 310.113 394.952 291.821C416.039 263.385 412.631 213.977 386.061 162.876C340.979 76.181 267.566 28.5034 214.808 19.7158C208.759 18.7076 202.569 18.2185 196.323 18.2185ZM152.644 376C129.714 376.002 106.133 367.786 82.1828 345.359C45.7174 311.21 55.658 270.841 65.2695 231.801C72.2929 203.279 78.9269 176.338 68.5424 151.978C57.949 127.122 63.8118 97.6893 84.6298 71.2191C115.379 32.1242 169.047 10.1833 215.117 17.8593C268.338 26.726 342.35 74.7365 387.729 162.009C414.636 213.754 417.982 263.924 396.462 292.942C382.447 311.839 359.622 319.425 332.193 314.296C306.97 309.583 278.652 325.179 248.678 341.69C218.732 358.189 186.397 375.996 152.644 376Z" fill="#DFDFDF"/>
<path d="M385.162 290.354C385.162 290.354 388.173 292.882 391.143 294.983C394.111 297.084 395.402 297.678 398.313 295.972C401.225 294.268 401.707 290.147 402.969 288.413C404.229 286.68 409.687 279.758 409.687 279.758C409.687 279.758 410.771 275.016 409.599 274.334C407.649 273.196 404.479 277.124 402.008 279.224C399.532 281.327 391.753 282.301 391.753 282.301L385.162 290.354Z" fill="#2C2C2C"/>
<path d="M118.94 289.573C106.634 285.134 95.98 277.806 88.6162 269.568C79.9264 259.843 75.8109 247.655 76.4805 233.409H118.94V289.573ZM255.475 206.929V98.6747C306.572 107.84 350.388 150.897 317.974 186.728C304.247 201.903 280.235 199.52 255.475 206.929Z" fill="#FCCA19"/>
<path d="M77.0119 81.645C77.0119 81.645 84.9024 33.7003 68.6776 37.5486C52.4528 41.3989 77.0119 81.645 77.0119 81.645Z" fill="#FCCA19"/>
<path d="M93.6973 122.647C93.6973 122.647 117.914 88.8979 105.835 82.6965C93.7556 76.4951 93.6973 122.647 93.6973 122.647Z" fill="#FCCA19"/>
<path d="M112.928 148.448C112.928 148.448 137.145 114.698 125.065 108.497C112.986 102.296 112.928 148.448 112.928 148.448Z" fill="#2356F1"/>
<path d="M95.1256 122.192C95.1256 122.192 62.454 95.5562 58.3762 109.844C54.2983 124.133 95.1256 122.192 95.1256 122.192Z" fill="#FCCA19"/>
<path d="M113.322 147.124C113.322 147.124 74.3082 131.164 74.5697 146.021C74.833 160.879 113.322 147.124 113.322 147.124Z" fill="#2356F1"/>
<path d="M83.092 97.0498C83.092 97.0498 51.5602 72.6693 48.4003 86.4696C45.2403 100.268 83.092 97.0498 83.092 97.0498Z" fill="#FCCA19"/>
<path d="M82.638 98.7651C82.638 98.7651 105.988 64.4064 93.7542 58.5172C81.5207 52.6261 82.638 98.7651 82.638 98.7651Z" fill="#FCCA19"/>
<path d="M64.3234 90.0845C64.472 89.697 64.9084 89.5014 65.2959 89.65L81.1953 95.7592C80.5333 93.9291 79.8918 92.0783 79.273 90.2049C72.338 69.1385 70.6828 52.4077 70.6678 52.2441C70.6283 51.8284 70.9311 51.4616 71.3468 51.4221C71.7606 51.3826 72.1274 51.6855 72.1688 52.0993C72.1839 52.2648 73.8259 68.8564 80.7157 89.7685C81.3439 91.6776 82.0323 93.6657 82.781 95.7103L88.9184 68.9429C89.0124 68.5367 89.4168 68.2827 89.8212 68.3768C90.2275 68.4689 90.4796 68.8715 90.3855 69.2777L83.917 97.4972C83.8757 97.6815 83.7647 97.8376 83.6123 97.943C86.1854 104.711 89.4206 112.056 93.4571 119.468L102.822 91.1961C102.954 90.803 103.381 90.5867 103.776 90.7202C104.171 90.85 104.383 91.277 104.254 91.6701L94.4182 121.223L94.9016 122.062C99.6208 130.349 105.358 138.642 112.3 146.221L112.528 146.215L120.256 120.001C120.373 119.6 120.792 119.372 121.191 119.489C121.59 119.607 121.818 120.027 121.699 120.426L113.955 146.698L114.004 146.939C114.01 147.234 113.844 147.49 113.602 147.62C116.081 150.236 118.71 152.762 121.494 155.162C121.81 155.435 121.846 155.911 121.575 156.227L121.184 156.466C120.956 156.522 120.704 156.472 120.512 156.304C117.444 153.66 114.488 150.802 111.644 147.74L92.6388 148.13C92.2232 148.139 91.879 147.808 91.8715 147.392C91.8621 146.977 92.1931 146.632 92.6088 146.623L110.295 146.262C104.459 139.761 99.1224 132.381 94.3543 124.199C94.0326 123.65 93.7147 123.093 93.4006 122.532C93.348 122.527 93.1279 122.171 92.9755 121.87L75.0052 114.625C74.6196 114.471 74.4334 114.03 74.5876 113.645C74.7438 113.259 75.1801 113.071 75.5676 113.227L91.8808 119.784C88.1604 112.893 84.8161 105.48 81.8856 97.6382L64.7561 91.0569C64.3686 90.9083 64.1749 90.472 64.3234 90.0845Z" fill="#2C2C2C"/>
<path d="M175.426 233.401L32.9862 233.399C28.7428 233.399 25.2988 229.965 25.2988 225.722L25.3026 141.163C25.3026 136.92 28.7428 133.481 32.9843 133.481H175.426C179.668 133.481 183.106 136.92 183.106 141.163V225.722C183.106 229.963 179.668 233.401 175.426 233.401Z" fill="#C5C5C5"/>
<path d="M118.945 233.409H73.3887L73.3924 233.4L78.8377 222.569H118.945V233.409ZM118.945 214.971H82.6579L118.945 142.794V214.971Z" fill="#DFDFDF"/>
<path d="M99.8265 133.483L49.9633 233.398L32.988 233.4C28.7371 233.4 25.3025 229.954 25.3025 225.722L25.2969 190.776L56.6519 133.483H99.8265Z" fill="#DFDFDF"/>
<path d="M60.9945 188.776H46.0431C43.9666 188.776 42.2812 187.093 42.2812 185.015V172.004C42.2812 169.928 43.9666 168.242 46.0431 168.242H60.9945C63.073 168.242 64.7564 169.928 64.7564 172.004V185.015C64.7564 187.093 63.073 188.776 60.9945 188.776Z" fill="#FFECC9"/>
<path d="M49.1461 188.776H48.8809V168.242H49.1461V188.776Z" fill="#010101"/>
<path d="M58.2379 188.776H57.9727V173.202H64.7553V173.471H58.2379V188.776Z" fill="#010101"/>
<path d="M49.0112 173.471H42.2812V173.202H49.0112V173.471Z" fill="#010101"/>
<path d="M49.0112 178.321H42.2812V178.052H49.0112V178.321Z" fill="#010101"/>
<path d="M49.0112 182.989H42.2812V182.722H49.0112V182.989Z" fill="#010101"/>
<path d="M64.7583 178.321H58.1074V178.052H64.7583V178.321Z" fill="#010101"/>
<path d="M64.7583 182.989H58.1074V182.722H64.7583V182.989Z" fill="#010101"/>
<path d="M169.506 171.156L169.066 170.996C168.774 170.753 168.735 170.323 168.977 170.029C168.989 170.014 169.41 169.469 169.41 168.5C169.41 167.597 168.983 167.024 168.983 167.024C168.75 166.725 168.804 166.292 169.102 166.059C169.401 165.824 169.837 165.878 170.066 166.179C170.14 166.273 170.785 167.14 170.785 168.5C170.785 169.963 170.112 170.816 170.034 170.906C169.899 171.069 169.703 171.156 169.506 171.156Z" fill="white"/>
<path d="M171.822 172.065L171.461 171.959C171.137 171.76 171.04 171.337 171.239 171.013C171.239 171.013 171.94 169.858 171.946 168.532C171.95 167.58 171.414 166.301 171.209 165.888C171.038 165.549 171.173 165.135 171.514 164.966C171.848 164.797 172.266 164.932 172.435 165.271C172.475 165.344 173.329 167.067 173.323 168.54C173.312 170.266 172.441 171.681 172.405 171.739C172.275 171.948 172.05 172.065 171.822 172.065Z" fill="white"/>
<path d="M174.096 173.229L173.756 173.139C173.427 172.949 173.312 172.531 173.5 172.202C173.507 172.183 174.54 170.342 174.54 168.536C174.54 166.917 173.485 164.688 173.476 164.665C173.312 164.323 173.457 163.913 173.801 163.749C174.138 163.582 174.553 163.728 174.715 164.075C174.764 164.174 175.917 166.61 175.917 168.536C175.917 170.712 174.743 172.794 174.692 172.881C174.565 173.103 174.335 173.229 174.096 173.229Z" fill="white"/>
<path d="M176.424 174.369L176.076 174.275C175.749 174.085 175.64 173.663 175.828 173.336C175.845 173.312 177.182 170.979 177.086 168.56C176.998 166.269 175.672 163.311 175.659 163.282C175.502 162.936 175.657 162.528 176.003 162.37C176.341 162.214 176.755 162.366 176.911 162.716C176.972 162.846 178.362 165.951 178.463 168.51C178.57 171.337 177.081 173.921 177.017 174.028C176.891 174.246 176.661 174.369 176.424 174.369Z" fill="white"/>
<path d="M154.57 217.718C154.57 211.757 159.402 206.925 165.363 206.925C171.324 206.925 176.156 211.757 176.156 217.718C176.156 223.679 171.324 228.509 165.363 228.509C159.402 228.509 154.57 223.679 154.57 217.718Z" fill="#FFE6B4"/>
<path d="M139.6 217.718C139.6 211.757 144.43 206.925 150.39 206.925C156.351 206.925 161.183 211.757 161.183 217.718C161.183 223.679 156.351 228.509 150.39 228.509C144.43 228.509 139.6 223.679 139.6 217.718Z" fill="#FF3700"/>
<path d="M110.164 157.412H42.2812V147.708H110.164V157.412Z" fill="white"/>
<path d="M42.2812 222.569H125.225V214.97H42.2812V222.569Z" fill="white"/>
<path d="M118.943 40.1688V22.2793C118.943 16.1212 123.935 11.1292 130.093 11.1292L244.327 11.1255C250.484 11.1255 255.478 16.1212 255.478 22.2793V30.6118C241.305 24.196 227.636 19.9451 215.121 17.8592C208.977 16.8359 202.703 16.3394 196.36 16.3394C169.896 16.3394 142.333 25.001 118.943 40.1688ZM255.478 33.8225C239.984 26.376 225.221 21.6304 212.164 19.4561C210.241 19.1363 208.306 18.8673 206.376 18.6491C209.212 18.8974 212.028 19.251 214.812 19.7156C227.412 21.8147 241.188 26.1296 255.478 32.6676V33.8225Z" fill="#689BF9"/>
<path d="M130.092 309.932C123.935 309.932 118.943 304.933 118.943 298.776V289.573C126.719 292.377 135.157 294.027 143.845 294.029C159.848 294.029 176.697 288.431 191.842 274.118C221.126 246.445 223.397 222.24 237.763 214.271C243.624 211.018 249.571 208.695 255.478 206.929V298.776C255.478 304.933 250.484 309.929 244.327 309.929L130.092 309.932ZM123.625 133.481H122.152C127.387 123.612 131.698 111.901 125.066 108.497C124.306 108.106 123.593 107.923 122.925 107.923C121.368 107.923 120.053 108.916 118.943 110.592V42.4051C142.235 27.0191 169.835 18.2183 196.326 18.2183C199.697 18.2183 203.052 18.3593 206.376 18.649C208.306 18.8672 210.241 19.1362 212.164 19.4559C225.221 21.6303 239.984 26.3758 255.478 33.8224V98.6747C249.058 97.5235 242.526 96.9085 236.014 96.9085C229.474 96.9085 222.964 97.5292 216.608 98.8534C189.489 104.504 163.99 118.558 143.512 133.475H123.627L123.625 133.481Z" fill="#6097F8"/>
<path d="M118.943 42.4052V40.1688C142.333 25.001 169.896 16.3394 196.36 16.3394C202.703 16.3394 208.977 16.836 215.121 17.8592C227.636 19.9451 241.305 24.196 255.478 30.6118V32.6677C241.188 26.1296 227.412 21.8148 214.812 19.7157C212.028 19.2511 209.212 18.8975 206.376 18.6492C203.052 18.3595 199.697 18.2184 196.326 18.2184C169.835 18.2184 142.235 27.0193 118.943 42.4052Z" fill="#5993F5"/>
<path d="M143.845 294.029C135.157 294.027 126.719 292.377 118.943 289.573V233.409H123.345L123.348 233.401H175.429C179.671 233.401 183.109 229.963 183.109 225.721V141.163C183.109 136.919 179.671 133.481 175.429 133.481H173.582L173.584 133.475H143.512C163.99 118.558 189.489 104.504 216.608 98.8533C222.964 97.5292 229.474 96.9084 236.014 96.9084C242.526 96.9084 249.058 97.5235 255.478 98.6746V206.929C249.571 208.695 243.624 211.018 237.763 214.271C223.397 222.239 221.126 246.445 191.842 274.118C176.697 288.431 159.848 294.029 143.845 294.029Z" fill="url(#paint0_linear_6532_3180)"/>
<path d="M122.152 133.481H118.943V129.785L121.701 120.426C121.819 120.027 121.592 119.608 121.193 119.489C121.121 119.468 121.05 119.459 120.979 119.459C120.653 119.459 120.354 119.672 120.258 120.001L118.943 124.458V110.592C120.053 108.916 121.368 107.923 122.925 107.923C123.593 107.923 124.306 108.106 125.066 108.497C131.698 111.901 127.387 123.612 122.152 133.481Z" fill="#175CF4"/>
<path d="M118.943 129.785V124.458L120.258 120.001C120.354 119.671 120.653 119.459 120.979 119.459C121.05 119.459 121.121 119.468 121.193 119.489C121.592 119.607 121.819 120.027 121.701 120.426L118.943 129.785Z" fill="#3171E4"/>
<path d="M175.429 233.401H123.348L173.582 133.481H175.429C179.671 133.481 183.109 136.92 183.109 141.163V225.722C183.109 229.963 179.671 233.401 175.429 233.401ZM157.878 225.492C159.82 227.362 162.457 228.509 165.364 228.509C171.325 228.509 176.157 223.679 176.157 217.718C176.157 211.757 171.325 206.926 165.364 206.926C162.457 206.926 159.82 208.075 157.878 209.944C155.939 208.075 153.3 206.926 150.392 206.926C144.432 206.926 139.602 211.757 139.602 217.718C139.602 223.679 144.432 228.509 150.392 228.509C153.3 228.509 155.939 227.362 157.878 225.492ZM176.285 162.31C176.191 162.31 176.095 162.329 176.005 162.37C175.659 162.528 175.505 162.936 175.661 163.283C175.674 163.311 177 166.269 177.088 168.56C177.184 170.979 175.847 173.312 175.83 173.336C175.642 173.663 175.751 174.085 176.078 174.275L176.426 174.369C176.663 174.369 176.893 174.246 177.019 174.028C177.083 173.921 178.572 171.337 178.465 168.51C178.364 165.952 176.974 162.846 176.913 162.716C176.799 162.461 176.545 162.31 176.285 162.31ZM174.098 163.679C173.998 163.679 173.896 163.702 173.802 163.749C173.458 163.913 173.313 164.323 173.477 164.665C173.486 164.688 174.541 166.916 174.541 168.536C174.541 170.342 173.509 172.183 173.501 172.202C173.313 172.531 173.428 172.949 173.757 173.139L174.098 173.229C174.336 173.229 174.566 173.103 174.694 172.881C174.745 172.794 175.918 170.712 175.918 168.536C175.918 166.61 174.765 164.174 174.716 164.074C174.6 163.826 174.352 163.679 174.098 163.679ZM171.822 164.893C171.718 164.893 171.613 164.917 171.515 164.966C171.175 165.135 171.039 165.549 171.21 165.888C171.415 166.301 171.951 167.58 171.948 168.532C171.942 169.858 171.24 171.013 171.24 171.013C171.041 171.337 171.139 171.76 171.462 171.959L171.824 172.065C172.051 172.065 172.277 171.948 172.407 171.739C172.442 171.681 173.313 170.266 173.325 168.54C173.33 167.067 172.476 165.344 172.437 165.271C172.316 165.03 172.072 164.893 171.822 164.893ZM169.527 165.914C169.378 165.914 169.23 165.961 169.104 166.059C168.807 166.292 168.752 166.725 168.985 167.024C168.985 167.024 169.412 167.597 169.412 168.5C169.412 169.469 168.991 170.014 168.98 170.029C168.737 170.323 168.776 170.754 169.068 170.996L169.508 171.156C169.706 171.156 169.901 171.07 170.037 170.906C170.114 170.816 170.787 169.964 170.787 168.5C170.787 167.14 170.142 166.273 170.069 166.179C169.935 166.004 169.732 165.914 169.527 165.914ZM118.943 142.794V133.481H122.152H123.625L118.943 142.794Z" fill="#3078F0"/>
<path d="M123.345 233.409H118.943V222.569H125.226V214.971H118.943V142.794L123.625 133.481L123.627 133.476H143.512H173.584L173.582 133.481L123.348 233.401L123.345 233.409Z" fill="url(#paint1_linear_6532_3180)"/>
<path d="M169.506 171.156L169.066 170.996C168.774 170.753 168.735 170.323 168.977 170.029C168.989 170.014 169.41 169.469 169.41 168.5C169.41 167.597 168.983 167.024 168.983 167.024C168.75 166.725 168.804 166.292 169.102 166.059C169.228 165.961 169.376 165.914 169.525 165.914C169.73 165.914 169.933 166.004 170.066 166.179C170.14 166.273 170.785 167.14 170.785 168.5C170.785 169.963 170.112 170.816 170.034 170.906C169.899 171.069 169.703 171.156 169.506 171.156Z" fill="#689BF9"/>
<path d="M171.822 172.065L171.461 171.959C171.137 171.76 171.04 171.337 171.239 171.013C171.239 171.013 171.94 169.858 171.946 168.532C171.95 167.58 171.414 166.301 171.209 165.888C171.038 165.549 171.173 165.135 171.514 164.966C171.611 164.917 171.717 164.893 171.82 164.893C172.07 164.893 172.315 165.03 172.435 165.271C172.475 165.344 173.329 167.067 173.323 168.54C173.312 170.266 172.441 171.681 172.405 171.739C172.275 171.948 172.05 172.065 171.822 172.065Z" fill="#689BF9"/>
<path d="M174.096 173.229L173.756 173.139C173.427 172.949 173.312 172.531 173.5 172.202C173.507 172.183 174.54 170.342 174.54 168.536C174.54 166.917 173.485 164.688 173.476 164.665C173.312 164.323 173.457 163.913 173.801 163.749C173.895 163.702 173.996 163.68 174.096 163.68C174.35 163.68 174.598 163.826 174.715 164.075C174.764 164.174 175.917 166.61 175.917 168.536C175.917 170.712 174.743 172.794 174.692 172.881C174.565 173.103 174.335 173.229 174.096 173.229Z" fill="#689BF9"/>
<path d="M176.424 174.369L176.076 174.275C175.749 174.085 175.64 173.663 175.828 173.336C175.845 173.312 177.182 170.979 177.086 168.56C176.998 166.269 175.672 163.311 175.659 163.282C175.502 162.936 175.657 162.528 176.003 162.37C176.093 162.329 176.189 162.31 176.283 162.31C176.543 162.31 176.797 162.46 176.911 162.716C176.972 162.846 178.362 165.951 178.463 168.51C178.57 171.337 177.081 173.921 177.017 174.028C176.891 174.246 176.661 174.369 176.424 174.369Z" fill="#689BF9"/>
<path d="M165.363 228.509C162.455 228.509 159.818 227.361 157.877 225.492C159.916 223.531 161.184 220.773 161.184 217.718C161.184 214.665 159.916 211.906 157.877 209.944C159.818 208.075 162.455 206.925 165.363 206.925C171.324 206.925 176.156 211.757 176.156 217.718C176.156 223.679 171.324 228.509 165.363 228.509Z" fill="#6891DD"/>
<path d="M150.39 228.509C144.43 228.509 139.6 223.679 139.6 217.718C139.6 211.757 144.43 206.925 150.39 206.925C153.298 206.925 155.937 208.075 157.877 209.944C159.915 211.906 161.183 214.665 161.183 217.718C161.183 220.773 159.915 223.531 157.877 225.492C155.937 227.361 153.298 228.509 150.39 228.509Z" fill="#68519B"/>
<path d="M118.943 222.569H125.226V214.97H118.943V222.569Z" fill="#689BF9"/>
<path d="M244.327 309.93L130.092 309.932C123.935 309.932 118.943 304.933 118.943 298.776V22.2792C118.943 16.1211 123.935 11.1291 130.093 11.1291L244.327 11.1253C250.484 11.1253 255.478 16.1211 255.478 22.2792V298.776C255.478 304.933 250.484 309.93 244.327 309.93Z" fill="white"/>
<path d="M244.327 309.93L130.092 309.932C123.935 309.932 118.943 304.933 118.943 298.776L118.941 278.423H255.476L255.477 298.776C255.477 304.933 250.484 309.93 244.327 309.93Z" fill="#F3F3F3"/>
<path d="M246.107 309.93H128.596C123.264 309.93 118.941 305.608 118.941 300.276V298.408H255.476V300.562C255.476 305.734 251.279 309.93 246.107 309.93Z" fill="#DFDFDF"/>
<path d="M255.477 298.776C255.477 304.946 250.477 309.937 244.308 309.937L130.091 309.932C123.921 309.932 118.943 304.946 118.943 298.776V22.2791C118.943 16.1097 123.923 11.129 130.093 11.129L244.308 11.1347C250.477 11.1347 255.477 16.1097 255.477 22.2791V298.776ZM257.832 11.1347C255.048 7.41046 250.59 5.00287 245.587 5.00287H128.819C123.816 5.00287 119.377 7.41046 116.574 11.1347C114.656 13.6927 113.527 16.8715 113.527 20.3136V299.969C113.527 308.414 120.374 315.261 128.819 315.261H245.587C254.032 315.261 260.898 308.414 260.898 299.969V20.3136C260.898 16.8715 259.769 13.6927 257.832 11.1347Z" fill="#2C2C2C"/>
<path d="M277.381 214.968L273.758 218.101L270.418 224.112C270.418 224.112 272.613 227.431 275.758 228.96C278.905 230.489 282.439 229.951 282.439 229.951L283.391 223.402L277.381 214.968Z" fill="#FEB3A2"/>
<path d="M281.097 210.304C281.097 210.304 278.665 205.095 276.367 207.742C274.07 210.39 281.455 225.838 286.501 225.56C291.544 225.285 296.322 216.307 297.619 212.194C298.917 208.078 300.493 203.545 296.006 200.653C286.804 194.722 281.097 210.304 281.097 210.304Z" fill="#FEB3A2"/>
<path d="M273.509 218.083L277.382 214.968C277.382 214.968 274.886 208.207 277.442 207.56C280 206.909 281.098 210.304 281.098 210.304C281.098 210.304 284.411 202.677 291.485 204.195C298.678 205.735 298.251 208.887 298.251 208.887C298.251 208.887 311.978 210.054 304.388 195.537C301.54 190.09 299.703 195.522 297.865 194.337C296.025 193.154 300.314 188.978 294.178 187.601C288.353 186.294 287.178 192.292 284.262 192.614C281.347 192.937 280.856 191.448 279.105 191.867C275.427 192.747 273.594 192.981 270.255 200.109C266.914 207.236 273.509 218.083 273.509 218.083Z" fill="#2C2C2C"/>
<path d="M249.626 291.208C254.431 301.512 267.179 301.402 273.856 299.736C280.531 298.066 320.969 281.491 320.969 281.491C320.969 281.491 337.177 284.561 345.129 285.516C353.082 286.472 348.239 288.439 350.881 290.997C353.522 293.555 355.817 290.508 358.704 291.702C361.595 292.895 360.555 295.062 362.934 295.931C365.316 296.8 371.494 294.783 371.494 294.783L390.669 276.964C390.669 276.964 345.861 255.352 339.855 254.671C331.169 253.685 262.301 276.179 262.301 276.179C262.301 276.179 244.327 279.845 249.626 291.208Z" fill="#EAA800"/>
<path d="M243.522 298.017C245.632 307.719 262.83 305.862 269.507 304.196C276.178 302.527 316.618 285.952 316.618 285.952C316.618 285.952 332.824 289.024 340.779 289.979C348.733 290.933 343.888 292.898 346.531 295.457C349.171 298.017 351.464 294.97 354.355 296.164C357.244 297.357 356.2 299.523 358.583 300.392C360.967 301.261 367.144 299.243 367.144 299.243L382.236 288.682C382.236 288.682 329.713 263.464 320.316 262.691C310.921 261.92 254.994 278.193 254.994 278.193C254.994 278.193 241.41 288.313 243.522 298.017Z" fill="#FCCA19"/>
<path d="M235.418 280.188C234.4 279.518 233.541 288.323 235.77 293.294C238 298.265 244.172 300.494 244.172 300.494C244.172 300.494 243.485 295.694 245.712 291.409C247.943 287.123 250.629 281.434 250.629 281.434C250.629 281.434 236.439 280.857 235.418 280.188Z" fill="#2C2C2C"/>
<path d="M368.404 298.361L378.486 301.882L385.472 295.184L379.024 290.927L368.404 298.361Z" fill="#FEB3A2"/>
<path d="M377.875 302.578C377.875 302.578 380.869 305.091 383.822 307.183C386.772 309.271 388.056 309.859 390.953 308.164C393.848 306.47 394.326 302.371 395.58 300.649C396.833 298.926 402.263 292.041 402.263 292.041C402.263 292.041 403.339 287.328 402.175 286.648C400.235 285.516 397.085 289.421 394.625 291.513C392.164 293.602 384.428 294.571 384.428 294.571L377.875 302.578Z" fill="#565656"/>
<path d="M291.078 267.521L334.046 255.142L341.737 227.529C342.032 226.461 341.077 225.467 339.999 225.721L325.651 229.113C324.681 229.342 323.906 230.072 323.616 231.024L315.53 257.661L292.788 264.704L291.078 267.521Z" fill="#2C2C2C"/>
<path d="M381.377 289.428L381.172 289.381C380.685 289.145 332.533 265.593 327.302 263.203C322.267 260.9 319.628 261.56 319.6 261.564C319.352 261.636 319.094 261.485 319.026 261.233C318.959 260.983 319.104 260.726 319.352 260.656C319.47 260.622 322.309 259.884 327.694 262.347C332.936 264.743 381.099 288.299 381.584 288.537C381.817 288.649 381.913 288.93 381.8 289.165C381.719 289.33 381.552 289.428 381.377 289.428Z" fill="#09030F"/>
<path d="M304.121 288.482C303.916 288.482 303.73 288.351 303.67 288.145C303.596 287.897 303.739 287.636 303.987 287.561C304.048 287.544 309.931 285.798 312.299 284.484C313.548 283.792 314.669 282.001 315.572 280.562C316.447 279.168 317.079 278.16 317.799 277.981C318.181 277.883 318.41 278.052 318.514 278.16C318.95 278.609 318.721 279.51 318.241 281.19C318.085 281.737 317.852 282.559 317.78 283.062C317.923 282.889 318.083 282.667 318.207 282.495C318.794 281.686 319.396 280.846 320.133 281.068C321.183 281.38 321.232 283.624 321.196 284.645C321.623 284.766 322.417 284.952 323.891 285.225C328.654 286.109 331.18 285.947 331.203 285.943C331.458 285.888 331.686 286.118 331.705 286.378C331.724 286.637 331.528 286.861 331.268 286.88C331.167 286.891 328.612 287.057 323.718 286.15C320.028 285.467 319.894 285.245 319.926 284.762C319.936 284.628 319.996 284.429 320.261 284.31C320.263 283.193 320.083 282.106 319.855 281.963C319.71 282.025 319.227 282.689 318.967 283.047C318.467 283.737 318.066 284.29 317.556 284.285C317.329 284.28 317.12 284.162 316.981 283.955C316.64 283.453 316.881 282.527 317.336 280.934C317.494 280.374 317.739 279.522 317.795 279.046C317.408 279.403 316.842 280.308 316.37 281.062C315.41 282.592 314.216 284.495 312.756 285.307C310.296 286.671 304.499 288.39 304.255 288.464L304.121 288.482Z" fill="#09030F"/>
<path d="M196.574 66.5372H178.975L180.353 30.6361H194.983L196.574 66.5372Z" fill="#898989"/>
<path d="M189.203 81.739H186.346C182.276 81.739 178.975 78.438 178.975 74.3677V66.5374H196.574V74.3677C196.574 78.438 193.275 81.739 189.203 81.739Z" fill="#282728"/>
<path d="M178.975 66.5372H161.373L165.579 30.6361H180.353L178.975 66.5372Z" fill="white"/>
<path d="M171.603 81.739H168.746C164.674 81.739 161.373 78.438 161.373 74.3677V66.5374H178.975V74.3677C178.975 78.438 175.674 81.739 171.603 81.739Z" fill="#F3F3F3"/>
<path d="M161.277 66.5372H143.676L151.064 30.6361H165.363L161.277 66.5372Z" fill="#898989"/>
<path d="M153.906 81.739H151.049C146.977 81.739 143.676 78.438 143.676 74.3677V66.5374H161.277V74.3677C161.277 78.438 157.976 81.739 153.906 81.739Z" fill="#282728"/>
<path d="M143.654 66.5372H126.055L135.935 30.6361H151.067L143.654 66.5372Z" fill="white"/>
<path d="M136.283 81.739H133.426C129.356 81.739 126.055 78.438 126.055 74.3677V66.5374H143.654V74.3677C143.654 78.438 140.355 81.739 136.283 81.739Z" fill="#F3F3F3"/>
<path d="M126.088 66.5372H108.486L121.111 30.6361H135.933L126.088 66.5372Z" fill="#898989"/>
<path d="M118.717 81.739H115.86C111.787 81.739 108.486 78.438 108.486 74.3677V66.5374H126.088V74.3677C126.088 78.438 122.787 81.739 118.717 81.739Z" fill="#282728"/>
<path d="M196.658 66.5372H214.258L210.054 30.6361H195.281L196.658 66.5372Z" fill="white"/>
<path d="M204.03 81.739H206.889C210.959 81.739 214.258 78.438 214.258 74.3677V66.5374H196.658V74.3677C196.658 78.438 199.959 81.739 204.03 81.739Z" fill="#F3F3F3"/>
<path d="M214.355 66.5372H231.957L224.568 30.6361H210.27L214.355 66.5372Z" fill="#898989"/>
<path d="M221.727 81.739H224.586C228.656 81.739 231.957 78.438 231.957 74.3677V66.5374H214.355V74.3677C214.355 78.438 217.656 81.739 221.727 81.739Z" fill="#282728"/>
<path d="M231.981 66.5372H249.583L239.702 30.6361H224.57L231.981 66.5372Z" fill="white"/>
<path d="M239.35 81.739H242.209C246.279 81.739 249.58 78.438 249.58 74.3677V66.5374H231.979V74.3677C231.979 78.438 235.28 81.739 239.35 81.739Z" fill="#F3F3F3"/>
<path d="M249.548 66.5372H267.15L254.525 30.6361H239.703L249.548 66.5372Z" fill="#898989"/>
<path d="M256.916 81.739H259.775C263.846 81.739 267.147 78.438 267.147 74.3677V66.5374H249.545V74.3677C249.545 78.438 252.846 81.739 256.916 81.739Z" fill="#282728"/>
<path d="M238.095 112.806H191.729V103.654H238.095V112.806Z" fill="#F3F3F3"/>
<path d="M237.632 132.725H228.055V123.147H237.632V132.725Z" fill="#F3F3F3"/>
<path d="M238.095 203.609H191.729V194.459H238.095V203.609Z" fill="#F3F3F3"/>
<path d="M237.632 223.531H228.055V213.953H237.632V223.531Z" fill="#F3F3F3"/>
<path d="M130.369 246.664H242.367V249.744H130.369V246.664Z" fill="#DFDFDF"/>
<path d="M130.627 149.416H242.628V152.497H130.627V149.416Z" fill="#DFDFDF"/>
<path d="M130.627 155.452H242.625V158.531H130.627V155.452Z" fill="#DFDFDF"/>
<path d="M130.469 162.124L164.243 162.068V165.15L130.469 165.205V162.124Z" fill="#DFDFDF"/>
<path d="M130.369 240.628H242.37V243.709H130.369V240.628Z" fill="#DFDFDF"/>
<path d="M130.211 253.335L163.987 253.281V256.362L130.211 256.417V253.335Z" fill="#DFDFDF"/>
<path d="M227.935 112.123C227.676 112.123 227.465 111.911 227.465 111.653V104.807C227.465 104.547 227.676 104.336 227.935 104.336C228.195 104.336 228.405 104.547 228.405 104.807V111.653C228.405 111.911 228.195 112.123 227.935 112.123Z" fill="#2C2C2C"/>
<path d="M231.244 106.778L235.377 106.765L233.462 109.693L231.244 106.778Z" fill="white"/>
<path d="M232.192 107.244L233.435 108.879L234.507 107.237L232.192 107.244ZM233.471 110.164L233.089 109.979L230.871 107.062L230.822 106.569C230.901 106.409 231.065 106.308 231.244 106.308L235.378 106.295C235.551 106.295 235.709 106.389 235.792 106.541L235.771 107.022L233.856 109.951L233.471 110.164Z" fill="#2C2C2C"/>
<path d="M230.915 126.548C230.909 126.507 230.819 125.532 231.402 124.853C231.731 124.471 232.197 124.263 232.788 124.231C233.354 124.208 233.817 124.357 234.161 124.697C234.802 125.331 234.77 126.369 234.769 126.413L234.236 126.392C234.236 126.392 234.259 125.54 233.785 125.073C233.55 124.844 233.236 124.742 232.818 124.763C232.374 124.787 232.036 124.934 231.808 125.201C231.37 125.709 231.443 126.493 231.443 126.493L230.915 126.548Z" fill="#2C2C2C"/>
<path d="M230.582 126.902L230.403 127.081L229.831 130.594L230.014 130.731L235.89 130.666L236.072 130.487L235.54 127.122L235.356 126.902H230.582ZM230.018 131.264C229.621 131.264 229.303 130.944 229.303 130.551L229.873 127.037C229.869 126.689 230.189 126.37 230.582 126.37H235.356C235.749 126.37 236.068 126.689 236.068 127.081L236.601 130.446C236.605 130.878 236.285 131.198 235.893 131.198L230.018 131.264Z" fill="#2C2C2C"/>
<path d="M129.502 85.7755H179.542V142.639H129.502V85.7755Z" fill="#F3F3F3"/>
<path d="M148.863 96.9084L150.836 94.815C150.836 94.815 152.35 95.7855 154.067 95.7122C154.959 95.6746 156.892 95.1742 156.892 95.1742L158.278 97.1285C158.278 97.1285 162.501 97.5555 164.63 99.2596C166.758 100.96 174.39 121.189 174.39 121.189L173.527 123.437L174.738 126.499L172.517 128.216L170.499 125.256L167.941 124.415L161.937 110.462L163.919 129.606H144.491L144.916 110.462L140.671 123.375L138.341 124.819L136.947 127.656L134.007 126.794L134.641 123.958L133.477 121.377C133.477 121.377 138.395 103.228 140.237 101.242C142.08 99.2596 148.863 96.9084 148.863 96.9084Z" fill="#FCCA19"/>
<path d="M169.123 136.999C169.123 134.316 171.303 132.144 173.993 132.144C176.681 132.144 178.861 134.316 178.861 136.999C178.861 139.681 176.681 141.853 173.993 141.853C171.303 141.853 169.123 139.681 169.123 136.999Z" fill="#FCCA19"/>
<path d="M172.536 134.8C172.346 134.8 172.158 134.864 171.962 134.992C171.486 135.304 171.251 135.672 171.242 136.12C171.219 137.535 173.378 139.269 173.982 139.728C174.889 139.024 176.771 137.292 176.743 136.019C176.732 135.607 176.523 135.27 176.104 134.992C175.839 134.813 175.581 134.758 175.314 134.815C174.687 134.954 174.23 135.699 174.23 135.699L174.001 135.827L173.771 135.693C173.771 135.693 173.346 134.967 172.741 134.824L172.536 134.8ZM173.984 140.328L173.832 140.279C173.702 140.187 170.677 138.029 170.709 136.111C170.721 135.482 171.042 134.956 171.669 134.546C172.058 134.288 172.462 134.211 172.867 134.305C173.382 134.429 173.777 134.819 174.007 135.103C174.247 134.815 174.661 134.416 175.195 134.296C175.605 134.203 176.012 134.29 176.401 134.546C176.967 134.926 177.262 135.415 177.276 136.007C177.321 137.913 174.272 140.181 174.142 140.275L173.984 140.328Z" fill="#2C2C2C"/>
<path d="M342.961 87.5155C342.961 78.2989 350.453 70.8279 359.692 70.8279C368.933 70.8279 376.423 78.2989 376.423 87.5155C376.423 96.7282 368.933 104.199 359.692 104.199C350.453 104.199 342.961 96.7282 342.961 87.5155Z" fill="white"/>
<path d="M359.693 71.2979C350.727 71.2979 343.433 78.5733 343.433 87.5152C343.433 96.4533 350.727 103.729 359.693 103.729C368.66 103.729 375.954 96.4533 375.954 87.5152C375.954 78.5733 368.66 71.2979 359.693 71.2979ZM359.693 104.669C350.21 104.669 342.492 96.9743 342.492 87.5152C342.492 78.0542 350.21 70.3574 359.693 70.3574C369.179 70.3574 376.894 78.0542 376.894 87.5152C376.894 96.9743 369.179 104.669 359.693 104.669Z" fill="#2C2C2C"/>
<path d="M354.684 79.7094C353.982 79.7094 353.288 79.9407 352.575 80.4072C350.864 81.5301 350.019 82.8656 349.993 84.4888C349.906 89.5936 357.787 95.8026 359.655 97.202C361.525 95.7461 369.511 89.2287 369.389 84.139C369.355 82.6361 368.601 81.4135 367.087 80.4053C366.114 79.7564 365.159 79.5476 364.177 79.7696C361.905 80.2812 360.313 82.8919 360.296 82.9182C360.176 83.1195 359.954 83.2436 359.721 83.2418C359.484 83.2399 359.266 83.112 359.149 82.907C359.132 82.8825 357.631 80.3188 355.449 79.8016C355.192 79.7414 354.936 79.7094 354.684 79.7094ZM359.663 98.701L359.279 98.5769C358.841 98.2684 348.548 90.9253 348.661 84.4663C348.695 82.3972 349.765 80.6574 351.844 79.2937C353.119 78.4529 354.437 78.1877 355.763 78.5056C357.62 78.9495 359.01 80.4467 359.736 81.4041C360.498 80.4335 361.959 78.9025 363.883 78.4699C365.223 78.1746 366.551 78.4454 367.826 79.2956C369.703 80.5464 370.677 82.1659 370.722 84.1089C370.873 90.5322 360.5 98.2459 360.058 98.5694L359.663 98.701Z" fill="#2C2C2C"/>
<path d="M215.308 132.725H196.077C193.677 132.725 191.729 130.776 191.729 128.374V127.114C191.729 124.712 193.677 122.766 196.077 122.766H215.308C217.71 122.766 219.658 124.712 219.658 127.114V128.374C219.658 130.776 217.71 132.725 215.308 132.725Z" fill="#FCCA19"/>
<path d="M227.935 202.927C227.676 202.927 227.465 202.716 227.465 202.457V195.612C227.465 195.354 227.676 195.142 227.935 195.142C228.195 195.142 228.405 195.354 228.405 195.612V202.457C228.405 202.716 228.195 202.927 227.935 202.927Z" fill="#2C2C2C"/>
<path d="M231.244 197.581L235.377 197.568L233.462 200.498L231.244 197.581Z" fill="white"/>
<path d="M232.192 198.048L233.435 199.682L234.507 198.04L232.192 198.048ZM233.471 200.969L233.089 200.783L230.871 197.865L230.822 197.374C230.901 197.215 231.065 197.111 231.244 197.111L235.378 197.098C235.551 197.098 235.709 197.192 235.792 197.344L235.771 197.826L233.856 200.756L233.471 200.969Z" fill="#2C2C2C"/>
<path d="M230.915 217.354C230.909 217.31 230.819 216.338 231.402 215.656C231.731 215.275 232.197 215.066 232.788 215.034C233.356 215.006 233.817 215.162 234.161 215.501C234.802 216.135 234.77 217.173 234.769 217.218L234.236 217.197C234.236 217.197 234.259 216.345 233.785 215.878C233.55 215.649 233.236 215.549 232.818 215.568C232.374 215.591 232.036 215.737 231.808 216.005C231.37 216.515 231.443 217.299 231.443 217.299L230.915 217.354Z" fill="#2C2C2C"/>
<path d="M230.582 217.705L230.403 217.884L229.831 221.397L230.014 221.534L235.89 221.471L236.072 221.292L235.54 217.926L235.356 217.705H230.582ZM230.018 222.069C229.621 222.069 229.303 221.749 229.303 221.356L229.873 217.843C229.869 217.493 230.189 217.173 230.582 217.173H235.356C235.749 217.173 236.068 217.493 236.068 217.884L236.601 221.249C236.605 221.685 236.285 222.003 235.893 222.003L230.018 222.069Z" fill="#2C2C2C"/>
<path d="M129.502 176.581H179.542V233.443H129.502V176.581Z" fill="#F3F3F3"/>
<path d="M169.123 227.802C169.123 225.121 171.303 222.947 173.993 222.947C176.681 222.947 178.861 225.121 178.861 227.802C178.861 230.484 176.681 232.658 173.993 232.658C171.303 232.658 169.123 230.484 169.123 227.802Z" fill="#FCCA19"/>
<path d="M172.536 225.605C172.346 225.605 172.156 225.669 171.962 225.795C171.486 226.107 171.251 226.475 171.242 226.925C171.219 228.339 173.378 230.072 173.982 230.532C174.889 229.829 176.771 228.097 176.743 226.822C176.732 226.41 176.523 226.075 176.104 225.795C175.84 225.617 175.581 225.565 175.314 225.62C174.789 225.738 174.355 226.299 174.23 226.504L173.999 226.632L173.771 226.498C173.771 226.498 173.344 225.772 172.741 225.629L172.536 225.605ZM173.984 231.131L173.832 231.084C173.702 230.992 170.677 228.832 170.709 226.916C170.721 226.288 171.042 225.761 171.669 225.351C172.058 225.095 172.459 225.007 172.867 225.112C173.382 225.234 173.777 225.624 174.007 225.91C174.247 225.62 174.661 225.219 175.195 225.101C175.605 225.01 176.012 225.091 176.401 225.351C176.967 225.729 177.262 226.22 177.276 226.81C177.321 228.718 174.272 230.984 174.142 231.08L173.984 231.131Z" fill="#2C2C2C"/>
<path d="M215.308 223.531H196.077C193.677 223.531 191.729 221.584 191.729 219.18V217.919C191.729 215.518 193.677 213.569 196.077 213.569H215.308C217.71 213.569 219.658 215.518 219.658 217.919V219.18C219.658 221.584 217.71 223.531 215.308 223.531Z" fill="#FCCA19"/>
<path d="M146.429 182.658H161.916L164.243 191.809L168.067 223.531L161.019 224.202L154.521 197.568L150.52 224.202L142.895 222.947L144.554 192.35L146.429 182.658Z" fill="#2C2C2C"/>
<path d="M161.917 182.658H146.429L146.422 181.044H161.917V182.658Z" fill="#FCCA19"/>
<path d="M352.323 122.563H391.892C392.783 122.563 393.504 123.909 393.504 125.568V162.696C393.504 164.355 392.783 165.702 391.892 165.702H352.323C351.431 165.702 350.709 164.355 350.709 162.696V125.568C350.709 123.909 351.431 122.563 352.323 122.563Z" fill="white"/>
<path d="M352.322 123.033C351.782 123.033 351.179 124.116 351.179 125.568V162.696C351.179 164.148 351.782 165.231 352.322 165.231H391.891C392.431 165.231 393.033 164.148 393.033 162.696V125.568C393.033 124.116 392.431 123.033 391.891 123.033H352.322ZM391.891 166.172H352.322C351.154 166.172 350.238 164.644 350.238 162.696V125.568C350.238 123.62 351.154 122.092 352.322 122.092H391.891C393.059 122.092 393.973 123.62 393.973 125.568V162.696C393.973 164.644 393.059 166.172 391.891 166.172Z" fill="#2C2C2C"/>
<path d="M326.405 179.743H358.384C359.103 179.743 359.688 180.832 359.688 182.173V212.177C359.688 213.519 359.103 214.607 358.384 214.607H326.405C325.685 214.607 325.102 213.519 325.102 212.177V182.173C325.102 180.832 325.685 179.743 326.405 179.743Z" fill="white"/>
<path d="M326.407 180.213C326.066 180.213 325.573 180.976 325.573 182.173V212.177C325.573 213.374 326.066 214.137 326.407 214.137H358.386C358.726 214.137 359.219 213.374 359.219 212.177V182.173C359.219 180.976 358.726 180.213 358.386 180.213H326.407ZM358.386 215.078H326.407C325.395 215.078 324.633 213.831 324.633 212.177V182.173C324.633 180.519 325.395 179.272 326.407 179.272H358.386C359.398 179.272 360.16 180.519 360.16 182.173V212.177C360.16 213.831 359.398 215.078 358.386 215.078Z" fill="#2C2C2C"/>
<path d="M97.7193 246.995H127.348C128.013 246.995 128.555 248.003 128.555 249.244V277.044C128.555 278.286 128.013 279.294 127.348 279.294H97.7193C97.0515 279.294 96.5117 278.286 96.5117 277.044V249.244C96.5117 248.003 97.0515 246.995 97.7193 246.995Z" fill="white"/>
<path d="M97.7168 247.466C97.4234 247.466 96.9795 248.175 96.9795 249.244V277.045C96.9795 278.115 97.4234 278.824 97.7168 278.824H127.345C127.639 278.824 128.082 278.115 128.082 277.045V249.244C128.082 248.175 127.639 247.466 127.345 247.466H97.7168ZM127.345 279.764H97.7168C96.7594 279.764 96.0391 278.595 96.0391 277.045V249.244C96.0391 247.695 96.7594 246.525 97.7168 246.525H127.345C128.302 246.525 129.023 247.695 129.023 249.244V277.045C129.023 278.595 128.302 279.764 127.345 279.764Z" fill="#2C2C2C"/>
<path d="M383.733 158.183H362.689V137.138H383.733V158.183Z" fill="#FCCA19"/>
<path d="M374.542 158.183H371.156V137.138H374.542V158.183Z" fill="#2C2C2C"/>
<path d="M367.023 131.369L366.91 131.376C366.386 131.446 366.066 132.189 365.891 132.802C365.577 133.893 365.665 134.681 366.162 135.208C367.247 136.355 370.067 136.21 371.79 135.953C370.362 133.812 368.248 131.369 367.023 131.369ZM369.516 137.429C367.941 137.429 366.218 137.143 365.223 136.094C364.399 135.219 364.206 133.991 364.651 132.443C365.061 131.017 365.763 130.227 366.739 130.097C369.386 129.757 372.756 135.016 373.401 136.077L373.868 136.842L372.991 137.042C372.694 137.109 371.188 137.429 369.516 137.429Z" fill="#2C2C2C"/>
<path d="M373.43 135.951C375.155 136.208 377.976 136.353 379.058 135.206C379.554 134.679 379.643 133.893 379.328 132.802C379.152 132.189 378.834 131.446 378.309 131.376C377.103 131.209 374.903 133.744 373.43 135.951ZM375.704 137.429C374.032 137.429 372.525 137.109 372.228 137.042L371.352 136.842L371.818 136.077C372.465 135.016 375.853 129.757 378.48 130.097C379.456 130.227 380.158 131.017 380.568 132.443C381.014 133.991 380.82 135.219 379.996 136.094C379.001 137.143 377.278 137.429 375.704 137.429Z" fill="#2C2C2C"/>
<path d="M36.5879 266.36C36.5879 258.184 43.2162 251.556 51.3926 251.556C59.569 251.556 66.1992 258.184 66.1992 266.36C66.1992 274.537 59.569 281.167 51.3926 281.167C43.2162 281.167 36.5879 274.537 36.5879 266.36Z" fill="white"/>
<path d="M51.3902 252.027C43.4866 252.027 37.0557 258.457 37.0557 266.361C37.0557 274.266 43.4866 280.697 51.3902 280.697C59.2957 280.697 65.7266 274.266 65.7266 266.361C65.7266 258.457 59.2957 252.027 51.3902 252.027ZM51.3902 281.638C42.9674 281.638 36.1152 274.784 36.1152 266.361C36.1152 257.94 42.9674 251.086 51.3902 251.086C59.813 251.086 66.667 257.94 66.667 266.361C66.667 274.784 59.813 281.638 51.3902 281.638Z" fill="#2C2C2C"/>
<path d="M59.0659 265.158H52.462V258.457C52.462 257.866 51.9842 257.389 51.3936 257.389C50.8049 257.389 50.3253 257.866 50.3253 258.457V265.158H43.7909C43.2003 265.158 42.7207 265.635 42.7207 266.225C42.7207 266.817 43.2003 267.296 43.7909 267.296H50.3253V274.071C50.3253 274.662 50.8049 275.137 51.3936 275.137C51.9842 275.137 52.462 274.662 52.462 274.071V267.296H59.0659C59.6565 267.296 60.1342 266.817 60.1342 266.225C60.1342 265.635 59.6565 265.158 59.0659 265.158Z" fill="#2C2C2C"/>
<path d="M333.054 203.713H346.708C347.662 203.713 348.525 203.111 348.856 202.214L351.73 194.414C351.796 194.143 351.722 193.789 351.506 193.513C351.292 193.238 350.966 193.08 350.618 193.08H343.943L343.808 187.831C343.787 187.071 343.384 186.388 342.728 186.004L342.397 185.811C342.226 185.709 342.075 185.779 342.019 185.811C341.964 185.844 341.833 185.944 341.836 186.14L341.891 189.661L337.866 194.997L333.054 195.147V203.713ZM346.708 205.047H331.721V193.855L337.187 193.686L340.55 189.224L340.503 186.162C340.493 185.538 340.809 184.975 341.347 184.661C341.889 184.343 342.534 184.347 343.072 184.661L343.403 184.853C344.458 185.474 345.107 186.574 345.141 187.799L345.243 191.747H350.618C351.382 191.747 352.089 192.091 352.558 192.695C353.028 193.298 353.19 194.068 353.001 194.807L350.105 202.675C349.584 204.093 348.218 205.047 346.708 205.047Z" fill="#2C2C2C"/>
<path d="M112.533 251.414L116.073 258.588L123.988 259.738L118.26 265.322L119.613 273.205L112.533 269.483L105.453 273.205L106.806 265.322L101.078 259.738L108.993 258.588L112.533 251.414Z" fill="#FCCA19"/>
<path d="M330.451 244.578C330.391 244.578 330.33 244.57 330.27 244.555C329.7 244.404 329.424 243.562 329.657 242.678C329.866 241.882 330.411 241.32 330.934 241.32C330.996 241.32 331.056 241.327 331.115 241.344C331.687 241.495 331.963 242.334 331.73 243.221C331.519 244.015 330.976 244.578 330.451 244.578Z" fill="#565656"/>
<path d="M254.945 32.6375H120.211V28.6368H254.945V32.6375Z" fill="#2C2C2C"/>
<path d="M385.049 94.2585L384.453 93.9633C383.708 93.5946 383.283 93.4046 383.283 93.4046L382.674 93.1338L383.216 91.9149L383.823 92.1858C383.823 92.1858 384.261 92.3814 385.044 92.7689L385.642 93.066L385.049 94.2585Z" fill="#2C2C2C"/>
<path d="M391.891 98.2571L391.331 97.8978C390.541 97.39 389.787 96.9254 389.079 96.506L388.508 96.1636L389.188 95.02L389.762 95.3586C390.481 95.7874 391.246 96.2595 392.051 96.7768L392.612 97.1379L391.891 98.2571ZM398.324 102.92L397.799 102.506C397.088 101.946 396.385 101.41 395.693 100.902L395.157 100.507L395.947 99.4327L396.483 99.8276C397.184 100.345 397.899 100.888 398.625 101.46L399.148 101.87L398.324 102.92ZM404.226 108.211L403.752 107.744C403.115 107.118 402.473 106.512 401.832 105.929L401.337 105.48L402.236 104.494L402.729 104.944C403.384 105.54 404.037 106.157 404.685 106.795L405.161 107.263L404.226 108.211ZM409.474 114.14L409.059 113.617C408.506 112.923 407.943 112.245 407.371 111.587L406.935 111.085L407.941 110.21L408.379 110.713C408.961 111.386 409.538 112.078 410.102 112.787L410.516 113.308L409.474 114.14ZM413.859 120.712L413.522 120.136C413.076 119.372 412.615 118.626 412.139 117.894L411.775 117.335L412.892 116.607L413.255 117.166C413.742 117.916 414.214 118.682 414.671 119.464L415.008 120.038L413.859 120.712ZM417.158 127.87L416.923 127.248C416.609 126.42 416.274 125.611 415.918 124.818L415.647 124.208L416.862 123.665L417.135 124.272C417.5 125.09 417.846 125.924 418.168 126.774L418.405 127.398L417.158 127.87ZM419.183 135.473L419.059 134.818C418.898 133.949 418.71 133.096 418.497 132.257L418.337 131.61L419.627 131.284L419.791 131.929C420.009 132.798 420.203 133.677 420.372 134.572L420.493 135.228L419.183 135.473ZM419.893 143.333C419.893 143.333 419.802 141.229 419.759 140.495L419.682 139.359L421.012 139.267L421.224 143.281L419.893 143.333ZM421.189 151.331L419.857 151.282C419.857 151.282 419.936 148.865 419.945 147.968L419.953 147.302L421.286 147.315L421.279 147.983C421.269 148.89 421.247 149.783 421.215 150.667L421.189 151.331ZM420.455 159.353L419.133 159.176L419.221 158.516C419.338 157.657 419.437 156.782 419.526 155.892L419.592 155.228L420.92 155.358L420.852 156.02C420.765 156.929 420.66 157.816 420.543 158.691L420.455 159.353ZM418.875 167.259L417.583 166.933L417.745 166.286C417.955 165.449 418.155 164.593 418.339 163.717L418.474 163.064L419.78 163.339L419.643 163.993C419.454 164.883 419.253 165.758 419.039 166.614L418.875 167.259ZM416.291 174.914L415.053 174.414L415.305 173.797C415.63 172.995 415.941 172.174 416.236 171.333L416.458 170.703L417.715 171.145L417.493 171.773C417.19 172.636 416.872 173.477 416.539 174.295L416.291 174.914ZM412.559 182.095L411.423 181.399L411.769 180.831C412.22 180.096 412.655 179.338 413.076 178.554L413.392 177.965L414.566 178.595L414.252 179.182C413.819 179.989 413.37 180.769 412.909 181.525L412.559 182.095ZM407.637 188.532L406.643 187.644L407.085 187.146C407.663 186.502 408.225 185.833 408.773 185.139L409.185 184.616L410.232 185.442L409.818 185.964C409.252 186.681 408.673 187.369 408.08 188.035L407.637 188.532ZM401.621 193.968L400.803 192.916L401.332 192.506C402.016 191.976 402.694 191.419 403.357 190.838L403.858 190.4L404.736 191.402L404.234 191.84C403.549 192.44 402.853 193.01 402.146 193.56L401.621 193.968ZM394.728 198.234L394.107 197.054L394.696 196.744C395.467 196.338 396.233 195.909 396.991 195.457L397.562 195.115L398.247 196.259L397.673 196.601C396.896 197.068 396.11 197.506 395.317 197.923L394.728 198.234ZM387.238 201.317L386.811 200.056L387.441 199.84C388.265 199.562 389.091 199.259 389.913 198.933L390.533 198.687L391.024 199.927L390.405 200.171C389.561 200.508 388.714 200.818 387.87 201.104L387.238 201.317ZM379.391 203.288L379.141 201.979L379.795 201.854C380.645 201.691 381.507 201.505 382.374 201.298L383.023 201.143L383.331 202.439L382.682 202.594C381.798 202.804 380.918 202.994 380.045 203.162L379.391 203.288Z" fill="#2C2C2C"/>
<path d="M372.609 204.153L372.49 202.827L375.127 202.57L375.27 203.898L372.609 204.153Z" fill="#2C2C2C"/>
<path d="M338.645 99.9651L338.355 98.6636L339.006 98.5187C340.708 98.1388 341.728 98.0993 341.769 98.0974L342.435 98.0767L342.48 99.4065L341.816 99.431C341.816 99.431 340.864 99.4686 339.296 99.8185L338.645 99.9651ZM331.398 102.866L330.783 101.684L331.371 101.376C332.227 100.93 333.047 100.544 333.826 100.212L334.439 99.9501L334.962 101.175L334.351 101.438C333.602 101.758 332.812 102.128 331.988 102.559L331.398 102.866ZM324.954 107.342L324.105 106.313L324.619 105.888C325.339 105.294 326.058 104.743 326.763 104.233L327.305 103.845L328.082 104.927L327.542 105.316C326.859 105.807 326.167 106.34 325.467 106.917L324.954 107.342ZM319.414 112.94L318.408 112.065L318.844 111.563C319.45 110.865 320.056 110.197 320.659 109.567L321.12 109.086L322.083 110.007L321.623 110.489C321.032 111.104 320.443 111.753 319.851 112.438L319.414 112.94ZM314.795 119.333L313.672 118.616L314.029 118.056C314.526 117.279 315.028 116.532 315.534 115.818L315.918 115.272L317.007 116.041L316.621 116.587C316.13 117.287 315.639 118.013 315.154 118.772L314.795 119.333Z" fill="#2C2C2C"/>
<path d="M12.3276 181.657L11.278 180.837L11.69 180.31C12.3238 179.504 12.9088 178.808 13.4204 178.228L13.8605 177.728L14.8593 178.61L14.4192 179.11C13.9226 179.675 13.3527 180.348 12.7376 181.134L12.3276 181.657ZM8.03905 188.287L6.87854 187.633L7.20394 187.052C7.66476 186.235 8.12749 185.462 8.58455 184.733L8.94002 184.168L10.0686 184.877L9.7131 185.442C9.26544 186.153 8.81399 186.907 8.36633 187.706L8.03905 188.287ZM4.76627 195.474L3.52108 194.995L3.75996 194.374C4.091 193.513 4.4352 192.683 4.78882 191.88L5.05782 191.271L6.27854 191.807L6.00953 192.416C5.66344 193.2 5.32679 194.013 5.00515 194.852L4.76627 195.474ZM2.56372 203.055L1.26397 202.761L1.41069 202.11C1.61383 201.217 1.8339 200.346 2.06901 199.496L2.24585 198.854L3.53049 199.208L3.3537 199.851C3.12422 200.681 2.90793 201.533 2.71044 202.406L2.56372 203.055ZM1.46901 210.872L0.141069 210.766L0.19374 210.1C0.267096 209.19 0.36114 208.295 0.473996 207.42L0.558628 206.758L1.88092 206.927L1.79629 207.588C1.68531 208.445 1.59504 209.318 1.52168 210.208L1.46901 210.872ZM0.127936 218.847L0.0921633 218.181C0.0432593 217.268 0.0150529 216.371 0.00564827 215.487L0 214.822L1.33359 214.809L1.33924 215.476C1.34864 216.34 1.37497 217.218 1.42387 218.108L1.4596 218.775L0.127936 218.847ZM1.26774 226.857L1.13044 226.203C0.947986 225.328 0.784377 224.442 0.645189 223.549L0.541729 222.889L1.86026 222.686L1.96183 223.343C2.09914 224.215 2.2571 225.078 2.43578 225.93L2.57313 226.583L1.26774 226.857ZM3.61136 234.599L3.38001 233.975C3.06966 233.136 2.77813 232.286 2.50352 231.421L2.30225 230.785L3.57375 230.386L3.77502 231.02C4.04211 231.865 4.32802 232.696 4.63085 233.512L4.86032 234.136L3.61136 234.599ZM6.9933 241.935L6.68292 241.346C6.26911 240.56 5.86661 239.757 5.47538 238.937L5.18948 238.337L6.39137 237.761L6.67915 238.365C7.06098 239.164 7.45598 239.953 7.86226 240.726L8.17259 241.314L6.9933 241.935ZM11.2385 248.804L10.8623 248.255C10.362 247.525 9.86734 246.777 9.38206 246.007L9.02654 245.443L10.1513 244.73L10.5087 245.294C10.9865 246.05 11.4718 246.786 11.9627 247.503L12.3389 248.054L11.2385 248.804ZM16.191 255.175L15.7602 254.669C15.196 254.001 14.626 253.305 14.0561 252.583L13.6423 252.062L14.6862 251.232L15.1 251.757C15.6624 252.468 16.2229 253.149 16.7778 253.805L17.2085 254.313L16.191 255.175ZM21.7435 261.032L21.2676 260.567C20.66 259.979 20.0262 259.341 19.3678 258.662L18.9051 258.182L19.8625 257.257L20.3271 257.737C20.9742 258.404 21.5986 259.031 22.1968 259.614L22.6745 260.078L21.7435 261.032ZM27.9185 266.292L27.3806 265.898C27.3806 265.898 26.5793 265.315 25.2532 264.192L24.7435 263.763L25.6031 262.746L26.1128 263.175C27.3862 264.248 28.1668 264.822 28.1668 264.822L28.7048 265.215L27.9185 266.292Z" fill="#2C2C2C"/>
<path d="M343.626 157.155H342.293V156.933L342.088 156.872L341.446 156.692L341.804 155.407L342.445 155.586C343.246 155.808 343.626 156.002 343.626 156.487V157.155ZM334.111 158.146L333.603 156.914L334.22 156.66C335.115 156.289 335.993 155.994 336.83 155.778L337.474 155.612L337.807 156.903L337.16 157.068C336.385 157.267 335.568 157.546 334.726 157.892L334.111 158.146ZM327.433 162.216L326.645 161.142L327.183 160.749C327.956 160.181 328.697 159.671 329.412 159.214L329.974 158.855L330.693 159.978L330.132 160.337C329.44 160.781 328.72 161.272 327.973 161.821L327.433 162.216ZM321.9 167.658L320.831 166.86L321.23 166.326C321.772 165.6 322.372 164.896 323.019 164.236L323.483 163.76L324.437 164.691L323.971 165.169C323.367 165.786 322.803 166.443 322.298 167.123L321.9 167.658ZM318.915 174.737L317.619 174.425L317.775 173.776C317.991 172.877 318.264 171.995 318.585 171.151L318.823 170.528L320.068 171.002L319.831 171.625C319.53 172.416 319.274 173.246 319.071 174.089L318.915 174.737ZM317.237 182.59L317.184 181.926C317.132 181.208 317.098 180.457 317.098 179.684L317.109 178.543L318.443 178.552L318.431 179.684C318.431 180.423 318.461 181.138 318.514 181.827L318.565 182.491L317.237 182.59ZM319.097 190.554L318.854 189.933C318.838 189.892 318.46 188.916 318.055 187.296L317.893 186.651L319.187 186.328L319.349 186.973C319.731 188.502 320.096 189.448 320.096 189.448L320.338 190.069L319.097 190.554Z" fill="#2C2C2C"/>
<path d="M286.871 259.777L288.186 268.2C288.186 268.2 290.911 267.412 293.056 264.748C294.606 262.823 314.064 258.551 314.064 258.551L308.451 255.305C308.451 255.305 300.993 254.603 297.837 255.391C294.677 256.181 291.432 258.316 291.432 258.316L286.871 259.777Z" fill="#FEB3A2"/>
<path d="M271.819 221.635C271.819 221.635 260.797 223.864 254.471 227.219C244.32 232.606 226.205 268.937 229.355 276.3C237.761 295.942 288.561 268.885 288.561 268.885L287.199 259.477L291.779 258.487L297.723 255.391C297.723 255.391 294.749 238.801 291.779 235.335C288.809 231.869 284.882 228.218 282.854 226.907C282.555 226.538 283.417 229.679 280.917 229.58C278.419 229.48 274.966 229.085 272.94 226.875C270.051 223.728 271.819 221.635 271.819 221.635Z" fill="#2C2C2C"/>
<path d="M247.488 272.415L247.203 272.319C247.024 272.184 246.966 271.942 247.065 271.74L248.668 268.439L246.51 268.789C246.309 268.815 246.1 268.718 246.01 268.529C245.922 268.339 245.965 268.116 246.121 267.976L249.742 264.713C249.742 264.713 254.538 258.4 258.383 251.832C261.712 246.139 265.212 240.437 265.248 240.382C265.382 240.158 265.671 240.09 265.895 240.227C266.115 240.363 266.185 240.652 266.049 240.874C266.014 240.931 262.521 246.623 259.193 252.306C255.319 258.927 250.477 265.283 250.428 265.345L247.932 267.606L249.413 267.365C249.588 267.337 249.761 267.408 249.864 267.548L249.911 268.035L248.937 270.042L252.087 267.262L252.285 267.156L286.64 258.688L287.018 258.758L287.219 259.087L288.325 268.014C288.357 268.274 288.175 268.509 287.919 268.541C287.633 268.567 287.424 268.388 287.392 268.133L286.35 259.73L252.622 268.044L247.799 272.299L247.488 272.415Z" fill="#09030F"/>
<path d="M48.9275 59.4895C48.9275 62.6232 46.3845 65.1643 43.2509 65.1624C40.1154 65.1624 37.5762 62.6194 37.5762 59.4858C37.5781 56.3503 40.1192 53.811 43.2547 53.8129C46.3883 53.8148 48.9294 56.3559 48.9275 59.4895Z" fill="#DFDFDF"/>
<path d="M332.384 45.7438C332.383 48.8793 329.842 51.4204 326.708 51.4185C323.572 51.4166 321.033 48.8755 321.033 45.7419C321.035 42.6083 323.578 40.0672 326.712 40.069C329.845 40.069 332.384 42.6102 332.384 45.7438Z" fill="#FCCA19"/>
<path d="M166.955 343.192C166.955 346.328 164.412 348.868 161.278 348.868C158.145 348.865 155.604 346.322 155.604 343.189C155.605 340.055 158.147 337.516 161.282 337.518C164.416 337.518 166.957 340.059 166.955 343.192Z" fill="#FCCA19"/>
<path d="M19.8964 109.221C18.6325 109.221 17.4437 109.712 16.5503 110.606C15.655 111.499 15.1622 112.688 15.1622 113.952C15.1622 115.218 15.6531 116.408 16.5484 117.302C17.4418 118.197 18.6306 118.69 19.8964 118.69C22.5072 118.69 24.6307 116.568 24.6326 113.957C24.6326 111.347 22.5072 109.221 19.8964 109.221ZM19.8964 120.571C18.1303 120.571 16.4657 119.882 15.2167 118.631C13.9678 117.381 13.2794 115.72 13.2813 113.952C13.2813 112.185 13.9716 110.525 15.2205 109.276C16.4694 108.027 18.1321 107.34 19.8964 107.34C23.5435 107.34 26.5135 110.312 26.5135 113.957C26.5116 117.606 23.5398 120.571 19.8964 120.571Z" fill="#FCCA19"/>
<path d="M308.813 82.781C304.131 82.7791 300.318 86.5899 300.315 91.2733C300.313 95.9587 304.125 99.7695 308.809 99.7714C313.492 99.7732 317.305 95.9625 317.307 91.279C317.309 86.5936 313.496 82.7829 308.813 82.781ZM308.809 101.652C303.087 101.65 298.432 96.9951 298.434 91.2733C298.437 85.5535 303.095 80.8982 308.813 80.9001C314.534 80.9019 319.19 85.5572 319.188 91.279C319.186 96.9989 314.529 101.654 308.809 101.652Z" fill="white"/>
<path d="M273.905 48.5145L271.029 45.7382C273.875 42.7927 275.444 38.9199 275.444 34.8308C275.444 30.7567 273.892 26.9046 271.074 23.9872L273.95 21.211C277.492 24.8769 279.443 29.7128 279.443 34.8308C279.443 39.9619 277.475 44.8222 273.905 48.5145Z" fill="#FCCA19"/>
<path d="M285.258 58.611L282.333 55.8817C287.681 50.1562 290.624 42.6815 290.624 34.8305C290.624 26.8328 287.564 19.2414 282.008 13.4538L284.891 10.6832C291.168 17.2194 294.623 25.7945 294.623 34.8305C294.623 43.6971 291.298 52.1425 285.258 58.611Z" fill="#FCCA19"/>
<path d="M296.764 68.8737L293.821 66.167C301.704 57.5994 306.041 46.47 306.041 34.8309C306.041 22.8118 301.454 11.4266 293.121 2.77435L296.001 -1.52588e-05C305.056 9.40271 310.04 21.7716 310.04 34.8309C310.04 47.4744 305.326 59.565 296.764 68.8737Z" fill="#FCCA19"/>
<path d="M283.296 224.536L283.027 224.452C279.837 222.238 277.625 216.72 277.533 216.484C277.437 216.243 277.556 215.969 277.798 215.875C278.045 215.779 278.31 215.895 278.408 216.138C278.43 216.195 280.609 221.628 283.563 223.68C283.776 223.827 283.831 224.12 283.682 224.335L283.296 224.536Z" fill="#09030F"/>
<path d="M367.999 217.011L367.833 216.365C367.591 215.41 367.333 214.56 367.098 213.849L366.887 213.219L368.153 212.798L368.362 213.432C368.608 214.167 368.873 215.045 369.126 216.036L369.289 216.682L367.999 217.011ZM368.907 224.787L368.898 224.119C368.889 223.263 368.84 222.389 368.751 221.517L368.685 220.854L370.011 220.722L370.077 221.384C370.169 222.295 370.22 223.209 370.231 224.106L370.239 224.77L368.907 224.787ZM368.842 232.832L367.576 232.416L367.784 231.782C368.052 230.973 368.272 230.132 368.441 229.284L368.573 228.63L369.88 228.891L369.748 229.544C369.569 230.447 369.334 231.34 369.05 232.2L368.842 232.832ZM364.513 239.813L363.518 238.929L363.961 238.431C364.534 237.786 365.063 237.103 365.537 236.398L365.907 235.845L367.013 236.585L366.643 237.139C366.139 237.895 365.571 238.627 364.957 239.317L364.513 239.813ZM357.742 244.467L357.185 243.255L357.789 242.977C358.579 242.612 359.341 242.2 360.054 241.751L360.616 241.391L361.331 242.518L360.767 242.874C360.005 243.357 359.191 243.799 358.348 244.188L357.742 244.467ZM349.776 246.354L349.639 245.029L350.301 244.96C351.174 244.869 352.039 244.733 352.871 244.567L353.523 244.431L353.79 245.736L353.138 245.87C352.267 246.05 351.356 246.19 350.44 246.285L349.776 246.354ZM345.663 246.417L344.997 246.37C343.336 246.25 342.307 246.041 342.264 246.032L341.613 245.898L341.88 244.592L342.533 244.728C342.533 244.728 343.526 244.928 345.093 245.041L345.759 245.088L345.663 246.417Z" fill="#2C2C2C"/>
<path d="M255.131 19.5125H119.287C120.404 14.4359 124.93 10.9186 130.676 11.1387L244.114 11.1255C250.094 11.1255 254.209 15.3199 255.131 19.5125Z" fill="#DFDFDF"/>
<path d="M236.146 13.4766C235.864 13.4766 235.634 13.706 235.634 13.9901V16.6478C235.634 16.9299 235.864 17.1594 236.146 17.1594H243.557C243.839 17.1594 244.068 16.9299 244.068 16.6478V13.9901C244.068 13.706 243.839 13.4766 243.557 13.4766H236.146ZM243.557 17.6804H236.146C235.576 17.6804 235.113 17.2158 235.113 16.6478V13.9901C235.113 13.4201 235.576 12.9574 236.146 12.9574H243.557C244.125 12.9574 244.588 13.4201 244.588 13.9901V16.6478C244.588 17.2158 244.125 17.6804 243.557 17.6804Z" fill="white"/>
<path d="M241.803 16.8058H236.516C236.179 16.8058 235.916 16.5218 235.916 16.1851V14.4546C235.916 14.1142 236.179 13.8339 236.516 13.8339H239.922L241.803 16.8058Z" fill="white"/>
<path d="M245.137 14.9474V15.5437L244.956 15.7336H244.332V14.7593H244.956L245.137 14.9474Z" fill="white"/>
<path d="M135.416 14.5657L134.692 15.3293C134.028 14.6973 133.127 14.3117 132.136 14.3117C131.13 14.3117 130.214 14.7124 129.548 15.3669L128.812 14.6127C129.672 13.77 130.844 13.2566 132.136 13.2566C133.406 13.2566 134.561 13.7531 135.416 14.5657Z" fill="white"/>
<path d="M134.332 15.7038L133.604 16.4768C133.22 16.1119 132.703 15.89 132.135 15.89C131.559 15.89 131.033 16.1194 130.649 16.4994L129.904 15.7339C130.48 15.1752 131.266 14.8273 132.135 14.8273C132.989 14.8273 133.762 15.1621 134.332 15.7038Z" fill="white"/>
<path d="M133.232 16.868L132.137 18.021L131.027 16.8849C131.315 16.6028 131.708 16.4316 132.137 16.4316C132.562 16.4316 132.948 16.5971 133.232 16.868Z" fill="white"/>
<path d="M144.074 18.021H145.524V12.8917H144.074V18.021Z" fill="white"/>
<path d="M141.918 18.021H143.368V14.0259H141.918V18.021Z" fill="white"/>
<path d="M139.92 18.021H141.368V14.9871H139.92V18.021Z" fill="white"/>
<path d="M137.951 18.021H139.399V16.505H137.951V18.021Z" fill="white"/>
<defs>
<linearGradient id="paint0_linear_6532_3180" x1="192.538" y1="202.509" x2="67.6764" y2="369.068" gradientUnits="userSpaceOnUse">
<stop stop-color="#5E95F6"/>
<stop offset="1" stop-color="#4A89F4"/>
</linearGradient>
<linearGradient id="paint1_linear_6532_3180" x1="259.247" y1="82.5913" x2="113.286" y2="191.02" gradientUnits="userSpaceOnUse">
<stop stop-color="#5E95F6"/>
<stop offset="1" stop-color="#4486F0"/>
</linearGradient>
</defs>
</svg>
