<svg width="282" height="251" viewBox="0 0 282 251" fill="none" xmlns="http://www.w3.org/2000/svg">
<path d="M55.9199 224.368C92.6642 258.778 127.882 241.29 159.748 223.802C180.717 212.294 200.234 200.787 217.78 204.068C263.196 212.556 284.285 166.046 253.151 106.168C222.839 47.8728 174.254 18.4236 141.628 12.9881C87.6907 4.00162 29.1791 56.8253 47.216 99.1408C63.495 137.332 15.6812 186.688 55.9199 224.368Z" fill="#F3F3F3"/>
<path d="M250.328 190.827L259.085 194.03L263.306 189.652L257.943 186.127L250.328 190.827Z" fill="#FEB3A2"/>
<path d="M131.055 12.1618C103.919 12.1618 75.0399 25.995 57.4814 48.3198C43.8768 65.6172 40.0233 84.8042 46.9104 100.96C54.0071 117.608 49.3211 136.637 44.7896 155.041C38.46 180.749 31.9133 207.334 55.7197 229.628C94.5747 266.017 132.2 245.287 165.4 226.996C185.611 215.863 204.703 205.336 221.986 208.575C239.797 211.902 254.597 207.017 263.651 194.806C277.728 175.823 275.452 142.841 257.716 108.729C227.621 50.8549 178.614 19.0276 143.396 13.1613C139.357 12.4883 135.225 12.1618 131.055 12.1618ZM101.897 251C86.5903 251.001 70.8487 245.516 54.8609 230.546C30.5183 207.749 37.1542 180.801 43.5704 154.739C48.2589 135.699 52.6874 117.715 45.7552 101.454C38.6836 84.8607 42.5973 65.2128 56.4944 47.5426C77.0212 21.4446 112.848 6.79788 143.601 11.922C179.129 17.841 228.536 49.8906 258.829 108.15C276.791 142.692 279.025 176.183 264.659 195.554C255.303 208.169 240.067 213.233 221.756 209.809C204.918 206.663 186.015 217.074 166.005 228.096C146.015 239.11 124.429 250.998 101.897 251Z" fill="#DFDFDF"/>
<path d="M257.115 193.827C257.115 193.827 259.125 195.514 261.108 196.917C263.089 198.319 263.951 198.716 265.894 197.577C267.838 196.44 268.16 193.689 269.002 192.531C269.843 191.374 273.487 186.754 273.487 186.754C273.487 186.754 274.21 183.588 273.428 183.132C272.126 182.373 270.01 184.995 268.361 186.397C266.708 187.801 261.515 188.451 261.515 188.451L257.115 193.827Z" fill="#2C2C2C"/>
<path d="M79.399 193.305C71.1835 190.342 64.0717 185.45 59.156 179.951C53.3551 173.459 50.6078 165.323 51.0548 155.813H79.399V193.305ZM170.543 138.136V65.8706C204.653 71.9893 233.902 100.732 212.264 124.651C203.101 134.781 187.072 133.19 170.543 138.136Z" fill="#FCCA19"/>
<path d="M51.4102 54.5024C51.4102 54.5024 56.6775 22.4967 45.8466 25.0657C35.0157 27.636 51.4102 54.5024 51.4102 54.5024Z" fill="#FCCA19"/>
<path d="M62.5469 81.8736C62.5469 81.8736 78.7129 59.3441 70.6494 55.2043C62.5858 51.0646 62.5469 81.8736 62.5469 81.8736Z" fill="#FCCA19"/>
<path d="M75.3848 99.0968C75.3848 99.0968 91.5508 76.5673 83.4873 72.4276C75.4237 68.2878 75.3848 99.0968 75.3848 99.0968Z" fill="#2356F1"/>
<path d="M63.5026 81.5696C63.5026 81.5696 41.6926 63.7888 38.9704 73.3265C36.2483 82.8654 63.5026 81.5696 63.5026 81.5696Z" fill="#FCCA19"/>
<path d="M75.6496 98.2128C75.6496 98.2128 49.6056 87.5589 49.7802 97.477C49.956 107.395 75.6496 98.2128 75.6496 98.2128Z" fill="#2356F1"/>
<path d="M55.4672 64.7859C55.4672 64.7859 34.4181 48.5106 32.3087 57.7231C30.1993 66.9343 55.4672 64.7859 55.4672 64.7859Z" fill="#FCCA19"/>
<path d="M55.1662 65.931C55.1662 65.931 70.7534 42.9947 62.5869 39.0633C54.4204 35.1307 55.1662 65.931 55.1662 65.931Z" fill="#FCCA19"/>
<path d="M42.9396 60.1361C43.0388 59.8775 43.3302 59.7469 43.5888 59.8461L54.2025 63.9243C53.7605 62.7026 53.3324 61.4671 52.9193 60.2165C48.2898 46.1536 47.1849 34.9849 47.1748 34.8757C47.1485 34.5982 47.3506 34.3533 47.6281 34.327C47.9043 34.3006 48.1492 34.5028 48.1768 34.779C48.1869 34.8895 49.283 45.9653 53.8823 59.9252C54.3017 61.1996 54.7613 62.5268 55.261 63.8917L59.3581 46.023C59.4208 45.7518 59.6908 45.5823 59.9608 45.6451C60.232 45.7066 60.4002 45.9753 60.3374 46.2465L56.0194 65.0845C55.9918 65.2076 55.9177 65.3118 55.816 65.3821C57.5337 69.8998 59.6933 74.803 62.3879 79.7514L68.6396 60.8782C68.7275 60.6158 69.0125 60.4714 69.2762 60.5605C69.5398 60.6472 69.6817 60.9322 69.5951 61.1946L63.0295 80.9228L63.3522 81.4829C66.5025 87.0151 70.3321 92.5511 74.9666 97.61L75.1185 97.6062L80.2779 80.1067C80.3557 79.8392 80.6357 79.6873 80.9019 79.7652C81.1681 79.8443 81.32 80.1243 81.2409 80.3905L76.0716 97.9289L76.1042 98.0896C76.108 98.2867 75.9975 98.4575 75.8355 98.5441C77.4904 100.291 79.2458 101.977 81.1041 103.579C81.315 103.761 81.3389 104.079 81.1581 104.29L80.8969 104.449C80.745 104.487 80.5767 104.453 80.4486 104.341C78.4007 102.576 76.4269 100.669 74.5284 98.6245L61.8417 98.8844C61.5642 98.8907 61.3344 98.6697 61.3294 98.3922C61.3231 98.1147 61.5441 97.8849 61.8216 97.8787L73.6281 97.6376C69.732 93.2982 66.1698 88.3712 62.9868 82.9092C62.7721 82.5426 62.5599 82.1709 62.3502 81.7968C62.315 81.793 62.1681 81.5557 62.0664 81.3548L50.0703 76.5182C49.8129 76.4152 49.6886 76.1214 49.7915 75.864C49.8958 75.6066 50.187 75.481 50.4457 75.5852L61.3356 79.9623C58.852 75.3617 56.6196 70.4133 54.6633 65.1787L43.2284 60.7853C42.9698 60.6861 42.8404 60.3948 42.9396 60.1361Z" fill="#2C2C2C"/>
<path d="M117.107 155.808L22.0204 155.807C19.1877 155.807 16.8887 153.514 16.8887 150.681L16.8912 94.2337C16.8912 91.4011 19.1877 89.1058 22.0191 89.1058H117.107C119.938 89.1058 122.234 91.4011 122.234 94.2337V150.681C122.234 153.513 119.938 155.808 117.107 155.808Z" fill="#C5C5C5"/>
<path d="M79.4012 155.813H48.9902L48.9927 155.807L52.6277 148.577H79.4012V155.813ZM79.4012 143.504H55.1779L79.4012 95.3225V143.504Z" fill="#DFDFDF"/>
<path d="M66.6392 89.1072L33.3529 155.805L22.0209 155.807C19.1833 155.807 16.8905 153.506 16.8905 150.681L16.8867 127.353L37.8178 89.1072H66.6392Z" fill="#DFDFDF"/>
<path d="M40.7167 126.018H30.7358C29.3496 126.018 28.2246 124.895 28.2246 123.507V114.822C28.2246 113.436 29.3496 112.311 30.7358 112.311H40.7167C42.1042 112.311 43.228 113.436 43.228 114.822V123.507C43.228 124.895 42.1042 126.018 40.7167 126.018Z" fill="#FFECC9"/>
<path d="M32.8079 126.018H32.6309V112.311H32.8079V126.018Z" fill="#010101"/>
<path d="M38.8763 126.018H38.6992V115.622H43.227V115.801H38.8763V126.018Z" fill="#010101"/>
<path d="M32.7172 115.801H28.2246V115.622H32.7172V115.801Z" fill="#010101"/>
<path d="M32.7172 119.039H28.2246V118.859H32.7172V119.039Z" fill="#010101"/>
<path d="M32.7172 122.155H28.2246V121.977H32.7172V122.155Z" fill="#010101"/>
<path d="M43.2289 119.039H38.7891V118.859H43.2289V119.039Z" fill="#010101"/>
<path d="M43.2289 122.155H38.7891V121.977H43.2289V122.155Z" fill="#010101"/>
<path d="M113.154 114.256L112.86 114.149C112.666 113.987 112.639 113.699 112.801 113.504C112.809 113.494 113.09 113.129 113.09 112.483C113.09 111.88 112.805 111.497 112.805 111.497C112.649 111.297 112.686 111.009 112.884 110.853C113.084 110.696 113.375 110.732 113.528 110.933C113.577 110.996 114.008 111.575 114.008 112.483C114.008 113.46 113.559 114.028 113.507 114.089C113.417 114.198 113.286 114.256 113.154 114.256Z" fill="white"/>
<path d="M114.701 114.862L114.46 114.792C114.244 114.659 114.179 114.376 114.312 114.16C114.312 114.16 114.78 113.389 114.784 112.504C114.786 111.869 114.428 111.015 114.292 110.739C114.177 110.513 114.268 110.236 114.495 110.123C114.719 110.01 114.997 110.101 115.11 110.327C115.137 110.376 115.707 111.526 115.703 112.509C115.695 113.662 115.114 114.606 115.09 114.645C115.004 114.784 114.853 114.862 114.701 114.862Z" fill="white"/>
<path d="M116.219 115.64L115.992 115.579C115.772 115.452 115.695 115.174 115.821 114.954C115.826 114.941 116.515 113.712 116.515 112.507C116.515 111.426 115.811 109.938 115.805 109.923C115.695 109.694 115.792 109.42 116.022 109.311C116.247 109.199 116.524 109.297 116.632 109.528C116.665 109.595 117.434 111.221 117.434 112.507C117.434 113.96 116.651 115.349 116.617 115.407C116.532 115.555 116.378 115.64 116.219 115.64Z" fill="white"/>
<path d="M117.772 116.4L117.54 116.338C117.322 116.211 117.249 115.929 117.374 115.711C117.386 115.695 118.278 114.138 118.214 112.523C118.155 110.994 117.27 109.019 117.261 109C117.157 108.769 117.26 108.496 117.491 108.391C117.717 108.287 117.993 108.388 118.098 108.622C118.138 108.708 119.066 110.781 119.134 112.489C119.205 114.376 118.211 116.101 118.168 116.173C118.084 116.319 117.931 116.4 117.772 116.4Z" fill="white"/>
<path d="M103.184 145.338C103.184 141.359 106.409 138.134 110.388 138.134C114.367 138.134 117.593 141.359 117.593 145.338C117.593 149.318 114.367 152.542 110.388 152.542C106.409 152.542 103.184 149.318 103.184 145.338Z" fill="#FFE6B4"/>
<path d="M93.1895 145.338C93.1895 141.359 96.4139 138.134 100.393 138.134C104.372 138.134 107.598 141.359 107.598 145.338C107.598 149.318 104.372 152.542 100.393 152.542C96.4139 152.542 93.1895 149.318 93.1895 145.338Z" fill="#FF3700"/>
<path d="M73.5398 105.081H28.2246V98.6032H73.5398V105.081Z" fill="white"/>
<path d="M28.2246 148.576H83.5938V143.504H28.2246V148.576Z" fill="white"/>
<path d="M79.4004 26.8148V14.8727C79.4004 10.7618 82.7328 7.42938 86.8437 7.42938L163.101 7.42686C167.211 7.42686 170.544 10.7618 170.544 14.8727V20.435C161.083 16.1521 151.959 13.3144 143.604 11.922C139.503 11.2389 135.314 10.9074 131.08 10.9074C113.414 10.9074 95.014 16.6895 79.4004 26.8148ZM170.544 22.5784C160.202 17.6074 150.346 14.4395 141.63 12.988C140.347 12.7745 139.055 12.595 137.766 12.4493C139.66 12.6151 141.54 12.8511 143.398 13.1613C151.809 14.5625 161.005 17.4429 170.544 21.8074V22.5784Z" fill="#689BF9"/>
<path d="M86.8424 206.896C82.7328 206.896 79.4004 203.559 79.4004 199.449V193.305C84.5911 195.177 90.2238 196.279 96.0235 196.28C106.706 196.28 117.954 192.543 128.064 182.988C147.613 164.515 149.128 148.357 158.719 143.037C162.631 140.866 166.602 139.315 170.544 138.136V199.449C170.544 203.559 167.211 206.894 163.101 206.894L86.8424 206.896ZM82.5256 89.1057H81.5425C85.0369 82.5175 87.9147 74.7001 83.4874 72.4274C82.9802 72.1662 82.5043 72.0444 82.0585 72.0444C81.0189 72.0444 80.1412 72.7074 79.4004 73.8262V28.3076C94.9487 18.0367 113.374 12.1617 131.058 12.1617C133.308 12.1617 135.548 12.2558 137.766 12.4492C139.055 12.5948 140.347 12.7744 141.63 12.9879C150.346 14.4393 160.202 17.6073 170.544 22.5782V65.8706C166.259 65.1021 161.898 64.6916 157.551 64.6916C153.185 64.6916 148.84 65.1059 144.597 65.9899C126.493 69.7617 109.471 79.1437 95.8012 89.102H82.5269L82.5256 89.1057Z" fill="#6097F8"/>
<path d="M79.4004 28.3077V26.8148C95.014 16.6895 113.414 10.9074 131.08 10.9074C135.314 10.9074 139.503 11.2389 143.604 11.922C151.959 13.3144 161.083 16.1521 170.544 20.435V21.8074C161.005 17.4429 151.809 14.5625 143.398 13.1613C141.54 12.8511 139.66 12.6151 137.766 12.4493C135.548 12.256 133.308 12.1618 131.058 12.1618C113.374 12.1618 94.9487 18.0368 79.4004 28.3077Z" fill="#5993F5"/>
<path d="M96.0235 196.28C90.2238 196.279 84.5911 195.177 79.4004 193.305V155.813H82.3385L82.341 155.807H117.108C119.939 155.807 122.234 153.513 122.234 150.681V94.2336C122.234 91.401 119.939 89.1057 117.108 89.1057H115.875L115.876 89.1019H95.8012C109.471 79.1437 126.493 69.7617 144.597 65.9898C148.84 65.1059 153.185 64.6915 157.551 64.6915C161.898 64.6915 166.259 65.1021 170.544 65.8705V138.136C166.602 139.315 162.631 140.866 158.719 143.037C149.128 148.357 147.613 164.515 128.064 182.988C117.954 192.543 106.706 196.28 96.0235 196.28Z" fill="url(#paint0_linear_6624_3485)"/>
<path d="M81.5425 89.1058H79.4004V86.6385L81.2411 80.3906C81.3202 80.1244 81.1683 79.8444 80.9021 79.7653C80.8544 79.7515 80.8067 79.7452 80.759 79.7452C80.5418 79.7452 80.3421 79.8871 80.2781 80.1068L79.4004 83.0827V73.8263C80.1412 72.7075 81.0189 72.0445 82.0585 72.0445C82.5043 72.0445 82.9802 72.1663 83.4874 72.4275C87.9147 74.7002 85.0369 82.5176 81.5425 89.1058Z" fill="#175CF4"/>
<path d="M79.4004 86.6384V83.0825L80.2781 80.1067C80.3421 79.887 80.5418 79.7451 80.759 79.7451C80.8067 79.7451 80.8544 79.7514 80.9021 79.7652C81.1683 79.8443 81.3202 80.1243 81.2411 80.3905L79.4004 86.6384Z" fill="#3171E4"/>
<path d="M117.108 155.808H82.341L115.875 89.1059H117.108C119.939 89.1059 122.234 91.4011 122.234 94.2338V150.681C122.234 153.513 119.939 155.808 117.108 155.808ZM105.392 150.528C106.687 151.776 108.448 152.542 110.389 152.542C114.368 152.542 117.594 149.318 117.594 145.338C117.594 141.359 114.368 138.134 110.389 138.134C108.448 138.134 106.687 138.901 105.392 140.149C104.097 138.901 102.335 138.134 100.394 138.134C96.4152 138.134 93.1908 141.359 93.1908 145.338C93.1908 149.318 96.4152 152.542 100.394 152.542C102.335 152.542 104.097 151.776 105.392 150.528ZM117.679 108.351C117.616 108.351 117.552 108.363 117.492 108.391C117.261 108.496 117.158 108.769 117.262 109C117.271 109.019 118.156 110.994 118.215 112.523C118.279 114.138 117.387 115.695 117.375 115.711C117.25 115.93 117.322 116.211 117.541 116.338L117.773 116.4C117.931 116.4 118.085 116.319 118.169 116.173C118.211 116.102 119.206 114.376 119.134 112.489C119.067 110.782 118.139 108.709 118.098 108.622C118.022 108.451 117.852 108.351 117.679 108.351ZM116.219 109.265C116.152 109.265 116.084 109.28 116.022 109.311C115.792 109.42 115.695 109.694 115.804 109.923C115.811 109.938 116.515 111.426 116.515 112.507C116.515 113.712 115.826 114.941 115.821 114.954C115.695 115.174 115.772 115.452 115.992 115.579L116.219 115.639C116.378 115.639 116.531 115.555 116.617 115.407C116.651 115.349 117.434 113.959 117.434 112.507C117.434 111.221 116.665 109.595 116.632 109.528C116.554 109.363 116.388 109.265 116.219 109.265ZM114.699 110.075C114.63 110.075 114.56 110.091 114.495 110.124C114.268 110.237 114.177 110.513 114.291 110.739C114.428 111.015 114.786 111.869 114.784 112.504C114.78 113.389 114.312 114.16 114.312 114.16C114.178 114.376 114.244 114.659 114.46 114.792L114.701 114.862C114.853 114.862 115.003 114.784 115.09 114.645C115.114 114.606 115.695 113.662 115.703 112.509C115.707 111.526 115.136 110.376 115.11 110.327C115.03 110.166 114.866 110.075 114.699 110.075ZM113.168 110.756C113.068 110.756 112.969 110.788 112.885 110.853C112.687 111.009 112.65 111.298 112.806 111.497C112.806 111.497 113.091 111.88 113.091 112.483C113.091 113.13 112.81 113.494 112.802 113.504C112.64 113.7 112.667 113.987 112.861 114.149L113.155 114.256C113.287 114.256 113.418 114.198 113.508 114.089C113.559 114.029 114.009 113.46 114.009 112.483C114.009 111.575 113.578 110.996 113.529 110.933C113.44 110.817 113.305 110.756 113.168 110.756ZM79.4004 95.3224V89.1059H81.5425H82.5256L79.4004 95.3224Z" fill="#3078F0"/>
<path d="M82.3385 155.813H79.4004V148.577H83.5941V143.504H79.4004V95.3225L82.5256 89.106L82.5269 89.1022H95.8012H115.876L115.875 89.106L82.341 155.808L82.3385 155.813Z" fill="url(#paint1_linear_6624_3485)"/>
<path d="M113.154 114.256L112.86 114.149C112.666 113.987 112.639 113.699 112.801 113.504C112.809 113.494 113.09 113.129 113.09 112.483C113.09 111.88 112.805 111.497 112.805 111.497C112.649 111.297 112.686 111.009 112.884 110.853C112.968 110.788 113.068 110.756 113.167 110.756C113.304 110.756 113.439 110.817 113.528 110.933C113.577 110.996 114.008 111.575 114.008 112.483C114.008 113.46 113.559 114.028 113.507 114.089C113.417 114.198 113.286 114.256 113.154 114.256Z" fill="#689BF9"/>
<path d="M114.701 114.862L114.46 114.792C114.244 114.659 114.179 114.376 114.312 114.16C114.312 114.16 114.78 113.389 114.784 112.504C114.786 111.869 114.428 111.015 114.292 110.739C114.177 110.513 114.268 110.236 114.495 110.123C114.56 110.091 114.631 110.075 114.7 110.075C114.867 110.075 115.03 110.166 115.11 110.327C115.137 110.376 115.707 111.526 115.703 112.509C115.695 113.662 115.114 114.606 115.09 114.645C115.004 114.784 114.853 114.862 114.701 114.862Z" fill="#689BF9"/>
<path d="M116.219 115.64L115.992 115.579C115.772 115.452 115.695 115.174 115.821 114.954C115.826 114.941 116.515 113.712 116.515 112.507C116.515 111.426 115.811 109.938 115.805 109.923C115.695 109.694 115.792 109.42 116.022 109.311C116.085 109.28 116.152 109.265 116.219 109.265C116.389 109.265 116.554 109.363 116.632 109.528C116.665 109.595 117.434 111.221 117.434 112.507C117.434 113.96 116.651 115.349 116.617 115.407C116.532 115.555 116.378 115.64 116.219 115.64Z" fill="#689BF9"/>
<path d="M117.772 116.4L117.54 116.338C117.322 116.211 117.249 115.929 117.374 115.711C117.386 115.695 118.278 114.138 118.214 112.523C118.155 110.994 117.27 109.019 117.261 109C117.157 108.769 117.26 108.496 117.491 108.391C117.551 108.363 117.615 108.351 117.678 108.351C117.851 108.351 118.021 108.451 118.098 108.622C118.138 108.708 119.066 110.781 119.134 112.489C119.205 114.376 118.211 116.101 118.168 116.173C118.084 116.319 117.931 116.4 117.772 116.4Z" fill="#689BF9"/>
<path d="M110.388 152.542C108.447 152.542 106.686 151.776 105.391 150.528C106.752 149.219 107.598 147.378 107.598 145.338C107.598 143.3 106.752 141.459 105.391 140.149C106.686 138.901 108.447 138.134 110.388 138.134C114.367 138.134 117.593 141.359 117.593 145.338C117.593 149.318 114.367 152.542 110.388 152.542Z" fill="#6891DD"/>
<path d="M100.393 152.542C96.4139 152.542 93.1895 149.318 93.1895 145.338C93.1895 141.359 96.4139 138.134 100.393 138.134C102.334 138.134 104.096 138.901 105.39 140.149C106.751 141.459 107.598 143.3 107.598 145.338C107.598 147.378 106.751 149.219 105.39 150.528C104.096 151.776 102.334 152.542 100.393 152.542Z" fill="#68519B"/>
<path d="M79.4004 148.576H83.5944V143.504H79.4004V148.576Z" fill="#689BF9"/>
<path d="M163.101 206.895L86.8424 206.896C82.7328 206.896 79.4004 203.559 79.4004 199.449V14.8726C79.4004 10.7617 82.7328 7.42928 86.8437 7.42928L163.101 7.42676C167.211 7.42676 170.544 10.7617 170.544 14.8726V199.449C170.544 203.559 167.211 206.895 163.101 206.895Z" fill="white"/>
<path d="M163.1 206.895L86.8417 206.896C82.7321 206.896 79.3997 203.559 79.3997 199.449L79.3984 185.862H170.542L170.544 199.449C170.544 203.559 167.21 206.895 163.1 206.895Z" fill="#F3F3F3"/>
<path d="M164.288 206.895H85.8435C82.2838 206.895 79.3984 204.01 79.3984 200.45V199.203H170.542V200.641C170.542 204.094 167.741 206.895 164.288 206.895Z" fill="#DFDFDF"/>
<path d="M170.544 199.449C170.544 203.567 167.206 206.9 163.088 206.9L86.8421 206.896C82.7237 206.896 79.4001 203.567 79.4001 199.449V14.8725C79.4001 10.7541 82.7249 7.42926 86.8434 7.42926L163.088 7.43303C167.206 7.43303 170.544 10.7541 170.544 14.8725V199.449ZM172.116 7.43303C170.258 4.94691 167.282 3.33972 163.942 3.33972H85.9933C82.6534 3.33972 79.6901 4.94691 77.8192 7.43303C76.5385 9.14067 75.7852 11.2626 75.7852 13.5604V200.245C75.7852 205.883 80.3556 210.453 85.9933 210.453H163.942C169.58 210.453 174.163 205.883 174.163 200.245V13.5604C174.163 11.2626 173.409 9.14067 172.116 7.43303Z" fill="#2C2C2C"/>
<path d="M185.166 143.502L182.748 145.594L180.518 149.607C180.518 149.607 181.983 151.822 184.082 152.843C186.183 153.864 188.542 153.505 188.542 153.505L189.178 149.133L185.166 143.502Z" fill="#FEB3A2"/>
<path d="M187.647 140.389C187.647 140.389 186.023 136.912 184.489 138.679C182.956 140.447 187.885 150.759 191.254 150.573C194.621 150.39 197.81 144.397 198.676 141.65C199.543 138.903 200.595 135.877 197.599 133.946C191.457 129.987 187.647 140.389 187.647 140.389Z" fill="#FEB3A2"/>
<path d="M182.582 145.582L185.167 143.503C185.167 143.503 183.501 138.989 185.207 138.557C186.915 138.123 187.648 140.389 187.648 140.389C187.648 140.389 189.86 135.297 194.582 136.311C199.383 137.339 199.098 139.444 199.098 139.444C199.098 139.444 208.262 140.222 203.195 130.531C201.294 126.895 200.068 130.521 198.841 129.73C197.613 128.94 200.476 126.153 196.38 125.234C192.491 124.361 191.707 128.365 189.76 128.58C187.814 128.796 187.486 127.801 186.317 128.081C183.863 128.669 182.638 128.825 180.41 133.584C178.18 138.341 182.582 145.582 182.582 145.582Z" fill="#2C2C2C"/>
<path d="M166.639 194.397C169.847 201.275 178.356 201.202 182.814 200.09C187.27 198.975 214.264 187.91 214.264 187.91C214.264 187.91 225.084 189.959 230.393 190.597C235.701 191.235 232.468 192.549 234.232 194.256C235.995 195.964 237.527 193.93 239.454 194.727C241.384 195.523 240.69 196.969 242.278 197.55C243.868 198.13 247.993 196.783 247.993 196.783L260.792 184.888C260.792 184.888 230.881 170.461 226.872 170.006C221.073 169.348 175.1 184.364 175.1 184.364C175.1 184.364 163.102 186.812 166.639 194.397Z" fill="#EAA800"/>
<path d="M162.563 198.942C163.972 205.419 175.452 204.179 179.909 203.067C184.363 201.953 211.359 190.888 211.359 190.888C211.359 190.888 222.177 192.939 227.487 193.577C232.797 194.213 229.563 195.525 231.327 197.233C233.09 198.942 234.62 196.908 236.55 197.705C238.479 198.501 237.782 199.948 239.373 200.528C240.964 201.108 245.087 199.76 245.087 199.76L255.162 192.71C255.162 192.71 220.1 175.876 213.827 175.36C207.555 174.845 170.221 185.709 170.221 185.709C170.221 185.709 161.153 192.464 162.563 198.942Z" fill="#FCCA19"/>
<path d="M157.155 187.04C156.476 186.593 155.902 192.471 157.39 195.789C158.879 199.108 162.999 200.596 162.999 200.596C162.999 200.596 162.541 197.391 164.027 194.531C165.516 191.67 167.309 187.872 167.309 187.872C167.309 187.872 157.837 187.487 157.155 187.04Z" fill="#2C2C2C"/>
<path d="M245.93 199.172L252.66 201.522L257.323 197.051L253.019 194.209L245.93 199.172Z" fill="#FEB3A2"/>
<path d="M252.252 201.987C252.252 201.987 254.251 203.664 256.222 205.061C258.191 206.455 259.049 206.847 260.982 205.716C262.915 204.585 263.234 201.849 264.071 200.699C264.907 199.549 268.532 194.953 268.532 194.953C268.532 194.953 269.25 191.807 268.473 191.353C267.179 190.597 265.076 193.204 263.433 194.6C261.791 195.995 256.626 196.642 256.626 196.642L252.252 201.987Z" fill="#565656"/>
<path d="M194.311 178.585L222.994 170.321L228.128 151.888C228.325 151.175 227.687 150.511 226.968 150.681L217.39 152.945C216.742 153.098 216.225 153.585 216.031 154.221L210.634 172.003L195.452 176.704L194.311 178.585Z" fill="#2C2C2C"/>
<path d="M254.59 193.209L254.454 193.177C254.128 193.019 221.985 177.298 218.493 175.702C215.132 174.165 213.37 174.605 213.351 174.608C213.185 174.656 213.013 174.555 212.968 174.387C212.923 174.22 213.02 174.048 213.185 174.002C213.264 173.979 215.159 173.487 218.754 175.13C222.253 176.73 254.405 192.455 254.729 192.614C254.884 192.689 254.948 192.876 254.873 193.033C254.819 193.143 254.707 193.209 254.59 193.209Z" fill="#09030F"/>
<path d="M203.017 192.577C202.88 192.577 202.756 192.489 202.716 192.352C202.667 192.187 202.762 192.012 202.928 191.962C202.968 191.951 206.896 190.785 208.477 189.908C209.31 189.446 210.059 188.251 210.661 187.29C211.245 186.359 211.667 185.686 212.148 185.567C212.403 185.502 212.556 185.615 212.625 185.686C212.917 185.987 212.763 186.588 212.443 187.709C212.339 188.075 212.183 188.623 212.136 188.959C212.231 188.843 212.338 188.695 212.421 188.581C212.812 188.041 213.214 187.48 213.706 187.628C214.407 187.836 214.44 189.334 214.416 190.016C214.701 190.096 215.231 190.22 216.215 190.403C219.394 190.993 221.081 190.885 221.096 190.882C221.266 190.846 221.418 190.999 221.431 191.172C221.443 191.346 221.313 191.495 221.14 191.507C221.072 191.515 219.367 191.626 216.1 191.02C213.636 190.565 213.547 190.417 213.568 190.094C213.574 190.005 213.615 189.872 213.792 189.792C213.793 189.047 213.672 188.321 213.521 188.225C213.424 188.267 213.101 188.71 212.928 188.949C212.594 189.41 212.326 189.778 211.986 189.775C211.834 189.772 211.695 189.693 211.602 189.555C211.375 189.22 211.535 188.602 211.839 187.538C211.945 187.164 212.108 186.596 212.146 186.278C211.887 186.516 211.509 187.121 211.194 187.624C210.554 188.645 209.756 189.915 208.782 190.458C207.14 191.368 203.27 192.516 203.106 192.565L203.017 192.577Z" fill="#09030F"/>
<path d="M131.223 44.4172H119.475L120.395 20.4513H130.161L131.223 44.4172Z" fill="#898989"/>
<path d="M126.303 54.5651H124.395C121.678 54.5651 119.475 52.3615 119.475 49.6444V44.4172H131.223V49.6444C131.223 52.3615 129.021 54.5651 126.303 54.5651Z" fill="#282728"/>
<path d="M119.475 44.4172H107.725L110.532 20.4513H120.395L119.475 44.4172Z" fill="white"/>
<path d="M114.554 54.5651H112.647C109.928 54.5651 107.725 52.3615 107.725 49.6444V44.4172H119.475V49.6444C119.475 52.3615 117.271 54.5651 114.554 54.5651Z" fill="#F3F3F3"/>
<path d="M107.662 44.4172H95.9121L100.844 20.4513H110.389L107.662 44.4172Z" fill="#898989"/>
<path d="M102.741 54.5651H100.834C98.1157 54.5651 95.9121 52.3615 95.9121 49.6444V44.4172H107.662V49.6444C107.662 52.3615 105.459 54.5651 102.741 54.5651Z" fill="#282728"/>
<path d="M95.8972 44.4172H84.1484L90.7442 20.4513H100.846L95.8972 44.4172Z" fill="white"/>
<path d="M90.9765 54.5651H89.0692C86.352 54.5651 84.1484 52.3615 84.1484 49.6444V44.4172H95.8972V49.6444C95.8972 52.3615 93.6949 54.5651 90.9765 54.5651Z" fill="#F3F3F3"/>
<path d="M84.17 44.4172H72.4199L80.8476 20.4513H90.7418L84.17 44.4172Z" fill="#898989"/>
<path d="M79.2492 54.5651H77.3419C74.6235 54.5651 72.4199 52.3615 72.4199 49.6444V44.4172H84.17V49.6444C84.17 52.3615 81.9664 54.5651 79.2492 54.5651Z" fill="#282728"/>
<path d="M131.278 44.4172H143.027L140.221 20.4513H130.359L131.278 44.4172Z" fill="white"/>
<path d="M136.2 54.5651H138.109C140.826 54.5651 143.028 52.3615 143.028 49.6444V44.4172H131.279V49.6444C131.279 52.3615 133.483 54.5651 136.2 54.5651Z" fill="#F3F3F3"/>
<path d="M143.092 44.4172H154.843L149.91 20.4513H140.365L143.092 44.4172Z" fill="#898989"/>
<path d="M148.014 54.5651H149.923C152.64 54.5651 154.844 52.3615 154.844 49.6444V44.4172H143.094V49.6444C143.094 52.3615 145.297 54.5651 148.014 54.5651Z" fill="#282728"/>
<path d="M154.859 44.4172H166.609L160.014 20.4513H149.912L154.859 44.4172Z" fill="white"/>
<path d="M159.778 54.5651H161.687C164.404 54.5651 166.607 52.3615 166.607 49.6444V44.4172H154.857V49.6444C154.857 52.3615 157.061 54.5651 159.778 54.5651Z" fill="#F3F3F3"/>
<path d="M166.587 44.4172H178.338L169.91 20.4513H160.016L166.587 44.4172Z" fill="#898989"/>
<path d="M171.505 54.5651H173.413C176.13 54.5651 178.334 52.3615 178.334 49.6444V44.4172H166.584V49.6444C166.584 52.3615 168.788 54.5651 171.505 54.5651Z" fill="#282728"/>
<path d="M158.94 75.3042H127.988V69.1944H158.94V75.3042Z" fill="#F3F3F3"/>
<path d="M158.634 88.601H152.24V82.2074H158.634V88.601Z" fill="#F3F3F3"/>
<path d="M158.94 135.92H127.988V129.811H158.94V135.92Z" fill="#F3F3F3"/>
<path d="M158.634 149.219H152.24V142.825H158.634V149.219Z" fill="#F3F3F3"/>
<path d="M87.0273 164.661H161.792V166.718H87.0273V164.661Z" fill="#DFDFDF"/>
<path d="M87.1992 99.7434H161.966V101.8H87.1992V99.7434Z" fill="#DFDFDF"/>
<path d="M87.1992 103.773H161.964V105.828H87.1992V103.773Z" fill="#DFDFDF"/>
<path d="M87.0957 108.226L109.641 108.189V110.247L87.0957 110.283V108.226Z" fill="#DFDFDF"/>
<path d="M87.0273 160.632H161.794V162.689H87.0273V160.632Z" fill="#DFDFDF"/>
<path d="M86.9238 169.115L109.471 169.078V171.135L86.9238 171.172V169.115Z" fill="#DFDFDF"/>
<path d="M152.158 74.8483C151.984 74.8483 151.844 74.7064 151.844 74.5344V69.9639C151.844 69.7907 151.984 69.65 152.158 69.65C152.331 69.65 152.472 69.7907 152.472 69.9639V74.5344C152.472 74.7064 152.331 74.8483 152.158 74.8483Z" fill="#2C2C2C"/>
<path d="M154.367 71.2798L157.126 71.271L155.848 73.226L154.367 71.2798Z" fill="white"/>
<path d="M155 71.5913L155.83 72.6824L156.546 71.5863L155 71.5913ZM155.854 73.54L155.599 73.417L154.119 71.4695L154.086 71.1406C154.139 71.0338 154.248 70.966 154.367 70.966L157.127 70.9572C157.243 70.9572 157.348 71.02 157.403 71.1217L157.389 71.4432L156.111 73.3982L155.854 73.54Z" fill="#2C2C2C"/>
<path d="M154.146 84.4775C154.142 84.4499 154.082 83.7995 154.471 83.3462C154.691 83.0913 155.002 82.952 155.397 82.9306C155.775 82.9155 156.084 83.0148 156.313 83.242C156.742 83.6652 156.72 84.3583 156.719 84.3871L156.364 84.3733C156.364 84.3733 156.379 83.8045 156.062 83.4931C155.905 83.34 155.696 83.2722 155.417 83.286C155.121 83.3023 154.894 83.4002 154.743 83.5785C154.45 83.9175 154.499 84.4411 154.499 84.4411L154.146 84.4775Z" fill="#2C2C2C"/>
<path d="M153.924 84.7137L153.805 84.833L153.423 87.1785L153.545 87.2702L157.467 87.2262L157.589 87.1069L157.234 84.8606L157.111 84.7137H153.924ZM153.547 87.6255C153.283 87.6255 153.07 87.412 153.07 87.1496L153.451 84.8041C153.448 84.5718 153.662 84.3584 153.924 84.3584H157.111C157.373 84.3584 157.587 84.5718 157.587 84.833L157.942 87.0793C157.945 87.3681 157.731 87.5815 157.47 87.5815L153.547 87.6255Z" fill="#2C2C2C"/>
<path d="M86.4492 57.2597H119.854V95.2194H86.4492V57.2597Z" fill="#F3F3F3"/>
<path d="M99.3745 64.6915L100.692 63.294C100.692 63.294 101.702 63.9419 102.849 63.893C103.444 63.8679 104.735 63.5339 104.735 63.5339L105.66 64.8385C105.66 64.8385 108.479 65.1235 109.9 66.2611C111.32 67.3961 116.416 80.9003 116.416 80.9003L115.839 82.4007L116.648 84.4449L115.165 85.5913L113.818 83.6149L112.11 83.0537L108.102 73.7395L109.426 86.5192H96.4564L96.7401 73.7395L93.9062 82.3593L92.3505 83.3236L91.4201 85.2171L89.4576 84.642L89.8807 82.7486L89.1035 81.0259C89.1035 81.0259 92.3869 68.9104 93.6162 67.5845C94.8467 66.2611 99.3745 64.6915 99.3745 64.6915Z" fill="#FCCA19"/>
<path d="M112.898 91.4538C112.898 89.6633 114.354 88.2131 116.149 88.2131C117.944 88.2131 119.399 89.6633 119.399 91.4538C119.399 93.2443 117.944 94.6946 116.149 94.6946C114.354 94.6946 112.898 93.2443 112.898 91.4538Z" fill="#FCCA19"/>
<path d="M115.176 89.986C115.05 89.986 114.924 90.0287 114.793 90.1141C114.476 90.3225 114.319 90.5686 114.313 90.8675C114.297 91.8117 115.739 92.9694 116.142 93.2757C116.747 92.8061 118.004 91.6497 117.985 90.7997C117.978 90.5247 117.838 90.2999 117.558 90.1141C117.381 89.9948 117.209 89.9584 117.031 89.9961C116.613 90.089 116.308 90.5862 116.308 90.5862L116.155 90.6716L116.001 90.5824C116.001 90.5824 115.718 90.0978 115.313 90.0023L115.176 89.986ZM116.143 93.6763L116.042 93.6436C115.955 93.5821 113.936 92.1419 113.957 90.8612C113.965 90.4418 114.179 90.0902 114.598 89.8165C114.857 89.6445 115.127 89.593 115.397 89.6558C115.741 89.7387 116.005 89.9986 116.158 90.1882C116.319 89.9961 116.595 89.7299 116.952 89.6495C117.226 89.588 117.497 89.6457 117.757 89.8165C118.135 90.0701 118.332 90.3966 118.341 90.7921C118.371 92.064 116.335 93.5783 116.249 93.6411L116.143 93.6763Z" fill="#2C2C2C"/>
<path d="M228.945 58.4212C228.945 52.2687 233.946 47.2814 240.114 47.2814C246.283 47.2814 251.283 52.2687 251.283 58.4212C251.283 64.5712 246.283 69.5585 240.114 69.5585C233.946 69.5585 228.945 64.5712 228.945 58.4212Z" fill="white"/>
<path d="M240.113 47.5951C234.128 47.5951 229.259 52.4519 229.259 58.4211C229.259 64.3877 234.128 69.2444 240.113 69.2444C246.099 69.2444 250.968 64.3877 250.968 58.4211C250.968 52.4519 246.099 47.5951 240.113 47.5951ZM240.113 69.8723C233.783 69.8723 228.631 64.7355 228.631 58.4211C228.631 52.1053 233.783 46.9673 240.113 46.9673C246.446 46.9673 251.596 52.1053 251.596 58.4211C251.596 64.7355 246.446 69.8723 240.113 69.8723Z" fill="#2C2C2C"/>
<path d="M236.771 53.2102C236.303 53.2102 235.839 53.3647 235.364 53.6761C234.221 54.4257 233.657 55.3172 233.64 56.4008C233.582 59.8085 238.843 63.9533 240.09 64.8875C241.338 63.9156 246.669 59.5649 246.587 56.1672C246.565 55.164 246.061 54.3478 245.051 53.6748C244.401 53.2416 243.764 53.1023 243.108 53.2504C241.591 53.5919 240.529 55.3347 240.518 55.3523C240.437 55.4867 240.289 55.5695 240.134 55.5683C239.975 55.567 239.83 55.4817 239.752 55.3448C239.741 55.3285 238.739 53.6171 237.282 53.2718C237.11 53.2316 236.939 53.2102 236.771 53.2102ZM240.095 65.8882L239.839 65.8053C239.546 65.5994 232.675 60.6975 232.751 56.3857C232.773 55.0045 233.488 53.8431 234.875 52.9328C235.726 52.3715 236.607 52.1944 237.492 52.4066C238.731 52.703 239.659 53.7024 240.144 54.3416C240.652 53.6937 241.628 52.6716 242.912 52.3828C243.806 52.1857 244.693 52.3665 245.544 52.934C246.797 53.769 247.448 54.8501 247.478 56.1471C247.578 60.4351 240.653 65.5843 240.358 65.8003L240.095 65.8882Z" fill="#2C2C2C"/>
<path d="M143.729 88.601H130.891C129.289 88.601 127.988 87.3002 127.988 85.6968V84.8555C127.988 83.2521 129.289 81.9525 130.891 81.9525H143.729C145.332 81.9525 146.633 83.2521 146.633 84.8555V85.6968C146.633 87.3002 145.332 88.601 143.729 88.601Z" fill="#FCCA19"/>
<path d="M152.158 135.464C151.984 135.464 151.844 135.324 151.844 135.151V130.581C151.844 130.409 151.984 130.267 152.158 130.267C152.331 130.267 152.472 130.409 152.472 130.581V135.151C152.472 135.324 152.331 135.464 152.158 135.464Z" fill="#2C2C2C"/>
<path d="M154.367 131.896L157.126 131.887L155.848 133.843L154.367 131.896Z" fill="white"/>
<path d="M155 132.207L155.83 133.299L156.546 132.202L155 132.207ZM155.854 134.157L155.599 134.033L154.119 132.086L154.086 131.758C154.139 131.651 154.248 131.582 154.367 131.582L157.127 131.573C157.243 131.573 157.348 131.636 157.403 131.738L157.389 132.059L156.111 134.016L155.854 134.157Z" fill="#2C2C2C"/>
<path d="M154.146 145.095C154.142 145.066 154.082 144.417 154.471 143.962C154.691 143.708 155.002 143.568 155.397 143.547C155.776 143.528 156.084 143.632 156.313 143.858C156.742 144.281 156.72 144.974 156.719 145.004L156.364 144.991C156.364 144.991 156.379 144.422 156.062 144.11C155.905 143.957 155.696 143.891 155.417 143.903C155.121 143.919 154.894 144.016 154.743 144.195C154.45 144.535 154.499 145.058 154.499 145.058L154.146 145.095Z" fill="#2C2C2C"/>
<path d="M153.924 145.33L153.805 145.449L153.423 147.794L153.545 147.886L157.467 147.843L157.589 147.724L157.234 145.477L157.111 145.33H153.924ZM153.547 148.243C153.283 148.243 153.07 148.029 153.07 147.767L153.451 145.422C153.448 145.188 153.662 144.975 153.924 144.975H157.111C157.373 144.975 157.587 145.188 157.587 145.449L157.942 147.695C157.945 147.987 157.731 148.199 157.47 148.199L153.547 148.243Z" fill="#2C2C2C"/>
<path d="M86.4492 117.877H119.854V155.836H86.4492V117.877Z" fill="#F3F3F3"/>
<path d="M112.898 152.07C112.898 150.28 114.354 148.829 116.149 148.829C117.944 148.829 119.399 150.28 119.399 152.07C119.399 153.86 117.944 155.312 116.149 155.312C114.354 155.312 112.898 153.86 112.898 152.07Z" fill="#FCCA19"/>
<path d="M115.176 150.603C115.05 150.603 114.923 150.646 114.793 150.73C114.476 150.939 114.319 151.184 114.313 151.485C114.297 152.429 115.739 153.585 116.142 153.893C116.747 153.423 118.004 152.267 117.985 151.416C117.978 151.141 117.838 150.917 117.558 150.73C117.383 150.611 117.209 150.577 117.031 150.613C116.681 150.692 116.391 151.067 116.308 151.203L116.153 151.289L116.001 151.2C116.001 151.2 115.716 150.715 115.313 150.619L115.176 150.603ZM116.143 154.292L116.042 154.261C115.955 154.199 113.936 152.758 113.957 151.479C113.965 151.059 114.179 150.708 114.598 150.434C114.857 150.263 115.125 150.204 115.397 150.274C115.741 150.356 116.005 150.616 116.158 150.807C116.319 150.613 116.595 150.346 116.952 150.267C117.226 150.206 117.497 150.26 117.757 150.434C118.135 150.686 118.332 151.014 118.341 151.408C118.371 152.681 116.335 154.194 116.249 154.258L116.143 154.292Z" fill="#2C2C2C"/>
<path d="M143.729 149.219H130.891C129.289 149.219 127.988 147.919 127.988 146.314V145.473C127.988 143.869 129.289 142.569 130.891 142.569H143.729C145.332 142.569 146.633 143.869 146.633 145.473V146.314C146.633 147.919 145.332 149.219 143.729 149.219Z" fill="#FCCA19"/>
<path d="M97.748 121.934H108.087L109.64 128.042L112.193 149.219L107.488 149.666L103.15 131.887L100.479 149.666L95.3887 148.829L96.4961 128.404L97.748 121.934Z" fill="#2C2C2C"/>
<path d="M108.088 121.934H97.7492L97.7441 120.857H108.088V121.934Z" fill="#FCCA19"/>
<path d="M235.194 81.8171H261.609C262.204 81.8171 262.685 82.7161 262.685 83.8236V108.608C262.685 109.716 262.204 110.615 261.609 110.615H235.194C234.599 110.615 234.117 109.716 234.117 108.608V83.8236C234.117 82.7161 234.599 81.8171 235.194 81.8171Z" fill="white"/>
<path d="M235.194 82.1309C234.834 82.1309 234.431 82.8542 234.431 83.8235V108.608C234.431 109.577 234.834 110.301 235.194 110.301H261.608C261.969 110.301 262.37 109.577 262.37 108.608V83.8235C262.37 82.8542 261.969 82.1309 261.608 82.1309H235.194ZM261.608 110.928H235.194C234.414 110.928 233.803 109.909 233.803 108.608V83.8235C233.803 82.5227 234.414 81.5031 235.194 81.5031H261.608C262.388 81.5031 262.998 82.5227 262.998 83.8235V108.608C262.998 109.909 262.388 110.928 261.608 110.928Z" fill="#2C2C2C"/>
<path d="M217.894 119.988H239.242C239.721 119.988 240.112 120.715 240.112 121.61V141.639C240.112 142.535 239.721 143.262 239.242 143.262H217.894C217.413 143.262 217.023 142.535 217.023 141.639V121.61C217.023 120.715 217.413 119.988 217.894 119.988Z" fill="white"/>
<path d="M217.893 120.302C217.666 120.302 217.337 120.811 217.337 121.61V141.639C217.337 142.438 217.666 142.948 217.893 142.948H239.241C239.468 142.948 239.797 142.438 239.797 141.639V121.61C239.797 120.811 239.468 120.302 239.241 120.302H217.893ZM239.241 143.576H217.893C217.218 143.576 216.709 142.743 216.709 141.639V121.61C216.709 120.506 217.218 119.674 217.893 119.674H239.241C239.917 119.674 240.425 120.506 240.425 121.61V141.639C240.425 142.743 239.917 143.576 239.241 143.576Z" fill="#2C2C2C"/>
<path d="M65.2319 164.882H85.0103C85.4548 164.882 85.8164 165.555 85.8164 166.384V184.942C85.8164 185.771 85.4548 186.444 85.0103 186.444H65.2319C64.7861 186.444 64.4258 185.771 64.4258 184.942V166.384C64.4258 165.555 64.7861 164.882 65.2319 164.882Z" fill="white"/>
<path d="M65.2313 165.196C65.0355 165.196 64.7391 165.67 64.7391 166.384V184.942C64.7391 185.657 65.0355 186.13 65.2313 186.13H85.0098C85.2056 186.13 85.502 185.657 85.502 184.942V166.384C85.502 165.67 85.2056 165.196 85.0098 165.196H65.2313ZM85.0098 186.758H65.2313C64.5922 186.758 64.1113 185.977 64.1113 184.942V166.384C64.1113 165.349 64.5922 164.569 65.2313 164.569H85.0098C85.6489 164.569 86.1298 165.349 86.1298 166.384V184.942C86.1298 185.977 85.6489 186.758 85.0098 186.758Z" fill="#2C2C2C"/>
<path d="M256.163 105.596H242.115V91.5466H256.163V105.596Z" fill="#FCCA19"/>
<path d="M250.028 105.596H247.768V91.5466H250.028V105.596Z" fill="#2C2C2C"/>
<path d="M245.007 87.6957L244.931 87.7008C244.581 87.7472 244.368 88.2432 244.251 88.6525C244.041 89.3808 244.1 89.9069 244.432 90.2584C245.156 91.0244 247.038 90.9277 248.188 90.7557C247.235 89.3268 245.824 87.6957 245.007 87.6957ZM246.67 91.7413C245.62 91.7413 244.469 91.5505 243.805 90.8498C243.255 90.266 243.126 89.4461 243.423 88.4127C243.697 87.4609 244.165 86.9336 244.817 86.8469C246.584 86.6197 248.834 90.1304 249.265 90.8386L249.576 91.3496L248.991 91.4827C248.792 91.5279 247.787 91.7413 246.67 91.7413Z" fill="#2C2C2C"/>
<path d="M249.284 90.7544C250.435 90.9264 252.319 91.0231 253.041 90.2572C253.372 89.9056 253.431 89.3808 253.222 88.6525C253.103 88.2432 252.891 87.7472 252.541 87.7008C251.736 87.589 250.267 89.2816 249.284 90.7544ZM250.802 91.7413C249.686 91.7413 248.68 91.5279 248.482 91.4827L247.896 91.3496L248.208 90.8386C248.64 90.1304 250.901 86.6197 252.655 86.8469C253.307 86.9336 253.775 87.4609 254.049 88.4127C254.347 89.4461 254.217 90.266 253.667 90.8498C253.003 91.5505 251.853 91.7413 250.802 91.7413Z" fill="#2C2C2C"/>
<path d="M24.4238 177.81C24.4238 172.352 28.8486 167.927 34.3068 167.927C39.7649 167.927 44.191 172.352 44.191 177.81C44.191 183.268 39.7649 187.694 34.3068 187.694C28.8486 187.694 24.4238 183.268 24.4238 177.81Z" fill="white"/>
<path d="M34.3062 168.241C29.0301 168.241 24.7372 172.534 24.7372 177.81C24.7372 183.087 29.0301 187.38 34.3062 187.38C39.5836 187.38 43.8765 183.087 43.8765 177.81C43.8765 172.534 39.5836 168.241 34.3062 168.241ZM34.3062 188.008C28.6836 188.008 24.1094 183.433 24.1094 177.81C24.1094 172.189 28.6836 167.613 34.3062 167.613C39.9289 167.613 44.5043 172.189 44.5043 177.81C44.5043 183.433 39.9289 188.008 34.3062 188.008Z" fill="#2C2C2C"/>
<path d="M39.4308 177.007H35.0224V172.534C35.0224 172.14 34.7034 171.821 34.3092 171.821C33.9161 171.821 33.596 172.14 33.596 172.534V177.007H29.234C28.8397 177.007 28.5195 177.325 28.5195 177.72C28.5195 178.115 28.8397 178.434 29.234 178.434H33.596V182.957C33.596 183.351 33.9161 183.669 34.3092 183.669C34.7034 183.669 35.0224 183.351 35.0224 182.957V178.434H39.4308C39.8251 178.434 40.144 178.115 40.144 177.72C40.144 177.325 39.8251 177.007 39.4308 177.007Z" fill="#2C2C2C"/>
<path d="M222.332 135.989H231.446C232.083 135.989 232.659 135.587 232.88 134.989L234.799 129.782C234.843 129.601 234.794 129.365 234.649 129.18C234.506 128.997 234.289 128.891 234.057 128.891H229.6L229.51 125.387C229.496 124.88 229.227 124.424 228.789 124.168L228.568 124.038C228.454 123.971 228.354 124.017 228.316 124.038C228.279 124.061 228.192 124.127 228.194 124.258L228.231 126.609L225.544 130.171L222.332 130.271V135.989ZM231.446 136.88H221.441V129.409L225.09 129.296L227.335 126.317L227.304 124.273C227.298 123.856 227.509 123.481 227.868 123.271C228.229 123.059 228.66 123.061 229.019 123.271L229.24 123.399C229.944 123.814 230.378 124.548 230.4 125.366L230.468 128.001H234.057C234.566 128.001 235.038 128.231 235.351 128.634C235.665 129.037 235.773 129.551 235.647 130.044L233.714 135.296C233.366 136.243 232.454 136.88 231.446 136.88Z" fill="#2C2C2C"/>
<path d="M75.1213 167.832L77.4844 172.621L82.768 173.389L78.9446 177.117L79.8474 182.379L75.1213 179.894L70.3952 182.379L71.298 177.117L67.4746 173.389L72.7582 172.621L75.1213 167.832Z" fill="#FCCA19"/>
<path d="M220.593 163.269C220.553 163.269 220.513 163.264 220.472 163.253C220.092 163.153 219.907 162.591 220.063 162C220.202 161.469 220.567 161.094 220.916 161.094C220.957 161.094 220.997 161.099 221.036 161.11C221.418 161.211 221.602 161.771 221.447 162.363C221.306 162.893 220.943 163.269 220.593 163.269Z" fill="#565656"/>
<path d="M170.19 21.7873H80.248V19.1166H170.19V21.7873Z" fill="#2C2C2C"/>
<path d="M257.041 62.9226L256.643 62.7255C256.146 62.4794 255.862 62.3526 255.862 62.3526L255.455 62.1718L255.817 61.3581L256.222 61.5389C256.222 61.5389 256.515 61.6695 257.037 61.9282L257.436 62.1266L257.041 62.9226Z" fill="#2C2C2C"/>
<path d="M261.608 65.5918L261.233 65.352C260.706 65.013 260.202 64.7029 259.73 64.4229L259.349 64.1943L259.803 63.4309L260.186 63.6569C260.666 63.9432 261.177 64.2584 261.714 64.6037L262.088 64.8448L261.608 65.5918ZM265.902 68.7045L265.551 68.4283C265.077 68.0541 264.607 67.6963 264.145 67.3572L263.787 67.0936L264.315 66.3766L264.672 66.6403C265.141 66.9856 265.618 67.3484 266.103 67.7302L266.452 68.0039L265.902 68.7045ZM269.842 72.2366L269.525 71.9252C269.1 71.5071 268.672 71.1027 268.243 70.7135L267.913 70.4134L268.513 69.7555L268.842 70.0556C269.279 70.4536 269.715 70.8654 270.148 71.2911L270.466 71.6037L269.842 72.2366ZM273.345 76.1943L273.068 75.8452C272.698 75.3819 272.323 74.9299 271.941 74.4904L271.65 74.1551L272.322 73.5713L272.614 73.9065C273.002 74.356 273.388 74.8181 273.764 75.2915L274.041 75.6393L273.345 76.1943ZM276.272 80.5814L276.047 80.1972C275.75 79.6874 275.442 79.1889 275.124 78.7005L274.881 78.3276L275.626 77.8416L275.869 78.2145C276.194 78.7155 276.509 79.2266 276.814 79.7489L277.039 80.1319L276.272 80.5814ZM278.474 85.3603L278.317 84.9446C278.108 84.3922 277.884 83.8522 277.647 83.3224L277.466 82.9156L278.277 82.5527L278.459 82.9583C278.703 83.5045 278.934 84.0607 279.148 84.6282L279.307 85.0451L278.474 85.3603ZM279.826 90.4354L279.744 89.9985C279.636 89.4184 279.51 88.8483 279.368 88.2883L279.261 87.8564L280.123 87.6392L280.232 88.0699C280.378 88.65 280.507 89.2363 280.62 89.834L280.7 90.2722L279.826 90.4354ZM280.3 95.6827C280.3 95.6827 280.24 94.2776 280.211 93.7879L280.159 93.0295L281.047 92.968L281.189 95.6475L280.3 95.6827ZM281.165 101.022L280.276 100.989C280.276 100.989 280.329 99.3754 280.335 98.7765L280.34 98.332L281.23 98.3408L281.225 98.7865C281.219 99.3917 281.204 99.9882 281.183 100.578L281.165 101.022ZM280.675 106.377L279.793 106.259L279.852 105.818C279.929 105.244 279.996 104.66 280.055 104.066L280.099 103.623L280.985 103.71L280.94 104.152C280.882 104.758 280.812 105.351 280.734 105.935L280.675 106.377ZM279.621 111.654L278.758 111.437L278.866 111.005C279.007 110.446 279.14 109.875 279.263 109.29L279.353 108.854L280.225 109.037L280.133 109.474C280.007 110.068 279.873 110.652 279.73 111.223L279.621 111.654ZM277.895 116.764L277.069 116.43L277.237 116.019C277.455 115.484 277.662 114.935 277.859 114.374L278.007 113.953L278.846 114.248L278.698 114.668C278.496 115.244 278.283 115.805 278.061 116.351L277.895 116.764ZM275.404 121.558L274.646 121.094L274.877 120.715C275.178 120.224 275.468 119.718 275.749 119.194L275.96 118.801L276.744 119.222L276.534 119.613C276.245 120.152 275.945 120.673 275.638 121.178L275.404 121.558ZM272.118 125.855L271.455 125.262L271.75 124.93C272.136 124.5 272.511 124.053 272.877 123.59L273.152 123.241L273.851 123.792L273.575 124.141C273.197 124.62 272.81 125.079 272.415 125.524L272.118 125.855ZM268.103 129.484L267.557 128.782L267.909 128.508C268.366 128.154 268.819 127.782 269.262 127.394L269.596 127.102L270.182 127.771L269.847 128.064C269.39 128.464 268.925 128.845 268.453 129.211L268.103 129.484ZM263.501 132.332L263.087 131.544L263.48 131.337C263.994 131.066 264.505 130.78 265.011 130.478L265.393 130.25L265.85 131.013L265.467 131.242C264.949 131.553 264.424 131.846 263.894 132.124L263.501 132.332ZM258.501 134.39L258.216 133.548L258.637 133.404C259.187 133.218 259.738 133.016 260.287 132.799L260.701 132.634L261.029 133.462L260.616 133.625C260.052 133.85 259.487 134.057 258.923 134.248L258.501 134.39ZM253.263 135.705L253.096 134.831L253.533 134.749C254.1 134.639 254.675 134.515 255.254 134.377L255.687 134.274L255.893 135.139L255.46 135.242C254.87 135.383 254.282 135.51 253.7 135.621L253.263 135.705Z" fill="#2C2C2C"/>
<path d="M248.735 136.283L248.656 135.398L250.417 135.226L250.512 136.112L248.735 136.283Z" fill="#2C2C2C"/>
<path d="M226.063 66.7321L225.87 65.8632L226.304 65.7665C227.441 65.5129 228.121 65.4865 228.149 65.4852L228.593 65.4714L228.624 66.3591L228.18 66.3755C228.18 66.3755 227.545 66.4006 226.498 66.6341L226.063 66.7321ZM221.225 68.6682L220.815 67.8797L221.208 67.6738C221.779 67.3762 222.327 67.1188 222.846 66.8965L223.256 66.722L223.605 67.5394L223.197 67.7152C222.697 67.9287 222.17 68.176 221.62 68.4636L221.225 68.6682ZM216.924 71.6566L216.357 70.9698L216.7 70.686C217.181 70.2892 217.661 69.9213 218.132 69.5811L218.493 69.3224L219.012 70.0444L218.651 70.3043C218.196 70.632 217.734 70.9873 217.267 71.3728L216.924 71.6566ZM213.226 75.3933L212.554 74.8094L212.846 74.4742C213.25 74.0083 213.654 73.5626 214.057 73.142L214.365 72.8205L215.008 73.4358L214.7 73.7572C214.306 74.1678 213.913 74.601 213.517 75.058L213.226 75.3933ZM210.142 79.6611L209.393 79.1827L209.631 78.8086C209.963 78.29 210.298 77.7915 210.636 77.3144L210.892 76.9502L211.619 77.4638L211.361 77.8279C211.034 78.295 210.706 78.7797 210.382 79.287L210.142 79.6611Z" fill="#2C2C2C"/>
<path d="M8.2293 121.266L7.52866 120.718L7.80366 120.367C8.22681 119.828 8.6173 119.364 8.95882 118.977L9.25265 118.643L9.91936 119.232L9.62556 119.566C9.29408 119.942 8.91361 120.392 8.50302 120.917L8.2293 121.266ZM5.3665 125.692L4.59179 125.255L4.80901 124.867C5.11664 124.322 5.42553 123.806 5.73064 123.319L5.96794 122.942L6.72131 123.415L6.48401 123.792C6.18518 124.267 5.88381 124.77 5.58497 125.304L5.3665 125.692ZM3.18174 130.49L2.35051 130.169L2.50997 129.755C2.73096 129.18 2.96073 128.626 3.19679 128.09L3.37637 127.683L4.19126 128.041L4.01168 128.448C3.78065 128.972 3.55591 129.514 3.3412 130.074L3.18174 130.49ZM1.71142 135.55L0.843769 135.354L0.941711 134.919C1.07732 134.323 1.22422 133.742 1.38118 133.174L1.49923 132.746L2.35679 132.982L2.23877 133.411C2.08559 133.965 1.9412 134.534 1.80936 135.117L1.71142 135.55ZM0.980642 140.768L0.0941711 140.698L0.129332 140.253C0.178301 139.646 0.24108 139.048 0.316417 138.464L0.372914 138.022L1.25561 138.135L1.19912 138.576C1.12504 139.148 1.06477 139.731 1.0158 140.325L0.980642 140.768ZM0.0854039 146.092L0.0615239 145.647C0.0288779 145.038 0.0100486 144.439 0.00377052 143.849L0 143.405L0.890242 143.396L0.894012 143.842C0.90029 144.418 0.917863 145.004 0.950509 145.598L0.974358 146.044L0.0854039 146.092ZM0.846283 151.439L0.754626 151.002C0.632831 150.419 0.523613 149.827 0.430698 149.231L0.361633 148.79L1.24182 148.655L1.30963 149.093C1.40129 149.675 1.50673 150.251 1.62601 150.821L1.7177 151.256L0.846283 151.439ZM2.41077 156.608L2.25634 156.191C2.04916 155.631 1.85455 155.063 1.67123 154.486L1.53687 154.061L2.38567 153.795L2.52003 154.218C2.69832 154.782 2.88918 155.337 3.09134 155.882L3.24452 156.299L2.41077 156.608ZM4.6684 161.504L4.4612 161.112C4.18497 160.587 3.91628 160.051 3.65511 159.503L3.46425 159.103L4.26658 158.718L4.45869 159.121C4.71358 159.655 4.97726 160.181 5.24848 160.697L5.45564 161.09L4.6684 161.504ZM7.5023 166.09L7.25118 165.724C6.91718 165.236 6.58697 164.737 6.26302 164.223L6.02569 163.847L6.77655 163.37L7.01513 163.747C7.33406 164.252 7.65801 164.743 7.98572 165.221L8.23685 165.589L7.5023 166.09ZM10.8083 170.343L10.5208 170.005C10.1441 169.559 9.76366 169.095 9.38321 168.612L9.10698 168.265L9.80385 167.711L10.0801 168.061C10.4555 168.536 10.8297 168.991 11.2001 169.429L11.4876 169.768L10.8083 170.343ZM14.5149 174.253L14.1972 173.942C13.7917 173.55 13.3685 173.124 12.9291 172.671L12.6202 172.35L13.2593 171.733L13.5694 172.053C14.0014 172.498 14.4182 172.917 14.8175 173.306L15.1364 173.616L14.5149 174.253ZM18.6371 177.764L18.278 177.501C18.278 177.501 17.7431 177.112 16.8579 176.362L16.5176 176.076L17.0914 175.397L17.4317 175.683C18.2818 176.4 18.8028 176.783 18.8028 176.783L19.162 177.045L18.6371 177.764Z" fill="#2C2C2C"/>
<path d="M229.389 104.909H228.499V104.761L228.362 104.721L227.934 104.6L228.172 103.743L228.6 103.862C229.135 104.01 229.389 104.139 229.389 104.463V104.909ZM223.037 105.571L222.698 104.748L223.11 104.579C223.707 104.331 224.294 104.134 224.852 103.99L225.282 103.879L225.504 104.741L225.072 104.851C224.555 104.984 224.01 105.17 223.447 105.401L223.037 105.571ZM218.579 108.288L218.053 107.571L218.412 107.308C218.928 106.929 219.423 106.589 219.9 106.284L220.276 106.044L220.755 106.794L220.381 107.034C219.919 107.33 219.438 107.658 218.94 108.024L218.579 108.288ZM214.885 111.92L214.172 111.388L214.438 111.031C214.8 110.547 215.2 110.077 215.632 109.636L215.943 109.319L216.579 109.94L216.268 110.259C215.865 110.671 215.488 111.109 215.152 111.564L214.885 111.92ZM212.893 116.646L212.027 116.438L212.132 116.005C212.276 115.405 212.458 114.816 212.673 114.252L212.831 113.836L213.662 114.153L213.504 114.568C213.303 115.097 213.132 115.651 212.997 116.213L212.893 116.646ZM211.773 121.889L211.737 121.445C211.702 120.966 211.68 120.465 211.68 119.949L211.687 119.187L212.578 119.193L212.57 119.949C212.57 120.442 212.59 120.919 212.625 121.379L212.659 121.822L211.773 121.889ZM213.014 127.205L212.852 126.791C212.841 126.763 212.589 126.111 212.319 125.03L212.211 124.6L213.075 124.384L213.183 124.814C213.438 125.835 213.681 126.467 213.681 126.467L213.843 126.881L213.014 127.205Z" fill="#2C2C2C"/>
<path d="M191.502 173.415L192.38 179.038C192.38 179.038 194.199 178.512 195.63 176.734C196.665 175.448 209.654 172.596 209.654 172.596L205.908 170.43C205.908 170.43 200.929 169.961 198.822 170.487C196.713 171.015 194.547 172.44 194.547 172.44L191.502 173.415Z" fill="#FEB3A2"/>
<path d="M181.454 147.953C181.454 147.953 174.096 149.441 169.874 151.681C163.097 155.277 151.004 179.53 153.108 184.445C158.719 197.557 192.631 179.495 192.631 179.495L191.721 173.215L194.779 172.554L198.747 170.487C198.747 170.487 196.761 159.413 194.779 157.099C192.796 154.785 190.175 152.347 188.821 151.472C188.621 151.226 189.196 153.323 187.528 153.257C185.86 153.19 183.555 152.926 182.203 151.451C180.274 149.35 181.454 147.953 181.454 147.953Z" fill="#2C2C2C"/>
<path d="M165.21 181.852L165.02 181.787C164.9 181.697 164.861 181.535 164.928 181.401L165.998 179.197L164.558 179.431C164.423 179.449 164.284 179.383 164.224 179.258C164.165 179.131 164.193 178.982 164.298 178.888L166.715 176.71C166.715 176.71 169.917 172.496 172.483 168.112C174.705 164.311 177.042 160.505 177.066 160.468C177.155 160.318 177.348 160.273 177.498 160.365C177.645 160.455 177.691 160.648 177.601 160.796C177.577 160.834 175.245 164.634 173.024 168.428C170.438 172.848 167.206 177.09 167.173 177.132L165.507 178.641L166.495 178.48C166.612 178.462 166.727 178.509 166.796 178.602L166.828 178.928L166.177 180.267L168.28 178.412L168.412 178.341L191.346 172.688L191.598 172.735L191.733 172.955L192.471 178.914C192.492 179.087 192.371 179.244 192.2 179.265C192.009 179.283 191.87 179.163 191.848 178.993L191.153 173.384L168.637 178.933L165.418 181.774L165.21 181.852Z" fill="#09030F"/>
<path d="M32.6616 39.7125C32.6616 41.8043 30.964 43.5006 28.8722 43.4994C26.7791 43.4994 25.084 41.8018 25.084 39.7099C25.0852 37.6168 26.7816 35.9217 28.8747 35.923C30.9665 35.9243 32.6629 37.6206 32.6616 39.7125Z" fill="#DFDFDF"/>
<path d="M221.884 30.5364C221.883 32.6295 220.187 34.3258 218.095 34.3246C216.002 34.3233 214.307 32.627 214.307 30.5351C214.308 28.4433 216.005 26.747 218.097 26.7482C220.189 26.7482 221.884 28.4446 221.884 30.5364Z" fill="#FCCA19"/>
<path d="M111.451 229.099C111.451 231.193 109.753 232.888 107.661 232.888C105.569 232.886 103.873 231.189 103.873 229.097C103.874 227.005 105.571 225.31 107.664 225.311C109.756 225.311 111.452 227.007 111.451 229.099Z" fill="#FCCA19"/>
<path d="M13.2832 72.9109C12.4394 72.9109 11.6459 73.2386 11.0494 73.8351C10.4518 74.4315 10.1228 75.225 10.1228 76.0688C10.1228 76.9138 10.4505 77.7086 11.0482 78.305C11.6446 78.9027 12.4381 79.2317 13.2832 79.2317C15.026 79.2317 16.4436 77.8154 16.4448 76.0726C16.4448 74.3298 15.026 72.9109 13.2832 72.9109ZM13.2832 80.4873C12.1042 80.4873 10.993 80.0278 10.1592 79.1928C9.32549 78.3578 8.86593 77.2491 8.86719 76.0688C8.86719 74.8898 9.32801 73.7811 10.1617 72.9473C10.9955 72.1136 12.1054 71.6553 13.2832 71.6553C15.7178 71.6553 17.7004 73.6392 17.7004 76.0726C17.6992 78.5085 15.7153 80.4873 13.2832 80.4873Z" fill="#FCCA19"/>
<path d="M206.149 55.2607C203.024 55.2594 200.479 57.8033 200.476 60.9298C200.475 64.0575 203.02 66.6014 206.147 66.6027C209.273 66.6039 211.818 64.06 211.82 60.9336C211.821 57.8058 209.276 55.2619 206.149 55.2607ZM206.147 67.8583C202.327 67.857 199.219 64.7494 199.221 60.9298C199.223 57.1115 202.332 54.0038 206.149 54.0051C209.969 54.0063 213.076 57.114 213.075 60.9336C213.074 64.7519 209.965 67.8595 206.147 67.8583Z" fill="white"/>
<path d="M182.846 32.386L180.926 30.5327C182.826 28.5664 183.873 25.9811 183.873 23.2514C183.873 20.5317 182.837 17.9602 180.956 16.0128L182.876 14.1595C185.24 16.6067 186.542 19.8349 186.542 23.2514C186.542 26.6767 185.229 29.9212 182.846 32.386Z" fill="#FCCA19"/>
<path d="M190.424 39.126L188.471 37.3041C192.041 33.482 194.006 28.4922 194.006 23.2512C194.006 17.9124 191.963 12.8447 188.254 8.98116L190.179 7.13165C194.369 11.4949 196.675 17.2193 196.675 23.2512C196.675 29.1702 194.455 34.8079 190.424 39.126Z" fill="#FCCA19"/>
<path d="M198.106 45.9768L196.141 44.17C201.403 38.4507 204.299 31.0212 204.299 23.2514C204.299 15.2281 201.236 7.62783 195.674 1.852L197.596 -3.05176e-05C203.641 6.27679 206.968 14.5337 206.968 23.2514C206.968 31.6917 203.822 39.7628 198.106 45.9768Z" fill="#FCCA19"/>
<path d="M189.115 149.89L188.936 149.834C186.806 148.356 185.33 144.672 185.268 144.515C185.204 144.354 185.283 144.171 185.445 144.108C185.61 144.044 185.787 144.121 185.852 144.284C185.867 144.322 187.321 147.949 189.294 149.319C189.436 149.417 189.472 149.612 189.373 149.756L189.115 149.89Z" fill="#09030F"/>
<path d="M245.659 144.867L245.548 144.435C245.386 143.798 245.214 143.23 245.057 142.756L244.917 142.335L245.762 142.054L245.901 142.477C246.066 142.968 246.243 143.554 246.411 144.216L246.52 144.647L245.659 144.867ZM246.265 150.057L246.259 149.611C246.253 149.04 246.22 148.456 246.161 147.875L246.117 147.432L247.002 147.343L247.046 147.786C247.108 148.394 247.142 149.004 247.149 149.603L247.154 150.046L246.265 150.057ZM246.221 155.427L245.376 155.15L245.516 154.727C245.694 154.187 245.841 153.625 245.954 153.059L246.042 152.622L246.914 152.797L246.826 153.233C246.707 153.835 246.55 154.432 246.361 155.006L246.221 155.427ZM243.332 160.088L242.668 159.498L242.963 159.165C243.346 158.735 243.699 158.279 244.015 157.808L244.262 157.439L245.001 157.933L244.753 158.303C244.417 158.807 244.038 159.296 243.628 159.757L243.332 160.088ZM238.812 163.195L238.44 162.386L238.843 162.2C239.371 161.957 239.879 161.682 240.355 161.381L240.73 161.142L241.208 161.894L240.831 162.131C240.322 162.454 239.779 162.749 239.216 163.009L238.812 163.195ZM233.494 164.454L233.403 163.57L233.845 163.524C234.427 163.463 235.005 163.373 235.56 163.261L235.996 163.171L236.174 164.042L235.738 164.131C235.157 164.252 234.549 164.345 233.938 164.408L233.494 164.454ZM230.748 164.497L230.304 164.465C229.195 164.385 228.508 164.246 228.479 164.239L228.045 164.15L228.223 163.278L228.659 163.369C228.659 163.369 229.322 163.502 230.368 163.578L230.812 163.609L230.748 164.497Z" fill="#2C2C2C"/>
<path d="M170.314 13.0256H79.6309C80.3767 9.63673 83.3977 7.28874 87.2336 7.43565L162.96 7.42685C166.951 7.42685 169.699 10.2269 170.314 13.0256Z" fill="#DFDFDF"/>
<path d="M157.641 8.99632C157.452 8.99632 157.299 9.1495 157.299 9.3391V11.1133C157.299 11.3016 157.452 11.4548 157.641 11.4548H162.588C162.776 11.4548 162.929 11.3016 162.929 11.1133V9.3391C162.929 9.1495 162.776 8.99632 162.588 8.99632H157.641ZM162.588 11.8026H157.641C157.26 11.8026 156.951 11.4925 156.951 11.1133V9.3391C156.951 8.95865 157.26 8.64977 157.641 8.64977H162.588C162.967 8.64977 163.276 8.95865 163.276 9.3391V11.1133C163.276 11.4925 162.967 11.8026 162.588 11.8026Z" fill="white"/>
<path d="M161.416 11.2188H157.887C157.662 11.2188 157.486 11.0292 157.486 10.8044V9.64923C157.486 9.42197 157.662 9.23489 157.887 9.23489H160.161L161.416 11.2188Z" fill="white"/>
<path d="M163.643 9.9782V10.3762L163.522 10.5031H163.105V9.85264H163.522L163.643 9.9782Z" fill="white"/>
<path d="M90.3967 9.72335L89.9133 10.2331C89.4701 9.81123 88.8687 9.55383 88.2069 9.55383C87.5352 9.55383 86.9237 9.82129 86.4792 10.2582L85.9883 9.75474C86.5621 9.19222 87.3443 8.84944 88.2069 8.84944C89.0545 8.84944 89.8254 9.18092 90.3967 9.72335Z" fill="white"/>
<path d="M89.6725 10.4831L89.1866 10.9992C88.9304 10.7556 88.5851 10.6074 88.2059 10.6074C87.8217 10.6074 87.4702 10.7606 87.214 11.0142L86.7168 10.5032C87.101 10.1303 87.6258 9.89799 88.2059 9.89799C88.776 9.89799 89.2921 10.1215 89.6725 10.4831Z" fill="white"/>
<path d="M88.9403 11.2603L88.2096 12.03L87.4688 11.2716C87.6609 11.0832 87.9233 10.969 88.2096 10.969C88.4933 10.969 88.7507 11.0795 88.9403 11.2603Z" fill="white"/>
<path d="M96.1777 12.03H97.1458V8.60589H96.1777V12.03Z" fill="white"/>
<path d="M94.7383 12.03H95.7064V9.36304H94.7383V12.03Z" fill="white"/>
<path d="M93.4043 12.03H94.3711V10.0047H93.4043V12.03Z" fill="white"/>
<path d="M92.0898 12.03H93.0567V11.0179H92.0898V12.03Z" fill="white"/>
<defs>
<linearGradient id="paint0_linear_6624_3485" x1="128.529" y1="135.186" x2="45.177" y2="246.372" gradientUnits="userSpaceOnUse">
<stop stop-color="#5E95F6"/>
<stop offset="1" stop-color="#4A89F4"/>
</linearGradient>
<linearGradient id="paint1_linear_6624_3485" x1="173.06" y1="55.1341" x2="75.6236" y2="127.516" gradientUnits="userSpaceOnUse">
<stop stop-color="#5E95F6"/>
<stop offset="1" stop-color="#4486F0"/>
</linearGradient>
</defs>
</svg>
