<svg width="441" height="313" viewBox="0 0 441 313" fill="none" xmlns="http://www.w3.org/2000/svg">
<path d="M372.27 126.878C372.27 126.878 387.83 128.413 396.691 128.225C405.555 128.034 409.951 128.501 412.269 123.868C414.567 119.271 409.946 116.839 402.832 116.709C395.719 116.581 372.27 126.878 372.27 126.878Z" fill="#FCCA19"/>
<path d="M369.502 128.241C369.502 128.241 371.922 117.821 371.652 110.073C371.379 102.327 368.29 89.8162 376.604 89.9541C383.729 90.0731 380.718 104.505 378.17 110.494C376.474 114.476 369.502 128.241 369.502 128.241Z" fill="#FCCA19"/>
<path d="M392.785 92.8065C394.691 86.9659 397.923 78.9276 398.916 75.3034C399.909 71.6778 402.045 63.3267 394.152 60.9936C390.318 59.8613 387.878 68.3507 388.512 75.5616C389.193 83.3356 390.881 98.6471 392.785 92.8065" fill="#FCCA19"/>
<path d="M410.555 76.5754C410.555 76.5754 417.403 72.9271 423.93 69.1802C430.457 65.4317 443.069 57.7595 440.71 51.5198C438.226 44.9452 430.319 48.8705 426.879 52.4468C423.438 56.023 410.555 76.5754 410.555 76.5754" fill="#FCCA19"/>
<path d="M392.592 96.2007C392.632 95.9447 396.579 70.4899 394.934 61.5536L394.643 61.3526L394.447 61.6479C396.078 70.4978 392.144 95.8661 392.105 96.1222L392.178 96.3436L392.31 96.4112L392.592 96.2007" fill="#2C2C2C"/>
<path d="M338.707 153.968L338.638 153.878C338.536 153.693 338.602 153.462 338.784 153.359C338.842 153.328 344.54 150.138 351.695 144.919C358.289 140.109 367.505 132.542 373.955 123.809C379.159 116.764 383.006 110.401 386.397 104.785C391.292 96.6887 395.518 89.6971 402.209 83.0081C411.106 74.1125 438.248 49.7001 438.521 49.4543C438.678 49.3156 438.918 49.3298 439.056 49.4842C439.195 49.6418 439.183 49.8814 439.026 50.0216C438.752 50.2675 411.625 74.6657 402.742 83.5471C396.117 90.1699 391.911 97.1269 387.045 105.181C383.644 110.809 379.788 117.188 374.563 124.261C368.052 133.075 358.771 140.698 352.13 145.542C344.94 150.786 339.209 153.995 339.152 154.026C339.003 154.108 338.823 154.08 338.707 153.968" fill="#2C2C2C"/>
<path d="M347.97 138.505C347.213 134.737 346.343 129.103 345.93 123.834L350.598 129.915C350.219 132.943 349.924 135.333 349.789 136.47C349.546 138.478 348.988 140.758 348.405 142.781C348.413 141.543 348.294 140.121 347.97 138.505V138.505ZM345.701 117.15L351.354 123.899C351.126 125.705 350.909 127.442 350.711 129.031L345.849 122.693C345.718 120.73 345.659 118.842 345.701 117.15V117.15ZM347.015 108.579L351.821 120.183C351.7 121.144 351.578 122.104 351.46 123.046L345.735 116.212C345.774 115.458 345.835 114.752 345.921 114.105C346.133 112.537 346.476 110.546 347.015 108.579V108.579ZM352.723 100.769C353.288 100.711 353.805 100.721 354.279 100.799L354.252 100.887C354.232 101.052 353.105 109.97 351.979 118.926L347.294 107.616C347.551 106.787 347.845 105.975 348.184 105.216C349.413 102.446 350.939 100.95 352.723 100.769V100.769ZM356.342 101.813L356.687 102.189C358.49 104.414 358.759 109.142 357.488 116.242C357.354 116.986 357.209 117.732 357.053 118.473L352.094 123.03C352.195 122.226 352.298 121.411 352.401 120.593L352.512 120.212L352.463 120.095C353.634 110.79 354.852 101.14 354.874 100.967C355.434 101.118 355.921 101.407 356.342 101.813V101.813ZM353.529 131.493C352.451 135.03 350.537 139.571 348.971 143.079C349.575 141 350.158 138.632 350.409 136.545C350.629 134.73 351.255 129.712 351.972 123.998L356.825 119.527C355.794 124.16 354.47 128.445 353.766 130.728C353.677 131.014 353.598 131.27 353.529 131.493V131.493ZM346.965 148.872C347.001 148.823 347.292 148.382 347.605 147.548C349.021 144.56 352.504 136.997 354.129 131.678C354.196 131.457 354.276 131.203 354.363 130.915C356.168 125.08 361.654 107.318 357.171 101.788C356.124 100.498 354.606 99.9417 352.661 100.141C347.824 100.634 345.974 109.048 345.3 114.02C344.379 120.826 346.243 133.093 347.355 138.63C348 141.834 347.796 144.268 347.418 145.921C347.082 146.928 346.801 147.693 346.659 148.071C346.516 148.371 346.427 148.555 346.427 148.555L346.491 148.922C346.692 149.05 346.873 149.009 346.965 148.872" fill="#6A8EC8"/>
<path d="M423.443 103.783L412.994 99.0204C418.543 97.8138 424.735 96.7547 431.127 96.1848L431.356 95.913L431.082 95.6878C419.276 96.7392 408.148 99.4536 400.486 101.698L407.014 96.3509L407.09 96.2438C411.944 93.8912 416.228 91.9702 418.098 91.5385C422.275 90.5742 427.401 89.7015 429.951 91.5308C430.099 91.6364 430.235 91.7513 430.365 91.8724C431.157 92.6178 431.601 93.6691 431.713 95.0621C431.915 97.5405 430.125 99.9506 426.393 102.221C425.514 102.757 424.52 103.282 423.443 103.783V103.783ZM420.718 104.94L409.143 99.904C410.229 99.6431 411.345 99.3838 412.49 99.1291L412.563 99.3605L412.632 99.4071L422.838 104.06C422.158 104.362 421.449 104.657 420.718 104.94V104.94ZM415.555 106.619C414.703 106.847 413.588 107.019 412.288 107.144L399.96 102.375C402.403 101.648 405.231 100.865 408.342 100.1L420.045 105.195C418.605 105.726 417.09 106.206 415.555 106.619ZM387.028 106.765C389.177 105.929 393.493 104.325 399.176 102.609L411.148 107.24C403.491 107.788 391.02 107.035 387.028 106.765V106.765ZM405.258 97.1398L399.24 102.067L399.102 102.108C394.848 103.392 391.353 104.612 388.947 105.502C392.681 103.528 399.222 100.111 405.258 97.1398V97.1398ZM432.219 95.0217C432.078 93.2731 431.415 91.9625 430.249 91.1286C427.547 89.189 422.532 90.0027 417.983 91.0525C412.408 92.3383 386.708 106.119 385.616 106.706L385.501 106.835L385.318 106.911L385.184 107.238L385.24 107.321L385.517 107.37C385.517 107.37 385.676 107.304 385.953 107.19C388.178 107.355 403.775 108.456 412.222 107.654L412.539 107.777L412.868 107.637C413.978 107.463 414.93 107.304 415.69 107.1C416.923 106.769 418.726 106.235 420.711 105.482L420.931 105.578L421.266 105.451L421.272 105.266C421.986 104.984 422.718 104.676 423.451 104.338C423.593 104.404 423.745 104.348 423.805 104.224C424.786 103.707 425.746 103.202 426.66 102.646C430.567 100.269 432.438 97.7035 432.219 95.0217Z" fill="#2C2C2C"/>
<path d="M369.513 129.463C369.538 129.39 371.888 122.035 373.944 113.565C374.68 110.529 375.287 107.743 375.763 105.211L375.969 105.116L380.571 99.1689L380.53 98.811L380.181 98.8521L375.922 104.354C377.104 97.8211 377.377 93.0603 376.736 90.1462L376.438 89.953L376.249 90.2587C376.943 93.4103 376.438 98.5971 375.434 104.175L371.459 99.4429L371.107 99.4143L371.081 99.7739L375.316 104.818C373.193 116.277 369.103 129.11 369.039 129.303L369.104 129.568L369.199 129.625L369.513 129.463" fill="#2C2C2C"/>
<path d="M412.402 121.095L412.147 120.839C406.845 120.916 397.73 122.112 389.573 123.352L394.687 118.953L394.719 118.587L394.365 118.553L388.92 123.223L388.832 123.466C380.081 124.81 372.618 126.171 372.473 126.197L372.27 126.499L372.343 126.642L372.561 126.71C372.676 126.689 377.444 125.821 383.8 124.787L390.257 128.241L390.596 128.127L390.486 127.777L384.599 124.659C386.156 124.408 387.799 124.149 389.482 123.892L397.43 128.213L397.77 128.105L397.664 127.753L390.329 123.764C398.29 122.564 407.021 121.436 412.153 121.359L412.402 121.095" fill="#2C2C2C"/>
<path d="M334.162 20.1052C225.673 -38.5292 149.779 83.3591 77.0552 82.96C2.3459 82.5515 -23.2122 146.539 37.7931 215.585C97.1858 282.803 180.798 309.149 234.346 308.599C322.874 307.69 407.581 227.111 370.858 177.409C337.717 132.553 405.815 58.8318 334.162 20.1052" fill="#F3F3F3"/>
<path d="M105.087 204.809C68.1144 252.73 164.692 284.452 231.945 259.238C293.789 236.049 340.845 180.971 349.086 165.585C370.59 125.425 367.733 96.7493 343.534 82.6106C316.883 67.0402 263.166 63.2802 229.008 101.167C201.511 131.663 203.185 153.241 188.728 163.318C158.099 184.667 120.582 184.728 105.087 204.809" fill="#FCCA19"/>
<path d="M74.9704 82.0883C41.6246 82.0883 16.686 94.9259 6.4764 117.374C-5.80791 144.385 5.29266 181.39 36.1719 216.359C94.1461 282.019 177.243 311.186 234.644 311.186C235.221 311.186 235.79 311.185 236.362 311.179C300.067 310.524 357.861 270.581 376.929 232.342C386.991 212.168 386.391 193.489 375.193 178.322C360.823 158.859 364.9 133.72 368.845 109.412C374.34 75.5278 380.024 40.4918 337.962 17.7428C269.094 -19.5052 212.533 15.3074 162.629 46.0202C132.359 64.6489 103.739 82.266 75.6835 82.0898C75.4474 82.0898 75.2065 82.0883 74.9704 82.0883V82.0883ZM234.649 312.76C176.889 312.76 93.2961 283.433 34.9913 217.401C3.69022 181.951 -7.50482 144.315 5.04237 116.723C15.592 93.5257 41.3617 80.2743 75.6929 80.5166L76.0503 80.5182C103.572 80.5182 131.86 63.1087 161.803 44.6798C212.072 13.7436 269.045 -21.3176 338.713 16.3583C381.757 39.6391 375.983 75.2368 370.398 109.662C366.326 134.756 362.482 158.458 376.459 177.389C388.031 193.061 388.682 212.307 378.34 233.045C359.059 271.706 300.688 312.091 236.378 312.752C235.806 312.758 235.225 312.76 234.649 312.76" fill="#DFDFDF"/>
<path d="M332.67 253.252H52.9726C49.7017 253.252 47.0508 250.603 47.0508 247.334V38.6717C47.0508 35.4014 49.7017 32.7522 52.9726 32.7522H332.67C335.941 32.7522 338.591 35.4014 338.591 38.6717V247.334C338.591 250.603 335.941 253.252 332.67 253.252Z" fill="white"/>
<path d="M52.8979 33.0774C49.8539 33.0774 47.3756 35.5584 47.3756 38.6073V247.399C47.3756 250.446 49.8539 252.927 52.8979 252.927H332.285C335.329 252.927 337.805 250.446 337.805 247.399V38.6073C337.805 35.5584 335.329 33.0774 332.285 33.0774H52.8979ZM332.285 253.714H52.8979C49.4201 253.714 46.5898 250.88 46.5898 247.399V38.6073C46.5898 35.1242 49.4201 32.2907 52.8979 32.2907H332.285C335.762 32.2907 338.591 35.1242 338.591 38.6073V247.399C338.591 250.88 335.762 253.714 332.285 253.714Z" fill="#2C2C2C"/>
<path d="M201.125 158.686H296.152V161.454H201.125V158.686Z" fill="#DFDFDF"/>
<path d="M201.125 163.761H296.152V166.528H201.125V163.761Z" fill="#DFDFDF"/>
<path d="M201.125 169.344L229.725 169.296V172.016L201.125 172.064V169.344Z" fill="#DFDFDF"/>
<path d="M8.12716 111.173H49.0754C49.9962 111.173 50.7435 112.325 50.7435 113.743V145.504C50.7435 146.923 49.9962 148.076 49.0754 148.076H8.12716C7.20476 148.076 6.45898 146.923 6.45898 145.504V113.743C6.45898 112.325 7.20476 111.173 8.12716 111.173Z" fill="white"/>
<path d="M8.0646 111.498C7.37192 111.498 6.78682 112.484 6.78682 113.652V145.134C6.78682 146.302 7.37192 147.29 8.0646 147.29H49.1347C49.8274 147.29 50.4125 146.302 50.4125 145.134V113.652C50.4125 112.484 49.8274 111.498 49.1347 111.498H8.0646ZM49.1347 148.076H8.0646C6.90382 148.076 5.99609 146.784 5.99609 145.134V113.652C5.99609 112.003 6.90382 110.711 8.0646 110.711H49.1347C50.2939 110.711 51.2032 112.003 51.2032 113.652V145.134C51.2032 146.784 50.2939 148.076 49.1347 148.076Z" fill="#2C2C2C"/>
<path d="M273.084 107.944H363.508C365.542 107.944 367.194 109.671 367.194 111.8V159.443C367.194 161.572 365.542 163.299 363.508 163.299H273.084C271.048 163.299 269.398 161.572 269.398 159.443V111.8C269.398 109.671 271.048 107.944 273.084 107.944Z" fill="white"/>
<path d="M273.464 108.273C271.653 108.273 270.183 109.83 270.183 111.743V159.5C270.183 161.413 271.653 162.97 273.464 162.97H363.589C365.4 162.97 366.87 161.413 366.87 159.5V111.743C366.87 109.83 365.4 108.273 363.589 108.273H273.464ZM363.589 163.761H273.464C271.222 163.761 269.398 161.849 269.398 159.5V111.743C269.398 109.394 271.222 107.482 273.464 107.482H363.589C365.831 107.482 367.655 109.394 367.655 111.743V159.5C367.655 161.849 365.831 163.761 363.589 163.761Z" fill="#282728"/>
<path d="M351.243 153.151H324.563C322.632 153.151 321.064 151.586 321.064 149.653V122.974C321.064 121.042 322.632 119.476 324.563 119.476H351.243C353.174 119.476 354.739 121.042 354.739 122.974V149.653C354.739 151.586 353.174 153.151 351.243 153.151Z" fill="#F3F3F3"/>
<path d="M331.237 131.008C331.221 130.862 330.893 127.37 332.986 124.937C334.16 123.576 335.832 122.83 337.96 122.718C339.989 122.611 341.642 123.169 342.87 124.374C345.172 126.64 345.051 130.363 345.045 130.521L343.462 130.46C343.463 130.428 343.557 127.261 341.75 125.49C340.856 124.614 339.589 124.213 338.044 124.293C336.368 124.38 335.075 124.94 334.194 125.957C332.541 127.869 332.809 130.822 332.812 130.851L331.237 131.008Z" fill="#2C2C2C"/>
<path d="M329.697 132.12C329.234 132.12 328.857 132.499 328.857 132.964L326.773 145.787C326.784 146.124 327.161 146.503 327.625 146.503L349.095 146.267C349.568 146.267 349.945 145.888 349.945 145.425L347.99 133.086C347.981 132.499 347.604 132.12 347.14 132.12H329.697ZM327.634 148.076C326.294 148.076 325.213 146.992 325.213 145.66L327.296 132.836C327.285 131.631 328.368 130.547 329.697 130.547H347.14C348.471 130.547 349.552 131.631 349.552 132.964L351.507 145.301C351.516 146.756 350.435 147.84 349.104 147.84L327.634 148.076" fill="#2C2C2C"/>
<path d="M336.06 145.309L333.057 138.173L334.459 137.565L336.473 142.355L343.409 133.776L344.589 134.76L336.06 145.309Z" fill="#2C2C2C"/>
<path d="M95.4863 237.712L149.763 230.649L154.071 264.18L99.7962 271.243L95.4863 237.712" fill="#FDE180"/>
<path d="M127.781 233.14L150.659 230.187L154.998 263.678L132.12 266.63L127.781 233.14Z" fill="#E69104"/>
<path d="M136.084 232.432L137.542 241.192L139.213 239.615L141.017 241.258L142.458 239.541L144.387 240.543L143.069 231.571L136.084 232.432Z" fill="#FCCA19"/>
<path d="M91.4822 101.485H189.91C192.281 101.485 194.207 103.409 194.207 105.779V220.358C194.207 222.731 192.281 224.652 189.91 224.652H91.4822C89.1092 224.652 87.1855 222.731 87.1855 220.358V105.779C87.1855 103.409 89.1092 101.485 91.4822 101.485" fill="#F3F3F3"/>
<path d="M198.405 185.442H252.287C253.584 185.442 254.638 186.659 254.638 188.16V260.682C254.638 262.184 253.584 263.401 252.287 263.401H198.405C197.106 263.401 196.053 262.184 196.053 260.682V188.16C196.053 186.659 197.106 185.442 198.405 185.442Z" fill="white"/>
<path d="M198.342 185.764C197.26 185.764 196.38 186.804 196.38 188.08V260.301C196.38 261.577 197.26 262.617 198.342 262.617H252.346C253.429 262.617 254.307 261.577 254.307 260.301V188.08C254.307 186.804 253.429 185.764 252.346 185.764H198.342ZM252.346 263.401H198.342C196.826 263.401 195.59 262.01 195.59 260.301V188.08C195.59 186.371 196.826 184.98 198.342 184.98H252.346C253.863 184.98 255.097 186.371 255.097 188.08V260.301C255.097 262.01 253.863 263.401 252.346 263.401Z" fill="#2C2C2C"/>
<path d="M244.953 178.522H276.773C277.542 178.522 278.162 179.234 278.162 180.114V222.599C278.162 223.478 277.542 224.191 276.773 224.191H244.953C244.188 224.191 243.564 223.478 243.564 222.599V180.114C243.564 179.234 244.188 178.522 244.953 178.522Z" fill="#F3F3F3"/>
<path d="M287.85 178.522H319.671C320.437 178.522 321.06 179.234 321.06 180.114V222.599C321.06 223.478 320.437 224.191 319.671 224.191H287.85C287.085 224.191 286.463 223.478 286.463 222.599V180.114C286.463 179.234 287.085 178.522 287.85 178.522Z" fill="#F3F3F3"/>
<path d="M258.777 187.965C258.777 187.965 260.712 189.807 263.4 190.023C266.087 190.24 267.486 187.748 267.486 187.748C267.486 187.748 270.174 188.182 271.787 189.48C273.4 190.782 277.7 196.412 277.7 196.412L273.829 200.637L269.744 198.036L271.247 212.658H256.519L256.841 198.036L254.475 200.962L249.1 198.688C249.1 198.688 251.896 192.514 253.293 190.997C254.692 189.48 258.777 187.965 258.777 187.965Z" fill="#DFDFDF"/>
<path d="M145.71 123.622L173.195 124.198L159.877 114.427C155.403 117.772 148.593 121.906 145.71 123.622V123.622ZM174.434 125.011L144.311 124.379C144.134 124.376 143.982 124.256 143.937 124.086C143.891 123.916 143.966 123.737 144.118 123.647C151.534 119.302 162.762 112.119 163.303 110.148C163.559 109.215 163.347 108.205 162.734 107.445C162.182 106.759 161.387 106.395 160.541 106.425C158.663 106.51 157.845 108.88 157.837 108.905C157.769 109.109 157.546 109.223 157.337 109.153C157.129 109.084 157.016 108.861 157.086 108.655C157.126 108.537 158.088 105.749 160.506 105.64C161.596 105.594 162.642 106.07 163.353 106.952C164.123 107.909 164.39 109.18 164.068 110.354C163.852 111.139 162.471 112.435 160.531 113.93L174.669 124.302C174.808 124.404 174.865 124.582 174.81 124.746C174.754 124.904 174.604 125.011 174.434 125.011" fill="#2C2C2C"/>
<path d="M153.314 117.17C153.314 117.17 156.566 120.831 159.655 120.578C163.798 120.237 165.408 117.17 165.408 117.17C165.408 117.17 170.575 118.613 173.205 120.718C175.834 122.825 182.672 141.156 182.672 141.156L175.06 144.774L171.853 134.636L178.532 197.078L146.586 197.435L147.468 134.636L143.589 150.564L140.709 152.351L138.986 155.862L135.354 154.798L136.136 151.285L134.697 148.092C134.697 148.092 140.773 125.633 143.052 123.176C145.331 120.718 153.314 117.17 153.314 117.17" fill="#898989"/>
<path d="M127.234 123.622L154.31 124.198L141.191 114.427C136.782 117.772 130.075 121.906 127.234 123.622ZM155.53 125.011L125.856 124.379C125.682 124.376 125.531 124.256 125.487 124.086C125.443 123.916 125.517 123.737 125.667 123.647C132.97 119.302 144.031 112.119 144.565 110.148C144.818 109.215 144.609 108.205 144.005 107.445C143.462 106.759 142.681 106.381 141.845 106.425C139.993 106.51 139.188 108.88 139.182 108.905C139.113 109.109 138.893 109.223 138.687 109.153C138.482 109.084 138.371 108.861 138.44 108.655C138.479 108.537 139.428 105.749 141.809 105.64C142.884 105.594 143.913 106.068 144.614 106.952C145.372 107.909 145.636 109.18 145.319 110.354C145.105 111.139 143.746 112.435 141.835 113.93L155.762 124.302C155.898 124.404 155.954 124.582 155.9 124.746C155.845 124.904 155.697 125.011 155.53 125.011" fill="#2C2C2C"/>
<path d="M134.477 117.17L141.093 127.681L146.619 117.17C146.619 117.17 151.808 118.611 154.447 120.718C157.088 122.825 166.559 147.86 166.559 147.86L165.489 150.644L166.991 154.432L164.235 156.556L161.73 152.891L158.556 151.85L153.091 134.637L156.76 158.358L153.897 160.976L154.025 164.041L130.233 165.144L130.739 160.997L128.274 158.358L128.61 134.637L124.716 150.564L121.823 152.352L120.093 155.863L116.446 154.799L117.233 151.286L115.787 148.093C115.787 148.093 121.889 125.633 124.177 123.176C126.464 120.718 134.477 117.17 134.477 117.17" fill="#FCCA19"/>
<path d="M178.982 219.578C178.982 211.68 185.384 205.277 193.283 205.277C201.18 205.277 207.583 211.68 207.583 219.578C207.583 227.476 201.18 233.878 193.283 233.878C185.384 233.878 178.982 227.476 178.982 219.578Z" fill="#DFDFDF"/>
<path d="M238.492 253.483C238.492 249.534 241.591 246.333 245.412 246.333C249.233 246.333 252.331 249.534 252.331 253.483C252.331 257.432 249.233 260.633 245.412 260.633C241.591 260.633 238.492 257.432 238.492 253.483Z" fill="#DFDFDF"/>
<path d="M107.242 232.494L107.021 232.266C107.031 231.776 107.345 220.242 112.813 219.603C113.832 219.485 114.743 219.774 115.539 220.462C118.735 223.224 119.006 231.523 119.015 231.875L118.8 232.104L118.57 231.888C118.569 231.803 118.295 223.433 115.248 220.798C114.55 220.195 113.742 219.944 112.865 220.044C107.779 220.639 107.469 232.159 107.466 232.276L107.242 232.494" fill="#2C2C2C"/>
<path d="M103.039 227.42L102.408 271.243L132.393 267.362L131.423 227.579L103.039 227.42" fill="#898989"/>
<path d="M97.7127 227.42L100.564 227.455L99.7433 266.865L96.4121 268.014L97.7127 227.42" fill="#B4B4B4"/>
<path d="M100.522 227.884L103.331 227.881L102.644 271.243L99.6406 266.66L100.522 227.884Z" fill="#2C2C2C"/>
<path d="M96.4121 267.943L100.061 266.63L102.87 271.243L96.4121 267.943Z" fill="#B4B4B4"/>
<path d="M111.853 231.571L111.633 231.344C111.644 230.854 111.958 219.32 117.427 218.683C118.441 218.559 119.355 218.852 120.15 219.54C123.345 222.302 123.617 230.601 123.627 230.953L123.411 231.182L123.182 230.965C123.18 230.882 122.907 222.509 119.86 219.876C119.162 219.273 118.36 219.025 117.479 219.124C112.39 219.718 112.081 231.238 112.078 231.353L111.853 231.571Z" fill="#2C2C2C"/>
<path d="M36.9021 287.779L32.3939 303.534L27.2148 301.063L29.6832 283.698L36.9021 287.779Z" fill="#FF9583"/>
<path d="M26.9336 299.383C26.3023 299.328 23.9942 303.108 24.5262 305.206C24.838 306.437 26.9506 306.069 29.6806 306.389C32.4075 306.709 34.6055 307.732 36.487 307.684C38.367 307.637 44.2831 307.033 44.2831 307.033L44.0845 305.445C44.0845 305.445 41.1528 305.387 39.9616 304.542C38.7719 303.695 33.8284 299.868 33.8284 299.868C33.6515 300.088 32.3517 301.064 30.9634 301.666C29.5767 302.269 29.4076 302.114 28.7577 301.762C27.5928 301.13 27.9341 299.465 26.9336 299.383" fill="#282728"/>
<path d="M76.5048 284.378L77.0365 300.766L70.9469 300.05L67.8105 282.775L76.5048 284.378Z" fill="#FF9583"/>
<path d="M69.6035 297.155C68.9621 297.197 67.1938 301.492 68.0316 303.601C68.522 304.838 70.5875 304.132 73.3697 304.052C76.1535 303.971 78.5035 304.703 80.3834 304.368C82.2634 304.034 88.1076 302.504 88.1076 302.504L87.6801 300.877C87.6801 300.877 84.7328 301.263 83.4156 300.561C82.0999 299.858 76.5889 296.614 76.5889 296.614C76.4443 296.871 75.2795 298.088 73.9749 298.927C72.6718 299.766 72.48 299.633 71.7774 299.363C70.5183 298.88 70.6189 297.091 69.6035 297.155Z" fill="#282728"/>
<path d="M107.399 124.085L134.475 124.661L121.353 114.891C116.947 118.234 110.238 122.367 107.399 124.085ZM135.694 125.473L106.02 124.842C105.845 124.839 105.696 124.718 105.652 124.548C105.607 124.378 105.68 124.199 105.83 124.11C113.135 119.764 124.196 112.582 124.73 110.612C124.983 109.679 124.773 108.667 124.169 107.907C123.625 107.223 122.841 106.855 122.009 106.888C120.165 106.973 119.354 109.344 119.346 109.367C119.277 109.574 119.053 109.687 118.851 109.616C118.647 109.547 118.537 109.325 118.605 109.119C118.644 108.999 119.591 106.213 121.973 106.103C123.052 106.046 124.077 106.532 124.778 107.417C125.537 108.373 125.8 109.644 125.482 110.818C125.27 111.603 123.91 112.898 122 114.394L135.925 124.763C136.062 124.866 136.118 125.045 136.064 125.207C136.009 125.368 135.861 125.473 135.694 125.473" fill="#2C2C2C"/>
<path d="M115.506 117.917L117.954 115.324C117.954 115.324 119.834 116.526 121.964 116.436C123.07 116.389 125.47 115.768 125.47 115.768L127.19 118.189C127.19 118.189 132.431 118.72 135.072 120.829C137.713 122.937 147.184 148.001 147.184 148.001L146.114 150.789L147.616 154.583L144.86 156.71L142.355 153.04L139.181 151.998L133.715 134.764L134.137 154.5L142.285 208.842L102.053 208.968L110.728 154.613L109.235 134.764L105.339 150.71L102.448 152.499L100.718 156.015L97.0712 154.948L97.8564 151.433L96.4121 148.236C96.4121 148.236 102.514 125.749 104.802 123.288C107.089 120.829 115.506 117.917 115.506 117.917" fill="#DFDFDF"/>
<path d="M128.46 246.333L128.242 246.11C128.248 245.834 128.427 239.334 131.577 238.969C132.169 238.895 132.711 239.067 133.178 239.468C135.003 241.034 135.157 245.694 135.162 245.891L134.949 246.116L134.722 245.903C134.721 245.857 134.57 241.237 132.891 239.799C132.515 239.477 132.097 239.343 131.628 239.401C128.856 239.723 128.683 246.056 128.682 246.119L128.46 246.333Z" fill="#2C2C2C"/>
<path d="M126.295 243.565L125.936 268.475L143.004 266.269L142.451 243.656L126.295 243.565" fill="#FCCA19"/>
<path d="M122.967 243.565L124.551 243.586L124.094 265.976L122.244 266.63L122.967 243.565" fill="#EAA800"/>
<path d="M124.529 243.567L125.933 243.565L125.59 268.475L124.088 265.842L124.529 243.567" fill="#E69104"/>
<path d="M122.244 266.496L124.328 265.707L125.935 268.475L122.244 266.496Z" fill="#FDE180"/>
<path d="M131.225 245.871L131.008 245.648C131.014 245.371 131.193 238.871 134.342 238.506C134.946 238.436 135.477 238.607 135.944 239.008C137.767 240.572 137.921 245.232 137.927 245.429L137.713 245.654L137.488 245.442C137.486 245.396 137.334 240.776 135.655 239.336C135.281 239.014 134.865 238.884 134.393 238.94C131.623 239.262 131.449 245.593 131.447 245.657L131.225 245.871" fill="#2C2C2C"/>
<path d="M74.9706 200.76C74.9706 200.76 76.0404 210.434 76.5808 213.502C77.1212 216.572 77.0727 244.619 77.2976 251.72C77.5241 258.822 76.8447 285.09 76.8447 285.09L79.8043 287.617L65.9324 290.097C65.9324 290.097 63.2071 288.993 64.0739 286.963C64.9407 284.931 66.7383 284.692 66.1776 281.832C65.6169 278.975 62.8369 272.125 63.4101 268.341C63.9817 264.56 65.4264 257.783 64.847 254.173C64.2675 250.561 59.6899 222.791 60.0413 222.467C53.7894 255.188 37.7404 292.001 37.7404 292.001C37.7404 292.001 33.5782 288.246 31.7321 288.753C29.8829 289.264 28.1259 289.784 28.1259 289.784C28.1259 289.784 27.3122 288.501 27.8776 286.646C28.443 284.792 30.6935 282.191 31.4604 279.29C32.2272 276.391 32.3225 276.404 32.3225 276.404C32.3225 276.404 32.2522 268.679 32.905 265.979C33.5579 263.277 36.4753 253.158 37.1672 248.212C37.8575 243.266 39.9316 228.066 39.5302 220.683C38.9945 210.81 42.0353 197.169 42.0353 197.169C42.0353 197.169 47.03 198.224 50.4487 197.169C53.8675 196.114 57.419 199.704 61.903 199.324C66.3885 198.943 74.9706 200.76 74.9706 200.76" fill="#2C2C2C"/>
<path d="M65.4146 129.163L62.5814 131.56L59.9668 136.157C59.9668 136.157 61.6856 138.695 64.1453 139.866C66.6065 141.036 69.3699 140.626 69.3699 140.626L70.1153 135.614L65.4146 129.163" fill="#FEB3A2"/>
<path d="M68.1218 125.06C68.1218 125.06 66.6569 120.935 64.627 122.741C62.5971 124.547 67.07 136.792 71.0547 137C75.041 137.207 79.5609 130.837 80.9319 127.843C82.3044 124.85 83.9337 121.564 80.6564 119.014C73.9391 113.786 68.1218 125.06 68.1218 125.06" fill="#FEB3A2"/>
<path d="M62.3188 131.47L64.9135 129.673C64.9135 129.673 62.8715 122.978 64.912 122.496C66.9492 122.012 67.1103 124.261 68.031 125.568C69.2628 127.317 68.838 120.864 73.4605 119.69C78.3499 118.45 79.8249 122.416 80.8562 123.577C82.2191 125.112 85.0571 126.098 87.3628 124.735C89.6669 123.374 90.3713 119.451 88.1019 115.392C85.8341 111.332 84.2785 113.626 82.8113 112.743C81.3474 111.861 84.3511 109.093 79.457 108.066C74.8155 107.091 73.211 112.247 70.8863 112.488C68.5632 112.731 68.1716 111.621 66.7771 111.933C63.846 112.591 62.044 112.452 60.7743 118.248C59.4572 124.255 62.3188 131.47 62.3188 131.47" fill="#2C2C2C"/>
<path d="M111.965 158.225C111.965 158.225 107.465 160.896 106.775 161.226C106.087 161.557 103.929 162.793 103.929 162.793L99.1797 174.37C99.1797 174.37 101.676 173.859 102.816 173.77C103.956 173.68 105.096 173.829 105.936 173.229C106.775 172.629 109.806 170.739 110.256 170.529C110.705 170.318 113.315 169.569 113.525 169.328C113.734 169.088 115.58 167.65 115.384 166.509C115.34 166.237 117.425 165.928 117.095 164.568C116.765 163.207 115.926 163.598 115.926 163.598L116.435 162.937C116.435 162.937 118.985 162.696 119.015 161.766C119.045 160.836 118.085 160.446 118.085 160.446L111.965 158.225" fill="#F1A599"/>
<path d="M112.514 154.145L118.401 158.437C118.567 158.558 118.603 158.79 118.482 158.957L109.426 171.45C109.305 171.616 109.074 171.652 108.908 171.531L103.021 167.239C102.857 167.118 102.819 166.886 102.94 166.719L111.996 154.226C112.117 154.06 112.348 154.024 112.514 154.145Z" fill="#2C2C2C"/>
<path d="M112.522 154.605L117.996 158.748C118.153 158.866 118.073 159.255 118.073 159.255L109.445 171.453C109.331 171.615 109.11 171.651 108.953 171.533L103.478 167.389C103.32 167.272 103.284 167.044 103.4 166.881L112.028 154.685C112.142 154.521 112.363 154.486 112.522 154.605" fill="#E8F2F9"/>
<path d="M112.353 155.058L112.279 155.092L103.425 166.918L109.063 171.064L109.191 171.044L118.006 159.268L118 159.068L112.408 155.075L112.353 155.058ZM109.116 171.603L108.748 171.486L103.128 167.467C102.994 167.371 102.904 167.23 102.877 167.065C102.85 166.904 102.892 166.741 102.991 166.611L111.843 154.79C111.94 154.658 112.087 154.57 112.252 154.542C112.428 154.517 112.587 154.559 112.725 154.652L118.342 158.671C118.622 158.868 118.553 159.299 118.526 159.426L118.478 159.526L109.625 171.348C109.506 171.514 109.312 171.603 109.116 171.603" fill="#2C2C2C"/>
<path d="M115.122 156.38L115.784 156.867C115.568 157.166 115.227 157.433 114.971 157.233C114.727 157.041 114.94 156.452 115.122 156.38Z" fill="#2C2C2C"/>
<path d="M115.322 156.906L115.723 156.841L115.784 157.235L115.381 157.302L115.322 156.906" fill="black"/>
<path d="M92.7207 170.427L97.8548 167.809L103.06 163.503L104.394 162.838L108.398 163.237L110.711 166.344C110.711 166.344 110.307 167.572 106.929 165.857C105.896 165.331 104.572 168.918 104.572 168.918L101.147 171.137L100.435 174.377L95.5411 178.061L92.7207 170.427" fill="#FEB3A2"/>
<path d="M60.2008 135.621C60.2008 135.621 62.5351 139.296 64.8664 139.617C67.1976 139.938 70.5371 140.246 70.1218 139.974C69.7034 139.699 69.8591 138.007 69.8591 138.007C69.8591 138.007 75.2908 140.489 77.5701 143.236C79.8462 145.981 80.5478 148.437 81.7748 152.001C83.0017 155.562 85.863 172.392 85.863 172.392L95.6866 167.585L100.563 176.358C100.563 176.358 86.4639 187.477 83.4028 187.811C80.3402 188.144 77.2335 185.092 77.2335 185.092L75.791 191.551L76.3494 197.928L77.0825 201.372C77.0825 201.372 68.9924 203.684 64.4039 201.715C59.8154 199.745 58.8826 198.535 53.7184 198.162C48.5526 197.788 47.5695 198.134 43.1461 198.172C38.7259 198.211 39.3316 195.319 39.3316 195.319L41.2333 193.41L40.0567 191.051L39.9041 187.918C39.9041 187.918 26.0662 187.543 24.9872 178.355C23.9096 169.163 34.4977 151.71 34.4977 151.71C34.4977 151.71 37.5635 146.245 41.1327 142.517C44.7018 138.789 60.2008 135.621 60.2008 135.621" fill="#FCCA19"/>
<path d="M76.945 182.212L76.867 182.205C76.6697 182.159 76.5417 181.948 76.5844 181.734C77.5721 176.737 77.6839 156.974 77.6854 156.774C77.6869 156.554 77.8208 156.416 78.0548 156.38C78.258 156.381 78.4228 156.56 78.4214 156.779C78.4169 157.595 78.308 176.823 77.3041 181.899C77.2673 182.084 77.1143 182.212 76.945 182.212" fill="#09030F"/>
<path d="M122.705 211.274H155.457V230.649H122.705V211.274Z" fill="#DFDFDF"/>
<path d="M122.705 211.274H132.392V230.649H122.705V211.274Z" fill="#ABABAB"/>
<path d="M112.941 296.046C115.242 296.046 117.116 298.116 117.116 300.66C117.116 303.202 115.242 305.271 112.941 305.271C110.639 305.271 108.765 303.202 108.765 300.66C108.765 298.116 110.639 296.046 112.941 296.046ZM148.859 296.046C151.162 296.046 153.034 298.116 153.034 300.66C153.034 303.202 151.162 305.271 148.859 305.271C146.557 305.271 144.685 303.202 144.685 300.66C144.685 298.116 146.557 296.046 148.859 296.046ZM90.9104 295.082C90.8393 295.308 90.8835 295.553 91.0242 295.744C91.1664 295.934 91.3923 296.046 91.6293 296.046H109.261C108.048 297.167 107.259 298.808 107.259 300.66C107.259 304.025 109.808 306.763 112.941 306.763C116.073 306.763 118.62 304.025 118.62 300.66C118.62 298.808 117.833 297.167 116.62 296.046H145.181C143.966 297.167 143.179 298.808 143.179 300.66C143.179 304.025 145.728 306.763 148.859 306.763C151.993 306.763 154.54 304.025 154.54 300.66C154.54 298.808 153.753 297.167 152.538 296.046H158.857C159.274 296.046 159.61 295.713 159.61 295.3C159.61 294.888 159.274 294.555 158.857 294.555H92.6485L95.5985 285.051C96.4406 282.34 98.5674 280.4 101.148 279.99L141.027 273.649C141.436 273.583 141.716 273.201 141.651 272.794C141.585 272.386 141.191 272.107 140.788 272.176L100.909 278.517C97.7569 279.018 95.1718 281.354 94.1606 284.613L90.9104 295.082" fill="#282728"/>
<path d="M71.6154 200.939C71.6154 199.836 72.4014 198.936 73.3698 198.936C74.3366 198.936 75.1242 199.836 75.1242 200.939C75.1242 202.044 74.3366 202.942 73.3698 202.942C72.4014 202.942 71.6154 202.044 71.6154 200.939ZM85.9369 217.096H92.8901L95.0564 232.209L88.46 232.589L85.9369 217.096ZM94.5077 269.716L93.5677 263.943L99.4723 263.018L100.914 273.082L99.0824 273.383C98.1219 273.542 97.1284 273.304 96.303 272.71C95.3614 272.035 94.7074 270.943 94.5077 269.716V269.716ZM167.022 262.181L165.233 262.476L166.038 252.596L170.973 251.824L169.874 259.056C169.627 260.685 168.48 261.94 167.022 262.181ZM175.592 221.43L174.65 227.631L168.039 228.011L168.928 217.096H172.33C173.237 217.096 174.084 217.499 174.713 218.232C175.448 219.09 175.769 220.256 175.592 221.43ZM96.5577 232.122L94.4055 217.096H104.602L106.18 231.569L96.5577 232.122ZM96.7715 233.613L106.344 233.063L107.704 245.531L98.6077 246.418L96.7715 233.613ZM100.739 261.299L98.8199 247.905L107.866 247.023L109.277 259.963L100.739 261.299ZM110.536 271.494L102.392 272.836L100.952 262.786L109.441 261.457L110.536 271.494ZM121.351 269.713L112.016 271.252L110.923 261.225L120.731 259.689L121.351 269.713ZM131.673 268.01L122.836 269.467L122.218 259.456L131.508 258.002L131.673 268.01ZM143.57 266.049L133.168 267.764L133.003 257.769L143.57 256.114V266.049ZM153.674 264.382L145.068 265.801V255.879L154.155 254.456L153.674 264.382ZM164.516 252.834L163.711 262.728L155.183 264.133L155.664 254.22L164.516 252.834ZM164.642 251.295L155.74 252.689L156.243 242.308L165.447 241.41L164.642 251.295ZM167.917 229.522L174.419 229.147L172.895 239.176L167.084 239.743L167.917 229.522ZM166.408 229.608L165.57 239.89L156.315 240.793L156.831 230.158L166.408 229.608ZM157.464 217.096H167.426L166.53 228.098L156.904 228.652L157.464 217.096ZM145.068 217.096H155.966L155.402 228.737L145.068 229.333V217.096ZM132.325 217.096H143.57V229.418L132.542 230.052L132.325 217.096ZM119.603 217.096H130.827L131.046 230.139L120.445 230.749L119.603 217.096ZM107.678 231.483L106.108 217.096H118.101L118.95 230.834L107.678 231.483ZM109.196 245.386L107.84 232.976L119.043 232.332L119.785 244.353L109.196 245.386ZM120.639 258.185L110.76 259.732L109.357 246.878L119.878 245.852L120.639 258.185ZM131.483 256.487L122.126 257.952L121.37 245.707L131.288 244.74L131.483 256.487ZM143.57 254.593L132.978 256.252L132.783 244.594L143.57 243.543V254.593ZM154.737 242.454L154.229 252.925L145.068 254.359V243.397L154.737 242.454ZM145.068 230.835L155.328 230.245L154.81 240.939L145.068 241.889V230.835ZM131.263 243.234L121.277 244.208L120.538 232.245L131.069 231.64L131.263 243.234ZM132.566 231.554L143.57 230.922V242.034L132.758 243.089L132.566 231.554ZM171.209 250.266L166.162 251.057L166.961 241.264L172.663 240.706L171.209 250.266ZM91.0775 248.659L97.3264 248.05L99.2585 261.532L93.3256 262.46L91.0775 248.659ZM88.7021 234.077L95.2702 233.699L97.1142 246.563L90.8354 247.176L88.7021 234.077ZM70.1172 200.939C70.1172 202.871 71.5761 204.444 73.3698 204.444C74.9246 204.444 76.2231 203.261 76.5438 201.69H77.9964C80.2633 201.69 82.2032 203.495 82.6088 205.986L93.03 269.957C93.2957 271.598 94.1493 273.01 95.4274 273.931C96.3423 274.588 97.4066 274.933 98.4882 274.933C98.7665 274.933 99.0478 274.91 99.3245 274.864L167.266 263.662C169.366 263.317 171.009 261.556 171.355 259.281L172.534 251.523C172.793 251.372 172.949 251.077 172.9 250.762C172.877 250.613 172.801 250.49 172.705 250.386L177.072 221.655C177.318 220.05 176.87 218.444 175.848 217.253C174.931 216.184 173.68 215.595 172.33 215.595H85.69L84.0865 205.743C83.5615 202.525 81.0006 200.189 77.9964 200.189H76.5438C76.2231 198.617 74.9246 197.435 73.3698 197.435C71.5761 197.435 70.1172 199.007 70.1172 200.939" fill="#2C2C2C"/>
<path d="M60.0925 195.59L59.9777 195.573L39.7497 189.464C39.5406 189.402 39.4242 189.181 39.4871 188.974C39.55 188.766 39.7686 188.648 39.9761 188.711L59.951 194.744L67.2828 185.522L47.3912 174.967L37.8472 177.249C37.6585 177.295 37.4635 177.194 37.3912 177.012C37.3189 176.831 37.3912 176.623 37.561 176.526L45.105 172.181L50.0139 153.903C50.0705 153.694 50.2874 153.571 50.495 153.625C50.7041 153.681 50.8299 153.897 50.7717 154.108L45.822 172.543L45.6381 172.782L40.3063 175.852L47.3535 174.168L47.6286 174.202L68.0689 185.05L68.2702 185.318L68.1932 185.642L60.3991 195.441L60.0925 195.59" fill="#09030F"/>
<path d="M317.834 259.278L338.29 298.459L341.36 292.974C341.36 292.974 337.881 282.262 336.91 278.447C335.939 274.633 328.217 255.371 327.236 253.918C326.254 252.461 317.834 259.278 317.834 259.278" fill="#FEB3A2"/>
<path d="M347.818 301.244L346.13 295.411L341.158 290.156L336.009 296.312C336.009 296.312 337.718 298.14 336.022 301.713C334.327 305.29 330.289 309.069 330.289 309.069L341.407 304.353L342.436 298.228L344.728 296.48L346.855 301.407L347.818 301.244" fill="#FCCA19"/>
<path d="M281.391 260.005L286.414 303.534L291.198 299.527C291.198 299.527 291.782 288.369 292.237 284.491C292.691 280.614 292.379 260.036 291.989 258.344C291.596 256.648 281.391 260.005 281.391 260.005" fill="#FEB3A2"/>
<path d="M294.746 309.955L295.231 303.845L292.32 297.076L285.101 300.991C285.101 300.991 286.091 303.337 283.152 306.083C280.214 308.83 274.934 310.914 274.934 310.914L287.412 310.538L290.631 305.146L293.484 304.338L293.756 309.757L294.746 309.955" fill="#FCCA19"/>
<path d="M226.074 178.061C226.074 178.061 229.632 180.198 230.177 180.462C230.722 180.726 232.429 181.714 232.429 181.714L236.184 190.977C236.184 190.977 234.209 190.569 233.308 190.497C232.408 190.426 231.505 190.545 230.843 190.065C230.177 189.585 227.781 188.072 227.426 187.904C227.07 187.735 225.007 187.136 224.84 186.944C224.674 186.752 223.215 185.601 223.371 184.687C223.405 184.471 221.757 184.223 222.019 183.135C222.279 182.046 222.942 182.359 222.942 182.359L222.54 181.83C222.54 181.83 220.523 181.639 220.501 180.894C220.475 180.15 221.234 179.837 221.234 179.837L226.074 178.061" fill="#F1A599"/>
<path d="M225.743 174.832L221.027 178.249L220.961 178.663L228.219 188.605L228.635 188.671L233.352 185.253L233.416 184.841L226.159 174.897L225.743 174.832Z" fill="#2C2C2C"/>
<path d="M225.787 175.293L221.483 178.568L221.422 178.969L228.204 188.607L228.591 188.671L232.893 185.395L232.954 184.995L226.174 175.356L225.787 175.293" fill="#F3F3F3"/>
<path d="M225.842 175.265L221.399 178.503L221.394 178.666L228.399 188.217L228.501 188.234L232.963 184.972L225.945 175.279L225.842 175.265ZM228.055 188.464L221.021 178.873L220.982 178.795C220.962 178.691 220.906 178.339 221.129 178.18L225.591 174.921L225.967 174.832L226.291 175.032L233.325 184.621L233.416 184.99L233.216 185.316L228.75 188.576L228.457 188.671C228.303 188.671 228.148 188.598 228.055 188.464Z" fill="#2C2C2C"/>
<path d="M223.469 176.677L222.807 176.92C223.024 177.07 223.363 177.204 223.62 177.103C223.863 177.008 223.65 176.713 223.469 176.677" fill="#2C2C2C"/>
<path d="M223.729 176.742L223.331 176.677L223.268 177.073L223.669 177.138L223.729 176.742Z" fill="black"/>
<path d="M241.72 187.499L237.639 185.357L233.501 181.833L232.441 181.29L229.26 181.617L227.42 184.158C227.42 184.158 227.741 185.163 230.425 183.759C231.248 183.33 232.3 186.263 232.3 186.263L235.023 188.079L235.587 190.731L239.479 193.745L241.72 187.499" fill="#FEB3A2"/>
<path d="M283.557 143.925L289.231 153.792C289.231 153.792 289.324 156.612 284.858 157.176C280.394 157.74 278.346 156.236 278.346 156.236L278.16 150.221L283.557 143.925" fill="#FEB3A2"/>
<path d="M281.662 140.769C281.662 140.769 282.21 138.267 284.865 138.637C287.519 139.007 281.752 151.231 278.091 152.528C274.432 153.825 270.588 146.972 269.49 144.1C268.393 141.231 266.285 136.51 270.679 135.305C275.073 134.102 281.662 140.769 281.662 140.769Z" fill="#FEB3A2"/>
<path d="M300.422 195.59L276.754 199.43L274.934 286.382C274.934 286.382 275.742 291.594 291.319 292.692C306.896 293.79 318.023 291.046 324.293 283.092C330.565 275.138 335.825 260.598 335.825 260.598L300.422 195.59Z" fill="#2C2C2C"/>
<path d="M288.837 153.612C288.837 153.612 286.345 157.694 283.854 157.581C281.365 157.468 278.08 155.992 278.08 155.992C278.08 155.992 273.101 160.188 270.382 163.702C267.666 167.216 264.811 175.563 262.775 178.51C260.736 181.458 261.649 187.868 255.534 184.695C249.421 181.521 249.4 181.961 247.588 186.27C246.983 187.71 238.594 183.558 238.594 183.558L233.877 190.116C233.877 190.116 244.498 195.832 245.316 197.115C249.509 203.674 248.309 204.404 254.31 203.611C260.309 202.818 263.48 204.745 265.97 200.436C268.46 196.129 274.684 187.74 274.684 187.74L277.515 199.529C277.515 199.529 298.685 198.962 300.948 195.788C303.212 192.613 303.892 193.521 302.872 189.553C301.853 185.584 304.118 181.955 304.118 181.955L309.231 185.271C309.231 185.271 311.837 186.283 312.741 193.198C313.648 200.115 315.16 196.428 319.461 198.81C322.414 200.443 325.136 206.661 325.136 206.661L331.559 205.539C331.559 205.539 328.609 198.22 329.019 197.987C332.415 196.058 333.863 196.887 331.26 191.106C328.656 185.323 325.175 184.678 321.891 180.936C318.608 177.195 307.853 164.496 307.853 164.496C307.853 164.496 303.553 159.733 301.289 158.147C299.024 156.56 288.837 153.612 288.837 153.612Z" fill="#FCCA19"/>
<path d="M281.379 141.846C279.557 141.586 279.886 139.611 277.081 137.843C275.341 136.745 268.369 139.835 267.645 137.005C266.918 134.174 270.511 128.503 275.168 127.536C282.15 126.088 283.528 132.246 288.307 134.842C292.897 137.336 292.636 135.642 296.783 138.472C300.934 141.304 305.393 146.965 304.875 150.634C304.357 154.305 303.527 160.07 303.527 160.07C303.527 160.07 300.102 156.611 296.783 155.876C293.466 155.142 289.11 153.989 289.11 153.989L283.886 145.228C283.886 145.228 285.919 140.46 284.364 138.887C282.808 137.314 283.198 142.108 281.379 141.846" fill="#2C2C2C"/>
<path d="M267.559 138.047C267.559 138.047 268.588 142.276 269.132 143.526C269.679 144.777 271.975 148.888 272.641 149.722C273.306 150.553 276.514 153.176 277.724 152.58C278.934 151.984 278.572 156.451 278.572 156.451C278.572 156.451 273.912 159.131 272.823 160.559C271.734 161.989 270.584 163.299 270.584 163.299C270.584 163.299 265.926 159.428 264.897 153.949C263.868 148.469 264.535 139.477 264.535 139.477C264.535 139.477 265.39 136.087 266.408 135.665C267.429 135.242 267.559 138.047 267.559 138.047Z" fill="#2C2C2C"/>
<path d="M305.445 143.925L305.106 143.734C305.081 143.691 302.53 139.522 298.926 137.299C297.636 136.505 296.438 136.333 295.05 136.136C292.564 135.782 289.745 135.38 285.556 131.288C280.017 125.883 276.154 128.068 275.994 128.164C275.807 128.271 275.562 128.215 275.451 128.028C275.339 127.84 275.399 127.601 275.584 127.487C275.766 127.378 280.099 124.859 286.109 130.725C290.114 134.636 292.795 135.017 295.161 135.355C296.576 135.557 297.91 135.746 299.344 136.628C303.112 138.954 305.678 143.148 305.784 143.325C305.896 143.513 305.836 143.754 305.649 143.868L305.445 143.925" fill="#2C2C2C"/>
<path d="M315.599 196.513C314.507 196.442 313.741 196.075 313.297 195.42C312.725 194.572 312.898 193.522 312.991 193.134C312.702 192.455 311.416 189.329 311.416 187.272C311.416 185.517 312.069 184.508 312.431 184.086C312.356 183.985 312.237 183.867 312.055 183.798C311.641 183.64 311.035 183.779 310.303 184.197C307.791 185.63 304.403 182.568 304.262 182.436L296.27 174.583C296.116 174.431 296.113 174.183 296.264 174.027C296.412 173.874 296.659 173.869 296.814 174.02L304.794 181.863C304.816 181.883 307.896 184.67 309.918 183.513C310.885 182.962 311.703 182.816 312.353 183.071C312.914 183.296 313.197 183.784 313.277 184.037C313.325 184.189 313.275 184.357 313.152 184.458C313.114 184.489 312.195 185.298 312.195 187.272C312.195 189.375 313.742 192.908 313.758 192.944L313.773 193.222C313.773 193.222 313.457 194.265 313.943 194.981C314.245 195.423 314.809 195.676 315.624 195.728C315.839 195.742 316.003 195.929 315.987 196.145C315.975 196.353 315.803 196.513 315.599 196.513" fill="#09030F"/>
<path d="M274.535 188.209C274.385 188.209 274.243 188.123 274.176 187.977C274.152 187.926 271.837 182.857 271.031 180.937C270.336 179.271 271.208 177.444 272.217 175.328C272.496 174.743 272.789 174.13 273.059 173.494C274.227 170.753 274.141 166.974 274.14 166.937C274.134 166.718 274.311 166.532 274.529 166.528C274.742 166.525 274.924 166.7 274.93 166.915C274.935 167.077 275.02 170.907 273.784 173.807C273.511 174.455 273.214 175.077 272.928 175.673C272.003 177.615 271.203 179.294 271.76 180.627C272.559 182.535 274.872 187.595 274.895 187.646C274.985 187.845 274.898 188.08 274.701 188.173L274.535 188.209" fill="#09030F"/>
<path d="M279.005 152.689C278.842 152.689 278.689 152.577 278.638 152.401C278.576 152.187 278.689 151.957 278.892 151.892C282.081 150.844 282.465 147.999 282.468 147.971C282.496 147.748 282.693 147.589 282.9 147.619C283.109 147.648 283.258 147.852 283.231 148.075C283.215 148.214 282.776 151.471 279.121 152.67L279.005 152.689Z" fill="#09030F"/>
<path d="M247.661 196.513C247.449 196.516 247.271 196.345 247.264 196.134C247.258 195.893 247.116 190.232 248.277 187.978C249.054 186.468 249.703 185.571 250.104 185.453L250.277 185.442C250.308 185.446 253.33 185.938 256.54 186.868C257.98 187.287 258.578 186.946 259.157 186.617C259.795 186.254 260.454 185.882 261.787 186.83C264.314 188.63 263.122 190.372 263.11 190.389C262.985 190.565 262.742 190.604 262.565 190.483C262.391 190.358 262.35 190.119 262.472 189.943C262.508 189.888 263.2 188.792 261.333 187.464C260.408 186.804 260.119 186.967 259.542 187.294C258.926 187.645 258.08 188.124 256.324 187.615C253.553 186.813 250.923 186.342 250.294 186.234C250.177 186.352 249.748 186.824 248.971 188.333C247.901 190.413 248.043 196.055 248.044 196.113C248.051 196.328 247.874 196.51 247.661 196.513Z" fill="#09030F"/>
<path d="M245.474 188.671L245.328 188.643L237.818 185.727C237.615 185.648 237.516 185.423 237.596 185.223C237.678 185.024 237.915 184.931 238.113 185.006L245.621 187.923C245.825 188.002 245.925 188.227 245.844 188.425C245.782 188.578 245.632 188.671 245.474 188.671Z" fill="#09030F"/>
<path d="M244.547 190.977L244.385 190.942L237.352 187.664C237.148 187.568 237.054 187.31 237.143 187.09C237.23 186.867 237.469 186.764 237.676 186.863L244.707 190.141C244.912 190.237 245.007 190.494 244.918 190.715C244.852 190.879 244.704 190.977 244.547 190.977Z" fill="#09030F"/>
<path d="M243.186 192.822L243.01 192.778L236.846 189.411C236.662 189.31 236.591 189.073 236.688 188.881C236.784 188.689 237.014 188.616 237.198 188.714L243.362 192.08C243.546 192.182 243.617 192.419 243.521 192.611L243.186 192.822Z" fill="#09030F"/>
<path d="M329.457 204.355C329.311 204.355 329.173 204.263 329.113 204.11L327.09 198.914C327.01 198.711 327.099 198.475 327.289 198.388C327.478 198.305 327.697 198.399 327.775 198.603L329.799 203.798C329.879 204.002 329.79 204.238 329.6 204.324L329.457 204.355Z" fill="#09030F"/>
<path d="M327.158 204.816C327.011 204.816 326.873 204.709 326.82 204.537L325.234 199.386C325.168 199.166 325.264 198.925 325.451 198.845C325.64 198.764 325.843 198.879 325.912 199.099L327.498 204.25C327.566 204.469 327.468 204.711 327.281 204.791L327.158 204.816" fill="#09030F"/>
<path d="M325.745 204.816C325.602 204.816 325.464 204.738 325.394 204.604L322.951 199.849C322.852 199.657 322.929 199.421 323.123 199.322C323.317 199.226 323.553 199.302 323.65 199.493L326.095 204.248C326.193 204.441 326.116 204.675 325.922 204.774L325.745 204.816Z" fill="#09030F"/>
<path d="M343.587 261.556L343.207 267.113L343.779 267.552L351.51 266.188L343.587 261.556Z" fill="#DFDFDF"/>
<path d="M363.963 243.488L366.482 247.249L367.1 247.255L371.805 242.642L363.963 243.488" fill="#FDE180"/>
<path d="M371.805 242.78L349.768 219.577L348.279 221.124L364.292 244.488L371.805 242.78Z" fill="#E69104"/>
<path d="M337.876 229.726L337.684 229.624C337.505 229.343 333.27 222.72 334.087 219.703C334.236 219.145 334.552 218.734 335.021 218.482C338.273 216.735 345.659 223.492 345.971 223.78L345.976 224.084L345.659 224.09C345.584 224.02 338.208 217.262 335.24 218.857C334.878 219.053 334.643 219.364 334.522 219.811C333.755 222.652 338.026 229.331 338.07 229.398L337.995 229.694L337.876 229.726" fill="#2C2C2C"/>
<path d="M331.209 232.786L348.427 219.116C348.427 219.116 348.725 219.557 349.248 220.33C352.795 225.562 366.612 246.001 367.19 247.499L347.606 258.788L331.209 232.786" fill="#FFCC00"/>
<path d="M344.218 224.925C344.068 224.719 344.112 224.431 344.316 224.28C344.523 224.129 344.812 224.174 344.962 224.378C345.112 224.584 345.069 224.873 344.864 225.024C344.657 225.174 344.368 225.13 344.218 224.925" fill="#E69104"/>
<path d="M336.376 230.922C336.226 230.716 336.27 230.427 336.475 230.277C336.681 230.126 336.968 230.17 337.12 230.376C337.271 230.581 337.227 230.87 337.022 231.02C336.816 231.171 336.527 231.128 336.376 230.922" fill="#1E23C8"/>
<path d="M336.545 230.649L336.345 230.523C336.142 230.108 331.396 220.31 334.66 218.476C337.893 216.659 344.316 224.195 344.589 224.515L344.56 224.829L344.247 224.803C344.182 224.726 337.788 217.224 334.879 218.864C332.47 220.216 335.411 227.598 336.745 230.328L336.644 230.627L336.545 230.649" fill="#2C2C2C"/>
<path d="M315.328 253.252L312.301 256.628L312.43 257.229L317.836 260.633L315.328 253.252" fill="#898989"/>
<path d="M317.976 260.633L334.903 234.029L333.086 232.955L314.605 253.793L317.976 260.633Z" fill="#2C2C2C"/>
<path d="M329.922 231.11L329.813 231.08L329.734 230.776C329.785 230.69 334.764 221.998 332.511 219.553C332.235 219.253 331.873 219.105 331.406 219.099C328.38 219.097 322.813 224.753 322.757 224.811L322.449 224.812L322.447 224.5C322.682 224.258 328.266 218.619 331.412 218.655C331.996 218.665 332.474 218.864 332.83 219.252C335.305 221.936 330.325 230.632 330.112 231.001L329.922 231.11" fill="#2C2C2C"/>
<path d="M318.042 219.116L335.364 232.544C335.364 232.544 335.007 232.936 334.378 233.626C330.123 238.291 313.498 256.489 312.178 257.404L296.615 241.126L318.042 219.116" fill="#B4B4B4"/>
<path d="M320.602 223.729C320.602 223.474 320.912 223.268 321.294 223.268C321.677 223.268 321.985 223.474 321.985 223.729C321.985 223.985 321.677 224.191 321.294 224.191C320.912 224.191 320.602 223.985 320.602 223.729Z" fill="#2C2C2C"/>
<path d="M328.55 229.89C328.713 229.695 329.005 229.671 329.199 229.834C329.394 229.998 329.42 230.289 329.255 230.484C329.092 230.679 328.8 230.705 328.605 230.54C328.411 230.376 328.386 230.085 328.55 229.89Z" fill="#E69104"/>
<path d="M329.162 230.188L329.03 230.146L328.981 229.842C329.04 229.763 334.837 221.973 332.552 219.577C330.669 217.606 324.18 222.101 321.836 223.999L321.521 223.971L321.551 223.665C321.908 223.374 330.331 216.604 332.877 219.28C335.413 221.938 329.59 229.768 329.341 230.1L329.162 230.188" fill="#2C2C2C"/>
<path d="M351.51 266.169V228.803L344.161 230.023L343.207 262.602L351.51 266.169Z" fill="#2C2C2C"/>
<path d="M339.759 231.11L339.545 230.924C339.525 230.807 337.534 219.131 333.704 218.653C333.227 218.595 332.786 218.74 332.358 219.1C329.667 221.353 328.884 230.81 328.876 230.905L328.641 231.11L328.441 230.869C328.474 230.473 329.25 221.127 332.083 218.753C332.599 218.319 333.172 218.136 333.754 218.21C337.906 218.726 339.891 230.354 339.974 230.848L339.796 231.107L339.759 231.11" fill="#2C2C2C"/>
<path d="M320.469 228.92L345.973 227.881C345.973 227.881 345.948 228.504 345.904 229.592C345.601 236.963 344.394 265.742 343.903 267.552L317.834 264.718L320.469 228.92" fill="#898989"/>
<path d="M337.668 230.879C337.668 230.498 337.978 230.187 338.359 230.187C338.741 230.187 339.052 230.498 339.052 230.879C339.052 231.261 338.741 231.571 338.359 231.571C337.978 231.571 337.668 231.261 337.668 230.879Z" fill="#2C2C2C"/>
<path d="M326.596 230.879C326.596 230.498 326.803 230.187 327.058 230.187C327.313 230.187 327.518 230.498 327.518 230.879C327.518 231.261 327.313 231.571 327.058 231.571C326.803 231.571 326.596 231.261 326.596 230.879Z" fill="#2C2C2C"/>
<path d="M327.279 231.11C327.121 231.085 327.043 230.966 327.064 230.844C327.159 230.306 329.411 217.664 333.604 218.211C337.773 218.736 338.562 230.375 338.593 230.869L338.383 231.11L338.158 230.899C338.151 230.781 337.364 219.139 333.553 218.659L333.343 218.646C329.681 218.646 327.514 230.799 327.493 230.925L327.279 231.11" fill="#2C2C2C"/>
<path d="M332.96 218.718L332.573 216.947C332.573 216.947 333.401 216.229 333.735 216.416C334.157 216.652 334.025 218.991 334.025 218.991L332.96 218.718ZM335.053 221.82C335.851 221.551 337.646 216.299 337.668 215.669C337.752 213.644 332.876 209.912 332.534 209.266C332.189 208.63 331.108 205.739 331.108 205.739L325.676 206.653L328.148 210.593C328.148 210.593 328.915 214.026 328.874 214.776C328.835 215.515 330.488 218.693 330.488 218.693C330.488 218.693 328.885 218.344 328.88 219.097C328.87 219.862 330.864 220.382 330.864 220.382C330.864 220.382 331.963 222.701 332.868 222.802C333.771 222.901 333.716 221.441 333.716 221.441C333.716 221.441 334.735 221.929 335.053 221.82Z" fill="#FEB3A2"/>
<path d="M260.633 126.857H200.664V114.863H260.633V126.857Z" fill="#F3F3F3"/>
<path d="M247.717 125.473C247.464 125.473 247.256 125.296 247.256 125.078V116.181C247.256 115.963 247.464 115.786 247.717 115.786C247.972 115.786 248.178 115.963 248.178 116.181V125.078C248.178 125.296 247.972 125.473 247.717 125.473Z" fill="#2C2C2C"/>
<path d="M251.869 119.032L257.405 119.015L254.84 122.705L251.869 119.032Z" fill="white"/>
<path d="M252.539 119.36L254.577 122.083L256.336 119.347L252.539 119.36ZM254.609 123.167L254.291 123.01L251.445 119.206L251.404 118.791C251.47 118.657 251.605 118.571 251.754 118.571L257.058 118.554C257.202 118.554 257.333 118.633 257.401 118.76L257.384 119.165L254.927 122.986L254.609 123.167" fill="#2C2C2C"/>
<path d="M231.584 152.689H205.725C202.93 152.689 200.664 150.409 200.664 147.597V144.867C200.664 142.054 202.93 139.773 205.725 139.773H231.584C234.381 139.773 236.645 142.054 236.645 144.867V147.597C236.645 150.409 234.381 152.689 231.584 152.689Z" fill="#FCCA19"/>
<path d="M218.28 199.525C218.28 199.525 219.932 207.06 224.56 207.426C229.189 207.795 231.078 199.525 231.078 199.525C231.078 199.525 232.813 198.487 235.591 200.688C231.338 210.652 236.299 217.057 236.299 217.057L238.03 241.72H212.658L213.217 216.954C213.217 216.954 217.823 214.081 214.365 200.993C216.345 199.525 218.28 199.525 218.28 199.525" fill="#FCCA19"/>
<path d="M245.423 251.49C245.423 251.49 244.145 249.197 242.413 250.366C238.615 252.932 245.398 257.865 245.398 257.865C245.398 257.865 252.073 252.805 248.519 250.366C246.777 249.17 245.423 251.49 245.423 251.49Z" fill="white"/>
<path d="M243.295 250.038C242.986 250.038 242.675 250.142 242.366 250.351C241.625 250.853 241.258 251.451 241.246 252.182C241.208 254.473 244.669 257.251 245.395 257.808C246.122 257.228 249.626 254.312 249.574 252.028C249.558 251.352 249.231 250.803 248.572 250.349C248.154 250.063 247.724 249.966 247.298 250.064C246.312 250.291 245.617 251.466 245.617 251.466L245.425 251.577L245.23 251.461C245.23 251.461 244.577 250.31 243.626 250.077L243.295 250.038ZM245.398 258.326L245.268 258.286C245.084 258.15 240.751 254.962 240.797 252.173C240.812 251.292 241.257 250.548 242.119 249.965C242.647 249.608 243.19 249.497 243.734 249.629C244.542 249.828 245.14 250.527 245.428 250.935C245.729 250.524 246.36 249.807 247.2 249.613C247.745 249.482 248.295 249.603 248.823 249.966C249.601 250.499 250.005 251.191 250.022 252.019C250.086 254.793 245.718 258.141 245.531 258.282L245.398 258.326" fill="#2C2C2C"/>
<path d="M202.508 73.3463H174.369L176.572 44.7458H199.965L202.508 73.3463" fill="white"/>
<path d="M190.341 97.795H186.537C179.816 97.795 174.369 92.3156 174.369 85.5532V73.3463H202.508V85.5532C202.508 92.3156 197.06 97.795 190.341 97.795" fill="#DFDFDF"/>
<path d="M174.466 73.3463H146.23L152.975 44.7458H176.676L174.466 73.3463Z" fill="#898989"/>
<path d="M162.201 97.795H158.399C151.679 97.795 146.23 92.3156 146.23 85.5532V73.3463H174.37V85.5532C174.37 92.3156 168.922 97.795 162.201 97.795" fill="#282728"/>
<path d="M146.172 73.3463H118.094L129.879 44.7458H152.691L146.172 73.3463Z" fill="white"/>
<path d="M134.065 97.795H130.263C123.542 97.795 118.094 92.3156 118.094 85.5532V73.3463H146.233V85.5532C146.233 92.3156 140.786 97.795 134.065 97.795" fill="#DFDFDF"/>
<path d="M118.195 73.3463H89.9531L105.808 44.7458H130.086L118.195 73.3463Z" fill="#898989"/>
<path d="M105.924 97.795H102.122C95.4012 97.795 89.9531 92.3156 89.9531 85.5532V73.3463H118.092V85.5532C118.092 92.3156 112.644 97.795 105.924 97.795Z" fill="#282728"/>
<path d="M89.9168 73.3463H61.8145L81.9722 44.7458H105.638L89.9168 73.3463Z" fill="white"/>
<path d="M77.7861 97.795H73.9835C67.2613 97.795 61.8145 92.3156 61.8145 85.5532V73.3463H89.9536V85.5532C89.9536 92.3156 84.5051 97.795 77.7861 97.795" fill="#DFDFDF"/>
<path d="M62.5939 73.3463H34.5977L58.5364 44.7458H82.1113L62.5939 73.3463Z" fill="#898989"/>
<path d="M50.5684 97.795H46.7661C40.0458 97.795 34.5977 92.3156 34.5977 85.5532V73.3463H62.7368V85.5532C62.7368 92.3156 57.2887 97.795 50.5684 97.795Z" fill="#282728"/>
<path d="M202.842 73.3463H230.648L224.007 44.7458H200.664L202.842 73.3463" fill="#898989"/>
<path d="M214.677 97.795H218.479C225.198 97.795 230.647 92.3156 230.647 85.5532V73.3463H202.508V85.5532C202.508 92.3156 207.955 97.795 214.677 97.795Z" fill="#282728"/>
<path d="M230.706 73.3463H258.787L247.002 44.7458H224.189L230.706 73.3463Z" fill="white"/>
<path d="M242.819 97.795H246.621C253.343 97.795 258.79 92.3156 258.79 85.5532V73.3463H230.65V85.5532C230.65 92.3156 236.098 97.795 242.819 97.795" fill="#DFDFDF"/>
<path d="M259.01 73.3463H286.927L271.254 44.7458H247.256L259.01 73.3463Z" fill="#898989"/>
<path d="M270.956 97.795H274.758C281.478 97.795 286.926 92.3156 286.926 85.5532V73.3463H258.787V85.5532C258.787 92.3156 264.235 97.795 270.956 97.795" fill="#282728"/>
<path d="M286.963 73.3463H315.065L294.909 44.7458H271.242L286.963 73.3463Z" fill="white"/>
<path d="M299.095 97.795H302.899C309.618 97.795 315.067 92.3156 315.067 85.5532V73.3463H286.928V85.5532C286.928 92.3156 292.376 97.795 299.095 97.795" fill="#DFDFDF"/>
<path d="M315.645 73.3463H343.667L318.827 44.7458H295.23L315.645 73.3463Z" fill="#898989"/>
<path d="M327.696 97.795H331.498C338.22 97.795 343.666 92.3156 343.666 85.5532V73.3463H315.527V85.5532C315.527 92.3156 320.975 97.795 327.696 97.795" fill="#282728"/>
<path d="M185.902 218.915V227.42H198.11C199.165 227.42 200.108 226.756 200.473 225.755L202.923 219.039C203.167 218.064 202.437 217.118 201.442 217.118H196.306L196.205 213.158C196.183 212.308 195.729 211.532 195.003 211.104L194.722 210.937C194.125 210.584 193.378 211.027 193.389 211.725L193.432 214.558L190.284 218.778L185.902 218.915Z" fill="white"/>
<path d="M186.556 226.758H198.071C198.878 226.758 199.608 226.244 199.884 225.481L202.309 218.846C202.364 218.612 202.301 218.311 202.118 218.075C201.937 217.839 201.661 217.702 201.366 217.702H195.747L195.632 213.244C195.615 212.596 195.274 212.013 194.718 211.684L194.441 211.521C194.295 211.434 194.166 211.492 194.117 211.521C194.069 211.549 193.956 211.635 193.959 211.806L194.004 214.798L190.615 219.332L186.556 219.461V226.758ZM198.071 227.881H185.443V218.372L190.049 218.228L192.887 214.429L192.846 211.823C192.838 211.294 193.103 210.817 193.557 210.551C194.009 210.285 194.55 210.285 195.002 210.551L195.28 210.716C196.17 211.242 196.717 212.177 196.743 213.214L196.83 216.581H201.366C202.008 216.581 202.601 216.874 202.997 217.384C203.391 217.896 203.527 218.548 203.37 219.177L200.93 225.869C200.49 227.071 199.343 227.881 198.071 227.881Z" fill="#2C2C2C"/>
<path d="M372.564 177.6H402.422C403.092 177.6 403.638 178.622 403.638 179.881V208.07C403.638 209.33 403.092 210.352 402.422 210.352H372.564C371.892 210.352 371.348 209.33 371.348 208.07V179.881C371.348 178.622 371.892 177.6 372.564 177.6Z" fill="white"/>
<path d="M372.495 178.379C372.159 178.379 371.667 179.107 371.667 180.249V208.163C371.667 209.305 372.159 210.033 372.495 210.033H402.48C402.816 210.033 403.308 209.305 403.308 208.163V180.249C403.308 179.107 402.816 178.379 402.48 178.379H372.495ZM402.48 210.813H372.495C371.574 210.813 370.881 209.673 370.881 208.163V180.249C370.881 178.739 371.574 177.599 372.495 177.599H402.48C403.4 177.599 404.094 178.739 404.094 180.249V208.163C404.094 209.673 403.4 210.813 402.48 210.813Z" fill="#2C2C2C"/>
<path d="M387.485 182.213L391.05 189.502L399.018 190.67L393.253 196.344L394.613 204.355L387.485 200.572L380.358 204.355L381.72 196.344L375.953 190.67L383.921 189.502L387.485 182.213Z" fill="#FCCA19"/>
<path d="M375.861 125.646L375.337 125.454C374.076 124.994 373.276 124.831 373.276 124.831L372.729 124.721L372.947 123.628L373.495 123.735C373.53 123.743 374.369 123.913 375.718 124.404L376.242 124.597L375.861 125.646ZM381.62 128.762L381.158 128.452C380.52 128.02 379.895 127.637 379.297 127.297L378.812 127.023L379.362 126.051L379.848 126.326C380.47 126.679 381.115 127.078 381.781 127.525L382.244 127.837L381.62 128.762ZM386.522 133.12L386.141 132.711C385.626 132.16 385.109 131.647 384.589 131.166L384.178 130.788L384.934 129.969L385.345 130.347C385.883 130.843 386.423 131.377 386.955 131.949L387.337 132.357L386.522 133.12ZM390.355 138.448L390.068 137.967C389.686 137.323 389.289 136.707 388.885 136.122L388.567 135.664L389.484 135.027L389.801 135.487C390.221 136.092 390.629 136.729 391.027 137.397L391.312 137.877L390.355 138.448ZM393.02 144.45L392.84 143.922C392.614 143.256 392.359 142.586 392.069 141.915L393.092 141.464L392.568 141.658L393.092 141.464C393.393 142.172 393.662 142.87 393.898 143.561L394.076 144.089L393.02 144.45ZM394.214 150.885L394.167 150.329C394.109 149.617 394.022 148.892 393.903 148.158L393.812 147.609L394.912 147.427L395.003 147.977C395.129 148.741 395.219 149.496 395.28 150.238L395.326 150.794L394.214 150.885ZM394.95 157.598L393.846 157.43L393.93 156.878C394.037 156.172 394.122 155.446 394.177 154.703L394.219 154.145L395.332 154.228L395.29 154.786C395.231 155.56 395.145 156.313 395.033 157.047L394.95 157.598ZM393.128 164.155L392.083 163.766L392.277 163.243C392.519 162.591 392.754 161.894 392.971 161.16L393.128 160.625L394.199 160.943L394.04 161.477C393.815 162.238 393.574 162.956 393.322 163.63L393.128 164.155ZM390.02 170.219L389.083 169.611L389.387 169.143C389.585 168.836 389.993 168.183 390.486 167.254L390.747 166.761L391.732 167.282L391.472 167.777C390.958 168.744 390.531 169.429 390.322 169.751L390.02 170.219Z" fill="#2C2C2C"/>
<path d="M347.094 192.351L346.663 191.98C346.085 191.483 345.518 190.938 344.976 190.358L344.588 189.941L345.392 189.132L345.782 189.549C346.293 190.098 346.83 190.615 347.376 191.084L347.807 191.455L347.094 192.351ZM353.148 195.732L352.622 195.531C351.899 195.257 351.19 194.937 350.511 194.586L350.01 194.325L350.511 193.285L351.01 193.546C351.652 193.879 352.323 194.181 353.007 194.44L353.533 194.64L353.148 195.732ZM363.354 196.864L363.222 195.709L363.776 195.64C365.091 195.477 365.906 195.257 365.906 195.257L366.448 195.11L366.73 196.234L366.19 196.383C366.155 196.393 365.309 196.621 363.908 196.795L363.354 196.864ZM359.899 196.974L359.342 196.943C358.571 196.897 357.806 196.815 357.064 196.7L356.511 196.613L356.677 195.463L357.231 195.548C357.938 195.659 358.669 195.738 359.404 195.781L359.963 195.814L359.899 196.974" fill="#2C2C2C"/>
<path d="M32.7226 51.0687L32.4521 49.9891L32.9978 49.8539C34.18 49.5648 34.9962 49.4548 35.2921 49.4218L35.8522 49.3589L35.9795 50.4652L35.4194 50.5281C35.2062 50.5532 34.4187 50.6523 33.2699 50.9351L32.7226 51.0687ZM26.6034 53.5626L26.0719 52.5805L26.57 52.318C27.2828 51.9409 27.9764 51.614 28.6415 51.328L29.157 51.1049L29.6073 52.1247L29.0918 52.3479C28.4522 52.6229 27.7855 52.9388 27.1013 53.3002L26.6034 53.5626ZM21.2462 57.4034L20.4984 56.5689L20.9217 56.2012C21.512 55.6826 22.107 55.2048 22.6989 54.7617L23.1476 54.427L23.8285 55.3148L23.3783 55.6512C22.8087 56.077 22.2375 56.5375 21.6679 57.0341L21.2462 57.4034ZM16.9122 62.3488L15.9957 61.6998L16.3235 61.2472C16.7817 60.617 17.2495 60.0215 17.7268 59.4542L18.088 59.0283L18.9535 59.7402L18.5923 60.1692C18.1325 60.7129 17.6807 61.2881 17.2415 61.8963L16.9122 62.3488ZM13.7078 68.091L12.6799 67.6338L12.9122 67.1246C13.2336 66.4221 13.5694 65.7464 13.9178 65.0958L14.1819 64.6039L15.1779 65.1241L14.9138 65.6175C14.5765 66.2461 14.2519 66.9014 13.9385 67.5835L13.7078 68.091ZM11.5996 74.322L10.5049 74.0517L10.6418 73.5111C10.8232 72.7961 11.0316 72.0717 11.2718 71.3362L11.4437 70.805L12.5177 71.146L12.3442 71.6756C12.1135 72.3875 11.9098 73.0899 11.7364 73.7814L11.5996 74.322ZM10.8136 80.8233L9.68555 80.795L9.70147 80.2387C9.71897 79.4985 9.76669 78.7426 9.84625 77.9742L9.90354 77.421L11.0252 77.5341L10.968 78.0873C10.8916 78.8275 10.8454 79.5535 10.8279 80.2669L10.8136 80.8233ZM10.4493 87.5508L10.3331 87.0055C10.1772 86.2795 10.0467 85.533 9.94332 84.7693L9.8685 84.2161L10.987 84.0699L11.0602 84.6215C11.1604 85.3586 11.2862 86.0752 11.4357 86.7729L11.5535 87.3182L10.4493 87.5508ZM12.742 93.953L12.5081 93.447C12.1962 92.7776 11.9003 92.0798 11.6235 91.3554L11.4246 90.8336L12.4811 90.4423L12.6784 90.9641C12.9456 91.6634 13.232 92.336 13.5311 92.9835L13.7666 93.4895L12.742 93.953ZM16.3282 99.7424L15.9957 99.2945C15.5677 98.7162 15.1334 98.0924 14.7038 97.4229L14.4014 96.9515L15.3545 96.3543L15.6552 96.8257C16.0721 97.4732 16.4921 98.0782 16.9058 98.6377L17.2383 99.0871L16.3282 99.7424ZM21.0553 104.715L20.6209 104.361C20.5923 104.337 19.9304 103.797 18.936 102.771L18.5462 102.37L19.3608 101.598L19.7506 102.001C20.6941 102.973 21.3369 103.501 21.3369 103.501L21.7713 103.855L21.0553 104.715" fill="#2C2C2C"/>
<path d="M394.868 26.2988C394.867 32.4124 390.011 37.3683 384.023 37.3652C378.037 37.3636 373.186 32.4045 373.188 26.2893C373.191 20.1757 378.046 15.2213 384.033 15.2229C390.019 15.2261 394.872 20.1851 394.868 26.2988" fill="#DFDFDF"/>
<path d="M273.089 20.2995C273.088 22.8462 271.022 24.91 268.474 24.91C265.927 24.9084 263.863 22.843 263.863 20.2947C263.865 17.7479 265.932 15.6841 268.477 15.6841C271.025 15.6857 273.091 17.7511 273.089 20.2995" fill="#FCCA19"/>
<path d="M174.369 281.393C174.367 283.94 172.3 286.006 169.753 286.004C167.206 286.003 165.143 283.937 165.143 281.388C165.144 278.841 167.21 276.777 169.756 276.778C172.305 276.778 174.369 278.844 174.369 281.393" fill="#DFDFDF"/>
<path d="M264.782 278.333C263.361 278.333 262.023 278.866 261.018 279.836C260.011 280.805 259.458 282.094 259.458 283.466C259.456 284.838 260.009 286.126 261.015 287.098C262.02 288.067 263.358 288.602 264.781 288.602C267.716 288.602 270.106 286.301 270.107 283.47H270.673H270.107C270.109 282.099 269.554 280.808 268.549 279.839C267.543 278.868 266.204 278.334 264.782 278.333V278.333ZM264.781 289.695C263.056 289.695 261.432 289.046 260.212 287.87C258.994 286.692 258.324 285.128 258.324 283.466C258.326 281.803 258.997 280.238 260.217 279.062C261.437 277.887 263.059 277.24 264.782 277.24C266.507 277.241 268.13 277.89 269.349 279.066C270.569 280.243 271.241 281.807 271.241 283.47C271.239 286.903 268.339 289.695 264.781 289.695" fill="#2C2C2C"/>
<path d="M21.1868 218.629C20.0138 219.783 18.3827 220.515 16.6041 220.515C14.8636 220.515 13.2515 219.837 12.023 218.629C10.7945 217.402 10.1351 215.774 10.1351 214.052C10.1351 212.314 10.7945 210.683 12.023 209.474C13.2515 208.249 14.8811 207.569 16.6041 207.569C20.1787 207.569 23.0938 210.481 23.0747 214.052C23.0747 215.827 22.3408 217.459 21.1868 218.629V218.629ZM22.4882 208.174C20.9126 206.618 18.8218 205.739 16.6041 205.739C14.3865 205.739 12.2972 206.6 10.7216 208.174C9.16337 209.748 8.30104 211.818 8.30104 214.052C8.2836 216.268 9.16337 218.355 10.7216 219.911C12.2972 221.486 14.3865 222.345 16.6041 222.345C18.8218 222.345 20.9126 221.486 22.4882 219.911C24.0464 218.355 24.9072 216.268 24.9072 214.052C24.9262 211.837 24.0464 209.748 22.4882 208.174Z" fill="#FCCA19"/>
<path d="M69.7074 137.005L69.4936 136.947C66.3697 135.1 65.1152 131.223 65.0626 131.059C64.9969 130.848 65.1202 130.629 65.3372 130.564C65.5575 130.501 65.7844 130.619 65.8502 130.828C65.8617 130.864 67.0685 134.586 69.9228 136.274C70.1168 136.387 70.1776 136.631 70.0576 136.817L69.7074 137.005Z" fill="#09030F"/>
<path d="M20.2792 123.489C19.1931 123.489 18.3093 124.372 18.3093 125.456V136.099C18.3093 137.183 19.1931 138.066 20.2792 138.066H36.9256C38.0117 138.066 38.8955 137.183 38.8955 136.099V125.456C38.8955 124.372 38.0117 123.489 36.9256 123.489H20.2792ZM36.9256 138.85H20.2792C18.7636 138.85 17.5312 137.616 17.5312 136.099V125.456C17.5312 123.939 18.7636 122.705 20.2792 122.705H36.9256C38.4412 122.705 39.6735 123.939 39.6735 125.456V136.099C39.6735 137.616 38.4412 138.85 36.9256 138.85Z" fill="#2C2C2C"/>
<path d="M17.9271 126.857C17.7086 126.857 17.5313 126.67 17.5313 126.439C17.5297 126.205 17.707 126.017 17.9256 126.015L39.2776 125.934C39.4962 125.934 39.6735 126.121 39.6735 126.352C39.6751 126.586 39.4977 126.774 39.2792 126.776L17.9271 126.857Z" fill="#2C2C2C"/>
<path d="M17.9271 136.083C17.7102 136.083 17.5328 135.896 17.5312 135.664C17.5312 135.432 17.707 135.244 17.9255 135.242L39.2777 135.16C39.4962 135.16 39.6719 135.348 39.6735 135.579C39.6735 135.81 39.4978 136 39.2793 136L17.9271 136.083Z" fill="#2C2C2C"/>
<path d="M22.5259 123.628C22.2911 123.614 22.1289 123.429 22.1413 123.213L22.3715 119.372L22.5259 119.082L22.8442 119.015L37.5254 122.479C37.7339 122.527 37.8637 122.739 37.8142 122.95C37.7663 123.16 37.5609 123.291 37.3508 123.243L23.1145 119.882L22.9121 123.26C22.8998 123.468 22.7298 123.628 22.5259 123.628" fill="#2C2C2C"/>
<path d="M37.4281 123.167L37.2536 123.126L26.2794 117.714L26.1722 120.033C26.161 120.26 25.9817 120.468 25.7545 120.422C25.532 120.412 25.3624 120.221 25.3736 119.995L25.5096 117.057L25.7033 116.725L26.0826 116.708L37.6025 122.39C37.8009 122.488 37.8842 122.732 37.7882 122.936C37.7194 123.081 37.5769 123.167 37.4281 123.167" fill="#2C2C2C"/>
<path d="M338.198 45.207H47.444C47.227 45.207 47.0508 45.0003 47.0508 44.7457C47.0508 44.491 47.227 44.2844 47.444 44.2844H338.198C338.413 44.2844 338.591 44.491 338.591 44.7457C338.591 45.0003 338.413 45.207 338.198 45.207Z" fill="#2C2C2C"/>
<path d="M56.2768 36.8181C55.1768 36.8181 54.2822 37.7871 54.2822 38.9788C54.2822 40.1705 55.1768 41.1412 56.2768 41.1412C57.3768 41.1412 58.2729 40.1705 58.2729 38.9788C58.2729 37.7871 57.3768 36.8181 56.2768 36.8181ZM56.2768 41.9781C54.7504 41.9781 53.5098 40.6324 53.5098 38.9788C53.5098 37.3252 54.7504 35.9812 56.2768 35.9812C57.8032 35.9812 59.0453 37.3252 59.0453 38.9788C59.0453 40.6324 57.8032 41.9781 56.2768 41.9781Z" fill="#2C2C2C"/>
<path d="M62.7344 38.9797C62.7344 37.3249 64.078 35.9812 65.7328 35.9812C67.3892 35.9812 68.7312 37.3249 68.7312 38.9797C68.7312 40.6361 67.3892 41.9781 65.7328 41.9781C64.078 41.9781 62.7344 40.6361 62.7344 38.9797Z" fill="#2C2C2C"/>
<path d="M74.9633 36.7724C73.7465 36.7724 72.756 37.7629 72.756 38.9797C72.756 40.1964 73.7465 41.1869 74.9633 41.1869C76.1801 41.1869 77.1706 40.1964 77.1706 38.9797C77.1706 37.7629 76.1801 36.7724 74.9633 36.7724ZM74.9633 41.9781C73.3098 41.9781 71.9648 40.6331 71.9648 38.9797C71.9648 37.3262 73.3098 35.9812 74.9633 35.9812C76.6152 35.9812 77.9617 37.3262 77.9617 38.9797C77.9617 40.6331 76.6152 41.9781 74.9633 41.9781Z" fill="#2C2C2C"/>
<path d="M302.68 41.5167H109.259C108.024 41.5167 107.021 40.5337 107.021 39.3222V38.637C107.021 37.4255 108.024 36.4425 109.259 36.4425H302.68C303.916 36.4425 304.918 37.4255 304.918 38.637V39.3222C304.918 40.5337 303.916 41.5167 302.68 41.5167" fill="#DFDFDF"/>
<path d="M66.2592 187.748L73.6622 191.072L78.5005 193.058L80.2667 198.353L78.4363 202.954L72.7854 206.661L72.7462 204.64C72.7462 204.64 76.0547 202.531 75.931 201.266C75.5255 197.094 71.5703 198.618 71.5703 198.618C71.5703 198.618 70.5885 200.206 68.6266 199.345C67.4898 198.847 65.3573 195.573 65.3573 195.573L61.3535 193.677L66.2592 187.748Z" fill="#FEB3A2"/>
</svg>
