<svg width="288" height="219" viewBox="0 0 288 219" fill="none" xmlns="http://www.w3.org/2000/svg">
<path d="M106.628 198.805L108.897 212.179H104.121L99.8223 198.447L106.628 198.805Z" fill="#FF987C"/>
<path d="M102.807 210.029C102.329 210.149 101.374 213.611 102.21 215.164C102.687 216.119 104.359 215.283 106.508 214.925C108.777 214.567 110.687 214.805 112.239 214.447C113.672 213.97 118.329 212.179 118.329 212.179L117.851 210.985C117.851 210.985 115.463 211.582 114.389 211.223C113.195 210.865 108.419 208.955 108.419 208.955C108.299 209.194 107.463 210.268 106.508 210.985C105.553 211.82 105.433 211.701 104.836 211.582C103.762 211.223 103.642 209.791 102.807 210.029Z" fill="black"/>
<path d="M80.0001 196.776L77.3732 210.029L72.8359 208.358L73.6718 193.91L80.0001 196.776Z" fill="#FF987C"/>
<path d="M72.3577 205.85C71.8801 205.731 69.7308 208.716 69.9696 210.388C70.089 211.462 71.8801 211.223 74.1487 211.701C76.4174 212.179 78.089 213.134 79.6412 213.253C81.1935 213.373 86.089 213.253 86.089 213.253V211.94C86.089 211.94 83.7009 211.701 82.7457 210.865C81.7904 210.149 77.9695 206.567 77.9695 206.567C77.8501 206.686 76.6561 207.403 75.4621 207.88C74.2681 208.238 74.1487 208.119 73.6711 207.761C72.8353 207.403 73.1935 206.089 72.3577 205.85Z" fill="black"/>
<path d="M199.403 16.1193C137.194 -23.0448 102.448 60.4177 62.9256 60.6565C22.2093 60.8953 11.8212 104.597 48.7167 151.164C84.6569 196.537 131.582 213.85 160.597 213.014C208.716 211.82 250.507 156.417 227.821 122.865C207.403 92.6564 240.477 42.0297 199.403 16.1193Z" fill="#F3F3F3"/>
<path d="M158.21 218.388C126.569 218.388 79.6433 198.806 44.4195 154.388C23.1659 127.522 15.6435 98.9849 24.8375 79.7611C30.8076 67.2238 43.1061 60.2984 59.5837 60.2984C74.6284 60.179 89.1956 48.1194 104.718 35.2239C130.628 13.612 160.001 -10.8656 200.359 14.5672C225.195 30.2089 224.001 54.5671 222.807 78.2088C221.971 95.4028 221.136 111.761 229.852 124.537C238.688 137.671 238.688 155.343 229.613 173.015C216.24 199.044 187.703 217.671 160.24 218.388C159.524 218.388 158.807 218.388 158.21 218.388ZM166.569 4.89557C142.927 4.89557 123.345 21.1343 105.554 36.0597C89.912 49.0746 75.2254 61.3731 59.7031 61.3731C43.8225 61.4925 31.7628 68.179 26.0315 80.2387C17.0763 98.9849 24.4793 127.045 45.4942 153.552C80.4792 197.612 126.927 217.074 158.33 217.074C158.927 217.074 159.643 217.074 160.24 217.074C187.225 216.358 215.404 197.97 228.539 172.418C237.374 155.224 237.494 138.03 228.897 125.254C219.942 112 220.897 94.8058 221.733 78.0894C222.927 54.8059 224.121 30.806 199.882 15.5224C187.703 8.00004 176.718 4.89557 166.569 4.89557Z" fill="#FCCA19"/>
<path d="M62.807 155.701C62.807 155.701 62.6876 155.701 62.807 155.701C62.3294 155.82 61.9711 155.582 61.8517 155.223C51.3443 109.492 12.1802 85.4923 11.822 85.2534C11.4638 85.0146 11.3444 84.6564 11.5832 84.2982C11.822 83.94 12.1802 83.8206 12.5384 84.0594C12.8966 84.2982 52.6577 108.537 63.2846 154.865C63.2846 155.223 63.1652 155.582 62.807 155.701Z" fill="#2C2C2C"/>
<path d="M45.8507 119.402C45.8507 119.402 36.2984 117.253 28.6567 120.596C19.9403 124.417 16 131.701 16 131.701C16 131.701 27.1045 133.611 34.1492 130.507C41.0746 127.402 45.8507 119.402 45.8507 119.402Z" fill="#2C2C2C"/>
<path d="M33.4321 103.045C33.4321 103.045 25.5515 101.373 19.462 103.88C12.4172 106.865 9.19336 112.477 9.19336 112.477C9.19336 112.477 18.268 114.03 23.9993 111.641C29.6113 109.253 33.4321 103.045 33.4321 103.045Z" fill="#2C2C2C"/>
<path d="M38.0871 77.6117C38.0871 77.6117 32.714 82.9848 31.6393 89.1938C30.4453 96.3579 33.4304 101.731 33.4304 101.731C33.4304 101.731 39.2811 95.2833 40.2364 89.552C41.1916 83.8206 38.0871 77.6117 38.0871 77.6117Z" fill="#2C2C2C"/>
<path d="M23.1646 93.3727C23.1646 93.3727 17.9109 90.2683 12.7766 90.7459C6.92586 91.3429 3.34375 94.8056 3.34375 94.8056C3.34375 94.8056 9.55273 98.0294 14.2094 97.5518C18.9855 97.0742 23.1646 93.3727 23.1646 93.3727Z" fill="#2C2C2C"/>
<path d="M24.4783 72.2385C24.4783 72.2385 20.8962 77.134 20.7768 82.2684C20.6574 88.1191 23.7619 92.0594 23.7619 92.0594C23.7619 92.0594 27.5827 86.2086 27.7021 81.5519C27.8215 76.8952 24.4783 72.2385 24.4783 72.2385Z" fill="#2C2C2C"/>
<path d="M13.6119 85.6117C13.6119 85.6117 11.7015 81.552 8.23882 79.4027C4.17912 77.0146 0 77.2535 0 77.2535C0 77.2535 2.38807 81.9102 5.61194 83.8206C8.95522 85.7311 13.6119 85.6117 13.6119 85.6117Z" fill="#2C2C2C"/>
<path d="M261.853 189.492H52.1818C49.6744 189.492 47.6445 187.462 47.6445 184.955V28.4178C47.6445 25.9103 49.6744 23.8805 52.1818 23.8805H261.972C264.48 23.8805 266.51 25.9103 266.51 28.4178V184.955C266.39 187.462 264.36 189.492 261.853 189.492Z" fill="white"/>
<path d="M261.852 189.85H52.1806C49.4344 189.85 47.2852 187.701 47.2852 184.955V28.4177C47.2852 25.6715 49.4344 23.5222 52.1806 23.5222H261.971C264.717 23.5222 266.867 25.6715 266.867 28.4177V184.955C266.867 187.701 264.598 189.85 261.852 189.85ZM52.1806 24.358C49.912 24.358 48.1209 26.1491 48.1209 28.4177V184.955C48.1209 187.223 49.912 189.014 52.1806 189.014H261.971C264.24 189.014 266.031 187.223 266.031 184.955V28.4177C266.031 26.1491 264.24 24.358 261.971 24.358H52.1806Z" fill="#696969"/>
<path d="M200.783 138.516C200.536 138.516 200.178 139.07 200.178 139.938V161.704C200.178 162.572 200.536 163.126 200.783 163.126H223.982C224.229 163.126 224.587 162.572 224.587 161.704V139.938C224.587 139.07 224.229 138.516 223.982 138.516H200.783ZM223.982 163.808H200.783C200.049 163.808 199.496 162.904 199.496 161.704V139.938C199.496 138.738 200.049 137.834 200.783 137.834H223.982C224.716 137.834 225.269 138.738 225.269 139.938V161.704C225.269 162.904 224.716 163.808 223.982 163.808Z" fill="#2C2C2C"/>
<path d="M205.606 155.564H215.511C216.203 155.564 216.829 155.127 217.069 154.477L219.154 148.818C219.202 148.622 219.149 148.365 218.992 148.164C218.836 147.965 218.6 147.851 218.348 147.851H213.505L213.407 144.042C213.392 143.491 213.1 142.996 212.624 142.717L212.384 142.577C212.259 142.503 212.15 142.554 212.109 142.577C212.07 142.601 211.974 142.674 211.977 142.816L212.017 145.37L209.097 149.241L205.606 149.35V155.564ZM215.511 156.531H204.639V148.413L208.604 148.29L211.044 145.053L211.01 142.832C211.003 142.379 211.232 141.971 211.622 141.743C212.015 141.512 212.483 141.515 212.873 141.743L213.114 141.882C213.879 142.333 214.35 143.131 214.374 144.019L214.448 146.883H218.348C218.902 146.883 219.415 147.133 219.755 147.571C220.096 148.009 220.213 148.567 220.077 149.103L217.975 154.811C217.597 155.84 216.607 156.531 215.511 156.531Z" fill="#2C2C2C"/>
<path d="M237.233 137.834H255.343C255.751 137.834 256.081 138.445 256.081 139.198V156.056C256.081 156.809 255.751 157.421 255.343 157.421H237.233C236.825 157.421 236.494 156.809 236.494 156.056V139.198C236.494 138.445 236.825 137.834 237.233 137.834Z" fill="white"/>
<path d="M237.427 138.252C237.186 138.252 236.915 138.733 236.915 139.378V155.876C236.915 156.521 237.186 157.003 237.427 157.003H255.149C255.39 157.003 255.66 156.521 255.66 155.876V139.378C255.66 138.733 255.39 138.252 255.149 138.252H237.427ZM255.149 157.421H237.427C236.904 157.421 236.494 156.742 236.494 155.876V139.378C236.494 138.512 236.904 137.834 237.427 137.834H255.149C255.672 137.834 256.081 138.512 256.081 139.378V155.876C256.081 156.742 255.672 157.421 255.149 157.421Z" fill="#2C2C2C"/>
<path d="M251.728 153.793H242.297V144.363H251.728V153.793Z" fill="#FCCA19"/>
<path d="M247.375 153.793H245.924V144.363H247.375V153.793Z" fill="#2C2C2C"/>
<path d="M244.222 141.969L244.17 141.972C243.928 142 243.781 142.293 243.7 142.535C243.555 142.966 243.596 143.278 243.825 143.486C244.325 143.939 245.623 143.881 246.417 143.78C245.759 142.934 244.786 141.969 244.222 141.969ZM245.369 144.363C244.644 144.363 243.851 144.25 243.392 143.835C243.013 143.49 242.924 143.005 243.129 142.394C243.318 141.831 243.641 141.519 244.091 141.467C245.31 141.333 246.862 143.41 247.159 143.829L247.374 144.131L246.97 144.21C246.834 144.237 246.14 144.363 245.369 144.363Z" fill="#2C2C2C"/>
<path d="M246.881 143.779C247.676 143.881 248.975 143.938 249.473 143.485C249.702 143.277 249.743 142.966 249.598 142.535C249.517 142.293 249.37 142 249.128 141.972C248.573 141.906 247.559 142.908 246.881 143.779ZM247.929 144.363C247.158 144.363 246.464 144.237 246.328 144.21L245.924 144.131L246.139 143.829C246.437 143.41 247.997 141.333 249.207 141.467C249.657 141.519 249.98 141.831 250.169 142.394C250.374 143.005 250.285 143.49 249.906 143.835C249.447 144.25 248.654 144.363 247.929 144.363Z" fill="#2C2C2C"/>
<path d="M179.941 99.8207H250.986V101.731H179.941V99.8207Z" fill="#BBBBBB"/>
<path d="M179.941 103.642H250.986V105.552H179.941V103.642Z" fill="#BBBBBB"/>
<path d="M92.0598 40.8357H165.731C167.522 40.8357 168.955 42.2685 168.955 44.0596V129.91C168.955 131.701 167.522 133.134 165.731 133.134H92.0598C90.2688 133.134 88.8359 131.701 88.8359 129.91V44.0596C88.8359 42.2685 90.2688 40.8357 92.0598 40.8357Z" fill="#F3F3F3"/>
<path d="M124.655 70.0894L99.4609 69.6118L100.774 68.8953C106.028 65.7909 114.625 60.2983 114.983 58.8655C115.222 58.1491 114.983 57.4327 114.625 56.9551C114.267 56.4775 113.67 56.2386 113.073 56.2386C111.759 56.2386 111.162 58.0297 111.162 58.0297L110.327 57.7909C110.327 57.6715 111.043 55.5222 112.954 55.4028C113.789 55.4028 114.625 55.761 115.222 56.4775C115.819 57.1939 116.058 58.2685 115.819 59.1043C115.7 59.7013 114.625 60.6566 113.312 61.7312L124.655 70.0894ZM102.327 68.7759L122.028 69.1341L112.476 62.0894C109.371 64.4774 104.834 67.2237 102.327 68.7759Z" fill="#B1C7F0"/>
<path d="M224.476 66.9849H179.461V75.8207H224.476V66.9849Z" fill="#DFDFDF"/>
<path d="M202.744 95.164H183.282C181.133 95.164 179.461 93.4924 179.461 91.3431V89.4327C179.461 87.2835 181.133 85.6118 183.282 85.6118H202.744C204.894 85.6118 206.565 87.2835 206.565 89.4327V91.3431C206.565 93.4924 204.894 95.164 202.744 95.164Z" fill="#DFDFDF"/>
<path d="M266.028 32.4775H47.8789V33.3134H266.028V32.4775Z" fill="#696969"/>
<path d="M54.8058 30.6866C53.6118 30.6866 52.5371 29.7314 52.5371 28.4179C52.5371 27.2239 53.4924 26.1493 54.8058 26.1493C55.9998 26.1493 57.0744 27.1045 57.0744 28.4179C57.0744 29.7314 55.9998 30.6866 54.8058 30.6866ZM54.8058 27.1045C54.0894 27.1045 53.3729 27.7015 53.3729 28.5373C53.3729 29.3732 53.97 29.9702 54.8058 29.9702C55.5222 29.9702 56.2386 29.3732 56.2386 28.5373C56.2386 27.7015 55.5222 27.1045 54.8058 27.1045Z" fill="#DFDFDF"/>
<path d="M59.4629 28.5373C59.4629 27.3433 60.4181 26.2687 61.7316 26.2687C62.9256 26.2687 64.0003 27.2239 64.0003 28.5373C64.0003 29.7314 63.045 30.806 61.7316 30.806C60.5375 30.6866 59.4629 29.7314 59.4629 28.5373Z" fill="#DFDFDF"/>
<path d="M68.6556 30.8059C67.3422 30.8059 66.2676 29.7313 66.2676 28.4178C66.2676 27.1044 67.3422 26.0298 68.6556 26.0298C69.9691 26.0298 71.0437 27.1044 71.0437 28.4178C71.0437 29.8507 69.9691 30.8059 68.6556 30.8059ZM68.6556 26.985C67.8198 26.985 67.1034 27.7014 67.1034 28.5372C67.1034 29.3731 67.8198 30.0895 68.6556 30.0895C69.4915 30.0895 70.2079 29.3731 70.2079 28.5372C70.2079 27.7014 69.4915 26.985 68.6556 26.985Z" fill="#DFDFDF"/>
<path d="M239.642 30.5672H94.6872C93.732 30.5672 93.0156 29.8508 93.0156 28.8956V28.418C93.0156 27.4628 93.732 26.7463 94.6872 26.7463H239.762C240.717 26.7463 241.433 27.4628 241.433 28.418V28.8956C241.433 29.8508 240.597 30.5672 239.642 30.5672Z" fill="#DFDFDF"/>
<path d="M72.9551 68.6565L73.1938 74.9848C73.1938 74.9848 74.8655 77.6117 78.3282 76.8953C81.7909 76.1789 83.1043 74.3878 83.1043 74.3878L78.9252 69.3729L72.9551 68.6565Z" fill="#FEB49C"/>
<path d="M74.2685 65.9104C74.2685 65.9104 70.5671 64.3581 70.3283 66.388C70.0895 68.6566 80.4775 72.4775 81.7909 69.3731C84.776 61.9701 76.8954 55.2835 75.2238 55.8806C73.5521 56.4776 74.8656 60.6567 74.8656 62.0895C74.7462 63.6417 74.2685 65.9104 74.2685 65.9104Z" fill="#FEB49C"/>
<path d="M111.045 51.1043L116.418 53.6118C116.418 53.6118 119.523 48.9551 120.12 47.761C120.717 46.567 121.075 43.9402 121.075 42.7461C121.194 41.5521 122.149 39.0446 120.358 39.5223C118.448 39.9999 116.776 40.9551 116.06 41.9103C113.791 44.776 113.552 47.8804 113.552 47.8804L111.045 51.1043Z" fill="#F3A08C"/>
<path d="M91.9393 141.015H111.999C112.477 141.015 112.835 141.492 112.835 141.97V168.955C112.835 169.552 112.477 169.91 111.999 169.91H91.9393C91.4617 169.91 91.1035 169.432 91.1035 168.955V141.97C91.1035 141.492 91.4617 141.015 91.9393 141.015Z" fill="#F3F3F3"/>
<path d="M119.164 141.015H139.224C139.701 141.015 140.059 141.492 140.059 141.97V168.955C140.059 169.552 139.701 169.91 139.224 169.91H119.164C118.686 169.91 118.328 169.432 118.328 168.955V141.97C118.328 141.492 118.686 141.015 119.164 141.015Z" fill="#F3F3F3"/>
<path d="M147.461 141.015H167.52C167.998 141.015 168.356 141.492 168.356 141.97V168.955C168.356 169.552 167.998 169.91 167.52 169.91H147.461C146.983 169.91 146.625 169.432 146.625 168.955V141.97C146.625 141.492 146.983 141.015 147.461 141.015Z" fill="#EBF3F9"/>
<path d="M98.9843 147.223C98.9843 147.223 100.178 148.417 101.85 148.537C103.522 148.656 104.477 147.104 104.477 147.104C104.477 147.104 106.148 147.343 107.223 148.179C108.298 149.014 110.925 152.477 110.925 152.477L108.417 155.104L105.79 153.432L106.746 162.626H97.4321L97.6709 153.432L96.1187 155.223L92.7754 153.791C92.7754 153.791 94.5664 149.97 95.4023 149.014C96.4769 148.179 98.9843 147.223 98.9843 147.223Z" fill="#FCCA19"/>
<path d="M73.5498 73.0746L73.0721 68.7761C73.0721 68.7761 70.0871 67.5821 70.6841 66.0299C71.2811 64.4776 74.6243 66.1493 74.6243 66.1493C74.6243 66.1493 75.1019 64.4776 74.9825 61.7314C74.7437 59.1045 73.9079 57.4329 74.9825 56.597C76.0572 55.6418 77.6095 56.7165 75.9378 53.4926C74.2662 50.3881 70.6841 48.1195 69.9677 51.2239C69.2513 54.3284 67.102 53.9702 65.5498 55.2836C63.9975 56.597 65.6691 62.3284 65.6691 62.3284C65.6691 62.3284 63.1617 62.0896 62.6841 63.7612C62.2065 65.5523 62.2065 70.3284 66.8632 71.7612C71.4005 73.194 73.5498 73.0746 73.5498 73.0746Z" fill="#2C2C2C"/>
<path d="M78.8055 70.8058C76.8951 70.8058 75.1041 70.3282 75.1041 70.3282C74.9847 70.3282 74.8652 70.0894 74.8652 69.97C74.8652 69.8506 75.104 69.7312 75.2234 69.7312C75.2234 69.7312 77.4921 70.3282 79.6413 70.2088C79.8801 70.2088 79.9995 70.3282 79.9995 70.4476C79.9995 70.567 79.8801 70.8058 79.7607 70.8058C79.4025 70.8058 79.1637 70.8058 78.8055 70.8058Z" fill="#130514"/>
<path d="M72.3582 130.865C72.3582 130.865 71.2836 130.865 71.2836 135.761C71.1642 140.656 75.7015 160.477 75.8209 165.97C75.9403 171.462 71.2836 195.223 71.7612 197.373C72.2388 199.641 72.9552 201.193 72.9552 201.193L72 203.82L78.6865 205.611L79.9999 202.268C79.9999 202.268 80.9552 202.268 82.6268 200.477C84.2985 198.686 89.5522 171.701 89.5522 171.701L77.4925 129.791L72.3582 130.865Z" fill="#2C2C2C"/>
<path d="M95.9999 127.641C95.9999 127.641 104 158.806 105.672 165.85C107.343 173.014 110.448 194.268 110.328 197.731C110.209 201.194 108.179 203.94 108.179 203.94L109.373 207.044L101.851 208.716L100.657 205.014C100.657 205.014 97.5522 205.134 96.597 202.388C95.6417 199.641 89.5522 171.701 89.5522 171.701C89.5522 171.701 78.3283 140.776 77.4925 137.91C76.6567 135.164 75.582 130.388 75.582 130.388C75.582 130.388 82.7463 126.806 86.0895 127.164C89.4328 127.522 95.9999 127.641 95.9999 127.641Z" fill="#696969"/>
<path d="M112.119 66.3878L113.313 65.4326C120.358 59.7012 130.865 50.3878 131.104 48.2386C131.224 47.1639 130.865 46.2087 130.03 45.4923C129.313 44.8953 128.477 44.6565 127.641 44.7759C125.731 45.1341 125.253 47.7609 125.253 47.7609L124.418 47.6415C124.418 47.5221 125.015 44.4177 127.522 43.9401C128.716 43.7013 129.791 44.0595 130.746 44.8953C131.701 45.7311 132.179 47.0445 132.059 48.358C131.94 49.1938 130.746 50.746 128.955 52.6565L146.507 61.9699L112.119 66.3878ZM128.239 53.2535C124.059 57.4326 117.731 62.9251 114.985 65.1937L143.641 61.4923L128.239 53.2535Z" fill="#898989"/>
<path d="M122.15 55.7611L127.761 61.4924L134.567 54.3282L146.747 59.9402C148.776 60.8954 150.329 62.6864 151.045 64.8357C153.075 71.2834 157.612 85.1341 158.806 88.2386C160.358 92.2983 165.612 106.507 165.612 106.507L165.493 113.433L158.806 115.224L155.582 110.806L145.911 86.0894L149.612 113.91L132.538 123.821L111.881 117.015L108.777 83.2237L98.866 110.448L96.7168 86.4476L109.493 64.3581L122.15 55.7611Z" fill="#696969"/>
<path d="M156.538 110.686C156.418 110.686 156.299 110.567 156.299 110.447C156.299 110.328 156.299 110.089 156.538 110.089L164.538 107.582C164.657 107.582 164.896 107.582 164.896 107.821C164.896 107.94 164.896 108.179 164.657 108.179L156.538 110.686C156.538 110.567 156.538 110.686 156.538 110.686Z" fill="#130514"/>
<path d="M128.717 60.1789L133.015 64.4774L137.911 54.8058L133.971 53.7312L128.717 60.1789Z" fill="#FCCA19"/>
<path d="M127.402 60.7759L123.939 66.0297L117.969 57.4327L122.387 55.5222L127.402 60.7759Z" fill="#FCCA19"/>
<path d="M132.894 64.8357C132.775 64.8357 132.775 64.8357 132.655 64.7163L128.476 60.2984C128.357 60.179 128.357 60.0596 128.476 59.9402L133.73 53.3731C133.849 53.2537 133.969 53.2537 134.088 53.2537L138.028 54.3283C138.148 54.3283 138.148 54.4477 138.267 54.4477C138.267 54.5671 138.267 54.5671 138.267 54.6865L133.252 64.4775C133.133 64.8357 133.014 64.8357 132.894 64.8357ZM129.073 60.179L132.775 64.1193L137.431 55.0447L133.969 54.0895L129.073 60.179Z" fill="#130514"/>
<path d="M124.059 66.3879C123.94 66.3879 123.82 66.3879 123.82 66.2685L119.641 60.2984L117.731 57.7909C117.731 57.6715 117.611 57.6715 117.731 57.5521C117.731 57.4327 117.85 57.4327 117.85 57.3133L121.79 55.0446C121.91 54.9252 122.029 55.0446 122.149 55.0446L127.641 60.6566C127.761 60.776 127.761 60.8954 127.641 61.0148L124.298 66.2685C124.298 66.2685 124.179 66.3879 124.059 66.3879ZM118.447 57.6715L120.119 59.9402L124.059 65.5521L127.044 60.8954L121.91 55.6417L118.447 57.6715Z" fill="#130514"/>
<path d="M133.132 121.194C133.012 121.194 132.893 121.074 132.893 120.955L127.4 61.9699C127.4 61.8505 127.52 61.6117 127.639 61.6117C127.878 61.6117 127.997 61.7311 127.997 61.8505L133.371 120.716C133.371 120.955 133.251 121.194 133.132 121.194Z" fill="#130514"/>
<path d="M73.1935 74.1491C73.1935 74.1491 69.1339 74.9849 68.1787 77.6117C67.2235 80.2386 66.8652 98.0296 66.7458 104.597C66.507 111.164 65.4324 124.656 67.9399 125.97C70.3279 127.283 71.0443 128.119 71.0443 128.119L70.9249 131.462C70.9249 131.462 80.3577 128.835 85.0144 128.477C89.6711 128 97.3129 127.641 97.3129 127.641L97.1935 124.895C97.1935 124.895 99.4621 124.059 99.4621 117.612C99.8203 113.074 97.6711 89.552 97.6711 89.552C97.6711 89.552 111.641 85.2535 113.552 82.5072C115.462 79.6416 123.701 54.6864 123.701 54.6864L117.373 52.6566L116.776 53.7312L111.283 50.5073C111.283 50.5073 103.761 64.8356 99.9398 65.6715C96.2383 66.3879 85.6115 69.4924 83.4622 70.2088C81.313 70.9252 80.5965 71.761 80.5965 71.761L82.507 73.7909C82.507 73.7909 83.104 75.9401 79.7607 76.1789C77.0144 76.2983 73.1935 74.1491 73.1935 74.1491Z" fill="#FCCA19"/>
<path d="M72.9556 79.0446C72.8362 79.0446 72.7168 78.9252 72.7168 78.8058C72.7168 78.6863 72.8362 78.4475 72.9556 78.4475C73.1944 78.4475 95.2839 77.1341 101.254 73.4326C107.224 69.7311 115.821 54.2088 115.941 54.0894C116.06 53.97 116.179 53.8506 116.299 53.97C116.418 54.0894 116.538 54.2088 116.418 54.3282C116.06 55.0446 107.702 70.0894 101.612 73.9102C95.4033 77.7311 73.9108 79.0446 72.9556 79.0446Z" fill="#130514"/>
<path d="M83.9407 94.4475C80.5974 94.4475 76.5378 93.3729 74.7467 90.6267C74.6273 90.5073 74.7467 90.2685 74.8661 90.2685C74.9855 90.149 75.2243 90.2685 75.2243 90.3879C77.3735 93.6117 83.1049 94.3281 86.2094 93.7311C89.4332 93.0147 96.478 91.4625 96.478 91.4625L96.5974 92.0595C96.5974 92.0595 89.5526 93.6117 86.3287 94.3281C85.6123 94.4475 84.7765 94.4475 83.9407 94.4475Z" fill="#130514"/>
<path d="M92.4162 76.2983H92.2967L87.4013 73.4326C87.2819 73.3132 87.1625 73.1938 87.2819 73.0744C87.4013 72.955 87.5207 72.8356 87.6401 72.955L92.5356 75.8206C92.655 75.94 92.7744 76.0595 92.655 76.1789C92.5356 76.1789 92.5356 76.2983 92.4162 76.2983Z" fill="#130514"/>
<path d="M73.1945 128.597C73.0751 128.597 72.9557 128.477 72.9557 128.358C72.8363 128.239 72.9557 128 73.0751 128C73.3139 127.88 79.4034 125.373 83.9407 125.492C88.478 125.612 96.0004 124.537 96.0004 124.537C96.1198 124.537 96.3586 124.657 96.3586 124.776C96.3586 124.895 96.2392 125.134 96.1198 125.134C96.0004 125.134 88.478 126.209 83.9407 126.089C79.4034 125.97 73.3139 128.477 73.1945 128.597Z" fill="#130514"/>
<path d="M78.9251 76.5372C76.4176 76.5372 73.5519 74.8655 73.4325 74.7461C73.3131 74.6267 73.1937 74.5073 73.3131 74.3879C73.4325 74.2685 73.5519 74.1491 73.6713 74.2685C73.6713 74.2685 77.3728 76.5372 79.9997 75.8208C81.3131 75.4626 81.6713 74.985 81.9101 74.6267C82.0295 74.2685 81.9101 74.0297 81.9101 74.0297C81.7907 73.9103 81.9101 73.6715 82.0295 73.6715C82.1489 73.5521 82.3877 73.6715 82.3877 73.7909C82.3877 73.7909 82.6265 74.2685 82.3877 74.8656C82.1489 75.582 81.3131 76.0596 80.1191 76.4178C79.8803 76.5372 79.4027 76.5372 78.9251 76.5372Z" fill="#130514"/>
<path d="M125.97 146.268C125.97 146.268 126.687 149.492 128.597 149.612C130.507 149.731 131.343 146.268 131.343 146.268C131.343 146.268 132.06 145.791 133.254 146.746C131.463 150.925 133.492 153.671 133.492 153.671L134.209 164.179H123.582L123.821 153.671C123.821 153.671 125.731 152.477 124.298 146.865C125.134 146.268 125.97 146.268 125.97 146.268Z" fill="#BBBBBB"/>
<path d="M154.388 147.582H161.075L162.03 151.522L163.702 165.134L160.597 165.373L157.851 154.029L156.179 165.373L152.836 164.776L153.552 151.761L154.388 147.582Z" fill="#4060F0"/>
<path d="M117.016 52.6565L123.344 54.567L125.135 49.9103C125.135 49.9103 129.075 46.9252 129.195 44.8954C129.314 42.9849 128.478 42.2685 128.359 41.5521C128.239 40.8357 128.478 38.8058 127.642 38.6864C126.807 38.567 122.986 42.1491 122.986 42.1491C122.986 42.1491 123.583 37.0148 122.866 36.6566C122.15 36.179 120.478 41.1939 120.478 41.1939C120.478 41.1939 120.478 45.373 120.12 46.4476C120.001 47.6416 117.016 52.6565 117.016 52.6565Z" fill="#FEB49C"/>
<path d="M198.448 45.2533L199.642 46.4473C198.567 47.5219 198.09 48.9548 198.09 50.3876C198.09 51.8204 198.687 53.2533 199.642 54.3279L198.448 55.5219C197.134 54.2085 196.418 52.4175 196.418 50.507C196.418 48.4772 197.134 46.6861 198.448 45.2533Z" fill="#696969"/>
<path d="M194.269 41.552L195.463 42.6266C193.553 44.6565 192.478 47.4027 192.478 50.2684C192.478 53.1341 193.553 55.8803 195.583 58.0296L194.389 59.2236C192.12 56.8355 190.807 53.6117 190.807 50.3878C190.807 47.0445 192.001 43.9401 194.269 41.552Z" fill="#696969"/>
<path d="M190.091 37.8505L191.285 38.9251C188.419 42.0296 186.867 46.0892 186.867 50.2683C186.867 54.6862 188.539 58.7459 191.524 61.9698L190.33 63.1638C186.986 59.7012 185.195 55.1639 185.195 50.3878C185.195 45.731 186.986 41.3131 190.091 37.8505Z" fill="#696969"/>
<path d="M146.865 137.91H187.223C188.179 137.91 189.014 138.865 189.014 139.94V194.268C189.014 195.343 188.179 196.298 187.223 196.298H146.865C145.91 196.298 145.074 195.343 145.074 194.268V139.94C145.074 138.865 145.91 137.91 146.865 137.91Z" fill="white"/>
<path d="M187.224 196.656H146.866C145.672 196.656 144.836 195.581 144.836 194.268V139.94C144.836 138.626 145.791 137.552 146.866 137.552H187.224C188.418 137.552 189.254 138.626 189.254 139.94V194.268C189.254 195.581 188.418 196.656 187.224 196.656ZM146.866 138.149C146.03 138.149 145.433 138.985 145.433 139.94V194.268C145.433 195.223 146.03 196.059 146.866 196.059H187.224C188.06 196.059 188.657 195.223 188.657 194.268V139.94C188.657 138.985 188.06 138.149 187.224 138.149H146.866Z" fill="#2C2C2C"/>
<path d="M175.283 188.776C175.283 185.671 177.791 183.164 180.895 183.164C184 183.164 186.507 185.671 186.507 188.776C186.507 191.88 184 194.388 180.895 194.388C177.791 194.388 175.283 191.88 175.283 188.776Z" fill="#BBBBBB"/>
<path d="M180.895 187.343C180.895 187.343 179.82 185.432 178.268 186.388C175.044 188.537 180.895 192.716 180.895 192.716C180.895 192.716 186.626 188.417 183.641 186.388C182.089 185.313 180.895 187.343 180.895 187.343Z" fill="white"/>
<path d="M161.313 147.701C161.313 147.701 163.701 149.97 167.045 150.209C170.388 150.447 172.06 147.462 172.06 147.462C172.06 147.462 175.403 147.94 177.313 149.612C179.343 151.164 184.597 158.089 184.597 158.089L179.821 163.224L174.806 160L176.716 177.91H158.567L158.925 160L156.06 163.582L149.373 160.836C149.373 160.836 152.836 153.313 154.507 151.403C156.298 149.612 161.313 147.701 161.313 147.701Z" fill="#FCCA19"/>
<path d="M35.2251 171.94C35.1057 171.94 34.9863 171.821 34.9863 171.582C34.9863 171.104 35.3446 158.448 41.4341 157.731C42.5087 157.612 43.5834 157.97 44.4192 158.686C47.8819 161.671 48.1207 170.746 48.2401 171.104C48.2401 171.224 48.1207 171.462 48.0013 171.462C47.8819 171.462 47.7625 171.343 47.6431 171.224C47.6431 171.104 47.4043 162.03 44.061 159.164C43.3446 158.567 42.5087 158.209 41.5535 158.328C36.061 158.925 35.7028 171.462 35.7028 171.582C35.5834 171.701 35.3446 171.94 35.2251 171.94Z" fill="#2C2C2C"/>
<path d="M30.9257 166.567L30.0898 214.209L62.6868 210.029L61.7316 166.806L30.9257 166.567Z" fill="#FCCA19"/>
<path d="M25.0757 166.567H28.2995L27.2249 208.955L23.5234 210.149L25.0757 166.567Z" fill="#FCCA19"/>
<path d="M28.0609 166.686H31.046L30.2101 213.85L26.9863 208.835L28.0609 166.686Z" fill="#C88E06"/>
<path d="M23.5234 210.268L27.3443 208.835L30.3294 213.85L23.5234 210.268Z" fill="#FFD970"/>
<path d="M40.4791 170.985C40.3597 170.985 40.2402 170.865 40.2402 170.627C40.2402 170.149 40.5985 157.492 46.688 156.776C47.7626 156.656 48.8373 157.015 49.6731 157.731C53.1358 160.716 53.3745 169.791 53.4939 170.149C53.4939 170.268 53.3746 170.507 53.2552 170.507C53.1358 170.507 53.0163 170.388 52.8969 170.268C52.8969 170.149 52.6581 161.074 49.3148 158.209C48.5984 157.612 47.7626 157.253 46.8074 157.373C41.3149 157.97 40.9566 170.507 40.9566 170.627C40.7178 170.865 40.5985 170.985 40.4791 170.985Z" fill="#2C2C2C"/>
<path d="M25.5508 52.6564C25.5508 44.8952 31.8791 38.5669 39.6403 38.5669C47.4015 38.5669 53.7298 44.8952 53.7298 52.6564C53.7298 60.4176 47.4015 66.7459 39.6403 66.7459C31.8791 66.6265 25.5508 60.4176 25.5508 52.6564Z" fill="white"/>
<path d="M39.7602 66.9849C31.7602 66.9849 25.3125 60.5371 25.3125 52.6566C25.3125 44.776 31.7602 38.3282 39.7602 38.3282C47.7602 38.3282 54.208 44.776 54.208 52.6566C54.0886 60.5371 47.6408 66.9849 39.7602 66.9849ZM39.7602 38.8059C32.1184 38.8059 25.9095 45.0148 25.9095 52.5372C25.9095 60.1789 32.1184 66.2685 39.7602 66.2685C47.402 66.2685 53.611 60.0595 53.611 52.5372C53.4916 45.0148 47.402 38.8059 39.7602 38.8059Z" fill="#2C2C2C"/>
<path d="M39.7598 60.6565C39.6404 60.6565 39.5211 60.6565 39.5211 60.5371C39.2823 60.2983 34.3867 53.4923 34.3867 50.6267C34.3867 47.6416 36.7748 45.1342 39.6405 45.1342C42.5061 45.1342 44.8942 47.6416 44.8942 50.6267C44.8942 53.6117 40.1181 60.2983 39.8793 60.5371C39.9987 60.6565 39.8792 60.6565 39.7598 60.6565ZM39.7598 45.7312C37.133 45.7312 35.1032 47.8804 35.1032 50.6267C35.1032 53.0147 38.8047 58.5073 39.8793 59.9401C40.8345 58.5073 44.5359 53.0147 44.5359 50.6267C44.4165 47.8804 42.2673 45.7312 39.7598 45.7312Z" fill="#2C2C2C"/>
<path d="M39.7609 53.373C37.9699 53.373 36.5371 51.9402 36.5371 50.2685C36.5371 48.5969 37.9699 47.1641 39.7609 47.1641C41.552 47.1641 42.9848 48.5969 42.9848 50.2685C42.9848 51.9402 41.552 53.373 39.7609 53.373ZM39.7609 47.7611C38.3281 47.7611 37.1341 48.8357 37.1341 50.2685C37.1341 51.7014 38.3281 52.776 39.7609 52.776C41.1938 52.776 42.3878 51.7014 42.3878 50.2685C42.3878 48.9551 41.1938 47.7611 39.7609 47.7611Z" fill="#2C2C2C"/>
<path d="M101.97 18.1493C104.673 18.1493 106.865 15.9575 106.865 13.2538C106.865 10.5501 104.673 8.35828 101.97 8.35828C99.2661 8.35828 97.0742 10.5501 97.0742 13.2538C97.0742 15.9575 99.2661 18.1493 101.97 18.1493Z" fill="#FCCA19"/>
<path d="M176.956 16.7164C176.956 18.5075 175.523 19.9403 173.732 19.9403C171.941 19.9403 170.508 18.5075 170.508 16.7164C170.508 14.9254 171.941 13.4926 173.732 13.4926C175.523 13.4926 176.956 14.9254 176.956 16.7164Z" fill="#FCCA19"/>
<path d="M219.463 200.955C219.463 198.925 221.135 197.253 223.164 197.253C225.194 197.253 226.866 198.925 226.866 200.955C226.866 202.985 225.194 204.656 223.164 204.656C221.015 204.537 219.463 202.985 219.463 200.955Z" fill="#FCCA19"/>
<path d="M213.492 18.1492C213.492 19.1044 212.656 19.9402 211.701 19.9402C210.746 19.9402 209.91 19.1044 209.91 18.1492C209.91 17.194 210.746 16.3582 211.701 16.3582C212.776 16.3582 213.492 17.194 213.492 18.1492Z" fill="#DFDFDF"/>
<path d="M25.7903 153.194C22.0889 153.194 18.9844 150.209 18.9844 146.388C18.9844 142.686 21.9695 139.582 25.7903 139.582C29.4918 139.582 32.5962 142.567 32.5962 146.388C32.5962 150.209 29.4918 153.194 25.7903 153.194ZM25.7903 140.895C22.6859 140.895 20.1784 143.403 20.1784 146.507C20.1784 149.612 22.6859 152.119 25.7903 152.119C28.8948 152.119 31.4022 149.612 31.4022 146.507C31.4022 143.403 28.8948 140.895 25.7903 140.895Z" fill="#2C2C2C"/>
<path d="M281.195 88.7162C277.493 88.7162 274.389 85.7311 274.389 81.9102C274.389 78.2087 277.374 75.1042 281.195 75.1042C284.896 75.1042 288.001 78.0893 288.001 81.9102C288.001 85.7311 284.896 88.7162 281.195 88.7162ZM281.195 76.4177C278.09 76.4177 275.583 78.9251 275.583 82.0296C275.583 85.1341 278.09 87.6415 281.195 87.6415C284.299 87.6415 286.807 85.1341 286.807 82.0296C286.807 78.9251 284.299 76.4177 281.195 76.4177Z" fill="#2C2C2C"/>
<path d="M124.536 9.55222C121.909 9.55222 119.76 7.40297 119.76 4.77611C119.76 2.14925 121.909 0 124.536 0C127.163 0 129.312 2.14925 129.312 4.77611C129.312 7.40297 127.163 9.55222 124.536 9.55222ZM124.536 1.19403C122.506 1.19403 120.954 2.74626 120.954 4.77611C120.954 6.80595 122.506 8.35819 124.536 8.35819C126.446 8.35819 128.118 6.80595 128.118 4.77611C128.118 2.74626 126.446 1.19403 124.536 1.19403Z" fill="#2C2C2C"/>
<path d="M272.834 75.7014L272.118 75.2238L272.356 74.8656C272.356 74.8656 272.715 74.388 273.312 73.5521L273.55 73.1939L274.267 73.6715L274.028 74.0297C273.431 74.985 272.953 75.4626 272.953 75.4626L272.834 75.7014ZM275.7 71.4029L274.983 70.9253L275.222 70.5671C275.461 70.0895 275.819 69.6119 276.058 69.1342L276.297 68.776L277.013 69.2536L276.774 69.6119C276.535 70.0895 276.177 70.5671 275.939 71.0447L275.7 71.4029ZM278.207 66.985L277.491 66.6268L277.73 66.2686C277.968 65.791 278.207 65.3134 278.446 64.7163L278.565 64.3581L279.282 64.7163L279.162 65.0745C278.924 65.5522 278.685 66.1492 278.446 66.6268L278.207 66.985ZM280.356 62.3283L279.521 61.9701L279.64 61.6119C279.879 61.1343 279.998 60.5372 280.237 60.0596L280.356 59.7014L281.192 59.9402L281.073 60.2984C280.834 60.8955 280.715 61.3731 280.476 61.8507L280.356 62.3283ZM282.028 57.4328L281.192 57.194L281.312 56.8358C281.431 56.3581 281.55 55.7611 281.67 55.1641L281.789 54.8059L282.625 55.0447L282.506 55.4029C282.386 55.9999 282.267 56.4776 282.028 57.0746V57.4328ZM283.103 52.4179L282.267 52.2985L282.386 51.8208C282.506 51.2238 282.506 50.7462 282.625 50.1492V49.6716L283.461 49.791V50.2686C283.341 50.8656 283.341 51.4626 283.222 51.9402L283.103 52.4179ZM283.58 47.2835H282.744V46.2089C282.744 45.8507 282.744 45.4925 282.744 45.1343V44.6567H283.58V45.1343C283.58 45.4925 283.58 45.8507 283.58 46.2089C283.58 46.4477 283.58 47.2835 283.58 47.2835ZM282.506 42.2686V41.791C282.386 41.194 282.386 40.7164 282.267 40.1194L282.147 39.7612L282.983 39.6418L283.103 40C283.222 40.597 283.341 41.0746 283.341 41.6716V42.1492L282.506 42.2686ZM281.55 37.3731L281.431 37.0149C281.312 36.5373 281.073 35.9403 280.953 35.4627L280.834 35.1045L281.67 34.8657L281.789 35.2239C282.028 35.8209 282.147 36.2985 282.267 36.8955L282.386 37.2537L281.55 37.3731ZM279.759 32.7164L279.521 32.3582C279.282 31.8806 279.043 31.403 278.804 30.9254L278.565 30.5672L279.282 30.209L279.521 30.5672C279.759 31.0448 280.118 31.6418 280.356 32.1194L280.595 32.4776L279.759 32.7164ZM277.371 28.2985L277.133 27.9403C276.774 27.4627 276.535 26.9851 276.177 26.6269L275.939 26.2687L276.655 25.7911L276.894 26.1493C277.252 26.6269 277.61 27.1045 277.849 27.5821L278.088 27.9403L277.371 28.2985ZM274.267 24.3582L274.028 24C273.67 23.6418 273.312 23.1642 272.834 22.806L272.595 22.4478L273.192 21.8508L273.431 22.209C273.789 22.5672 274.267 23.0448 274.625 23.403L274.864 23.7612L274.267 24.3582ZM270.804 20.7761L270.446 20.5373C270.088 20.1791 269.61 19.8209 269.133 19.4627L268.774 19.2239L269.371 18.6269L269.73 18.8657C270.207 19.2239 270.565 19.5821 271.043 19.9403L271.282 20.1791L270.804 20.7761ZM226.028 18.2687L225.67 17.5523L226.028 17.3135C226.506 17.0747 226.983 16.8359 227.58 16.597L227.939 16.4776L228.297 17.1941L227.939 17.3135C227.342 17.5523 226.864 17.7911 226.386 18.0299L226.028 18.2687ZM266.864 17.6717L266.506 17.4329C266.028 17.0747 265.55 16.8359 265.073 16.597L264.715 16.3582L265.192 15.6418L265.55 15.8806C266.028 16.1194 266.506 16.4776 266.983 16.8359L267.341 17.0747L266.864 17.6717ZM230.685 16.2388L230.327 15.403L230.685 15.2836C231.162 15.0448 231.759 14.9254 232.237 14.6866L232.595 14.5672L233.073 15.403C233.073 15.403 231.64 15.8806 231.043 16.1194L230.685 16.2388ZM262.446 15.1642L262.088 15.0448C261.61 14.806 261.013 14.5672 260.536 14.4478L260.177 14.3284L260.416 13.4926L260.774 13.612C261.252 13.8508 261.849 13.9702 262.327 14.209L262.685 14.3284L262.446 15.1642ZM235.461 14.5672L235.222 13.7314L235.58 13.612C236.058 13.4926 236.655 13.2538 237.252 13.1344L237.61 13.015L237.849 13.8508L237.491 13.9702C236.894 14.0896 236.416 14.209 235.819 14.4478L235.461 14.5672ZM257.789 13.612L257.431 13.4926C256.834 13.3732 256.356 13.2538 255.759 13.1344L255.401 13.015L255.521 12.1791L255.879 12.2986C256.476 12.418 256.953 12.5374 257.55 12.6568L257.909 12.7762L257.789 13.612ZM240.356 13.3732L240.237 12.5374L240.595 12.418C241.192 12.2985 241.67 12.1791 242.267 12.1791L242.744 12.0597L242.864 12.8956L242.506 13.015C241.909 13.1344 241.431 13.2538 240.834 13.2538L240.356 13.3732ZM252.894 12.6568H252.416C251.819 12.6568 251.342 12.5374 250.744 12.5374H250.267V11.7015H250.744C251.342 11.7015 251.939 11.8209 252.416 11.8209H252.894V12.6568ZM245.371 12.6568L245.252 11.8209H245.73C246.327 11.8209 246.924 11.7015 247.401 11.7015H247.879V12.5374H247.401C246.804 12.5374 246.327 12.5374 245.73 12.6568H245.371Z" fill="#2C2C2C"/>
<path d="M31.6428 38.0893V37.6117C31.6428 37.6117 31.5234 37.1341 31.5234 36.2983C31.5234 36.1789 31.5234 35.4625 31.5234 35.4625H32.3593C32.3593 35.4625 32.3593 36.1789 32.3593 36.2983C32.3593 37.0147 32.3593 37.4923 32.3593 37.4923V37.9699L31.6428 38.0893ZM32.598 33.0744L31.7623 32.955L31.8816 32.5968C32.001 32.1192 32.1204 31.5222 32.2398 30.9252L32.3593 30.567L33.195 30.8058L33.0757 31.164C32.9563 31.761 32.8369 32.2386 32.7175 32.8356L32.598 33.0744ZM34.0309 28.2983L33.3145 27.9401L33.4339 27.5819C33.6727 27.1043 33.9115 26.5073 34.1503 26.0297L34.3891 25.6715L35.1055 26.0297L34.8667 26.3879C34.6279 26.8655 34.3891 27.3431 34.1503 27.8207L34.0309 28.2983ZM36.5384 23.9998L35.8219 23.5222L36.0607 23.164C36.4189 22.6864 36.7772 22.3282 37.1354 21.8506L37.3741 21.4924L37.9711 22.0894L37.7324 22.4476C37.3742 22.9252 37.0159 23.2834 36.6577 23.761L36.5384 23.9998ZM39.8816 20.2983L39.2846 19.7013L39.6428 19.4625C40.1204 19.1043 40.4786 18.7461 40.9562 18.3879L41.3145 18.1491L41.792 18.8655L41.4338 19.1043C40.9562 19.4625 40.5981 19.8207 40.1204 20.1789L39.8816 20.2983ZM69.6129 18.7461L69.2547 18.5073C69.2547 18.5073 68.7771 18.1491 67.9413 17.5521L67.5831 17.3133L68.0606 16.5969L68.4188 16.8357C69.3741 17.4327 69.8517 17.7909 69.8517 17.7909L70.2099 18.0297L69.6129 18.7461ZM43.9413 17.3133L43.4637 16.5969C43.4637 16.5969 44.2995 16.1192 44.5383 15.9998C44.7771 15.8804 45.1353 15.6416 45.3741 15.5222L45.7323 15.2834L46.0906 15.9998L45.7323 16.2386C45.4935 16.358 45.1354 16.4774 44.8966 16.7163C44.6578 16.8357 43.9413 17.3133 43.9413 17.3133ZM65.3144 16.2386L64.9562 16.1192C64.4786 15.8804 64.001 15.6416 63.404 15.5222L63.0457 15.4028L63.2845 14.567L63.6427 14.6864C64.2397 14.9252 64.7174 15.164 65.195 15.2834L65.5532 15.4028L65.3144 16.2386ZM48.3592 15.164L48.1204 14.3282L48.4786 14.2088C49.0757 13.97 49.5532 13.8506 50.1502 13.7312L50.5084 13.6118L50.7472 14.4476L50.3891 14.567C49.9114 14.6864 49.3144 14.8058 48.8368 15.0446L48.3592 15.164ZM60.6577 14.567L60.2995 14.4476C59.8219 14.3282 59.2249 14.2088 58.6279 14.0894L58.2696 13.97L58.389 13.1342L58.8666 13.2536C59.4636 13.373 60.0607 13.4924 60.5383 13.6118L60.8965 13.7312L60.6577 14.567ZM53.2547 13.97L53.1353 13.1342H53.6129C54.21 13.1342 54.8069 13.0148 55.2845 13.0148H55.7622V13.8506H55.2845C54.6875 13.8506 54.21 13.8506 53.6129 13.97H53.2547Z" fill="#2C2C2C"/>
</svg>
