<svg width="333" height="236" viewBox="0 0 333 236" fill="none" xmlns="http://www.w3.org/2000/svg">
<path d="M280.906 95.7389C280.906 95.7389 292.648 96.8971 299.334 96.7548C306.022 96.6112 309.339 96.9635 311.089 93.4671C312.823 89.9985 309.336 88.1634 303.968 88.0657C298.601 87.9692 280.906 95.7389 280.906 95.7389Z" fill="#FCCA19"/>
<path d="M278.816 96.7669C278.816 96.7669 280.643 88.9045 280.439 83.0582C280.233 77.2131 277.902 67.7729 284.176 67.8769C289.552 67.9667 287.28 78.8569 285.357 83.3761C284.077 86.3802 278.816 96.7669 278.816 96.7669Z" fill="#FCCA19"/>
<path d="M296.384 70.0293C297.822 65.6221 300.261 59.5566 301.01 56.8219C301.759 54.0861 303.371 47.7846 297.415 46.0241C294.522 45.1697 292.681 51.5756 293.159 57.0168C293.673 62.8828 294.947 74.4364 296.384 70.0293Z" fill="#FCCA19"/>
<path d="M309.793 57.7817C309.793 57.7817 314.961 55.0288 319.886 52.2015C324.811 49.373 334.327 43.5837 332.548 38.8755C330.673 33.9144 324.706 36.8764 322.111 39.5749C319.515 42.2734 309.793 57.7817 309.793 57.7817Z" fill="#FCCA19"/>
<path d="M296.239 72.5905C296.269 72.3973 299.247 53.1898 298.005 46.4467L297.786 46.295L297.638 46.5178C298.869 53.1957 295.9 72.338 295.871 72.5312L295.926 72.6983L296.025 72.7493L296.239 72.5905Z" fill="#2C2C2C"/>
<path d="M255.579 116.18L255.526 116.112C255.45 115.973 255.499 115.798 255.636 115.721C255.68 115.697 259.98 113.29 265.379 109.352C270.355 105.722 277.309 100.013 282.176 93.4228C286.103 88.1067 289.005 83.3055 291.565 79.0681C295.257 72.9587 298.446 67.683 303.495 62.6356C310.209 55.9233 330.69 37.5024 330.896 37.3169C331.014 37.2122 331.195 37.2229 331.299 37.3394C331.404 37.4584 331.395 37.6391 331.277 37.745C331.07 37.9305 310.601 56.3407 303.898 63.0424C298.898 68.0398 295.725 73.2893 292.053 79.3666C289.487 83.6135 286.577 88.4266 282.635 93.7641C277.722 100.415 270.718 106.167 265.707 109.822C260.282 113.779 255.957 116.2 255.915 116.224C255.802 116.286 255.666 116.264 255.579 116.18Z" fill="#2C2C2C"/>
<path d="M262.569 104.512C261.997 101.669 261.341 97.4176 261.029 93.4422L264.551 98.0303C264.265 100.315 264.043 102.118 263.941 102.976C263.757 104.492 263.336 106.212 262.897 107.738C262.903 106.805 262.813 105.731 262.569 104.512ZM260.856 88.3978L265.122 93.4907C264.95 94.8534 264.786 96.164 264.637 97.3631L260.968 92.5807C260.869 91.0995 260.825 89.6752 260.856 88.3978ZM261.848 81.9305L265.474 90.6872C265.383 91.4123 265.291 92.1363 265.202 92.8473L260.882 87.6904C260.912 87.1217 260.957 86.5885 261.022 86.1003C261.182 84.9177 261.441 83.4152 261.848 81.9305ZM266.155 76.0377C266.581 75.9939 266.971 76.001 267.329 76.0602L267.309 76.1266C267.294 76.251 266.443 82.9803 265.593 89.738L262.058 81.2041C262.252 80.5784 262.474 79.9658 262.73 79.3935C263.658 77.3032 264.809 76.174 266.155 76.0377ZM268.886 76.8257L269.146 77.1089C270.506 78.788 270.71 82.3558 269.75 87.7129C269.649 88.2746 269.54 88.8375 269.422 89.3968L265.68 92.8355C265.757 92.2288 265.834 91.6138 265.912 90.9964L265.995 90.7085L265.959 90.6208C266.842 83.5988 267.762 76.3174 267.778 76.187C268.2 76.3008 268.568 76.5188 268.886 76.8257ZM266.763 99.2211C265.949 101.89 264.505 105.316 263.324 107.964C263.78 106.395 264.22 104.608 264.409 103.033C264.575 101.663 265.048 97.8774 265.588 93.5654L269.25 90.1919C268.472 93.6874 267.474 96.9211 266.942 98.644C266.875 98.8597 266.815 99.0529 266.763 99.2211ZM261.81 112.335C261.837 112.298 262.057 111.965 262.293 111.336C263.361 109.081 265.989 103.374 267.216 99.3609C267.267 99.1939 267.327 99.0019 267.392 98.7851C268.754 94.3818 272.894 80.9789 269.512 76.8068C268.721 75.8327 267.576 75.4133 266.108 75.5638C262.458 75.9358 261.062 82.2847 260.554 86.0363C259.859 91.1718 261.266 100.429 262.104 104.607C262.591 107.024 262.437 108.861 262.152 110.108C261.898 110.868 261.687 111.445 261.58 111.731C261.471 111.957 261.404 112.096 261.404 112.096L261.453 112.373C261.604 112.469 261.741 112.438 261.81 112.335Z" fill="#6A8EC8"/>
<path d="M319.516 78.3119L311.631 74.7181C315.819 73.8076 320.491 73.0085 325.314 72.5784L325.487 72.3734L325.28 72.2035C316.372 72.9967 307.975 75.045 302.193 76.7382L307.119 72.7038L307.176 72.623C310.839 70.8477 314.072 69.3982 315.483 69.0725C318.634 68.3448 322.502 67.6863 324.427 69.0666C324.539 69.1463 324.641 69.233 324.739 69.3244C325.337 69.8869 325.672 70.6802 325.757 71.7313C325.909 73.6014 324.558 75.42 321.742 77.1331C321.078 77.5374 320.329 77.9334 319.516 78.3119ZM317.46 79.1849L308.725 75.3848C309.545 75.188 310.387 74.9923 311.251 74.8001L311.306 74.9747L311.359 75.0099L319.06 78.5205C318.546 78.749 318.011 78.9716 317.46 79.1849ZM313.564 80.4516C312.921 80.6238 312.08 80.7539 311.099 80.8476L301.796 77.2491C303.64 76.7007 305.774 76.1102 308.121 75.5325L316.952 79.3771C315.865 79.7778 314.722 80.1399 313.564 80.4516ZM292.038 80.5617C293.66 79.9313 296.917 78.7209 301.205 77.4261L310.239 80.9203C304.461 81.3339 295.051 80.7656 292.038 80.5617ZM305.794 73.2991L301.253 77.0171L301.149 77.0476C297.939 78.0166 295.302 78.9377 293.486 79.6091C296.304 78.1198 301.24 75.5407 305.794 73.2991ZM326.138 71.7008C326.032 70.3814 325.531 69.3924 324.652 68.7631C322.613 67.2996 318.829 67.9136 315.396 68.7057C311.189 69.676 291.796 80.0743 290.973 80.5172L290.886 80.6145L290.748 80.6719L290.646 80.9191L290.689 80.9812L290.898 81.0187C290.898 81.0187 291.018 80.9683 291.227 80.8828C292.906 81.007 304.675 81.8378 311.049 81.2332L311.288 81.3257L311.536 81.2203C312.374 81.089 313.092 80.9683 313.666 80.8148C314.596 80.5652 315.957 80.1622 317.455 79.5938L317.62 79.6665L317.873 79.5704L317.878 79.431C318.416 79.2177 318.969 78.9857 319.522 78.7303C319.629 78.7806 319.744 78.7385 319.789 78.6447C320.529 78.2545 321.254 77.8737 321.943 77.4542C324.891 75.6602 326.303 73.7244 326.138 71.7008Z" fill="#2C2C2C"/>
<path d="M278.825 97.6893C278.843 97.6343 280.617 92.0845 282.168 85.6933C282.723 83.4023 283.181 81.3002 283.54 79.3893L283.696 79.3176L287.169 74.8302L287.137 74.5601L286.874 74.5912L283.661 78.7428C284.553 73.8132 284.758 70.2208 284.274 68.0219L284.05 67.8761L283.907 68.1067C284.431 70.4849 284.05 74.3987 283.292 78.6077L280.293 75.0369L280.027 75.0154L280.008 75.2867L283.204 79.0929C281.601 87.7392 278.515 97.4228 278.467 97.5686L278.516 97.7682L278.587 97.8112L278.825 97.6893Z" fill="#2C2C2C"/>
<path d="M311.189 91.3747L310.997 91.1816C306.996 91.2403 300.118 92.1422 293.963 93.0784L297.822 89.759L297.846 89.4828L297.579 89.4572L293.47 92.9806L293.404 93.1639C286.801 94.1783 281.169 95.205 281.06 95.2245L280.906 95.4531L280.962 95.5606L281.126 95.6119C281.213 95.596 284.811 94.941 289.607 94.1612L294.479 96.7669L294.735 96.6813L294.652 96.4173L290.21 94.0647C291.385 93.8753 292.624 93.6797 293.894 93.4854L299.892 96.7461L300.149 96.6642L300.068 96.399L294.533 93.3888C300.54 92.4832 307.128 91.6326 311.001 91.5739L311.189 91.3747Z" fill="#2C2C2C"/>
<path d="M252.151 15.1709C170.288 -29.073 113.021 62.9005 58.145 62.5994C1.77135 62.2911 -17.5141 110.574 28.5188 162.674C73.335 213.395 136.426 233.276 176.832 232.861C243.633 232.174 307.551 171.372 279.841 133.868C254.834 100.021 306.218 44.3929 252.151 15.1709Z" fill="#F3F3F3"/>
<path d="M79.2917 154.543C51.3931 190.703 124.268 214.64 175.015 195.614C221.681 178.116 257.188 136.556 263.406 124.946C279.633 94.6421 277.477 73.0044 259.217 62.3357C239.107 50.5867 198.574 47.7495 172.799 76.3378C152.051 99.349 153.314 115.632 142.405 123.235C119.293 139.344 90.9837 139.391 79.2917 154.543Z" fill="#FCCA19"/>
<path d="M56.5706 61.9416C31.4088 61.9416 12.5908 71.6285 4.88692 88.5676C-4.38249 108.949 3.99369 136.872 27.2943 163.259C71.0401 212.804 133.743 234.813 177.056 234.813C177.491 234.813 177.921 234.812 178.352 234.807C226.423 234.313 270.032 204.173 284.421 175.319C292.013 160.096 291.56 146.002 283.111 134.557C272.267 119.871 275.344 100.902 278.32 82.5595C282.467 56.9913 286.756 30.554 255.017 13.3882C203.051 -14.7181 160.372 11.5506 122.716 34.7256C99.8746 48.7823 78.2784 62.0757 57.1087 61.9428C56.9305 61.9428 56.7488 61.9416 56.5706 61.9416ZM177.06 236C133.476 236 70.3987 213.871 26.4035 164.045C2.78454 137.295 -5.66293 108.896 3.80484 88.0761C11.7653 70.572 31.2104 60.5728 57.1158 60.7557L57.3855 60.7569C78.1525 60.7569 99.4981 47.6201 122.092 33.7142C160.024 10.3706 203.014 -16.0857 255.584 12.3435C288.064 29.9106 283.707 56.7717 279.493 82.7483C276.42 101.683 273.519 119.568 284.066 133.853C292.798 145.679 293.289 160.201 285.485 175.85C270.936 205.022 226.891 235.495 178.364 235.994C177.933 235.999 177.495 236 177.06 236Z" fill="#DFDFDF"/>
<path d="M251.025 191.097H39.9723C37.5042 191.097 35.5039 189.098 35.5039 186.632V29.1806C35.5039 26.713 37.5042 24.7139 39.9723 24.7139H251.025C253.493 24.7139 255.492 26.713 255.492 29.1806V186.632C255.492 189.098 253.493 191.097 251.025 191.097Z" fill="white"/>
<path d="M39.9161 24.9592C37.6192 24.9592 35.7492 26.8313 35.7492 29.132V186.68C35.7492 188.98 37.6192 190.852 39.9161 190.852H250.734C253.031 190.852 254.9 188.98 254.9 186.68V29.132C254.9 26.8313 253.031 24.9592 250.734 24.9592H39.9161ZM250.734 191.445H39.9161C37.2919 191.445 35.1562 189.307 35.1562 186.68V29.132C35.1562 26.5037 37.2919 24.3657 39.9161 24.3657H250.734C253.358 24.3657 255.493 26.5037 255.493 29.132V186.68C255.493 189.307 253.358 191.445 250.734 191.445Z" fill="#2C2C2C"/>
<path d="M151.762 119.74H223.467V121.829H151.762V119.74Z" fill="#DFDFDF"/>
<path d="M151.762 123.569H223.467V125.658H151.762V123.569Z" fill="#DFDFDF"/>
<path d="M151.762 127.782L173.343 127.746V129.799L151.762 129.835V127.782Z" fill="#DFDFDF"/>
<path d="M6.13376 83.8878H37.0322C37.727 83.8878 38.2909 84.7571 38.2909 85.8275V109.794C38.2909 110.864 37.727 111.734 37.0322 111.734H6.13376C5.43774 111.734 4.875 110.864 4.875 109.794V85.8275C4.875 84.7571 5.43774 83.8878 6.13376 83.8878Z" fill="white"/>
<path d="M6.08623 84.1331C5.56356 84.1331 5.12205 84.8773 5.12205 85.7591V109.514C5.12205 110.396 5.56356 111.141 6.08623 111.141H37.0766C37.5993 111.141 38.0408 110.396 38.0408 109.514V85.7591C38.0408 84.8773 37.5993 84.1331 37.0766 84.1331H6.08623ZM37.0766 111.734H6.08623C5.21033 111.734 4.52539 110.759 4.52539 109.514V85.7591C4.52539 84.5141 5.21033 83.5397 6.08623 83.5397H37.0766C37.9514 83.5397 38.6375 84.5141 38.6375 85.7591V109.514C38.6375 110.759 37.9514 111.734 37.0766 111.734Z" fill="#2C2C2C"/>
<path d="M206.062 81.4513H274.294C275.829 81.4513 277.075 82.7544 277.075 84.3611V120.311C277.075 121.918 275.829 123.221 274.294 123.221H206.062C204.526 123.221 203.281 121.918 203.281 120.311V84.3611C203.281 82.7544 204.526 81.4513 206.062 81.4513Z" fill="white"/>
<path d="M206.349 81.6997C204.983 81.6997 203.873 82.8747 203.873 84.3182V120.354C203.873 121.798 204.983 122.973 206.349 122.973H274.355C275.721 122.973 276.831 121.798 276.831 120.354V84.3182C276.831 82.8747 275.721 81.6997 274.355 81.6997H206.349ZM274.355 123.569H206.349C204.657 123.569 203.281 122.127 203.281 120.354V84.3182C203.281 82.5455 204.657 81.1032 206.349 81.1032H274.355C276.047 81.1032 277.423 82.5455 277.423 84.3182V120.354C277.423 122.127 276.047 123.569 274.355 123.569Z" fill="#282728"/>
<path d="M265.039 115.563H244.907C243.451 115.563 242.268 114.383 242.268 112.924V92.793C242.268 91.3353 243.451 90.1533 244.907 90.1533H265.039C266.497 90.1533 267.678 91.3353 267.678 92.793V112.924C267.678 114.383 266.497 115.563 265.039 115.563Z" fill="#F3F3F3"/>
<path d="M249.941 98.8554C249.929 98.7447 249.682 96.1101 251.261 94.274C252.146 93.247 253.408 92.6842 255.014 92.5997C256.545 92.5188 257.793 92.94 258.719 93.8491C260.456 95.5591 260.365 98.3687 260.36 98.4877L259.165 98.4413C259.167 98.4175 259.237 96.028 257.874 94.6917C257.199 94.03 256.243 93.7278 255.077 93.7885C253.813 93.8539 252.837 94.2763 252.173 95.0439C250.925 96.4861 251.127 98.715 251.13 98.7364L249.941 98.8554Z" fill="#2C2C2C"/>
<path d="M248.782 99.6944C248.433 99.6944 248.148 99.9805 248.148 100.331L246.576 110.007C246.584 110.261 246.869 110.547 247.218 110.547L263.419 110.369C263.776 110.369 264.061 110.083 264.061 109.734L262.586 100.423C262.579 99.9805 262.294 99.6944 261.944 99.6944H248.782ZM247.225 111.734C246.214 111.734 245.398 110.916 245.398 109.911L246.971 100.235C246.962 99.3252 247.779 98.5073 248.782 98.5073H261.944C262.948 98.5073 263.764 99.3252 263.764 100.331L265.239 109.64C265.246 110.738 264.43 111.556 263.426 111.556L247.225 111.734Z" fill="#2C2C2C"/>
<path d="M253.581 109.646L251.314 104.262L252.373 103.802L253.892 107.417L259.126 100.944L260.017 101.686L253.581 109.646Z" fill="#2C2C2C"/>
<path d="M72.0508 179.371L113.006 174.041L116.257 199.343L75.3029 204.673L72.0508 179.371Z" fill="#FDE180"/>
<path d="M96.4199 175.921L113.683 173.693L116.957 198.964L99.6941 201.192L96.4199 175.921Z" fill="#E69104"/>
<path d="M102.686 175.387L103.786 181.997L105.046 180.807L106.408 182.047L107.495 180.751L108.951 181.507L107.957 174.737L102.686 175.387Z" fill="#FCCA19"/>
<path d="M69.0293 76.5781H143.3C145.09 76.5781 146.542 78.0298 146.542 79.8179V166.276C146.542 168.067 145.09 169.516 143.3 169.516H69.0293C67.2386 169.516 65.7871 168.067 65.7871 166.276V79.8179C65.7871 78.0298 67.2386 76.5781 69.0293 76.5781Z" fill="#F3F3F3"/>
<path d="M149.712 139.929H190.37C191.349 139.929 192.144 140.847 192.144 141.981V196.703C192.144 197.837 191.349 198.755 190.37 198.755H149.712C148.732 198.755 147.938 197.837 147.938 196.703V141.981C147.938 140.847 148.732 139.929 149.712 139.929Z" fill="white"/>
<path d="M149.661 140.173C148.844 140.173 148.18 140.957 148.18 141.92V196.416C148.18 197.379 148.844 198.164 149.661 198.164H190.411C191.228 198.164 191.89 197.379 191.89 196.416V141.92C191.89 140.957 191.228 140.173 190.411 140.173H149.661ZM190.411 198.755H149.661C148.516 198.755 147.584 197.706 147.584 196.416V141.92C147.584 140.63 148.516 139.581 149.661 139.581H190.411C191.555 139.581 192.487 140.63 192.487 141.92V196.416C192.487 197.706 191.555 198.755 190.411 198.755Z" fill="#2C2C2C"/>
<path d="M184.835 134.708H208.845C209.425 134.708 209.893 135.245 209.893 135.909V167.967C209.893 168.63 209.425 169.168 208.845 169.168H184.835C184.257 169.168 183.787 168.63 183.787 167.967V135.909C183.787 135.245 184.257 134.708 184.835 134.708Z" fill="#F3F3F3"/>
<path d="M217.203 134.708H241.214C241.792 134.708 242.262 135.245 242.262 135.909V167.967C242.262 168.63 241.792 169.168 241.214 169.168H217.203C216.625 169.168 216.156 168.63 216.156 167.967V135.909C216.156 135.245 216.625 134.708 217.203 134.708Z" fill="#F3F3F3"/>
<path d="M195.267 141.833C195.267 141.833 196.727 143.223 198.755 143.386C200.783 143.55 201.839 141.67 201.839 141.67C201.839 141.67 203.867 141.997 205.084 142.977C206.301 143.959 209.546 148.207 209.546 148.207L206.625 151.396L203.543 149.433L204.677 160.466H193.563L193.807 149.433L192.021 151.641L187.965 149.924C187.965 149.924 190.075 145.266 191.129 144.121C192.185 142.977 195.267 141.833 195.267 141.833Z" fill="#DFDFDF"/>
<path d="M109.948 93.2819L130.687 93.7165L120.637 86.3438C117.262 88.8678 112.123 91.9867 109.948 93.2819ZM131.622 94.3303L108.892 93.853C108.758 93.8506 108.643 93.7604 108.61 93.6322C108.575 93.504 108.631 93.3686 108.746 93.301C114.342 90.0218 122.815 84.6021 123.222 83.1145C123.416 82.4105 123.256 81.6483 122.793 81.0748C122.377 80.5572 121.777 80.283 121.138 80.3055C119.721 80.3696 119.104 82.1576 119.098 82.1766C119.047 82.3309 118.878 82.4164 118.72 82.3642C118.564 82.3119 118.479 82.1433 118.532 81.9878C118.561 81.8988 119.287 79.795 121.112 79.7131C121.935 79.6787 122.724 80.0372 123.261 80.7032C123.842 81.4251 124.042 82.3844 123.8 83.27C123.637 83.8625 122.595 84.8407 121.131 85.9686L131.799 93.7948C131.904 93.872 131.947 94.0062 131.905 94.1296C131.863 94.2496 131.75 94.3303 131.622 94.3303Z" fill="#2C2C2C"/>
<path d="M115.684 88.413C115.684 88.413 118.138 91.1761 120.469 90.9851C123.595 90.7277 124.81 88.413 124.81 88.413C124.81 88.413 128.709 89.5021 130.694 91.0907C132.678 92.6805 137.837 106.513 137.837 106.513L132.093 109.243L129.674 101.593L134.714 148.71L110.607 148.979L111.273 101.593L108.346 113.611L106.173 114.96L104.873 117.609L102.132 116.806L102.722 114.156L101.637 111.746C101.637 111.746 106.222 94.7994 107.941 92.9451C109.661 91.0907 115.684 88.413 115.684 88.413Z" fill="#898989"/>
<path d="M96.0072 93.2819L116.438 93.7165L106.538 86.3438C103.212 88.8678 98.1509 91.9867 96.0072 93.2819ZM117.358 94.3303L94.9671 93.853C94.8364 93.8506 94.7221 93.7604 94.6891 93.6322C94.6562 93.504 94.7115 93.3686 94.8246 93.301C100.336 90.0218 108.682 84.6021 109.085 83.1145C109.276 82.4105 109.118 81.6483 108.662 81.0748C108.252 80.5572 107.663 80.2723 107.032 80.3055C105.635 80.3696 105.027 82.1576 105.023 82.1766C104.971 82.3309 104.805 82.4164 104.649 82.3642C104.495 82.3119 104.411 82.1433 104.463 81.9878C104.493 81.8988 105.209 79.795 107.005 79.7131C107.816 79.6787 108.593 80.036 109.122 80.7032C109.694 81.4251 109.893 82.3844 109.654 83.27C109.493 83.8625 108.467 84.8407 107.025 85.9686L117.534 93.7948C117.636 93.872 117.679 94.0062 117.638 94.1296C117.596 94.2496 117.484 94.3303 117.358 94.3303Z" fill="#2C2C2C"/>
<path d="M101.474 88.413L106.466 96.3443L110.636 88.413C110.636 88.413 114.551 89.5009 116.543 91.0907C118.536 92.6806 125.682 111.571 125.682 111.571L124.874 113.672L126.008 116.53L123.929 118.133L122.038 115.368L119.643 114.582L115.52 101.593L118.288 119.493L116.128 121.468L116.224 123.781L98.2712 124.614L98.6532 121.484L96.7936 119.493L97.0471 101.593L94.1084 113.612L91.9253 114.961L90.6202 117.61L87.8684 116.807L88.4621 114.156L87.3711 111.747C87.3711 111.747 91.9753 94.7996 93.7016 92.9452C95.4278 91.0908 101.474 88.413 101.474 88.413Z" fill="#FCCA19"/>
<path d="M135.055 165.687C135.055 159.728 139.885 154.897 145.845 154.897C151.804 154.897 156.636 159.728 156.636 165.687C156.636 171.647 151.804 176.478 145.845 176.478C139.885 176.478 135.055 171.647 135.055 165.687Z" fill="#DFDFDF"/>
<path d="M179.961 191.271C179.961 188.292 182.299 185.876 185.182 185.876C188.065 185.876 190.403 188.292 190.403 191.271C190.403 194.251 188.065 196.667 185.182 196.667C182.299 196.667 179.961 194.251 179.961 191.271Z" fill="#DFDFDF"/>
<path d="M80.92 175.434L80.7539 175.262C80.761 174.892 80.9982 166.189 85.1242 165.707C85.8927 165.618 86.5806 165.836 87.1807 166.355C89.593 168.439 89.7969 174.701 89.8041 174.967L89.6416 175.14L89.4684 174.976C89.4672 174.912 89.2609 168.597 86.9613 166.608C86.4347 166.153 85.8251 165.964 85.1634 166.039C81.3256 166.489 81.0919 175.181 81.0895 175.269L80.92 175.434Z" fill="#2C2C2C"/>
<path d="M77.7515 171.605L77.2754 204.673L99.9008 201.744L99.1694 171.725L77.7515 171.605Z" fill="#898989"/>
<path d="M73.7314 171.605L75.8827 171.631L75.2636 201.369L72.75 202.236L73.7314 171.605Z" fill="#B4B4B4"/>
<path d="M75.8522 171.955L77.9722 171.953L77.454 204.673L75.1875 201.214L75.8522 171.955Z" fill="#2C2C2C"/>
<path d="M72.75 202.183L75.5035 201.192L77.6232 204.673L72.75 202.183Z" fill="#B4B4B4"/>
<path d="M84.4023 174.737L84.2363 174.566C84.2446 174.196 84.4818 165.493 88.6084 165.012C89.3733 164.918 90.0634 165.14 90.6635 165.659C93.0742 167.743 93.2794 174.005 93.2865 174.271L93.124 174.444L92.9509 174.28C92.9497 174.217 92.7434 167.9 90.4441 165.913C89.9176 165.458 89.3128 165.27 88.6476 165.345C84.8079 165.793 84.5743 174.486 84.5719 174.573L84.4023 174.737Z" fill="#2C2C2C"/>
<path d="M27.8429 217.15L24.4412 229.038L20.5332 227.174L22.3957 214.071L27.8429 217.15Z" fill="#FF9583"/>
<path d="M20.3253 225.906C19.849 225.865 18.1073 228.717 18.5088 230.3C18.7441 231.229 20.3382 230.951 22.3982 231.193C24.4558 231.434 26.1144 232.206 27.5341 232.17C28.9527 232.134 33.4168 231.679 33.4168 231.679L33.2669 230.48C33.2669 230.48 31.0548 230.437 30.1559 229.799C29.2582 229.16 25.528 226.272 25.528 226.272C25.3945 226.438 24.4137 227.175 23.3661 227.629C22.3198 228.084 22.1922 227.967 21.7018 227.701C20.8228 227.224 21.0803 225.968 20.3253 225.906Z" fill="#282728"/>
<path d="M57.7284 214.584L58.1296 226.95L53.5346 226.41L51.168 213.375L57.7284 214.584Z" fill="#FF9583"/>
<path d="M52.5209 224.225C52.0369 224.256 50.7026 227.498 51.3348 229.089C51.7048 230.023 53.2633 229.49 55.3627 229.429C57.4633 229.368 59.2366 229.921 60.6551 229.668C62.0737 229.416 66.4836 228.261 66.4836 228.261L66.161 227.033C66.161 227.033 63.937 227.325 62.9431 226.795C61.9503 226.265 57.7919 223.817 57.7919 223.817C57.6827 224.011 56.8039 224.929 55.8194 225.562C54.8361 226.196 54.6914 226.095 54.1612 225.891C53.2112 225.526 53.2871 224.177 52.5209 224.225Z" fill="#282728"/>
<path d="M81.0409 93.6314L101.472 94.0659L91.5708 86.6937C88.2457 89.2164 83.1834 92.335 81.0409 93.6314ZM102.392 94.6785L80.0009 94.2024C79.8689 94.2001 79.7559 94.1087 79.7229 93.9804C79.6887 93.8522 79.7441 93.7169 79.8572 93.6504C85.3695 90.3703 93.7156 84.951 94.1185 83.4647C94.3093 82.7607 94.1514 81.9974 93.6956 81.424C93.2845 80.9076 92.6933 80.6298 92.0655 80.6548C90.6744 80.7189 90.062 82.5079 90.0561 82.5257C90.0043 82.6812 89.8346 82.7667 89.6827 82.7132C89.5284 82.661 89.446 82.4936 89.4966 82.3381C89.5261 82.2479 90.241 80.1455 92.0384 80.0624C92.8523 80.0196 93.6261 80.3864 94.155 81.0536C94.7274 81.7754 94.9264 82.7346 94.6862 83.6202C94.526 84.2126 93.5001 85.1896 92.0584 86.3186L102.566 94.1431C102.67 94.2202 102.712 94.3556 102.671 94.4779C102.63 94.5989 102.518 94.6785 102.392 94.6785Z" fill="#2C2C2C"/>
<path d="M87.1575 88.9771L89.0051 87.0207C89.0051 87.0207 90.4232 87.927 92.0305 87.8593C92.8657 87.8237 94.6764 87.3557 94.6764 87.3557L95.9744 89.1826C95.9744 89.1826 99.9291 89.5829 101.922 91.1746C103.915 92.7651 111.061 111.678 111.061 111.678L110.253 113.781L111.387 116.644L109.308 118.249L107.417 115.48L105.022 114.694L100.897 101.689L101.216 116.581L107.365 157.586L77.0068 157.681L83.5526 116.667L82.426 101.689L79.4862 113.722L77.3042 115.071L75.9991 117.725L73.2473 116.92L73.8398 114.267L72.75 111.855C72.75 111.855 77.3542 94.8866 79.0805 93.03C80.8068 91.1746 87.1575 88.9771 87.1575 88.9771Z" fill="#DFDFDF"/>
<path d="M96.9316 185.876L96.7676 185.708C96.7723 185.5 96.907 180.595 99.2838 180.319C99.7304 180.264 100.139 180.394 100.492 180.696C101.869 181.878 101.985 185.394 101.989 185.543L101.828 185.712L101.657 185.552C101.656 185.517 101.542 182.031 100.275 180.946C99.9917 180.703 99.6765 180.602 99.3225 180.646C97.2305 180.889 97.1004 185.667 97.0993 185.715L96.9316 185.876Z" fill="#2C2C2C"/>
<path d="M95.2987 183.788L95.0273 202.584L107.906 200.919L107.49 183.857L95.2987 183.788Z" fill="#FCCA19"/>
<path d="M92.7899 183.788L93.9846 183.803L93.6403 200.699L92.2441 201.192L92.7899 183.788Z" fill="#EAA800"/>
<path d="M93.9654 183.789L95.0251 183.788L94.7661 202.584L93.6328 200.597L93.9654 183.789Z" fill="#E69104"/>
<path d="M92.2441 201.091L93.8163 200.496L95.0288 202.584L92.2441 201.091Z" fill="#FDE180"/>
<path d="M99.0215 185.528L98.8574 185.359C98.8621 185.15 98.9969 180.245 101.373 179.97C101.829 179.918 102.23 180.047 102.582 180.349C103.958 181.529 104.074 185.046 104.079 185.194L103.917 185.364L103.747 185.204C103.746 185.169 103.631 181.683 102.364 180.596C102.082 180.353 101.768 180.256 101.412 180.298C99.3214 180.54 99.1902 185.318 99.189 185.366L99.0215 185.528Z" fill="#2C2C2C"/>
<path d="M56.5707 151.488C56.5707 151.488 57.3779 158.788 57.7857 161.103C58.1935 163.419 58.1569 184.583 58.3266 189.941C58.4975 195.3 57.9849 215.121 57.9849 215.121L60.2181 217.028L49.7507 218.899C49.7507 218.899 47.6943 218.066 48.3483 216.534C49.0024 215.002 50.3588 214.821 49.9357 212.663C49.5127 210.507 47.415 205.338 47.8475 202.483C48.2788 199.63 49.3689 194.516 48.9317 191.792C48.4944 189.067 45.0403 168.112 45.3054 167.868C40.5879 192.558 28.4777 220.336 28.4777 220.336C28.4777 220.336 25.3371 217.502 23.9441 217.885C22.5488 218.27 21.223 218.663 21.223 218.663C21.223 218.663 20.609 217.695 21.0356 216.296C21.4622 214.896 23.1604 212.933 23.739 210.745C24.3177 208.557 24.3896 208.567 24.3896 208.567C24.3896 208.567 24.3365 202.738 24.8291 200.701C25.3217 198.662 27.5232 191.026 28.0452 187.294C28.5661 183.562 30.1312 172.093 29.8283 166.522C29.4241 159.072 31.7186 148.778 31.7186 148.778C31.7186 148.778 35.4874 149.575 38.0672 148.778C40.6469 147.983 43.3267 150.691 46.7102 150.404C50.0948 150.117 56.5707 151.488 56.5707 151.488Z" fill="#2C2C2C"/>
<path d="M49.3588 97.4631L47.221 99.2716L45.248 102.741C45.248 102.741 46.545 104.656 48.401 105.539C50.2582 106.422 52.3434 106.113 52.3434 106.113L52.9059 102.331L49.3588 97.4631Z" fill="#FEB3A2"/>
<path d="M51.4036 94.3668C51.4036 94.3668 50.2982 91.2542 48.7665 92.6172C47.2348 93.9801 50.61 103.219 53.6167 103.377C56.6246 103.533 60.0352 98.7258 61.0697 96.4671C62.1054 94.2083 63.3348 91.7285 60.8619 89.8048C55.7932 85.86 51.4036 94.3668 51.4036 94.3668Z" fill="#FEB3A2"/>
<path d="M47.0246 99.2035L48.9825 97.848C48.9825 97.848 47.4417 92.7958 48.9813 92.4322C50.5186 92.0673 50.6401 93.764 51.3349 94.7499C52.2644 96.0699 51.9438 91.2007 55.4319 90.3152C59.1213 89.3789 60.2343 92.3719 61.0124 93.248C62.0408 94.4063 64.1823 95.1501 65.9221 94.1218C67.6608 93.0945 68.1922 90.1345 66.4798 87.0718C64.7686 84.0079 63.5948 85.7388 62.4877 85.0728C61.383 84.4069 63.6496 82.3183 59.9566 81.5437C56.4543 80.8082 55.2436 84.6986 53.4894 84.8804C51.7365 85.0634 51.4409 84.2263 50.3887 84.4612C48.177 84.9583 46.8173 84.8532 45.8592 89.2266C44.8653 93.7593 47.0246 99.2035 47.0246 99.2035Z" fill="#2C2C2C"/>
<path d="M84.4855 119.392C84.4855 119.392 81.09 121.408 80.5692 121.657C80.0496 121.906 78.4213 122.839 78.4213 122.839L74.8379 131.575C74.8379 131.575 76.7212 131.19 77.582 131.122C78.4417 131.054 79.3025 131.167 79.9359 130.714C80.5692 130.261 82.856 128.835 83.196 128.677C83.5348 128.518 85.5043 127.952 85.6624 127.77C85.8204 127.589 87.2128 126.504 87.0656 125.643C87.0321 125.438 88.6052 125.205 88.3562 124.178C88.1072 123.152 87.4738 123.446 87.4738 123.446L87.8582 122.948C87.8582 122.948 89.7822 122.766 89.8049 122.064C89.8277 121.363 89.1033 121.068 89.1033 121.068L84.4855 119.392Z" fill="#F1A599"/>
<path d="M84.901 116.313L89.3428 119.552C89.4679 119.644 89.4951 119.819 89.4041 119.944L82.5703 129.371C82.4794 129.497 82.3047 129.524 82.1796 129.433L77.7378 126.194C77.6138 126.103 77.5855 125.927 77.6764 125.802L84.5102 116.375C84.6011 116.249 84.7759 116.222 84.901 116.313Z" fill="#2C2C2C"/>
<path d="M84.9071 116.66L89.0374 119.787C89.1561 119.876 89.0962 120.169 89.0962 120.169L82.5853 129.374C82.4995 129.496 82.3326 129.524 82.2139 129.434L78.0825 126.307C77.9638 126.219 77.9368 126.047 78.0237 125.924L84.5346 116.721C84.6204 116.598 84.7873 116.571 84.9071 116.66Z" fill="#E8F2F9"/>
<path d="M84.779 117.003L84.7235 117.029L78.0427 125.952L82.2969 129.08L82.3933 129.065L89.0452 120.179L89.0404 120.028L84.8212 117.016L84.779 117.003ZM82.3367 129.487L82.0594 129.399L77.8185 126.366C77.7172 126.294 77.6497 126.187 77.6292 126.063C77.6087 125.941 77.64 125.818 77.7148 125.72L84.3944 116.8C84.468 116.701 84.5789 116.634 84.703 116.613C84.8356 116.594 84.9562 116.626 85.0599 116.696L89.2984 119.729C89.5094 119.877 89.4575 120.203 89.437 120.299L89.4009 120.374L82.7212 129.295C82.6308 129.42 82.4849 129.487 82.3367 129.487Z" fill="#2C2C2C"/>
<path d="M86.8663 118L87.3661 118.367C87.2032 118.593 86.9461 118.795 86.7529 118.644C86.5687 118.499 86.7293 118.054 86.8663 118Z" fill="#2C2C2C"/>
<path d="M87.0195 118.397L87.3217 118.348L87.3676 118.645L87.0635 118.696L87.0195 118.397Z" fill="black"/>
<path d="M69.9629 128.599L73.837 126.624L77.7643 123.375L78.7716 122.873L81.7922 123.174L83.5381 125.518C83.5381 125.518 83.2327 126.445 80.6844 125.151C79.9043 124.754 78.9053 127.461 78.9053 127.461L76.3214 129.136L75.7841 131.58L72.0911 134.36L69.9629 128.599Z" fill="#FEB3A2"/>
<path d="M45.4262 102.336C45.4262 102.336 47.1877 105.109 48.9467 105.351C50.7058 105.593 53.2257 105.826 52.9124 105.621C52.5967 105.413 52.7142 104.136 52.7142 104.136C52.7142 104.136 56.8127 106.009 58.5326 108.082C60.2502 110.153 60.7795 112.007 61.7054 114.696C62.6312 117.383 64.7903 130.083 64.7903 130.083L72.2028 126.455L75.8824 133.075C75.8824 133.075 65.2437 141.465 62.9339 141.717C60.6229 141.969 58.2786 139.665 58.2786 139.665L57.1902 144.54L57.6115 149.351L58.1647 151.95C58.1647 151.95 52.0601 153.695 48.5978 152.209C45.1354 150.722 44.4316 149.809 40.5348 149.528C36.6368 149.245 35.895 149.506 32.5572 149.535C29.2219 149.565 29.6789 147.382 29.6789 147.382L31.1139 145.942L30.226 144.162L30.1109 141.798C30.1109 141.798 19.6692 141.515 18.855 134.582C18.0419 127.646 26.0314 114.476 26.0314 114.476C26.0314 114.476 28.3447 110.353 31.0379 107.54C33.7311 104.727 45.4262 102.336 45.4262 102.336Z" fill="#FCCA19"/>
<path d="M58.0596 137.493L58.0007 137.487C57.8519 137.452 57.7552 137.293 57.7874 137.132C58.5327 133.361 58.6171 118.448 58.6182 118.298C58.6193 118.131 58.7204 118.027 58.897 118C59.0503 118.001 59.1747 118.136 59.1736 118.301C59.1702 118.917 59.088 133.426 58.3306 137.256C58.3028 137.396 58.1873 137.493 58.0596 137.493Z" fill="#09030F"/>
<path d="M92.5898 159.422H117.304V174.041H92.5898V159.422Z" fill="#DFDFDF"/>
<path d="M92.5898 159.422H99.8996V174.041H92.5898V159.422Z" fill="#ABABAB"/>
<path d="M85.2234 223.389C86.9594 223.389 88.3734 224.95 88.3734 226.87C88.3734 228.788 86.9594 230.349 85.2234 230.349C83.4862 230.349 82.0722 228.788 82.0722 226.87C82.0722 224.95 83.4862 223.389 85.2234 223.389ZM112.326 223.389C114.063 223.389 115.476 224.95 115.476 226.87C115.476 228.788 114.063 230.349 112.326 230.349C110.589 230.349 109.176 228.788 109.176 226.87C109.176 224.95 110.589 223.389 112.326 223.389ZM68.5995 222.661C68.5458 222.831 68.5792 223.017 68.6853 223.161C68.7926 223.304 68.9631 223.389 69.1419 223.389H82.4466C81.5309 224.234 80.936 225.472 80.936 226.87C80.936 229.409 82.8591 231.475 85.2234 231.475C87.5865 231.475 89.5084 229.409 89.5084 226.87C89.5084 225.472 88.9147 224.234 87.999 223.389H109.551C108.634 224.234 108.04 225.472 108.04 226.87C108.04 229.409 109.963 231.475 112.326 231.475C114.691 231.475 116.613 229.409 116.613 226.87C116.613 225.472 116.019 224.234 115.102 223.389H119.87C120.185 223.389 120.439 223.137 120.439 222.825C120.439 222.515 120.185 222.263 119.87 222.263H69.911L72.1369 215.092C72.7724 213.046 74.3772 211.583 76.3242 211.273L106.416 206.488C106.725 206.439 106.936 206.15 106.887 205.843C106.837 205.535 106.54 205.325 106.236 205.377L76.1442 210.162C73.7656 210.54 71.815 212.302 71.052 214.761L68.5995 222.661Z" fill="#282728"/>
<path d="M54.0406 151.623C54.0406 150.791 54.6338 150.112 55.3645 150.112C56.094 150.112 56.6883 150.791 56.6883 151.623C56.6883 152.457 56.094 153.135 55.3645 153.135C54.6338 153.135 54.0406 152.457 54.0406 151.623ZM64.8473 163.815H70.094L71.7286 175.219L66.7512 175.505L64.8473 163.815ZM71.3146 203.52L70.6052 199.164L75.0608 198.466L76.1485 206.06L74.7665 206.287C74.0418 206.408 73.2921 206.228 72.6693 205.78C71.9587 205.27 71.4653 204.446 71.3146 203.52ZM126.032 197.835L124.682 198.057L125.29 190.602L129.013 190.02L128.184 195.477C127.998 196.706 127.132 197.653 126.032 197.835ZM132.498 167.085L131.788 171.764L126.8 172.051L127.47 163.815H130.037C130.721 163.815 131.361 164.119 131.835 164.672C132.39 165.32 132.632 166.199 132.498 167.085ZM72.8615 175.153L71.2375 163.815H78.9314L80.1224 174.736L72.8615 175.153ZM73.0228 176.278L80.2458 175.863L81.2719 185.271L74.4083 185.94L73.0228 176.278ZM76.0168 197.169L74.5684 187.062L81.3941 186.397L82.4593 196.161L76.0168 197.169ZM83.4095 204.862L77.2636 205.875L76.177 198.291L82.5827 197.288L83.4095 204.862ZM91.5696 203.518L84.5257 204.679L83.7013 197.114L91.1022 195.955L91.5696 203.518ZM99.3584 202.233L92.6906 203.333L92.2244 195.779L99.2338 194.682L99.3584 202.233ZM108.336 200.753L100.486 202.048L100.362 194.506L108.336 193.256V200.753ZM115.96 199.496L109.466 200.567V193.079L116.323 192.006L115.96 199.496ZM124.141 190.782L123.534 198.248L117.099 199.308L117.462 191.828L124.141 190.782ZM124.236 189.62L117.518 190.672L117.898 182.839L124.843 182.162L124.236 189.62ZM126.707 173.191L131.613 172.908L130.464 180.476L126.078 180.904L126.707 173.191ZM125.568 173.256L124.936 181.014L117.953 181.696L118.342 173.671L125.568 173.256ZM118.82 163.815H126.337L125.661 172.116L118.397 172.535L118.82 163.815ZM109.466 163.815H117.689L117.263 172.599L109.466 173.048V163.815ZM99.8507 163.815H108.336V173.112L100.014 173.591L99.8507 163.815ZM90.2505 163.815H98.7202L98.8851 173.657L90.8863 174.117L90.2505 163.815ZM81.2529 174.671L80.0678 163.815H89.1176L89.7582 174.181L81.2529 174.671ZM82.3976 185.162L81.3751 175.798L89.8282 175.311L90.3881 184.382L82.3976 185.162ZM91.0322 194.819L83.5779 195.987L82.5198 186.287L90.4581 185.514L91.0322 194.819ZM99.2149 193.538L92.1544 194.644L91.5838 185.404L99.0678 184.674L99.2149 193.538ZM108.336 192.109L100.343 193.361L100.196 184.564L108.336 183.771V192.109ZM116.762 182.95L116.378 190.851L109.466 191.932V183.66L116.762 182.95ZM109.466 174.182L117.208 173.736L116.817 181.806L109.466 182.523V174.182ZM99.0488 183.538L91.5138 184.273L90.9563 175.246L98.9029 174.79L99.0488 183.538ZM100.032 174.724L108.336 174.248V182.632L100.177 183.429L100.032 174.724ZM129.191 188.844L125.383 189.441L125.986 182.051L130.288 181.63L129.191 188.844ZM68.7262 187.632L73.4415 187.172L74.8994 197.345L70.4226 198.045L68.7262 187.632ZM66.9339 176.628L71.8899 176.343L73.2814 186.05L68.5436 186.512L66.9339 176.628ZM52.9102 151.623C52.9102 153.081 54.011 154.268 55.3645 154.268C56.5377 154.268 57.5175 153.375 57.7595 152.19H58.8556C60.5661 152.19 62.03 153.552 62.336 155.431L70.1995 203.702C70.4 204.941 71.0441 206.006 72.0085 206.701C72.6989 207.197 73.502 207.457 74.3182 207.457C74.5281 207.457 74.7404 207.439 74.9492 207.405L126.216 198.952C127.801 198.692 129.04 197.363 129.301 195.647L130.191 189.793C130.387 189.679 130.504 189.456 130.467 189.219C130.45 189.106 130.393 189.013 130.32 188.934L133.616 167.255C133.801 166.043 133.463 164.832 132.692 163.934C132 163.127 131.056 162.682 130.037 162.682H64.661L63.4511 155.248C63.0549 152.82 61.1225 151.057 58.8556 151.057H57.7595C57.5175 149.871 56.5377 148.979 55.3645 148.979C54.011 148.979 52.9102 150.166 52.9102 151.623Z" fill="#2C2C2C"/>
<path d="M45.3442 147.587L45.2576 147.574L29.9941 142.965C29.8363 142.917 29.7485 142.751 29.7959 142.594C29.8434 142.438 30.0083 142.349 30.1649 142.396L45.2374 146.948L50.7698 139.99L35.7602 132.025L28.5585 133.748C28.4161 133.782 28.269 133.706 28.2144 133.568C28.1598 133.432 28.2144 133.275 28.3425 133.202L34.0351 129.923L37.7392 116.131C37.7819 115.973 37.9456 115.881 38.1022 115.921C38.26 115.964 38.3549 116.126 38.311 116.285L34.5761 130.196L34.4373 130.376L30.4141 132.694L35.7317 131.422L35.9393 131.448L51.363 139.634L51.5149 139.836L51.4568 140.08L45.5756 147.474L45.3442 147.587Z" fill="#09030F"/>
<path d="M239.83 195.644L255.265 225.209L257.582 221.07C257.582 221.07 254.957 212.987 254.224 210.108C253.491 207.231 247.665 192.696 246.925 191.599C246.184 190.5 239.83 195.644 239.83 195.644Z" fill="#FEB3A2"/>
<path d="M262.454 227.311L261.18 222.909L257.428 218.944L253.543 223.589C253.543 223.589 254.832 224.968 253.552 227.665C252.274 230.364 249.227 233.215 249.227 233.215L257.616 229.656L258.392 225.035L260.122 223.716L261.727 227.434L262.454 227.311Z" fill="#FCCA19"/>
<path d="M212.33 196.192L216.121 229.038L219.73 226.015C219.73 226.015 220.171 217.596 220.514 214.669C220.857 211.743 220.621 196.216 220.327 194.939C220.031 193.66 212.33 196.192 212.33 196.192Z" fill="#FEB3A2"/>
<path d="M222.409 233.884L222.775 229.273L220.579 224.165L215.131 227.12C215.131 227.12 215.878 228.89 213.66 230.962C211.443 233.035 207.459 234.608 207.459 234.608L216.875 234.323L219.304 230.255L221.456 229.646L221.662 233.735L222.409 233.884Z" fill="#FCCA19"/>
<path d="M170.589 134.36C170.589 134.36 173.274 135.973 173.685 136.172C174.096 136.371 175.384 137.117 175.384 137.117L178.218 144.106C178.218 144.106 176.727 143.798 176.047 143.744C175.368 143.69 174.687 143.78 174.187 143.418C173.685 143.056 171.877 141.914 171.609 141.787C171.34 141.66 169.783 141.208 169.658 141.063C169.532 140.918 168.432 140.05 168.549 139.36C168.575 139.197 167.331 139.01 167.529 138.189C167.726 137.367 168.226 137.603 168.226 137.603L167.922 137.204C167.922 137.204 166.4 137.06 166.383 136.498C166.364 135.937 166.937 135.7 166.937 135.7L170.589 134.36Z" fill="#F1A599"/>
<path d="M170.339 131.923L166.78 134.502L166.73 134.814L172.207 142.316L172.521 142.366L176.08 139.787L176.129 139.476L170.653 131.973L170.339 131.923Z" fill="#2C2C2C"/>
<path d="M170.374 132.271L167.126 134.743L167.08 135.045L172.197 142.318L172.49 142.366L175.736 139.894L175.782 139.592L170.666 132.319L170.374 132.271Z" fill="#F3F3F3"/>
<path d="M170.413 132.25L167.061 134.694L167.057 134.816L172.343 142.023L172.42 142.037L175.787 139.575L170.491 132.261L170.413 132.25ZM172.083 142.21L166.776 134.973L166.747 134.914C166.731 134.835 166.689 134.57 166.857 134.45L170.224 131.991L170.508 131.923L170.753 132.074L176.06 139.31L176.129 139.588L175.978 139.834L172.608 142.294L172.386 142.366C172.27 142.366 172.154 142.311 172.083 142.21Z" fill="#2C2C2C"/>
<path d="M168.625 133.316L168.125 133.499C168.289 133.612 168.545 133.713 168.739 133.637C168.922 133.566 168.761 133.343 168.625 133.316Z" fill="#2C2C2C"/>
<path d="M168.821 133.365L168.52 133.316L168.473 133.614L168.775 133.664L168.821 133.365Z" fill="black"/>
<path d="M182.396 141.482L179.317 139.865L176.194 137.206L175.395 136.796L172.994 137.043L171.605 138.961C171.605 138.961 171.848 139.719 173.873 138.66C174.494 138.336 175.287 140.549 175.287 140.549L177.342 141.919L177.768 143.92L180.705 146.195L182.396 141.482Z" fill="#FEB3A2"/>
<path d="M213.965 108.602L218.246 116.047C218.246 116.047 218.316 118.175 214.947 118.601C211.578 119.026 210.033 117.891 210.033 117.891L209.893 113.353L213.965 108.602Z" fill="#FEB3A2"/>
<path d="M212.535 106.221C212.535 106.221 212.948 104.333 214.951 104.611C216.954 104.891 212.602 114.115 209.84 115.093C207.079 116.072 204.178 110.901 203.35 108.734C202.522 106.569 200.932 103.007 204.247 102.098C207.562 101.19 212.535 106.221 212.535 106.221Z" fill="#FEB3A2"/>
<path d="M226.692 147.587L208.832 150.485L207.459 216.096C207.459 216.096 208.069 220.029 219.823 220.858C231.577 221.686 239.973 219.616 244.704 213.614C249.437 207.612 253.406 196.64 253.406 196.64L226.692 147.587Z" fill="#2C2C2C"/>
<path d="M217.948 115.911C217.948 115.911 216.068 118.992 214.188 118.906C212.309 118.821 209.831 117.707 209.831 117.707C209.831 117.707 206.074 120.873 204.022 123.525C201.973 126.177 199.818 132.475 198.282 134.699C196.744 136.923 197.433 141.76 192.818 139.366C188.206 136.971 188.19 137.303 186.822 140.554C186.366 141.641 180.036 138.508 180.036 138.508L176.477 143.457C176.477 143.457 184.491 147.769 185.109 148.738C188.272 153.687 187.366 154.238 191.895 153.639C196.422 153.041 198.814 154.495 200.693 151.244C202.572 147.994 207.269 141.663 207.269 141.663L209.404 150.559C209.404 150.559 225.379 150.132 227.087 147.736C228.795 145.341 229.308 146.026 228.539 143.032C227.77 140.037 229.479 137.298 229.479 137.298L233.337 139.801C233.337 139.801 235.303 140.564 235.986 145.782C236.669 151.002 237.811 148.219 241.056 150.016C243.284 151.249 245.338 155.941 245.338 155.941L250.184 155.095C250.184 155.095 247.959 149.571 248.268 149.396C250.83 147.94 251.923 148.566 249.959 144.203C247.994 139.84 245.368 139.353 242.889 136.529C240.412 133.706 232.297 124.125 232.297 124.125C232.297 124.125 229.052 120.53 227.344 119.334C225.635 118.136 217.948 115.911 217.948 115.911Z" fill="#FCCA19"/>
<path d="M212.321 107.033C210.946 106.837 211.195 105.347 209.078 104.012C207.765 103.184 202.504 105.516 201.958 103.38C201.409 101.244 204.12 96.9647 207.634 96.235C212.903 95.1424 213.942 99.7892 217.549 101.748C221.012 103.63 220.816 102.352 223.945 104.487C227.076 106.624 230.441 110.896 230.05 113.664C229.659 116.434 229.033 120.785 229.033 120.785C229.033 120.785 226.449 118.174 223.945 117.62C221.442 117.066 218.155 116.196 218.155 116.196L214.213 109.585C214.213 109.585 215.747 105.987 214.573 104.8C213.4 103.614 213.694 107.231 212.321 107.033Z" fill="#2C2C2C"/>
<path d="M201.893 104.167C201.893 104.167 202.67 107.358 203.08 108.301C203.493 109.245 205.226 112.347 205.728 112.976C206.23 113.603 208.65 115.582 209.564 115.133C210.477 114.683 210.203 118.054 210.203 118.054C210.203 118.054 206.687 120.076 205.865 121.154C205.043 122.233 204.176 123.221 204.176 123.221C204.176 123.221 200.661 120.3 199.885 116.166C199.108 112.031 199.612 105.246 199.612 105.246C199.612 105.246 200.257 102.687 201.025 102.369C201.796 102.05 201.893 104.167 201.893 104.167Z" fill="#2C2C2C"/>
<path d="M230.48 108.602L230.224 108.458C230.205 108.425 228.28 105.28 225.561 103.602C224.588 103.003 223.684 102.873 222.636 102.725C220.76 102.458 218.633 102.154 215.472 99.0665C211.293 94.9879 208.378 96.6365 208.257 96.7092C208.116 96.7902 207.931 96.7473 207.847 96.6067C207.763 96.465 207.808 96.2839 207.948 96.1982C208.085 96.116 211.355 94.2149 215.889 98.6412C218.912 101.593 220.935 101.88 222.72 102.135C223.788 102.287 224.794 102.43 225.876 103.096C228.72 104.851 230.655 108.016 230.735 108.149C230.82 108.291 230.775 108.473 230.634 108.559L230.48 108.602Z" fill="#2C2C2C"/>
<path d="M238.145 148.283C237.321 148.23 236.742 147.953 236.407 147.459C235.976 146.819 236.107 146.027 236.177 145.734C235.958 145.221 234.989 142.863 234.989 141.311C234.989 139.986 235.481 139.225 235.754 138.906C235.697 138.83 235.608 138.741 235.471 138.689C235.158 138.57 234.701 138.675 234.148 138.99C232.253 140.072 229.697 137.761 229.59 137.661L223.559 131.736C223.443 131.621 223.441 131.434 223.555 131.316C223.666 131.2 223.853 131.197 223.97 131.31L229.992 137.229C230.008 137.244 232.332 139.347 233.858 138.474C234.588 138.058 235.205 137.948 235.695 138.141C236.118 138.31 236.332 138.679 236.392 138.869C236.429 138.984 236.391 139.111 236.298 139.187C236.27 139.21 235.576 139.821 235.576 141.311C235.576 142.897 236.744 145.563 236.755 145.591L236.767 145.8C236.767 145.8 236.528 146.587 236.895 147.127C237.123 147.461 237.549 147.652 238.164 147.691C238.326 147.702 238.449 147.843 238.437 148.006C238.428 148.162 238.299 148.283 238.145 148.283Z" fill="#09030F"/>
<path d="M207.157 142.018C207.043 142.018 206.936 141.953 206.886 141.842C206.868 141.804 205.121 137.979 204.513 136.53C203.988 135.273 204.646 133.894 205.407 132.298C205.618 131.856 205.839 131.394 206.043 130.914C206.924 128.846 206.86 125.994 206.859 125.966C206.854 125.801 206.987 125.66 207.152 125.658C207.313 125.655 207.45 125.787 207.455 125.949C207.458 126.072 207.523 128.962 206.59 131.15C206.384 131.639 206.16 132.108 205.944 132.558C205.246 134.024 204.643 135.29 205.063 136.296C205.666 137.736 207.411 141.554 207.429 141.593C207.496 141.743 207.431 141.92 207.282 141.99L207.157 142.018Z" fill="#09030F"/>
<path d="M210.53 115.215C210.407 115.215 210.291 115.13 210.253 114.997C210.207 114.836 210.291 114.663 210.444 114.613C212.851 113.823 213.141 111.676 213.143 111.655C213.164 111.486 213.313 111.367 213.469 111.389C213.627 111.411 213.739 111.565 213.719 111.734C213.707 111.838 213.375 114.296 210.617 115.201L210.53 115.215Z" fill="#09030F"/>
<path d="M186.878 148.283C186.718 148.286 186.583 148.156 186.579 147.998C186.574 147.816 186.467 143.544 187.343 141.843C187.929 140.703 188.419 140.027 188.721 139.937L188.852 139.929C188.875 139.933 191.156 140.304 193.578 141.005C194.665 141.321 195.115 141.064 195.552 140.816C196.034 140.542 196.532 140.262 197.537 140.977C199.444 142.335 198.545 143.65 198.535 143.663C198.441 143.796 198.257 143.825 198.124 143.733C197.992 143.639 197.962 143.458 198.054 143.326C198.081 143.284 198.603 142.457 197.194 141.455C196.496 140.957 196.278 141.081 195.843 141.327C195.378 141.592 194.74 141.953 193.414 141.569C191.324 140.964 189.339 140.608 188.865 140.527C188.776 140.616 188.453 140.972 187.867 142.111C187.059 143.68 187.166 147.938 187.167 147.981C187.172 148.143 187.039 148.281 186.878 148.283Z" fill="#09030F"/>
<path d="M185.229 142.366L185.119 142.345L179.452 140.145C179.299 140.085 179.224 139.915 179.284 139.764C179.347 139.614 179.525 139.544 179.675 139.6L185.34 141.801C185.494 141.861 185.569 142.031 185.508 142.181C185.461 142.295 185.349 142.366 185.229 142.366Z" fill="#09030F"/>
<path d="M184.53 144.106L184.408 144.08L179.101 141.606C178.947 141.534 178.876 141.339 178.943 141.173C179.009 141.005 179.189 140.927 179.345 141.002L184.651 143.476C184.805 143.548 184.877 143.741 184.81 143.909C184.76 144.032 184.649 144.106 184.53 144.106Z" fill="#09030F"/>
<path d="M183.5 145.498L183.368 145.465L178.717 142.924C178.578 142.848 178.524 142.669 178.597 142.524C178.67 142.379 178.843 142.325 178.982 142.398L183.633 144.938C183.772 145.015 183.826 145.194 183.753 145.339L183.5 145.498Z" fill="#09030F"/>
<path d="M248.597 154.201C248.487 154.201 248.383 154.132 248.338 154.016L246.811 150.095C246.751 149.942 246.818 149.764 246.962 149.698C247.104 149.635 247.269 149.707 247.328 149.861L248.855 153.781C248.916 153.934 248.849 154.112 248.705 154.178L248.597 154.201Z" fill="#09030F"/>
<path d="M246.866 154.549C246.756 154.549 246.651 154.468 246.611 154.338L245.414 150.451C245.364 150.286 245.437 150.103 245.578 150.043C245.72 149.982 245.874 150.069 245.926 150.235L247.123 154.121C247.174 154.287 247.1 154.47 246.959 154.529L246.866 154.549Z" fill="#09030F"/>
<path d="M245.797 154.549C245.689 154.549 245.584 154.49 245.532 154.388L243.689 150.8C243.614 150.655 243.672 150.477 243.818 150.403C243.965 150.33 244.143 150.388 244.216 150.532L246.061 154.12C246.135 154.266 246.076 154.443 245.931 154.517L245.797 154.549Z" fill="#09030F"/>
<path d="M259.262 197.363L258.975 201.556L259.406 201.888L265.24 200.858L259.262 197.363Z" fill="#DFDFDF"/>
<path d="M274.637 183.73L276.538 186.568L277.004 186.572L280.554 183.091L274.637 183.73Z" fill="#FDE180"/>
<path d="M280.555 183.195L263.926 165.687L262.803 166.854L274.885 184.484L280.555 183.195Z" fill="#E69104"/>
<path d="M254.954 173.345L254.809 173.268C254.673 173.056 251.478 168.059 252.094 165.782C252.207 165.361 252.446 165.051 252.799 164.86C255.253 163.543 260.826 168.641 261.062 168.859L261.066 169.088L260.826 169.092C260.77 169.04 255.204 163.94 252.964 165.143C252.691 165.291 252.514 165.526 252.423 165.863C251.844 168.007 255.066 173.047 255.1 173.098L255.044 173.321L254.954 173.345Z" fill="#2C2C2C"/>
<path d="M249.92 175.654L262.912 165.339C262.912 165.339 263.137 165.672 263.532 166.255C266.208 170.203 276.634 185.626 277.07 186.756L262.293 195.274L249.92 175.654Z" fill="#FFCC00"/>
<path d="M259.737 169.722C259.624 169.567 259.657 169.35 259.811 169.236C259.968 169.122 260.186 169.156 260.299 169.31C260.412 169.465 260.379 169.683 260.225 169.797C260.068 169.91 259.85 169.877 259.737 169.722Z" fill="#E69104"/>
<path d="M253.819 174.247C253.706 174.092 253.739 173.874 253.894 173.761C254.049 173.647 254.266 173.68 254.38 173.835C254.494 173.99 254.461 174.208 254.306 174.321C254.151 174.436 253.933 174.403 253.819 174.247Z" fill="#1E23C8"/>
<path d="M253.947 174.041L253.796 173.946C253.643 173.633 250.061 166.24 252.524 164.856C254.964 163.485 259.811 169.171 260.016 169.413L259.995 169.65L259.758 169.63C259.71 169.572 254.884 163.911 252.69 165.149C250.872 166.169 253.091 171.74 254.098 173.799L254.022 174.025L253.947 174.041Z" fill="#2C2C2C"/>
<path d="M237.936 191.097L235.652 193.644L235.75 194.098L239.829 196.667L237.936 191.097Z" fill="#898989"/>
<path d="M239.938 196.667L252.71 176.592L251.34 175.782L237.395 191.505L239.938 196.667Z" fill="#2C2C2C"/>
<path d="M248.949 174.389L248.866 174.367L248.807 174.137C248.846 174.072 252.602 167.514 250.903 165.669C250.694 165.443 250.421 165.331 250.068 165.326C247.786 165.325 243.584 169.593 243.542 169.636L243.31 169.637L243.309 169.402C243.485 169.219 247.7 164.964 250.073 164.991C250.514 164.998 250.875 165.149 251.143 165.441C253.011 167.467 249.253 174.029 249.092 174.307L248.949 174.389Z" fill="#2C2C2C"/>
<path d="M239.984 165.339L253.055 175.471C253.055 175.471 252.786 175.768 252.311 176.288C249.1 179.808 236.556 193.54 235.56 194.23L223.816 181.947L239.984 165.339Z" fill="#B4B4B4"/>
<path d="M241.918 168.82C241.918 168.627 242.152 168.472 242.441 168.472C242.729 168.472 242.962 168.627 242.962 168.82C242.962 169.013 242.729 169.168 242.441 169.168C242.152 169.168 241.918 169.013 241.918 168.82Z" fill="#2C2C2C"/>
<path d="M247.916 173.469C248.039 173.322 248.259 173.303 248.406 173.427C248.553 173.55 248.573 173.77 248.448 173.917C248.325 174.064 248.105 174.084 247.958 173.959C247.811 173.836 247.792 173.616 247.916 173.469Z" fill="#E69104"/>
<path d="M248.375 173.693L248.275 173.662L248.238 173.432C248.282 173.373 252.657 167.495 250.932 165.687C249.512 164.2 244.615 167.591 242.847 169.023L242.609 169.002L242.632 168.771C242.901 168.552 249.257 163.443 251.178 165.463C253.091 167.468 248.698 173.376 248.51 173.627L248.375 173.693Z" fill="#2C2C2C"/>
<path d="M265.24 200.844V172.649L259.694 173.569L258.975 198.152L265.24 200.844Z" fill="#2C2C2C"/>
<path d="M256.374 174.389L256.213 174.249C256.198 174.161 254.695 165.35 251.805 164.99C251.445 164.946 251.113 165.055 250.789 165.327C248.759 167.027 248.168 174.163 248.162 174.235L247.985 174.389L247.834 174.207C247.858 173.908 248.444 166.857 250.582 165.065C250.971 164.737 251.404 164.599 251.843 164.655C254.976 165.045 256.473 173.819 256.536 174.192L256.402 174.387L256.374 174.389Z" fill="#2C2C2C"/>
<path d="M241.818 172.737L261.063 171.953C261.063 171.953 261.044 172.423 261.011 173.244C260.783 178.806 259.872 200.521 259.501 201.888L239.83 199.749L241.818 172.737Z" fill="#898989"/>
<path d="M254.795 174.215C254.795 173.927 255.029 173.693 255.316 173.693C255.605 173.693 255.839 173.927 255.839 174.215C255.839 174.504 255.605 174.737 255.316 174.737C255.029 174.737 254.795 174.504 254.795 174.215Z" fill="#2C2C2C"/>
<path d="M246.441 174.215C246.441 173.927 246.598 173.693 246.79 173.693C246.982 173.693 247.138 173.927 247.138 174.215C247.138 174.504 246.982 174.737 246.79 174.737C246.598 174.737 246.441 174.504 246.441 174.215Z" fill="#2C2C2C"/>
<path d="M246.954 174.389C246.835 174.37 246.775 174.281 246.792 174.188C246.864 173.783 248.563 164.243 251.727 164.656C254.872 165.052 255.468 173.834 255.491 174.208L255.332 174.389L255.163 174.23C255.157 174.141 254.564 165.357 251.688 164.994L251.53 164.985C248.767 164.985 247.131 174.155 247.115 174.25L246.954 174.389Z" fill="#2C2C2C"/>
<path d="M251.243 165.039L250.95 163.703C250.95 163.703 251.575 163.161 251.828 163.302C252.146 163.48 252.046 165.244 252.046 165.244L251.243 165.039ZM252.822 167.38C253.424 167.176 254.779 163.213 254.795 162.738C254.858 161.21 251.179 158.394 250.921 157.907C250.66 157.427 249.845 155.245 249.845 155.245L245.746 155.935L247.612 158.908C247.612 158.908 248.191 161.498 248.159 162.064C248.13 162.622 249.377 165.02 249.377 165.02C249.377 165.02 248.168 164.756 248.164 165.325C248.157 165.902 249.661 166.294 249.661 166.294C249.661 166.294 250.49 168.044 251.173 168.12C251.854 168.195 251.813 167.093 251.813 167.093C251.813 167.093 252.582 167.461 252.822 167.38Z" fill="#FEB3A2"/>
<path d="M196.669 95.7226H151.418V86.6725H196.669V95.7226Z" fill="#F3F3F3"/>
<path d="M186.92 94.6785C186.73 94.6785 186.572 94.545 186.572 94.3805V87.6668C186.572 87.5023 186.73 87.3687 186.92 87.3687C187.112 87.3687 187.268 87.5023 187.268 87.6668V94.3805C187.268 94.545 187.112 94.6785 186.92 94.6785Z" fill="#2C2C2C"/>
<path d="M190.055 89.818L194.232 89.8053L192.296 92.59L190.055 89.818Z" fill="white"/>
<path d="M190.56 90.0659L192.097 92.1202L193.425 90.0564L190.56 90.0659ZM192.121 92.9381L191.881 92.8197L189.734 89.9499L189.703 89.6366C189.753 89.535 189.855 89.4705 189.967 89.4705L193.969 89.4573C194.078 89.4573 194.176 89.5171 194.228 89.6127L194.215 89.9189L192.361 92.8018L192.121 92.9381Z" fill="#2C2C2C"/>
<path d="M174.75 115.215H155.237C153.128 115.215 151.418 113.494 151.418 111.373V109.313C151.418 107.19 153.128 105.469 155.237 105.469H174.75C176.86 105.469 178.568 107.19 178.568 109.313V111.373C178.568 113.494 176.86 115.215 174.75 115.215Z" fill="#FCCA19"/>
<path d="M164.709 150.556C164.709 150.556 165.956 156.242 169.447 156.518C172.941 156.796 174.366 150.556 174.366 150.556C174.366 150.556 175.675 149.773 177.771 151.434C174.562 158.952 178.305 163.785 178.305 163.785L179.611 182.395H160.467L160.888 163.707C160.888 163.707 164.364 161.54 161.755 151.664C163.249 150.556 164.709 150.556 164.709 150.556Z" fill="#FCCA19"/>
<path d="M185.19 189.767C185.19 189.767 184.225 188.038 182.919 188.919C180.053 190.856 185.171 194.578 185.171 194.578C185.171 194.578 190.208 190.76 187.526 188.919C186.211 188.017 185.19 189.767 185.19 189.767Z" fill="white"/>
<path d="M183.584 188.672C183.351 188.672 183.117 188.751 182.883 188.908C182.324 189.287 182.047 189.738 182.038 190.289C182.009 192.019 184.621 194.114 185.169 194.535C185.717 194.097 188.361 191.897 188.322 190.174C188.31 189.663 188.064 189.249 187.566 188.907C187.25 188.69 186.926 188.618 186.605 188.692C185.861 188.863 185.336 189.749 185.336 189.749L185.191 189.833L185.044 189.746C185.044 189.746 184.552 188.877 183.834 188.702L183.584 188.672ZM185.171 194.926L185.073 194.895C184.934 194.793 181.665 192.388 181.699 190.283C181.71 189.618 182.046 189.057 182.697 188.617C183.095 188.347 183.505 188.264 183.915 188.363C184.525 188.513 184.976 189.041 185.194 189.348C185.421 189.039 185.897 188.497 186.531 188.351C186.942 188.253 187.357 188.344 187.755 188.618C188.342 189.02 188.647 189.542 188.66 190.166C188.708 192.26 185.413 194.786 185.271 194.893L185.171 194.926Z" fill="#2C2C2C"/>
<path d="M152.809 55.3451H131.576L133.238 33.764H150.89L152.809 55.3451Z" fill="white"/>
<path d="M143.628 73.7935H140.757C135.686 73.7935 131.576 69.6589 131.576 64.5562V55.3451H152.809V64.5562C152.809 69.6589 148.698 73.7935 143.628 73.7935Z" fill="#DFDFDF"/>
<path d="M131.648 55.3451H110.342L115.431 33.764H133.315L131.648 55.3451Z" fill="#898989"/>
<path d="M122.393 73.7935H119.524C114.453 73.7935 110.342 69.6589 110.342 64.5562V55.3451H131.575V64.5562C131.575 69.6589 127.464 73.7935 122.393 73.7935Z" fill="#282728"/>
<path d="M110.297 55.3451H89.1094L98.0026 33.764H115.216L110.297 55.3451Z" fill="white"/>
<path d="M101.161 73.7935H98.2918C93.2206 73.7935 89.1094 69.6589 89.1094 64.5562V55.3451H110.342V64.5562C110.342 69.6589 106.232 73.7935 101.161 73.7935Z" fill="#DFDFDF"/>
<path d="M89.1852 55.3451H67.875L79.8386 33.764H98.1582L89.1852 55.3451Z" fill="#898989"/>
<path d="M79.9261 73.7935H77.0569C71.986 73.7935 67.875 69.6589 67.875 64.5562V55.3451H89.108V64.5562C89.108 69.6589 84.997 73.7935 79.9261 73.7935Z" fill="#282728"/>
<path d="M67.8479 55.3451H46.6426L61.853 33.764H79.7104L67.8479 55.3451Z" fill="white"/>
<path d="M58.6943 73.7935H55.825C50.7526 73.7935 46.6426 69.6589 46.6426 64.5562V55.3451H67.8756V64.5562C67.8756 69.6589 63.7644 73.7935 58.6943 73.7935Z" fill="#DFDFDF"/>
<path d="M47.2307 55.3451H26.1055L44.169 33.764H61.958L47.2307 55.3451Z" fill="#898989"/>
<path d="M38.1566 73.7935H35.2874C30.2165 73.7935 26.1055 69.6589 26.1055 64.5562V55.3451H47.3385V64.5562C47.3385 69.6589 43.2275 73.7935 38.1566 73.7935Z" fill="#282728"/>
<path d="M153.061 55.3451H174.043L169.032 33.764H151.418L153.061 55.3451Z" fill="#898989"/>
<path d="M161.989 73.7935H164.858C169.928 73.7935 174.04 69.6589 174.04 64.5562V55.3451H152.807V64.5562C152.807 69.6589 156.917 73.7935 161.989 73.7935Z" fill="#282728"/>
<path d="M174.085 55.3451H195.274L186.382 33.764H169.168L174.085 55.3451Z" fill="white"/>
<path d="M183.223 73.7935H186.092C191.164 73.7935 195.274 69.6589 195.274 64.5562V55.3451H174.041V64.5562C174.041 69.6589 178.152 73.7935 183.223 73.7935Z" fill="#DFDFDF"/>
<path d="M195.441 55.3451H216.507L204.681 33.764H186.572L195.441 55.3451Z" fill="#898989"/>
<path d="M204.457 73.7935H207.326C212.397 73.7935 216.508 69.6589 216.508 64.5562V55.3451H195.275V64.5562C195.275 69.6589 199.386 73.7935 204.457 73.7935Z" fill="#282728"/>
<path d="M216.534 55.3451H237.74L222.53 33.764H204.672L216.534 55.3451Z" fill="white"/>
<path d="M225.687 73.7935H228.558C233.628 73.7935 237.739 69.6589 237.739 64.5562V55.3451H216.506V64.5562C216.506 69.6589 220.617 73.7935 225.687 73.7935Z" fill="#DFDFDF"/>
<path d="M238.178 55.3451H259.322L240.579 33.764H222.773L238.178 55.3451Z" fill="#898989"/>
<path d="M247.27 73.7935H250.139C255.211 73.7935 259.321 69.6589 259.321 64.5562V55.3451H238.088V64.5562C238.088 69.6589 242.199 73.7935 247.27 73.7935Z" fill="#282728"/>
<path d="M140.279 165.188V171.605H149.491C150.287 171.605 150.999 171.104 151.274 170.349L153.123 165.281C153.307 164.545 152.756 163.831 152.005 163.831H148.13L148.053 160.843C148.037 160.202 147.694 159.616 147.146 159.293L146.934 159.167C146.484 158.901 145.92 159.235 145.928 159.762L145.961 161.9L143.585 165.084L140.279 165.188Z" fill="white"/>
<path d="M140.771 171.105H149.46C150.069 171.105 150.62 170.718 150.828 170.142L152.658 165.135C152.7 164.958 152.652 164.731 152.514 164.553C152.377 164.375 152.169 164.272 151.946 164.272H147.706L147.62 160.908C147.607 160.419 147.35 159.98 146.93 159.731L146.721 159.608C146.611 159.542 146.513 159.586 146.477 159.608C146.44 159.629 146.355 159.694 146.357 159.823L146.391 162.081L143.834 165.502L140.771 165.599V171.105ZM149.46 171.953H139.932V164.778L143.407 164.669L145.548 161.803L145.517 159.836C145.511 159.437 145.712 159.077 146.054 158.876C146.395 158.675 146.804 158.675 147.145 158.876L147.354 159.001C148.026 159.397 148.438 160.103 148.458 160.886L148.523 163.426H151.946C152.431 163.426 152.878 163.647 153.177 164.032C153.474 164.418 153.577 164.911 153.459 165.385L151.617 170.435C151.285 171.342 150.42 171.953 149.46 171.953Z" fill="#2C2C2C"/>
<path d="M281.125 134.012H303.655C304.161 134.012 304.573 134.783 304.573 135.734V157.004C304.573 157.955 304.161 158.726 303.655 158.726H281.125C280.618 158.726 280.207 157.955 280.207 157.004V135.734C280.207 134.783 280.618 134.012 281.125 134.012Z" fill="white"/>
<path d="M281.075 134.6C280.822 134.6 280.45 135.15 280.45 136.011V157.074C280.45 157.936 280.822 158.485 281.075 158.485H303.701C303.955 158.485 304.326 157.936 304.326 157.074V136.011C304.326 135.15 303.955 134.6 303.701 134.6H281.075ZM303.701 159.074H281.075C280.38 159.074 279.857 158.213 279.857 157.074V136.011C279.857 134.872 280.38 134.012 281.075 134.012H303.701C304.395 134.012 304.919 134.872 304.919 136.011V157.074C304.919 158.213 304.395 159.074 303.701 159.074Z" fill="#2C2C2C"/>
<path d="M292.387 137.493L295.077 142.993L301.09 143.875L296.74 148.156L297.766 154.201L292.387 151.346L287.009 154.201L288.037 148.156L283.686 143.875L289.698 142.993L292.387 137.493Z" fill="#FCCA19"/>
<path d="M283.616 94.809L283.22 94.6639C282.269 94.3168 281.665 94.1943 281.665 94.1943L281.252 94.1111L281.417 93.2861L281.83 93.367C281.857 93.3729 282.49 93.5013 283.508 93.8722L283.903 94.0172L283.616 94.809ZM287.962 97.1603L287.612 96.9261C287.131 96.6004 286.66 96.3115 286.208 96.0548L285.843 95.8479L286.257 95.1144L286.624 95.3225C287.093 95.5888 287.58 95.8895 288.083 96.2271L288.432 96.4625L287.962 97.1603ZM291.66 100.448L291.373 100.141C290.984 99.7245 290.594 99.3369 290.202 98.9743L289.892 98.689L290.462 98.0709L290.772 98.3562C291.178 98.7306 291.585 99.1337 291.987 99.5652L292.275 99.873L291.66 100.448ZM294.552 104.469L294.336 104.106C294.048 103.62 293.748 103.155 293.443 102.714L293.203 102.368L293.896 101.888L294.134 102.235C294.451 102.692 294.759 103.172 295.06 103.676L295.274 104.038L294.552 104.469ZM296.563 108.998L296.428 108.6C296.257 108.097 296.064 107.592 295.846 107.085L296.618 106.745L296.222 106.891L296.618 106.745C296.845 107.279 297.048 107.806 297.226 108.328L297.36 108.726L296.563 108.998ZM297.465 113.854L297.429 113.434C297.385 112.897 297.32 112.35 297.23 111.796L297.161 111.381L297.991 111.245L298.06 111.66C298.155 112.236 298.222 112.806 298.269 113.365L298.303 113.785L297.465 113.854ZM298.019 118.919L297.187 118.792L297.25 118.376C297.33 117.844 297.395 117.296 297.436 116.734L297.468 116.314L298.308 116.377L298.276 116.797C298.232 117.381 298.167 117.949 298.082 118.503L298.019 118.919ZM296.645 123.867L295.856 123.573L296.003 123.179C296.185 122.687 296.362 122.161 296.526 121.607L296.645 121.203L297.453 121.443L297.333 121.846C297.163 122.42 296.981 122.962 296.791 123.471L296.645 123.867ZM294.299 128.442L293.593 127.984L293.822 127.631C293.972 127.399 294.279 126.907 294.651 126.205L294.848 125.833L295.592 126.227L295.396 126.6C295.007 127.33 294.685 127.847 294.527 128.089L294.299 128.442Z" fill="#2C2C2C"/>
<path d="M261.908 145.143L261.583 144.863C261.147 144.488 260.719 144.077 260.311 143.639L260.018 143.324L260.624 142.714L260.918 143.028C261.304 143.443 261.709 143.833 262.122 144.187L262.447 144.467L261.908 145.143ZM266.477 147.694L266.08 147.543C265.534 147.336 264.999 147.095 264.487 146.83L264.109 146.633L264.487 145.848L264.863 146.044C265.348 146.296 265.855 146.524 266.371 146.719L266.767 146.87L266.477 147.694ZM274.178 148.548L274.078 147.676L274.496 147.624C275.489 147.502 276.104 147.336 276.104 147.336L276.512 147.225L276.726 148.073L276.318 148.185C276.292 148.193 275.653 148.365 274.596 148.496L274.178 148.548ZM271.571 148.631L271.151 148.608C270.569 148.573 269.991 148.511 269.431 148.424L269.014 148.359L269.139 147.491L269.558 147.555C270.091 147.639 270.643 147.699 271.197 147.731L271.619 147.756L271.571 148.631Z" fill="#2C2C2C"/>
<path d="M24.6917 38.535L24.4876 37.7204L24.8994 37.6184C25.7915 37.4002 26.4073 37.3172 26.6306 37.2923L27.0532 37.2449L27.1493 38.0797L26.7267 38.1271C26.5658 38.1461 25.9715 38.2208 25.1047 38.4343L24.6917 38.535ZM20.0743 40.4169L19.6733 39.6758L20.0491 39.4778C20.587 39.1932 21.1104 38.9465 21.6122 38.7307L22.0012 38.5623L22.341 39.3319L21.952 39.5003C21.4694 39.7078 20.9663 39.9462 20.4501 40.2189L20.0743 40.4169ZM16.032 43.315L15.4677 42.6853L15.7871 42.4079C16.2325 42.0166 16.6815 41.6561 17.1281 41.3217L17.4667 41.0691L17.9805 41.7391L17.6408 41.9928C17.2109 42.3142 16.7799 42.6616 16.3501 43.0364L16.032 43.315ZM12.7616 47.0467L12.0701 46.557L12.3174 46.2155C12.6632 45.74 13.0161 45.2906 13.3763 44.8625L13.6488 44.5411L14.3019 45.0783L14.0294 45.402C13.6824 45.8123 13.3415 46.2463 13.0101 46.7052L12.7616 47.0467ZM10.3437 51.3797L9.56808 51.0346L9.74336 50.6504C9.98588 50.1203 10.2392 49.6104 10.5021 49.1195L10.7014 48.7484L11.453 49.1409L11.2537 49.5132C10.9992 49.9875 10.7542 50.482 10.5177 50.9966L10.3437 51.3797ZM8.75289 56.0814L7.92688 55.8774L8.03014 55.4695C8.16701 54.9299 8.32428 54.3833 8.50556 53.8284L8.63524 53.4275L9.44562 53.6848L9.31475 54.0845C9.14067 54.6216 8.98699 55.1517 8.85612 55.6734L8.75289 56.0814ZM8.15981 60.987L7.30859 60.9657L7.32061 60.5459C7.33382 59.9874 7.36982 59.417 7.42985 58.8372L7.47309 58.4198L8.31947 58.5052L8.27626 58.9226C8.21864 59.4811 8.1838 60.0289 8.1706 60.5673L8.15981 60.987ZM7.88488 66.0635L7.79724 65.652C7.67958 65.1042 7.58114 64.5409 7.5031 63.9646L7.44665 63.5472L8.29066 63.4369L8.34588 63.8531C8.42151 64.4093 8.51637 64.95 8.62923 65.4765L8.71807 65.888L7.88488 66.0635ZM9.61489 70.8944L9.43841 70.5126C9.2031 70.0074 8.97979 69.4809 8.77089 68.9343L8.62081 68.5406L9.41801 68.2453L9.56688 68.639C9.76858 69.1667 9.98467 69.6742 10.2104 70.1628L10.3881 70.5446L9.61489 70.8944ZM12.321 75.2629L12.0701 74.925C11.7471 74.4886 11.4194 74.0178 11.0952 73.5127L10.8671 73.1569L11.5862 72.7063L11.8132 73.0621C12.1277 73.5506 12.4446 74.0072 12.7568 74.4293L13.0077 74.7684L12.321 75.2629ZM15.8879 79.0148L15.5601 78.748C15.5385 78.7302 15.0391 78.3223 14.2887 77.5479L13.9946 77.2456L14.6093 76.6633L14.9034 76.9669C15.6154 77.7009 16.1004 78.0994 16.1004 78.0994L16.4282 78.3662L15.8879 79.0148Z" fill="#2C2C2C"/>
<path d="M297.958 19.8443C297.956 24.4575 294.292 28.1971 289.774 28.1947C285.257 28.1936 281.596 24.4515 281.598 19.8372C281.6 15.224 285.264 11.4856 289.781 11.4868C294.298 11.4892 297.96 15.2312 297.958 19.8443Z" fill="#DFDFDF"/>
<path d="M206.065 15.3174C206.064 17.2391 204.505 18.7964 202.583 18.7964C200.661 18.7952 199.104 17.2367 199.104 15.3138C199.105 13.3921 200.664 11.8348 202.585 11.8348C204.508 11.836 206.066 13.3945 206.065 15.3174Z" fill="#FCCA19"/>
<path d="M131.573 212.332C131.572 214.254 130.012 215.812 128.09 215.811C126.169 215.81 124.611 214.251 124.611 212.328C124.613 210.406 126.171 208.848 128.093 208.849C130.016 208.849 131.573 210.408 131.573 212.332Z" fill="#DFDFDF"/>
<path d="M199.797 210.022C198.725 210.022 197.715 210.425 196.956 211.156C196.196 211.888 195.779 212.86 195.779 213.896C195.778 214.931 196.195 215.903 196.954 216.636C197.713 217.368 198.722 217.771 199.796 217.771C202.01 217.771 203.814 216.035 203.815 213.899H204.242H203.815C203.816 212.864 203.398 211.89 202.639 211.159C201.88 210.426 200.869 210.024 199.797 210.022ZM199.796 218.596C198.494 218.596 197.269 218.106 196.348 217.219C195.429 216.33 194.924 215.15 194.924 213.896C194.925 212.641 195.432 211.46 196.352 210.573C197.272 209.686 198.497 209.198 199.797 209.198C201.099 209.199 202.323 209.689 203.243 210.576C204.164 211.463 204.67 212.644 204.67 213.899C204.669 216.489 202.481 218.596 199.796 218.596Z" fill="#2C2C2C"/>
<path d="M15.9871 164.971C15.102 165.842 13.8712 166.395 12.5292 166.395C11.2158 166.395 9.99934 165.883 9.07235 164.971C8.14536 164.045 7.64778 162.817 7.64778 161.518C7.64778 160.206 8.14536 158.975 9.07235 158.064C9.99934 157.139 11.229 156.626 12.5292 156.626C15.2264 156.626 17.426 158.824 17.4117 161.518C17.4117 162.858 16.8579 164.088 15.9871 164.971ZM16.9691 157.083C15.7802 155.908 14.2025 155.245 12.5292 155.245C10.8558 155.245 9.27928 155.895 8.09034 157.083C6.91456 158.27 6.26386 159.832 6.26386 161.518C6.25071 163.19 6.91456 164.765 8.09034 165.939C9.27928 167.127 10.8558 167.776 12.5292 167.776C14.2025 167.776 15.7802 167.127 16.9691 165.939C18.1449 164.765 18.7944 163.19 18.7944 161.518C18.8088 159.846 18.1449 158.27 16.9691 157.083Z" fill="#FCCA19"/>
<path d="M52.6002 103.38L52.4389 103.336C50.0817 101.943 49.1351 99.0172 49.0954 98.8932C49.0458 98.7347 49.1388 98.569 49.3026 98.5201C49.4688 98.4724 49.64 98.5618 49.6897 98.7192C49.6983 98.7466 50.609 101.555 52.7627 102.828C52.9091 102.914 52.955 103.098 52.8644 103.239L52.6002 103.38Z" fill="#09030F"/>
<path d="M15.304 93.1817C14.4844 93.1817 13.8175 93.848 13.8175 94.6658V102.697C13.8175 103.515 14.4844 104.181 15.304 104.181H27.8649C28.6845 104.181 29.3514 103.515 29.3514 102.697V94.6658C29.3514 93.848 28.6845 93.1817 27.8649 93.1817H15.304ZM27.8649 104.773H15.304C14.1604 104.773 13.2305 103.841 13.2305 102.697V94.6658C13.2305 93.5213 14.1604 92.5899 15.304 92.5899H27.8649C29.0085 92.5899 29.9384 93.5213 29.9384 94.6658V102.697C29.9384 103.841 29.0085 104.773 27.8649 104.773Z" fill="#2C2C2C"/>
<path d="M13.5292 95.7226C13.3643 95.7226 13.2305 95.5816 13.2305 95.4076C13.2293 95.231 13.3631 95.0887 13.528 95.0874L29.6397 95.0265C29.8046 95.0265 29.9384 95.1675 29.9384 95.3415C29.9396 95.5181 29.8058 95.6604 29.6409 95.6617L13.5292 95.7226Z" fill="#2C2C2C"/>
<path d="M13.5292 102.684C13.3655 102.684 13.2317 102.544 13.2305 102.369C13.2305 102.194 13.3631 102.052 13.528 102.05L29.6397 101.988C29.8046 101.988 29.9372 102.13 29.9384 102.304C29.9384 102.479 29.8058 102.622 29.6409 102.622L13.5292 102.684Z" fill="#2C2C2C"/>
<path d="M16.9958 93.2861C16.8186 93.2755 16.6963 93.1361 16.7056 92.9731L16.8793 90.0746L16.9958 89.8561L17.2359 89.8053L28.314 92.4192C28.4714 92.4558 28.5693 92.6152 28.532 92.7747C28.4958 92.933 28.3408 93.0322 28.1823 92.9956L17.4399 90.4596L17.2872 93.0086C17.2779 93.1656 17.1497 93.2861 16.9958 93.2861Z" fill="#2C2C2C"/>
<path d="M28.2429 92.9381L28.1112 92.9073L19.8304 88.8239L19.7495 90.5737C19.741 90.7453 19.6058 90.902 19.4343 90.8674C19.2664 90.86 19.1384 90.7156 19.1469 90.5453L19.2495 88.3278L19.3957 88.0773L19.6819 88.065L28.3745 92.3519C28.5242 92.426 28.5871 92.6099 28.5146 92.7641C28.4627 92.874 28.3552 92.9381 28.2429 92.9381Z" fill="#2C2C2C"/>
<path d="M255.195 34.112H35.8006C35.6368 34.112 35.5039 33.956 35.5039 33.7639C35.5039 33.5717 35.6368 33.4158 35.8006 33.4158H255.195C255.358 33.4158 255.492 33.5717 255.492 33.7639C255.492 33.956 255.358 34.112 255.195 34.112Z" fill="#2C2C2C"/>
<path d="M42.4668 27.7819C41.6368 27.7819 40.9618 28.5132 40.9618 29.4124C40.9618 30.3116 41.6368 31.0441 42.4668 31.0441C43.2969 31.0441 43.973 30.3116 43.973 29.4124C43.973 28.5132 43.2969 27.7819 42.4668 27.7819ZM42.4668 31.6755C41.315 31.6755 40.3789 30.6601 40.3789 29.4124C40.3789 28.1646 41.315 27.1505 42.4668 27.1505C43.6186 27.1505 44.5559 28.1646 44.5559 29.4124C44.5559 30.6601 43.6186 31.6755 42.4668 31.6755Z" fill="#2C2C2C"/>
<path d="M47.3379 29.413C47.3379 28.1643 48.3518 27.1505 49.6004 27.1505C50.8503 27.1505 51.863 28.1643 51.863 29.413C51.863 30.6629 50.8503 31.6755 49.6004 31.6755C48.3518 31.6755 47.3379 30.6629 47.3379 29.413Z" fill="#2C2C2C"/>
<path d="M56.5672 27.7474C55.6491 27.7474 54.9017 28.4949 54.9017 29.413C54.9017 30.3312 55.6491 31.0786 56.5672 31.0786C57.4854 31.0786 58.2328 30.3312 58.2328 29.413C58.2328 28.4949 57.4854 27.7474 56.5672 27.7474ZM56.5672 31.6755C55.3195 31.6755 54.3047 30.6607 54.3047 29.413C54.3047 28.1653 55.3195 27.1505 56.5672 27.1505C57.8137 27.1505 58.8298 28.1653 58.8298 29.413C58.8298 30.6607 57.8137 31.6755 56.5672 31.6755Z" fill="#2C2C2C"/>
<path d="M228.393 31.3274H82.4426C81.5104 31.3274 80.7539 30.5856 80.7539 29.6715V29.1544C80.7539 28.2403 81.5104 27.4985 82.4426 27.4985H228.393C229.325 27.4985 230.081 28.2403 230.081 29.1544V29.6715C230.081 30.5856 229.325 31.3274 228.393 31.3274Z" fill="#DFDFDF"/>
<path d="M50.0005 141.67L55.5866 144.178L59.2375 145.676L60.5702 149.672L59.189 153.144L54.925 155.941L54.8954 154.416C54.8954 154.416 57.3919 152.824 57.2986 151.87C56.9926 148.722 54.0081 149.871 54.0081 149.871C54.0081 149.871 53.2673 151.07 51.7869 150.42C50.9291 150.045 49.3199 147.574 49.3199 147.574L46.2988 146.144L50.0005 141.67Z" fill="#FEB3A2"/>
</svg>
