<svg width="397" height="302" viewBox="0 0 397 302" fill="none" xmlns="http://www.w3.org/2000/svg">
<path d="M146.983 274.048L150.111 292.482H143.527L137.602 273.554L146.983 274.048Z" fill="#FF987C"/>
<path d="M141.716 289.52C141.058 289.684 139.741 294.457 140.893 296.597C141.552 297.914 143.856 296.762 146.819 296.268C149.946 295.774 152.579 296.103 154.719 295.61C156.694 294.951 163.113 292.482 163.113 292.482L162.455 290.836C162.455 290.836 159.163 291.659 157.682 291.166C156.036 290.672 149.452 288.038 149.452 288.038C149.288 288.368 148.135 289.849 146.819 290.836C145.502 291.989 145.337 291.824 144.514 291.659C143.033 291.166 142.868 289.19 141.716 289.52Z" fill="black"/>
<path d="M110.278 271.25L106.657 289.52L100.402 287.215L101.555 267.3L110.278 271.25Z" fill="#FF987C"/>
<path d="M99.7431 283.759C99.0847 283.594 96.122 287.709 96.4512 290.013C96.6158 291.495 99.0847 291.166 102.212 291.824C105.339 292.482 107.644 293.799 109.783 293.964C111.923 294.128 118.671 293.964 118.671 293.964V292.153C118.671 292.153 115.379 291.824 114.063 290.672C112.746 289.684 107.479 284.746 107.479 284.746C107.314 284.911 105.668 285.899 104.022 286.557C102.377 287.051 102.212 286.886 101.554 286.392C100.401 285.899 100.895 284.088 99.7431 283.759Z" fill="black"/>
<path d="M274.871 22.22C189.118 -31.7666 141.221 83.2841 86.7411 83.6133C30.6147 83.9425 16.2951 144.184 67.1544 208.375C116.697 270.921 181.382 294.787 221.378 293.634C287.709 291.988 345.317 215.617 314.044 169.366C285.899 127.724 331.491 57.9368 274.871 22.22Z" fill="#F3F3F3"/>
<path d="M218.087 301.041C174.47 301.041 109.785 274.048 61.23 212.819C31.9324 175.786 21.563 136.448 34.2367 109.948C42.4664 92.6661 59.4195 83.1197 82.1334 83.1197C102.872 82.9551 122.953 66.3312 144.35 48.5551C180.066 18.7637 220.556 -14.9779 276.189 20.0804C310.424 41.6422 308.778 75.2192 307.132 107.809C305.98 131.51 304.828 154.059 316.843 171.671C329.023 189.776 329.023 214.136 316.514 238.496C298.08 274.377 258.742 300.054 220.886 301.041C219.898 301.041 218.91 301.041 218.087 301.041ZM229.609 6.74838C197.02 6.74838 170.026 29.1331 145.502 49.7072C123.94 67.6479 103.695 84.601 82.298 84.601C60.4071 84.7656 43.7831 93.9828 35.8826 110.607C23.5381 136.448 33.743 175.127 62.7114 211.667C110.937 272.402 174.964 299.231 218.252 299.231C219.075 299.231 220.063 299.231 220.886 299.231C258.084 298.243 296.928 272.896 315.033 237.673C327.213 213.971 327.377 190.27 315.527 172.658C303.182 154.389 304.499 130.687 305.651 107.644C307.297 75.5484 308.943 42.4651 275.531 21.3972C258.742 11.0278 243.599 6.74838 229.609 6.74838Z" fill="#FCCA19"/>
<path d="M86.5768 214.63C86.5768 214.63 86.4122 214.63 86.5768 214.63C85.9184 214.794 85.4245 214.465 85.2599 213.971C70.7757 150.932 16.7892 117.849 16.2954 117.519C15.8016 117.19 15.637 116.696 15.9662 116.203C16.2954 115.709 16.7891 115.544 17.2829 115.874C17.7767 116.203 72.5863 149.615 87.2351 213.477C87.2351 213.971 87.0705 214.465 86.5768 214.63Z" fill="#2C2C2C"/>
<path d="M63.205 164.593C63.205 164.593 50.0375 161.63 39.5035 166.239C27.4882 171.506 22.0566 181.546 22.0566 181.546C22.0566 181.546 37.3638 184.18 47.0748 179.9C56.6213 175.621 63.205 164.593 63.205 164.593Z" fill="#2C2C2C"/>
<path d="M46.0863 142.044C46.0863 142.044 35.2231 139.74 26.8288 143.196C17.1178 147.311 12.6738 155.047 12.6738 155.047C12.6738 155.047 25.183 157.187 33.0834 153.895C40.8193 150.603 46.0863 142.044 46.0863 142.044Z" fill="#2C2C2C"/>
<path d="M52.5033 106.985C52.5033 106.985 45.0965 114.392 43.6152 122.951C41.9693 132.827 46.0841 140.233 46.0841 140.233C46.0841 140.233 54.1492 131.345 55.4659 123.445C56.7827 115.544 52.5033 106.985 52.5033 106.985Z" fill="#2C2C2C"/>
<path d="M31.9319 128.712C31.9319 128.712 24.6898 124.432 17.6123 125.091C9.54721 125.914 4.60938 130.687 4.60938 130.687C4.60938 130.687 13.1683 135.131 19.5874 134.473C26.1712 133.814 31.9319 128.712 31.9319 128.712Z" fill="#2C2C2C"/>
<path d="M33.7417 99.5789C33.7417 99.5789 28.804 106.327 28.6394 113.405C28.4748 121.47 32.7542 126.901 32.7542 126.901C32.7542 126.901 38.0212 118.836 38.1858 112.417C38.3504 105.998 33.7417 99.5789 33.7417 99.5789Z" fill="#2C2C2C"/>
<path d="M18.7637 118.013C18.7637 118.013 16.1302 112.417 11.357 109.454C5.76081 106.162 0 106.492 0 106.492C0 106.492 3.29189 112.911 7.73591 115.544C12.3445 118.178 18.7637 118.013 18.7637 118.013Z" fill="#2C2C2C"/>
<path d="M360.956 261.21H71.9303C68.4738 261.21 65.6758 258.411 65.6758 254.955V39.1731C65.6758 35.7167 68.4738 32.9186 71.9303 32.9186H361.121C364.577 32.9186 367.375 35.7167 367.375 39.1731V254.955C367.211 258.411 364.413 261.21 360.956 261.21Z" fill="white"/>
<path d="M360.956 261.703H71.9299C68.1443 261.703 65.1816 258.74 65.1816 254.955V39.173C65.1816 35.3874 68.1443 32.4247 71.9299 32.4247H361.12C364.906 32.4247 367.869 35.3874 367.869 39.173V254.955C367.869 258.74 364.741 261.703 360.956 261.703ZM71.9299 33.5768C68.8027 33.5768 66.3337 36.0457 66.3337 39.173V254.955C66.3337 258.082 68.8027 260.551 71.9299 260.551H361.12C364.248 260.551 366.717 258.082 366.717 254.955V39.173C366.717 36.0457 364.248 33.5768 361.12 33.5768H71.9299Z" fill="#696969"/>
<path d="M276.774 190.94C276.433 190.94 275.94 191.704 275.94 192.9V222.904C275.94 224.101 276.433 224.865 276.774 224.865H308.753C309.094 224.865 309.586 224.101 309.586 222.904V192.9C309.586 191.704 309.094 190.94 308.753 190.94H276.774ZM308.753 225.805H276.774C275.762 225.805 275 224.558 275 222.904V192.9C275 191.247 275.762 190 276.774 190H308.753C309.765 190 310.527 191.247 310.527 192.9V222.904C310.527 224.558 309.765 225.805 308.753 225.805Z" fill="#2C2C2C"/>
<path d="M283.422 214.441H297.075C298.029 214.441 298.892 213.839 299.223 212.942L302.097 205.141C302.163 204.871 302.09 204.517 301.873 204.24C301.659 203.966 301.334 203.808 300.986 203.808H294.31L294.175 198.558C294.154 197.798 293.751 197.116 293.095 196.732L292.764 196.538C292.593 196.437 292.442 196.506 292.386 196.538C292.331 196.572 292.2 196.672 292.204 196.867L292.258 200.388L288.233 205.725L283.422 205.875V214.441ZM297.075 215.774H282.088V204.583L287.554 204.414L290.917 199.952L290.87 196.89C290.861 196.265 291.177 195.703 291.714 195.389C292.256 195.071 292.901 195.075 293.439 195.389L293.77 195.581C294.826 196.201 295.474 197.302 295.508 198.526L295.61 202.474H300.986C301.749 202.474 302.456 202.818 302.925 203.422C303.395 204.026 303.557 204.795 303.369 205.535L300.472 213.402C299.951 214.821 298.585 215.774 297.075 215.774Z" fill="#2C2C2C"/>
<path d="M327.018 190H351.983C352.546 190 353 190.843 353 191.881V215.119C353 216.157 352.546 217 351.983 217H327.018C326.456 217 326 216.157 326 215.119V191.881C326 190.843 326.456 190 327.018 190Z" fill="white"/>
<path d="M327.287 190.576C326.953 190.576 326.581 191.24 326.581 192.129V214.871C326.581 215.76 326.953 216.424 327.287 216.424H351.715C352.048 216.424 352.419 215.76 352.419 214.871V192.129C352.419 191.24 352.048 190.576 351.715 190.576H327.287ZM351.715 217H327.287C326.565 217 326 216.064 326 214.871V192.129C326 190.936 326.565 190 327.287 190H351.715C352.436 190 353 190.936 353 192.129V214.871C353 216.064 352.436 217 351.715 217Z" fill="#2C2C2C"/>
<path d="M347 212H334V199H347V212Z" fill="#FCCA19"/>
<path d="M341 212H339V199H341V212Z" fill="#2C2C2C"/>
<path d="M336.654 195.701L336.583 195.705C336.249 195.743 336.046 196.147 335.935 196.481C335.736 197.075 335.792 197.504 336.107 197.791C336.796 198.415 338.586 198.336 339.68 198.196C338.774 197.031 337.432 195.701 336.654 195.701ZM338.237 199C337.237 199 336.143 198.844 335.511 198.273C334.988 197.797 334.865 197.128 335.148 196.285C335.409 195.509 335.854 195.079 336.474 195.009C338.154 194.823 340.294 197.686 340.704 198.264L341 198.681L340.444 198.789C340.255 198.826 339.298 199 338.237 199Z" fill="#2C2C2C"/>
<path d="M340.32 198.195C341.415 198.335 343.206 198.414 343.893 197.79C344.208 197.503 344.264 197.075 344.065 196.481C343.952 196.147 343.751 195.743 343.417 195.705C342.652 195.614 341.255 196.994 340.32 198.195ZM341.763 199C340.702 199 339.745 198.826 339.556 198.789L339 198.681L339.296 198.264C339.707 197.686 341.858 194.823 343.526 195.009C344.146 195.079 344.591 195.509 344.852 196.285C345.135 197.128 345.012 197.797 344.489 198.273C343.857 198.844 342.763 199 341.763 199Z" fill="#2C2C2C"/>
<path d="M248.043 137.6H345.976V140.233H248.043V137.6Z" fill="#BBBBBB"/>
<path d="M248.043 142.867H345.976V145.501H248.043V142.867Z" fill="#BBBBBB"/>
<path d="M126.901 56.2909H228.455C230.924 56.2909 232.899 58.266 232.899 60.7349V179.077C232.899 181.546 230.924 183.522 228.455 183.522H126.901C124.432 183.522 122.457 181.546 122.457 179.077V60.7349C122.457 58.266 124.432 56.2909 126.901 56.2909Z" fill="#F3F3F3"/>
<path d="M171.835 96.6163L137.105 95.9579L138.916 94.9704C146.158 90.691 158.009 83.1197 158.503 81.1445C158.832 80.157 158.503 79.1694 158.009 78.5111C157.515 77.8527 156.692 77.5235 155.869 77.5235C154.059 77.5235 153.236 79.9924 153.236 79.9924L152.084 79.6632C152.084 79.4986 153.071 76.5359 155.705 76.3713C156.857 76.3713 158.009 76.8651 158.832 77.8527C159.655 78.8402 159.984 80.3216 159.655 81.4737C159.49 82.2967 158.009 83.6134 156.198 85.0948L171.835 96.6163ZM141.056 94.8058L168.214 95.2996L155.046 85.5886C150.767 88.8804 144.512 92.6661 141.056 94.8058Z" fill="#B1C7F0"/>
<path d="M309.435 92.3368H247.383V104.517H309.435V92.3368Z" fill="#DFDFDF"/>
<path d="M279.479 131.181H252.65C249.687 131.181 247.383 128.877 247.383 125.914V123.28C247.383 120.318 249.687 118.013 252.65 118.013H279.479C282.441 118.013 284.746 120.318 284.746 123.28V125.914C284.746 128.877 282.441 131.181 279.479 131.181Z" fill="#DFDFDF"/>
<path d="M366.712 44.7694H66V45.9216H366.712V44.7694Z" fill="#696969"/>
<path d="M75.5472 42.3006C73.9013 42.3006 72.4199 40.9838 72.4199 39.1733C72.4199 37.5274 73.7367 36.046 75.5472 36.046C77.1932 36.046 78.6744 37.3628 78.6744 39.1733C78.6744 40.9838 77.1932 42.3006 75.5472 42.3006ZM75.5472 37.3628C74.5597 37.3628 73.5721 38.1857 73.5721 39.3379C73.5721 40.49 74.3951 41.313 75.5472 41.313C76.5348 41.313 77.5224 40.49 77.5224 39.3379C77.5224 38.1857 76.5348 37.3628 75.5472 37.3628Z" fill="#DFDFDF"/>
<path d="M81.9688 39.3378C81.9688 37.6919 83.2855 36.2106 85.0961 36.2106C86.742 36.2106 88.2234 37.5273 88.2234 39.3378C88.2234 40.9838 86.9066 42.4651 85.0961 42.4651C83.4501 42.3005 81.9688 40.9838 81.9688 39.3378Z" fill="#DFDFDF"/>
<path d="M94.6395 42.4651C92.829 42.4651 91.3477 40.9837 91.3477 39.1732C91.3477 37.3627 92.829 35.8813 94.6395 35.8813C96.45 35.8813 97.9314 37.3627 97.9314 39.1732C97.9314 41.1483 96.45 42.4651 94.6395 42.4651ZM94.6395 37.1981C93.4874 37.1981 92.4998 38.1857 92.4998 39.3378C92.4998 40.49 93.4874 41.4775 94.6395 41.4775C95.7917 41.4775 96.7792 40.49 96.7792 39.3378C96.7792 38.1857 95.7917 37.1981 94.6395 37.1981Z" fill="#DFDFDF"/>
<path d="M330.339 42.136H130.523C129.206 42.136 128.219 41.1484 128.219 39.8317V39.1733C128.219 37.8566 129.206 36.869 130.523 36.869H330.504C331.821 36.869 332.808 37.8566 332.808 39.1733V39.8317C332.808 41.1484 331.656 42.136 330.339 42.136Z" fill="#DFDFDF"/>
<path d="M100.566 94.6411L100.896 103.365C100.896 103.365 103.2 106.986 107.973 105.998C112.746 105.01 114.557 102.542 114.557 102.542L108.796 95.6287L100.566 94.6411Z" fill="#FEB49C"/>
<path d="M102.377 90.8556C102.377 90.8556 97.2742 88.7159 96.945 91.514C96.6159 94.6412 110.935 99.9082 112.746 95.6288C116.861 85.424 105.998 76.2068 103.693 77.0297C101.389 77.8527 103.2 83.6135 103.2 85.5886C103.035 87.7283 102.377 90.8556 102.377 90.8556Z" fill="#FEB49C"/>
<path d="M153.072 70.4458L160.479 73.9023C160.479 73.9023 164.758 67.4832 165.581 65.8372C166.404 64.1913 166.898 60.5702 166.898 58.9243C167.063 57.2784 168.379 53.8219 165.911 54.4803C163.277 55.1387 160.973 56.4554 159.985 57.7722C156.858 61.7224 156.529 66.0018 156.529 66.0018L153.072 70.4458Z" fill="#F3A08C"/>
<path d="M126.736 194.385H154.388C155.046 194.385 155.54 195.043 155.54 195.701V232.899C155.54 233.722 155.046 234.216 154.388 234.216H126.736C126.078 234.216 125.584 233.558 125.584 232.899V195.701C125.584 195.043 126.078 194.385 126.736 194.385Z" fill="#F3F3F3"/>
<path d="M164.263 194.385H191.915C192.574 194.385 193.067 195.043 193.067 195.701V232.899C193.067 233.722 192.574 234.216 191.915 234.216H164.263C163.605 234.216 163.111 233.558 163.111 232.899V195.701C163.111 195.043 163.605 194.385 164.263 194.385Z" fill="#F3F3F3"/>
<path d="M203.271 194.385H230.923C231.581 194.385 232.075 195.043 232.075 195.701V232.899C232.075 233.722 231.581 234.216 230.923 234.216H203.271C202.613 234.216 202.119 233.558 202.119 232.899V195.701C202.119 195.043 202.613 194.385 203.271 194.385Z" fill="#EBF3F9"/>
<path d="M136.448 202.943C136.448 202.943 138.093 204.589 140.398 204.754C142.702 204.919 144.019 202.779 144.019 202.779C144.019 202.779 146.323 203.108 147.804 204.26C149.286 205.412 152.907 210.186 152.907 210.186L149.45 213.807L145.829 211.502L147.146 224.176H134.308L134.637 211.502L132.497 213.971L127.889 211.996C127.889 211.996 130.358 206.729 131.51 205.412C132.991 204.26 136.448 202.943 136.448 202.943Z" fill="#FCCA19"/>
<path d="M101.388 100.731L100.729 94.8059C100.729 94.8059 96.6144 93.16 97.4373 91.0203C98.2603 88.8806 102.869 91.1849 102.869 91.1849C102.869 91.1849 103.527 88.8806 103.363 85.0949C103.033 81.4739 101.881 79.1696 103.363 78.0174C104.844 76.7007 106.984 78.182 104.679 73.738C102.375 69.4586 97.4374 66.3313 96.4498 70.6107C95.4623 74.8902 92.4996 74.3964 90.3599 76.2069C88.2201 78.0174 90.5244 85.9179 90.5244 85.9179C90.5244 85.9179 87.0679 85.5887 86.4096 87.893C85.7512 90.3619 85.7512 96.9457 92.1703 98.9208C98.4249 100.896 101.388 100.731 101.388 100.731Z" fill="#2C2C2C"/>
<path d="M108.631 97.6039C105.997 97.6039 103.528 96.9455 103.528 96.9455C103.364 96.9455 103.199 96.6163 103.199 96.4517C103.199 96.2871 103.528 96.1226 103.693 96.1226C103.693 96.1226 106.82 96.9455 109.783 96.7809C110.112 96.7809 110.277 96.9455 110.277 97.1101C110.277 97.2747 110.112 97.6039 109.948 97.6039C109.454 97.6039 109.125 97.6039 108.631 97.6039Z" fill="#130514"/>
<path d="M99.7443 180.394C99.7443 180.394 98.263 180.394 98.263 187.143C98.0984 193.891 104.353 221.213 104.517 228.785C104.682 236.356 98.263 269.11 98.9214 272.073C99.5797 275.2 100.567 277.34 100.567 277.34L99.2505 280.961L108.468 283.43L110.278 278.821C110.278 278.821 111.595 278.821 113.899 276.352C116.204 273.883 123.446 236.685 123.446 236.685L106.822 178.913L99.7443 180.394Z" fill="#2C2C2C"/>
<path d="M132.333 175.95C132.333 175.95 143.361 218.909 145.665 228.62C147.969 238.496 152.249 267.793 152.084 272.566C151.92 277.34 149.122 281.125 149.122 281.125L150.767 285.405L140.398 287.709L138.752 282.607C138.752 282.607 134.473 282.771 133.156 278.986C131.839 275.2 123.445 236.685 123.445 236.685C123.445 236.685 107.973 194.055 106.821 190.105C105.669 186.32 104.188 179.736 104.188 179.736C104.188 179.736 114.063 174.798 118.672 175.292C123.28 175.786 132.333 175.95 132.333 175.95Z" fill="#696969"/>
<path d="M154.553 91.5137L156.199 90.197C165.91 82.2965 180.394 69.4582 180.723 66.4956C180.888 65.0142 180.394 63.6975 179.242 62.7099C178.254 61.887 177.102 61.5578 175.95 61.7224C173.316 62.2161 172.658 65.8372 172.658 65.8372L171.506 65.6726C171.506 65.508 172.329 61.2286 175.785 60.5702C177.431 60.241 178.913 60.7348 180.229 61.887C181.546 63.0391 182.204 64.8496 182.04 66.6602C181.875 67.8123 180.229 69.952 177.76 72.5855L201.956 85.4238L154.553 91.5137ZM176.773 73.4085C171.012 79.1692 162.289 86.7405 158.503 89.8678L198.005 84.7654L176.773 73.4085Z" fill="#898989"/>
<path d="M168.379 76.8651L176.115 84.7656L185.496 74.89L202.285 82.6259C205.083 83.9427 207.223 86.4116 208.21 89.3742C211.008 98.2623 217.263 117.355 218.909 121.635C221.049 127.231 228.291 146.817 228.291 146.817L228.126 156.364L218.909 158.833L214.465 152.743L201.133 118.672L206.235 157.022L182.698 170.683L154.224 161.301L149.944 114.722L136.283 152.249L133.32 119.166L150.932 88.7159L168.379 76.8651Z" fill="#696969"/>
<path d="M215.782 152.578C215.618 152.578 215.453 152.413 215.453 152.249C215.453 152.084 215.453 151.755 215.782 151.755L226.81 148.298C226.975 148.298 227.304 148.298 227.304 148.628C227.304 148.792 227.304 149.121 226.975 149.121L215.782 152.578C215.782 152.413 215.782 152.578 215.782 152.578Z" fill="#130514"/>
<path d="M177.432 82.9549L183.357 88.8803L190.105 75.5482L184.674 74.0669L177.432 82.9549Z" fill="#FCCA19"/>
<path d="M175.62 83.778L170.847 91.0201L162.617 79.1694L168.707 76.5359L175.62 83.778Z" fill="#FCCA19"/>
<path d="M183.192 89.3743C183.027 89.3743 183.027 89.3743 182.863 89.2097L177.102 83.1197C176.937 82.9551 176.937 82.7905 177.102 82.6259L184.344 73.5733C184.509 73.4087 184.673 73.4087 184.838 73.4087L190.269 74.89C190.434 74.89 190.434 75.0546 190.599 75.0546C190.599 75.2192 190.599 75.2192 190.599 75.3838L183.686 88.8805C183.521 89.3742 183.356 89.3743 183.192 89.3743ZM177.925 82.9551L183.027 88.3867L189.446 75.8776L184.673 74.5609L177.925 82.9551Z" fill="#130514"/>
<path d="M171.013 91.5138C170.849 91.5138 170.684 91.5138 170.684 91.3492L164.923 83.1196L162.29 79.6631C162.29 79.4985 162.125 79.4985 162.29 79.3339C162.29 79.1694 162.455 79.1693 162.455 79.0047L167.886 75.8775C168.051 75.7129 168.215 75.8775 168.38 75.8775L175.951 83.6134C176.116 83.778 176.116 83.9425 175.951 84.1071L171.343 91.3492C171.343 91.3492 171.178 91.5138 171.013 91.5138ZM163.277 79.4985L165.582 82.6258L171.013 90.3617L175.128 83.9425L168.051 76.7004L163.277 79.4985Z" fill="#130514"/>
<path d="M183.52 167.062C183.355 167.062 183.19 166.898 183.19 166.733L175.619 85.4238C175.619 85.2592 175.784 84.9301 175.948 84.9301C176.278 84.9301 176.442 85.0947 176.442 85.2592L183.849 166.404C183.849 166.733 183.684 167.062 183.52 167.062Z" fill="#130514"/>
<path d="M100.895 102.212C100.895 102.212 95.2994 103.365 93.9826 106.986C92.6659 110.607 92.1721 135.131 92.0075 144.184C91.6783 153.236 90.197 171.835 93.6534 173.646C96.9453 175.456 97.9328 176.609 97.9328 176.609L97.7683 181.217C97.7683 181.217 110.771 177.596 117.19 177.102C123.609 176.444 134.143 175.95 134.143 175.95L133.979 172.165C133.979 172.165 137.106 171.012 137.106 162.124C137.6 155.87 134.637 123.445 134.637 123.445C134.637 123.445 153.895 117.52 156.528 113.734C159.162 109.784 170.519 75.3837 170.519 75.3837L161.795 72.5856L160.972 74.0669L153.401 69.6229C153.401 69.6229 143.031 89.3741 137.764 90.5263C132.662 91.5138 118.013 95.7933 115.051 96.7808C112.088 97.7684 111.1 98.9205 111.1 98.9205L113.734 101.719C113.734 101.719 114.557 104.681 109.948 105.01C106.162 105.175 100.895 102.212 100.895 102.212Z" fill="#FCCA19"/>
<path d="M100.567 108.961C100.403 108.961 100.238 108.796 100.238 108.631C100.238 108.467 100.403 108.138 100.567 108.138C100.897 108.138 131.346 106.327 139.576 101.225C147.806 96.1224 159.656 74.7252 159.821 74.5606C159.986 74.3961 160.15 74.2315 160.315 74.3961C160.479 74.5607 160.644 74.7252 160.479 74.8898C159.986 75.8774 148.464 96.6162 140.07 101.883C131.511 107.15 101.884 108.961 100.567 108.961Z" fill="#130514"/>
<path d="M115.709 130.193C111.1 130.193 105.504 128.712 103.035 124.926C102.87 124.762 103.035 124.433 103.2 124.433C103.364 124.268 103.693 124.433 103.693 124.597C106.656 129.041 114.556 130.029 118.836 129.206C123.28 128.218 132.991 126.078 132.991 126.078L133.156 126.901C133.156 126.901 123.444 129.041 119 130.029C118.013 130.193 116.861 130.193 115.709 130.193Z" fill="#130514"/>
<path d="M127.394 105.175H127.229L120.481 101.225C120.316 101.06 120.152 100.896 120.316 100.731C120.481 100.566 120.645 100.402 120.81 100.566L127.558 104.517C127.723 104.681 127.888 104.846 127.723 105.01C127.558 105.01 127.558 105.175 127.394 105.175Z" fill="#130514"/>
<path d="M100.895 177.267C100.731 177.267 100.566 177.102 100.566 176.938C100.402 176.773 100.566 176.444 100.731 176.444C101.06 176.28 109.454 172.823 115.709 172.988C121.963 173.152 132.333 171.671 132.333 171.671C132.497 171.671 132.826 171.836 132.826 172C132.826 172.165 132.662 172.494 132.497 172.494C132.333 172.494 121.963 173.975 115.709 173.811C109.454 173.646 101.06 177.102 100.895 177.267Z" fill="#130514"/>
<path d="M108.796 105.504C105.34 105.504 101.39 103.2 101.225 103.035C101.06 102.871 100.896 102.706 101.06 102.542C101.225 102.377 101.39 102.213 101.554 102.377C101.554 102.377 106.657 105.504 110.278 104.517C112.088 104.023 112.582 103.365 112.911 102.871C113.076 102.377 112.911 102.048 112.911 102.048C112.747 101.883 112.911 101.554 113.076 101.554C113.24 101.39 113.569 101.554 113.569 101.719C113.569 101.719 113.899 102.377 113.569 103.2C113.24 104.188 112.088 104.846 110.442 105.34C110.113 105.504 109.455 105.504 108.796 105.504Z" fill="#130514"/>
<path d="M173.645 201.627C173.645 201.627 174.633 206.071 177.266 206.235C179.9 206.4 181.052 201.627 181.052 201.627C181.052 201.627 182.04 200.968 183.686 202.285C181.217 208.046 184.015 211.832 184.015 211.832L185.002 226.316H170.354L170.683 211.832C170.683 211.832 173.316 210.186 171.341 202.45C172.493 201.627 173.645 201.627 173.645 201.627Z" fill="#BBBBBB"/>
<path d="M212.819 203.437H222.037L223.353 208.869L225.658 227.632L221.378 227.962L217.593 212.325L215.288 227.962L210.68 227.139L211.667 209.198L212.819 203.437Z" fill="#4060F0"/>
<path d="M161.303 72.5856L170.026 75.2191L172.495 68.7999C172.495 68.7999 177.927 64.6851 178.091 61.887C178.256 59.2535 177.104 58.2659 176.939 57.2784C176.775 56.2908 177.104 53.4927 175.952 53.3281C174.799 53.1635 169.532 58.1013 169.532 58.1013C169.532 58.1013 170.355 51.0238 169.368 50.53C168.38 49.8717 166.076 56.7846 166.076 56.7846C166.076 56.7846 166.076 62.5454 165.582 64.0267C165.418 65.6726 161.303 72.5856 161.303 72.5856Z" fill="#FEB49C"/>
<path d="M273.556 62.3805L275.202 64.0264C273.721 65.5078 273.062 67.4829 273.062 69.458C273.062 71.4331 273.885 73.4082 275.202 74.8896L273.556 76.5355C271.745 74.725 270.758 72.2561 270.758 69.6226C270.758 66.8245 271.745 64.3556 273.556 62.3805Z" fill="#696969"/>
<path d="M267.797 57.2784L269.443 58.7598C266.809 61.5579 265.328 65.3435 265.328 69.2937C265.328 73.244 266.809 77.0296 269.607 79.9923L267.961 81.6382C264.834 78.3464 263.023 73.9024 263.023 69.4584C263.023 64.8497 264.669 60.5703 267.797 57.2784Z" fill="#696969"/>
<path d="M262.035 52.1759L263.681 53.6572C259.731 57.9367 257.591 63.5328 257.591 69.2936C257.591 75.3836 259.896 80.9797 264.011 85.4238L262.365 87.0697C257.756 82.2965 255.287 76.0419 255.287 69.4582C255.287 63.0391 257.756 56.9491 262.035 52.1759Z" fill="#696969"/>
<path d="M202.451 190.105H258.084C259.401 190.105 260.553 191.422 260.553 192.903V267.793C260.553 269.274 259.401 270.591 258.084 270.591H202.451C201.135 270.591 199.982 269.274 199.982 267.793V192.903C199.982 191.422 201.135 190.105 202.451 190.105Z" fill="white"/>
<path d="M258.085 271.085H202.452C200.806 271.085 199.654 269.604 199.654 267.793V192.903C199.654 191.093 200.971 189.611 202.452 189.611H258.085C259.731 189.611 260.883 191.093 260.883 192.903V267.793C260.883 269.604 259.731 271.085 258.085 271.085ZM202.452 190.434C201.3 190.434 200.477 191.586 200.477 192.903V267.793C200.477 269.11 201.3 270.262 202.452 270.262H258.085C259.237 270.262 260.06 269.11 260.06 267.793V192.903C260.06 191.586 259.237 190.434 258.085 190.434H202.452Z" fill="#2C2C2C"/>
<path d="M241.623 260.222C241.623 255.943 245.08 252.486 249.359 252.486C253.638 252.486 257.095 255.943 257.095 260.222C257.095 264.501 253.638 267.958 249.359 267.958C245.08 267.958 241.623 264.501 241.623 260.222Z" fill="#BBBBBB"/>
<path d="M249.36 258.247C249.36 258.247 247.878 255.613 245.739 256.93C241.295 259.893 249.36 265.654 249.36 265.654C249.36 265.654 257.26 259.728 253.145 256.93C251.006 255.449 249.36 258.247 249.36 258.247Z" fill="white"/>
<path d="M222.366 203.602C222.366 203.602 225.657 206.729 230.266 207.058C234.875 207.388 237.179 203.273 237.179 203.273C237.179 203.273 241.788 203.931 244.421 206.235C247.219 208.375 254.461 217.921 254.461 217.921L247.878 224.999L240.965 220.555L243.598 245.244H218.58L219.074 220.555L215.123 225.493L205.906 221.707C205.906 221.707 210.679 211.338 212.984 208.704C215.453 206.235 222.366 203.602 222.366 203.602Z" fill="#FCCA19"/>
<path d="M48.5558 237.014C48.3912 237.014 48.2266 236.85 48.2266 236.521C48.2266 235.862 48.7204 218.415 57.1146 217.428C58.596 217.263 60.0773 217.757 61.2295 218.745C66.0027 222.859 66.3319 235.368 66.4965 235.862C66.4965 236.027 66.3319 236.356 66.1673 236.356C66.0027 236.356 65.8381 236.191 65.6735 236.027C65.6735 235.862 65.3443 223.353 60.7357 219.403C59.7482 218.58 58.5959 218.086 57.2792 218.251C49.7079 219.074 49.2142 236.356 49.2142 236.521C49.0496 236.685 48.7204 237.014 48.5558 237.014Z" fill="#2C2C2C"/>
<path d="M42.6287 229.608L41.4766 295.281L86.4105 289.52L85.0938 229.937L42.6287 229.608Z" fill="#FCCA19"/>
<path d="M34.5655 229.608H39.0095L37.5281 288.038L32.4258 289.684L34.5655 229.608Z" fill="#FCCA19"/>
<path d="M38.6805 229.772H42.7953L41.6432 294.787L37.1992 287.874L38.6805 229.772Z" fill="#C88E06"/>
<path d="M32.4258 289.849L37.6928 287.874L41.8076 294.787L32.4258 289.849Z" fill="#FFD970"/>
<path d="M55.798 235.698C55.6334 235.698 55.4688 235.533 55.4688 235.204C55.4688 234.545 55.9626 217.099 64.3568 216.111C65.8382 215.946 67.3195 216.44 68.4717 217.428C73.2449 221.543 73.574 234.052 73.7386 234.545C73.7386 234.71 73.5741 235.039 73.4095 235.039C73.2449 235.039 73.0802 234.875 72.9156 234.71C72.9156 234.545 72.5864 222.036 67.9778 218.086C66.9902 217.263 65.8381 216.769 64.5214 216.934C56.9501 217.757 56.4563 235.039 56.4563 235.204C56.1271 235.533 55.9626 235.698 55.798 235.698Z" fill="#2C2C2C"/>
<path d="M35.2207 72.5855C35.2207 61.8869 43.9441 53.1635 54.6427 53.1635C65.3413 53.1635 74.0647 61.8869 74.0647 72.5855C74.0647 83.284 65.3413 92.0075 54.6427 92.0075C43.9441 91.8429 35.2207 83.284 35.2207 72.5855Z" fill="white"/>
<path d="M54.8083 92.3369C43.7806 92.3369 34.8926 83.4488 34.8926 72.5857C34.8926 61.7225 43.7806 52.8345 54.8083 52.8345C65.8361 52.8345 74.7242 61.7225 74.7242 72.5857C74.5596 83.4488 65.6715 92.3369 54.8083 92.3369ZM54.8083 53.4928C44.2744 53.4928 35.7155 62.0517 35.7155 72.4211C35.7155 82.955 44.2744 91.3493 54.8083 91.3493C65.3423 91.3493 73.9012 82.7905 73.9012 72.4211C73.7366 62.0517 65.3423 53.4928 54.8083 53.4928Z" fill="#2C2C2C"/>
<path d="M54.809 83.6133C54.6444 83.6133 54.4799 83.6133 54.4799 83.4487C54.1507 83.1195 47.4023 73.7377 47.4023 69.7875C47.4023 65.6726 50.6942 62.2162 54.6445 62.2162C58.5947 62.2162 61.8866 65.6726 61.8866 69.7875C61.8866 73.9023 55.3029 83.1195 54.9737 83.4487C55.1383 83.6133 54.9736 83.6133 54.809 83.6133ZM54.809 63.0392C51.188 63.0392 48.39 66.0018 48.39 69.7875C48.39 73.0793 53.4924 80.6506 54.9737 82.6258C56.2904 80.6506 61.3928 73.0793 61.3928 69.7875C61.2282 66.0018 58.2655 63.0392 54.809 63.0392Z" fill="#2C2C2C"/>
<path d="M54.8092 73.5731C52.3403 73.5731 50.3652 71.598 50.3652 69.2937C50.3652 66.9894 52.3403 65.0143 54.8092 65.0143C57.2781 65.0143 59.2532 66.9894 59.2532 69.2937C59.2532 71.598 57.2781 73.5731 54.8092 73.5731ZM54.8092 65.8372C52.8341 65.8372 51.1882 67.3186 51.1882 69.2937C51.1882 71.2688 52.8341 72.7502 54.8092 72.7502C56.7843 72.7502 58.4302 71.2688 58.4302 69.2937C58.4302 67.4832 56.7843 65.8372 54.8092 65.8372Z" fill="#2C2C2C"/>
<path d="M140.563 25.0183C144.29 25.0183 147.311 21.9969 147.311 18.2699C147.311 14.5429 144.29 11.5216 140.563 11.5216C136.836 11.5216 133.814 14.5429 133.814 18.2699C133.814 21.9969 136.836 25.0183 140.563 25.0183Z" fill="#FCCA19"/>
<path d="M243.927 23.0431C243.927 25.512 241.952 27.4872 239.483 27.4872C237.014 27.4872 235.039 25.512 235.039 23.0431C235.039 20.5742 237.014 18.5991 239.483 18.5991C241.952 18.5991 243.927 20.5742 243.927 23.0431Z" fill="#FCCA19"/>
<path d="M302.523 277.01C302.523 274.212 304.828 271.908 307.626 271.908C310.424 271.908 312.728 274.212 312.728 277.01C312.728 279.809 310.424 282.113 307.626 282.113C304.663 281.948 302.523 279.809 302.523 277.01Z" fill="#FCCA19"/>
<path d="M294.293 25.0182C294.293 26.335 293.141 27.4871 291.824 27.4871C290.508 27.4871 289.355 26.335 289.355 25.0182C289.355 23.7015 290.508 22.5493 291.824 22.5493C293.306 22.5493 294.293 23.7015 294.293 25.0182Z" fill="#DFDFDF"/>
<path d="M35.5518 211.173C30.4494 211.173 26.1699 207.058 26.1699 201.791C26.1699 196.689 30.2848 192.41 35.5518 192.41C40.6542 192.41 44.9335 196.524 44.9335 201.791C44.9335 207.058 40.6542 211.173 35.5518 211.173ZM35.5518 194.22C31.2723 194.22 27.8159 197.677 27.8159 201.956C27.8159 206.236 31.2723 209.692 35.5518 209.692C39.8312 209.692 43.2876 206.236 43.2876 201.956C43.2876 197.677 39.8312 194.22 35.5518 194.22Z" fill="#2C2C2C"/>
<path d="M387.618 122.293C382.516 122.293 378.236 118.178 378.236 112.911C378.236 107.809 382.351 103.529 387.618 103.529C392.721 103.529 397 107.644 397 112.911C397 118.178 392.721 122.293 387.618 122.293ZM387.618 105.34C383.339 105.34 379.882 108.796 379.882 113.076C379.882 117.355 383.339 120.811 387.618 120.811C391.898 120.811 395.354 117.355 395.354 113.076C395.354 108.796 391.898 105.34 387.618 105.34Z" fill="#2C2C2C"/>
<path d="M171.67 13.1675C168.049 13.1675 165.086 10.2048 165.086 6.58373C165.086 2.96268 168.049 0 171.67 0C175.291 0 178.253 2.96268 178.253 6.58373C178.253 10.2048 175.291 13.1675 171.67 13.1675ZM171.67 1.64593C168.872 1.64593 166.732 3.78565 166.732 6.58373C166.732 9.38182 168.872 11.5215 171.67 11.5215C174.303 11.5215 176.607 9.38182 176.607 6.58373C176.607 3.78565 174.303 1.64593 171.67 1.64593Z" fill="#2C2C2C"/>
<path d="M376.094 104.352L375.107 103.694L375.436 103.2C375.436 103.2 375.93 102.542 376.753 101.39L377.082 100.896L378.07 101.554L377.74 102.048C376.917 103.365 376.259 104.023 376.259 104.023L376.094 104.352ZM380.045 98.4269L379.057 97.7685L379.386 97.2747C379.715 96.6164 380.209 95.958 380.538 95.2996L380.868 94.8058L381.855 95.4642L381.526 95.958C381.197 96.6164 380.703 97.2747 380.374 97.9331L380.045 98.4269ZM383.501 92.3369L382.514 91.8432L382.843 91.3494C383.172 90.691 383.501 90.0326 383.83 89.2097L383.995 88.7159L384.983 89.2097L384.818 89.7035C384.489 90.3618 384.16 91.1848 383.83 91.8432L383.501 92.3369ZM386.464 85.9178L385.312 85.424L385.476 84.9302C385.805 84.2719 385.97 83.4489 386.299 82.7905L386.464 82.2968L387.616 82.6259L387.451 83.1197C387.122 83.9427 386.958 84.6011 386.628 85.2594L386.464 85.9178ZM388.768 79.1695L387.616 78.8403L387.781 78.3465C387.945 77.6881 388.11 76.8652 388.274 76.0422L388.439 75.5484L389.591 75.8776L389.427 76.3714C389.262 77.1944 389.097 77.8527 388.768 78.6757V79.1695ZM390.25 72.2566L389.097 72.092L389.262 71.4336C389.426 70.6106 389.427 69.9523 389.591 69.1293V68.4709L390.743 68.6355V69.2939C390.579 70.1168 390.579 70.9398 390.414 71.5982L390.25 72.2566ZM390.908 65.1791H389.756V63.6977C389.756 63.2039 389.756 62.7102 389.756 62.2164V61.558H390.908V62.2164C390.908 62.7102 390.908 63.2039 390.908 63.6977C390.908 64.0269 390.908 65.1791 390.908 65.1791ZM389.427 58.2661V57.6078C389.262 56.7848 389.262 56.1264 389.097 55.3035L388.933 54.8097L390.085 54.6451L390.25 55.1389C390.414 55.9618 390.579 56.6202 390.579 57.4432V58.1015L389.427 58.2661ZM388.11 51.5178L387.945 51.024C387.781 50.3657 387.451 49.5427 387.287 48.8843L387.122 48.3905L388.274 48.0613L388.439 48.5551C388.768 49.3781 388.933 50.0365 389.097 50.8594L389.262 51.3532L388.11 51.5178ZM385.641 45.0987L385.312 44.6049C384.983 43.9465 384.653 43.2881 384.324 42.6298L383.995 42.136L384.983 41.6422L385.312 42.136C385.641 42.7944 386.135 43.6173 386.464 44.2757L386.793 44.7695L385.641 45.0987ZM382.349 39.0087L382.02 38.5149C381.526 37.8566 381.197 37.1982 380.703 36.7044L380.374 36.2106L381.361 35.5523L381.691 36.046C382.184 36.7044 382.678 37.3628 383.007 38.0212L383.337 38.5149L382.349 39.0087ZM378.07 33.5771L377.74 33.0834C377.247 32.5896 376.753 31.9312 376.094 31.4374L375.765 30.9436L376.588 30.1207L376.917 30.6145C377.411 31.1082 378.07 31.7666 378.563 32.2604L378.893 32.7542L378.07 33.5771ZM373.296 28.6393L372.803 28.3102C372.309 27.8164 371.65 27.3226 370.992 26.8288L370.498 26.4996L371.321 25.6767L371.815 26.0058C372.473 26.4996 372.967 26.9934 373.626 27.4872L373.955 27.8164L373.296 28.6393ZM311.574 25.1829L311.08 24.1953L311.574 23.8661C312.232 23.5369 312.891 23.2078 313.714 22.8786L314.207 22.714L314.701 23.7015L314.207 23.8661C313.384 24.1953 312.726 24.5245 312.068 24.8537L311.574 25.1829ZM367.865 24.3599L367.371 24.0307C366.713 23.5369 366.054 23.2078 365.396 22.8786L364.902 22.5494L365.561 21.5618L366.054 21.891C366.713 22.2202 367.371 22.714 368.029 23.2078L368.523 23.5369L367.865 24.3599ZM317.993 22.3848L317.499 21.2326L317.993 21.068C318.651 20.7389 319.474 20.5743 320.133 20.2451L320.626 20.0805L321.285 21.2326C321.285 21.2326 319.31 21.891 318.487 22.2202L317.993 22.3848ZM361.775 20.9035L361.281 20.7389C360.623 20.4097 359.8 20.0805 359.141 19.9159L358.648 19.7513L358.977 18.5991L359.471 18.7637C360.129 19.0929 360.952 19.2575 361.61 19.5867L362.104 19.7513L361.775 20.9035ZM324.577 20.0805L324.248 18.9283L324.741 18.7637C325.4 18.5991 326.223 18.27 327.046 18.1054L327.539 17.9408L327.869 19.0929L327.375 19.2575C326.552 19.4221 325.893 19.5867 325.071 19.9159L324.577 20.0805ZM355.356 18.7637L354.862 18.5991C354.039 18.4346 353.381 18.27 352.558 18.1054L352.064 17.9408L352.228 16.7886L352.722 16.9532C353.545 17.1178 354.204 17.2824 355.027 17.447L355.52 17.6116L355.356 18.7637ZM331.325 18.4346L331.16 17.2824L331.654 17.1178C332.477 16.9532 333.136 16.7886 333.959 16.7886L334.617 16.624L334.782 17.7762L334.288 17.9408C333.465 18.1054 332.806 18.27 331.983 18.27L331.325 18.4346ZM348.607 17.447H347.949C347.126 17.447 346.468 17.2824 345.645 17.2824H344.986V16.1302H345.645C346.468 16.1302 347.291 16.2948 347.949 16.2948H348.607V17.447ZM338.238 17.447L338.073 16.2948H338.732C339.555 16.2948 340.378 16.1302 341.036 16.1302H341.694V17.2824H341.036C340.213 17.2824 339.555 17.2824 338.732 17.447H338.238Z" fill="#2C2C2C"/>
<path d="M43.6177 52.5051V51.8468C43.6177 51.8468 43.4531 51.1884 43.4531 50.0362C43.4531 49.8717 43.4531 48.8841 43.4531 48.8841H44.6053C44.6053 48.8841 44.6053 49.8717 44.6053 50.0362C44.6053 51.0238 44.6053 51.6822 44.6053 51.6822V52.3406L43.6177 52.5051ZM44.9344 45.5922L43.7823 45.4276L43.9469 44.9339C44.1115 44.2755 44.2761 43.4525 44.4406 42.6295L44.6053 42.1358L45.7574 42.465L45.5928 42.9587C45.4282 43.7817 45.2637 44.4401 45.0991 45.263L44.9344 45.5922ZM46.9095 39.0085L45.922 38.5147L46.0866 38.0209C46.4158 37.3626 46.745 36.5396 47.0742 35.8812L47.4033 35.3874L48.3909 35.8812L48.0617 36.375C47.7325 37.0334 47.4034 37.6918 47.0742 38.3501L46.9095 39.0085ZM50.3661 33.0831L49.3784 32.4248L49.7077 31.931C50.2014 31.2726 50.6953 30.7788 51.189 30.1205L51.5181 29.6267L52.3411 30.4496L52.012 30.9434C51.5182 31.6018 51.0244 32.0956 50.5306 32.7539L50.3661 33.0831ZM54.9747 27.9807L54.1517 27.1578L54.6455 26.8286C55.3038 26.3348 55.7976 25.841 56.4559 25.3473L56.9498 25.0181L57.6081 26.0056L57.1144 26.3348C56.456 26.8286 55.9622 27.3224 55.3039 27.8161L54.9747 27.9807ZM95.9583 25.841L95.4646 25.5118C95.4646 25.5118 94.8062 25.0181 93.6541 24.1951L93.1603 23.8659L93.8186 22.8784L94.3124 23.2075C95.6291 24.0305 96.2875 24.5243 96.2875 24.5243L96.7813 24.8535L95.9583 25.841ZM60.5708 23.8659L59.9125 22.8784C59.9125 22.8784 61.0645 22.22 61.3937 22.0554C61.7229 21.8908 62.2167 21.5616 62.5459 21.397L63.0397 21.0678L63.5335 22.0554L63.0397 22.3846C62.7105 22.5492 62.2168 22.7138 61.8876 23.0429C61.5584 23.2075 60.5708 23.8659 60.5708 23.8659ZM90.033 22.3846L89.5393 22.22C88.8809 21.8908 88.2225 21.5616 87.3996 21.397L86.9057 21.2324L87.2349 20.0803L87.7287 20.2449C88.5516 20.574 89.2101 20.9032 89.8685 21.0678L90.3622 21.2324L90.033 22.3846ZM66.6607 20.9032L66.3315 19.7511L66.8254 19.5865C67.6484 19.2573 68.3067 19.0927 69.1296 18.9281L69.6234 18.7635L69.9526 19.9157L69.4588 20.0803C68.8005 20.2449 67.9775 20.4095 67.3192 20.7386L66.6607 20.9032ZM83.6138 20.0803L83.1201 19.9157C82.4617 19.7511 81.6388 19.5865 80.8158 19.4219L80.322 19.2573L80.4866 18.1051L81.1449 18.2697C81.9679 18.4343 82.7909 18.5989 83.4493 18.7635L83.943 18.9281L83.6138 20.0803ZM73.4091 19.2573L73.2445 18.1051H73.9029C74.7259 18.1051 75.5488 17.9406 76.2071 17.9406H76.8655V19.0927H76.2071C75.3842 19.0927 74.7259 19.0927 73.9029 19.2573H73.4091Z" fill="#2C2C2C"/>
</svg>
