<svg width="105" height="82" viewBox="0 0 105 82" fill="none" xmlns="http://www.w3.org/2000/svg">
<path fill-rule="evenodd" clip-rule="evenodd" d="M98.6714 40.94C97.882 43.5062 96.2904 45.7515 94.1305 47.3463C91.9706 48.941 89.3562 49.801 86.6714 49.8H18.5614C16.741 49.7947 14.9966 49.0692 13.7094 47.782C12.4222 46.4948 11.6967 44.7504 11.6914 42.93V15.76C11.6948 13.7417 12.1868 11.7543 13.1255 9.96756C14.0641 8.18084 15.4214 6.64799 17.0814 5.5H88.9214C91.5031 5.5079 93.977 6.53629 95.8034 8.3609C97.6299 10.1855 98.6609 12.6583 98.6714 15.24V40.94Z" fill="#FCCA19"/>
<path d="M20.72 67.56C20.6388 67.9178 20.4868 68.2557 20.273 68.5538C20.0591 68.8519 19.7878 69.1043 19.475 69.2959C19.1622 69.4876 18.8142 69.6147 18.4515 69.6699C18.0888 69.725 17.7187 69.707 17.363 69.6169C17.0074 69.5268 16.6734 69.3665 16.3806 69.1454C16.0879 68.9242 15.8424 68.6468 15.6585 68.3293C15.4747 68.0118 15.3562 67.6608 15.3101 67.2968C15.264 66.9328 15.2911 66.5633 15.39 66.21L16.57 61.6H9.57C7.02974 61.579 4.60023 60.5571 2.80862 58.7561C1.01701 56.9551 0.00781027 54.5203 0 51.98L0 15.24C0.0105586 11.2013 1.61959 7.33111 4.47536 4.47534C7.33112 1.61957 11.2013 0.0105586 15.24 0H88.92C92.9604 0.00791889 96.8332 1.61578 99.6911 4.47183C102.549 7.32789 104.159 11.1996 104.17 15.24V46.37C104.157 50.4105 102.546 54.2817 99.6888 57.1388C96.8317 59.9959 92.9605 61.6068 88.92 61.62H46.79C43.9429 67.2111 39.7675 72.0183 34.63 75.62C29.8921 78.7637 24.4365 80.6591 18.77 81.13C18.046 81.1976 17.3247 80.9749 16.7649 80.5107C16.2051 80.0466 15.8526 79.379 15.785 78.655C15.7174 77.931 15.9401 77.2097 16.4043 76.6499C16.8684 76.0901 17.536 75.7376 18.26 75.67C23.0123 75.2849 27.5888 73.6986 31.56 71.06C35.7 68.27 39.48 64 42.61 57.75C42.8298 57.2683 43.183 56.8597 43.6279 56.5726C44.0727 56.2855 44.5905 56.1319 45.12 56.13H88.92C91.5051 56.1221 93.982 55.0909 95.8091 53.262C97.6361 51.4331 98.6647 48.9552 98.67 46.37V15.24C98.6595 12.6583 97.6285 10.1855 95.802 8.3609C93.9756 6.53629 91.5017 5.5079 88.92 5.5H15.24C12.6584 5.50528 10.1841 6.53315 8.35862 8.35861C6.53316 10.1841 5.50528 12.6584 5.5 15.24V51.98C5.50264 53.0719 5.93756 54.1183 6.70964 54.8904C7.48171 55.6624 8.52812 56.0974 9.62 56.1H20.1C20.3296 56.1011 20.5581 56.1313 20.78 56.19C21.1322 56.2752 21.4639 56.4297 21.7557 56.6445C22.0476 56.8593 22.2938 57.13 22.4799 57.4409C22.6661 57.7517 22.7885 58.0966 22.84 58.4553C22.8915 58.8139 22.8711 59.1793 22.78 59.53L20.72 67.56Z" fill="#2C2C2C"/>
<path fill-rule="evenodd" clip-rule="evenodd" d="M73.7596 24.1802C74.7485 24.1802 75.7152 24.4734 76.5375 25.0228C77.3597 25.5722 78.0006 26.3531 78.379 27.2668C78.7574 28.1804 78.8565 29.1857 78.6635 30.1556C78.4706 31.1255 77.9944 32.0164 77.2951 32.7157C76.5959 33.415 75.705 33.8912 74.7351 34.0841C73.7652 34.277 72.7598 34.178 71.8462 33.7996C70.9326 33.4212 70.1517 32.7803 69.6023 31.958C69.0529 31.1358 68.7596 30.1691 68.7596 29.1802C68.7596 27.8541 69.2864 26.5823 70.2241 25.6447C71.1618 24.707 72.4335 24.1802 73.7596 24.1802ZM52.6796 24.1802C53.6685 24.1802 54.6352 24.4734 55.4575 25.0228C56.2797 25.5722 56.9206 26.3531 57.299 27.2668C57.6774 28.1804 57.7765 29.1857 57.5835 30.1556C57.3906 31.1255 56.9144 32.0164 56.2151 32.7157C55.5159 33.415 54.625 33.8912 53.6551 34.0841C52.6852 34.277 51.6798 34.178 50.7662 33.7996C49.8526 33.4212 49.0717 32.7803 48.5223 31.958C47.9729 31.1358 47.6796 30.1691 47.6796 29.1802C47.6796 27.8541 48.2064 26.5823 49.1441 25.6447C50.0818 24.707 51.3535 24.1802 52.6796 24.1802ZM31.5996 24.1802C32.5885 24.1802 33.5552 24.4734 34.3775 25.0228C35.1997 25.5722 35.8406 26.3531 36.219 27.2668C36.5974 28.1804 36.6965 29.1857 36.5035 30.1556C36.3106 31.1255 35.8344 32.0164 35.1351 32.7157C34.4359 33.415 33.545 33.8912 32.5751 34.0841C31.6052 34.277 30.5998 34.178 29.6862 33.7996C28.7726 33.4212 27.9917 32.7803 27.4423 31.958C26.8929 31.1358 26.5996 30.1691 26.5996 29.1802C26.5996 27.8541 27.1264 26.5823 28.0641 25.6447C29.0018 24.707 30.2735 24.1802 31.5996 24.1802Z" fill="white"/>
</svg>
