<svg width="91" height="78" viewBox="0 0 91 78" fill="none" xmlns="http://www.w3.org/2000/svg">
<path d="M80.228 75.52V75.59V75.67V75.73V75.8V75.87V76V76.07V76.13V76.2V76.27V76.33V76.39V76.45V76.51V76.57V76.63V76.69V76.75V76.81V76.87V76.93V76.98V77.03V77.08L80.178 77.13L80.128 77.18H80.078H80.028L79.978 77.23C79.5031 77.5807 78.9283 77.7701 78.338 77.77H12.708C12.2244 77.7723 11.749 77.6456 11.3306 77.4031C10.9123 77.1605 10.5662 76.8108 10.328 76.39V76.33V76.27V76.21V76.15V76.09V76.03V75.97V75.91V75.85V75.78V75.71V75.65V76V75.93V75.79V75.66V75.58V75.51V64.74C10.328 64.0107 10.6177 63.3112 11.1334 62.7955C11.6492 62.2798 12.3486 61.99 13.078 61.99C13.8073 61.99 14.5068 62.2798 15.0225 62.7955C15.5382 63.3112 15.828 64.0107 15.828 64.74V72.74H31.498V51C31.498 50.2707 31.7877 49.5712 32.3034 49.0555C32.8191 48.5398 33.5186 48.25 34.248 48.25C34.9773 48.25 35.6768 48.5398 36.1925 49.0555C36.7082 49.5712 36.998 50.2707 36.998 51V72.75H53.408V59.6C53.408 58.8706 53.6977 58.1712 54.2134 57.6555C54.7291 57.1397 55.4286 56.85 56.158 56.85C56.8873 56.85 57.5868 57.1397 58.1025 57.6555C58.6182 58.1712 58.908 58.8706 58.908 59.6V72.78H74.738V39.54C74.7154 39.1656 74.7696 38.7905 74.8973 38.4378C75.025 38.0851 75.2236 37.7623 75.4807 37.4892C75.7378 37.2161 76.0481 36.9985 76.3924 36.8497C76.7367 36.701 77.1079 36.6243 77.483 36.6243C77.8581 36.6243 78.2292 36.701 78.5735 36.8497C78.9179 36.9985 79.2282 37.2161 79.4853 37.4892C79.7424 37.7623 79.9409 38.0851 80.0686 38.4378C80.1963 38.7905 80.2506 39.1656 80.228 39.54V75.52ZM85.598 16.27C85.8521 16.0146 86.154 15.8117 86.4865 15.673C86.819 15.5342 87.1756 15.4624 87.5359 15.4614C87.8962 15.4605 88.2531 15.5305 88.5863 15.6676C88.9196 15.8046 89.2226 16.0059 89.478 16.26C89.7334 16.5141 89.9363 16.8161 90.075 17.1486C90.2137 17.4811 90.2856 17.8377 90.2865 18.1979C90.2875 18.5582 90.2174 18.9152 90.0804 19.2484C89.9434 19.5816 89.7421 19.8846 89.488 20.14L57.708 52.05C57.3046 52.4535 56.7861 52.7222 56.2238 52.8189C55.6615 52.9156 55.083 52.8356 54.568 52.59L34.128 42.67L4.22798 63.46C3.6293 63.8416 2.90624 63.9768 2.21013 63.8374C1.51401 63.698 0.898776 63.2949 0.493133 62.7122C0.08749 62.1296 -0.077118 61.4127 0.033752 60.7115C0.144622 60.0103 0.522365 59.3791 1.08797 58.95L32.308 37.24C32.7084 36.9641 33.1748 36.7994 33.6596 36.7625C34.1445 36.7256 34.6304 36.8179 35.068 37.03L55.198 46.8L85.598 16.27Z" fill="#2C2C2C"/>
<path fill-rule="evenodd" clip-rule="evenodd" d="M12.707 39.19V13.79C12.7149 10.8582 13.8824 8.04864 15.9546 5.97461C18.0267 3.90058 20.8353 2.73053 23.767 2.71997H66.4171C75.9071 2.71997 77.117 7.81001 78.997 11.26L53.8271 34.78L32.8271 25.38L12.707 39.19Z" fill="#FCCA19"/>
<path d="M15.457 13.79V34L31.237 23.14C31.6239 22.8737 32.0728 22.7117 32.5406 22.6697C33.0083 22.6276 33.4789 22.707 33.907 22.9L53.277 31.56L75.627 10.68C74.377 8.20999 72.6271 5.48999 66.4171 5.48999H23.767C21.5646 5.50053 19.4555 6.38078 17.8991 7.93909C16.3427 9.4974 15.4649 11.6076 15.457 13.81V13.79ZM9.95703 39.21V13.81C9.96496 10.1498 11.4225 6.64175 14.0107 4.05359C16.5988 1.46543 20.1068 0.00792541 23.767 0H66.4171C76.4771 0 78.8271 4.77002 80.7971 8.77002C81.0271 9.23002 81.247 9.67997 81.407 9.96997C81.6955 10.5055 81.7989 11.1214 81.7012 11.7217C81.6036 12.3221 81.3103 12.8734 80.867 13.29L55.6971 36.81C55.284 37.1929 54.7637 37.4403 54.206 37.519C53.6483 37.5976 53.0799 37.5038 52.5771 37.25L33.0771 28.53L14.267 41.47C13.8546 41.7514 13.3734 41.9152 12.8749 41.9439C12.3764 41.9726 11.8796 41.865 11.4376 41.6327C10.9957 41.4004 10.6253 41.0522 10.3662 40.6254C10.1071 40.1986 9.96914 39.7093 9.96704 39.21H9.95703Z" fill="#2C2C2C"/>
</svg>
